<?xml version="1.0" encoding="utf-8"?>
<!-- Generator: Adobe Illustrator 26.0.1, SVG Export Plug-In . SVG Version: 6.00 Build 0)  -->
<svg version="1.1" id="Calque_1" xmlns="http://www.w3.org/2000/svg" xmlns:xlink="http://www.w3.org/1999/xlink" x="0px" y="0px"
	 viewBox="0 0 87.4 87.4" style="enable-background:new 0 0 87.4 87.4;" xml:space="preserve">
<style type="text/css">
	.st0{fill:#F03436;}
	.st1{display:none;}
</style>
<g id="Calque_1_00000137832641455118188300000005693598588586361767_">
	<g>
		<g>
			<path class="st0" d="M17.4,44.6c-4.3,0-7.8-3.5-7.8-7.8c0-4.3,3.5-7.8,7.8-7.8c4.4,0,7.8,3.3,7.8,7.8
				C25.2,41.1,21.7,44.6,17.4,44.6z M17.4,32c-2.6,0-4.8,2.1-4.8,4.8c0,2.6,2.1,4.8,4.8,4.8c2.6,0,4.8-2.1,4.8-4.8
				C22.2,34,20.2,32,17.4,32z"/>
		</g>
	</g>
	<g>
		<g>
			<path class="st0" d="M43.8,54.5c-4.8,0-8.6-3.9-8.6-8.6c0-4.8,3.9-8.6,8.6-8.6c4.9,0,8.6,3.7,8.6,8.6
				C52.4,50.6,48.5,54.5,43.8,54.5z M43.8,40.2c-3.1,0-5.6,2.5-5.6,5.6c0,3.1,2.5,5.6,5.6,5.6s5.6-2.5,5.6-5.6
				C49.4,42.6,47.1,40.2,43.8,40.2z"/>
		</g>
	</g>
	<g>
		<path class="st0" d="M57.4,67.5c-2.1-5.5-7.2-8.8-13.7-8.8c-6.5,0-11.6,3.3-13.7,8.8l-2.8-1.1c2.5-6.7,8.7-10.7,16.5-10.7
			c7.8,0,14,4,16.5,10.7L57.4,67.5z"/>
	</g>
	<g>
		<path class="st0" d="M43.8,74.3c-13.4,0-24.3-10.9-24.3-24.3s10.9-24.3,24.3-24.3S68.1,36.6,68.1,50S57.2,74.3,43.8,74.3z
			 M43.8,28.7C32,28.7,22.5,38.3,22.5,50S32,71.3,43.8,71.3S65.1,61.8,65.1,50S55.5,28.7,43.8,28.7z"/>
	</g>
	<g>
		<path class="st0" d="M85.8,63.2H60.9l1.3-2.3c1.9-3.3,3-7,3-10.9c0-0.7,0-1.3-0.1-2L65,46.7l1.3-0.3c1.2-0.2,2.5-0.4,3.7-0.4
			c9.3,0,15.7,6.3,15.8,15.6L85.8,63.2z M66,60.2h16.7C82,53.3,77.1,49,70,49c-0.6,0-1.2,0-1.8,0.1c0,0.3,0,0.6,0,0.9
			C68.2,53.5,67.5,57,66,60.2z"/>
	</g>
	<g>
		<g>
			<path class="st0" d="M70.2,44.6c-4.3,0-7.8-3.5-7.8-7.8c0-4.3,3.5-7.8,7.8-7.8c4.4,0,7.8,3.3,7.8,7.8
				C78,41.1,74.5,44.6,70.2,44.6z M70.2,32c-2.6,0-4.8,2.1-4.8,4.8c0,2.6,2.1,4.8,4.8,4.8s4.8-2.1,4.8-4.8C75,34,73,32,70.2,32z"/>
		</g>
	</g>
	<g>
		<path class="st0" d="M26.8,63.2H1.6l0-1.5C1.7,52.3,8.1,46,17.4,46c1.3,0,2.7,0.2,4,0.4l1.3,0.3l-0.1,1.3c-0.1,0.7-0.1,1.3-0.1,2
			c0,3.8,1,7.6,3,10.9L26.8,63.2z M4.7,60.2h17c-1.5-3.2-2.2-6.6-2.2-10.1c0-0.3,0-0.6,0-0.9c-0.7-0.1-1.4-0.1-2.1-0.1
			C10.2,49,5.4,53.3,4.7,60.2z"/>
	</g>
	<g>
		<path class="st0" d="M70.5,87.1c-0.1,0-0.3,0-0.4,0c-1.4-0.1-2.7-0.8-3.6-1.8L54.1,70.8c-0.5-0.6-0.5-1.6,0.2-2.1
			c0.6-0.5,1.6-0.5,2.1,0.2l12.3,14.4c0.4,0.5,1,0.8,1.6,0.8c0.6,0,1.2-0.1,1.7-0.6c1-0.8,1.1-2.3,0.3-3.3L60,66
			c-0.5-0.6-0.5-1.6,0.2-2.1c0.6-0.5,1.6-0.5,2.1,0.2l12.2,14.3c1.9,2.2,1.7,5.6-0.6,7.5C73,86.7,71.8,87.1,70.5,87.1z"/>
	</g>
</g>
<g id="grille_page_entiere" class="st1">
</g>
<g id="grille">
</g>
</svg>
