<?xml version="1.0" encoding="utf-8"?>
<!-- Generator: Adobe Illustrator 22.0.1, SVG Export Plug-In . SVG Version: 6.00 Build 0)  -->
<svg version="1.1" xmlns="http://www.w3.org/2000/svg" xmlns:xlink="http://www.w3.org/1999/xlink" x="0px" y="0px"
	 viewBox="0 0 87.38281 87.38281" enable-background="new 0 0 87.38281 87.38281" xml:space="preserve">
<g id="Calque_1">
	<g>
		<g>
			<path fill="#E73C4D" d="M17.38232,44.61349c-4.2959,0-7.79004-3.49463-7.79004-7.79004
				c0-4.29443,3.49414-7.78857,7.79004-7.78857c4.44043,0,7.78906,3.34814,7.78906,7.78857
				C25.17139,41.11886,21.67725,44.61349,17.38232,44.61349z M17.38232,32.03487c-2.6416,0-4.79004,2.14795-4.79004,4.78857
				c0,2.64111,2.14844,4.79004,4.79004,4.79004c2.64063,0,4.78906-2.14893,4.78906-4.79004
				C22.17139,34.00411,20.20166,32.03487,17.38232,32.03487z"/>
		</g>
	</g>
	<g>
		<g>
			<path fill="#E73C4D" d="M43.76611,54.50216c-4.75879,0-8.63086-3.87158-8.63086-8.63037
				c0-4.75781,3.87207-8.62891,8.63086-8.62891c4.91992,0,8.62988,3.70947,8.62988,8.62891
				C52.396,50.63058,48.5249,54.50216,43.76611,54.50216z M43.76611,40.24288c-3.10449,0-5.63086,2.5249-5.63086,5.62891
				c0,3.10449,2.52637,5.63037,5.63086,5.63037s5.62988-2.52588,5.62988-5.63037
				C49.396,42.55733,47.08057,40.24288,43.76611,40.24288z"/>
		</g>
	</g>
	<g>
		<path fill="#E73C4D" d="M57.43994,67.5339c-2.05664-5.49805-7.16797-8.78027-13.67383-8.78027
			c-6.50684,0-11.61914,3.28223-13.67578,8.78027l-2.81055-1.05078c2.51367-6.71875,8.67676-10.72949,16.48633-10.72949
			c7.80859,0,13.9707,4.01074,16.48438,10.72949L57.43994,67.5339z"/>
	</g>
	<g>
		<path fill="#E73C4D" d="M43.76514,74.3464c-13.40332,0-24.30859-10.90479-24.30859-24.30908s10.90527-24.30908,24.30859-24.30908
			s24.30859,10.90479,24.30859,24.30908S57.16846,74.3464,43.76514,74.3464z M43.76514,28.72823
			c-11.75,0-21.30859,9.55908-21.30859,21.30908S32.01514,71.3464,43.76514,71.3464s21.30859-9.55908,21.30859-21.30908
			S55.51514,28.72823,43.76514,28.72823z"/>
	</g>
	<g>
		<path fill="#E73C4D" d="M85.81299,63.1711H60.91162l1.34668-2.26611c1.94922-3.28076,2.97949-7.03857,2.97949-10.86768
			c0-0.65137-0.0332-1.33447-0.09863-2.03027l-0.12695-1.3418l1.32129-0.26855c1.22461-0.24902,2.45898-0.37549,3.66797-0.37549
			c9.30957,0,15.6543,6.28027,15.79004,15.62842L85.81299,63.1711z M66.02588,60.1711h16.67676
			c-0.71289-6.82471-5.56055-11.1499-12.70117-11.1499c-0.58789,0-1.18359,0.03613-1.78125,0.10742
			c0.01172,0.30713,0.01758,0.61035,0.01758,0.90869C68.23779,53.54708,67.47803,57.00509,66.02588,60.1711z"/>
	</g>
	<g>
		<g>
			<path fill="#E73C4D" d="M70.18311,44.61349c-4.2959,0-7.79004-3.49463-7.79004-7.79004
				c0-4.29443,3.49414-7.78857,7.79004-7.78857c4.44141,0,7.79004,3.34814,7.79004,7.78857
				C77.97314,41.11886,74.479,44.61349,70.18311,44.61349z M70.18311,32.03487c-2.6416,0-4.79004,2.14795-4.79004,4.78857
				c0,2.64111,2.14844,4.79004,4.79004,4.79004s4.79004-2.14893,4.79004-4.79004
				C74.97314,34.00411,73.00342,32.03487,70.18311,32.03487z"/>
		</g>
	</g>
	<g>
		<path fill="#E73C4D" d="M26.78271,63.1711H1.56982l0.02148-1.52148C1.72705,52.30148,8.07275,46.0212,17.38232,46.0212
			c1.33301,0,2.67871,0.15039,4.00195,0.44678l1.28613,0.28857l-0.12012,1.31201c-0.06348,0.68652-0.09375,1.33057-0.09375,1.96875
			c0,3.8291,1.03027,7.58691,2.97949,10.86768L26.78271,63.1711z M4.68018,60.1711h16.98828
			c-1.45215-3.16602-2.21191-6.62402-2.21191-10.13379c0-0.28857,0.00586-0.57764,0.0166-0.86963
			c-0.69727-0.09766-1.39648-0.14648-2.09082-0.14648C10.24072,49.0212,5.39307,53.3464,4.68018,60.1711z"/>
	</g>
	<g>
		<path fill="#E73C4D" d="M70.52002,87.14767c-0.13867,0-0.27832-0.00537-0.41797-0.01611
			c-1.4209-0.10986-2.71387-0.76611-3.64063-1.84814L54.13037,70.83956c-0.53809-0.63037-0.46289-1.57715,0.16699-2.11475
			c0.63086-0.53857,1.57715-0.46191,2.11426,0.1665L68.7417,83.3337c0.4043,0.47168,0.96973,0.75879,1.59082,0.80664
			c0.61328,0.04932,1.22461-0.14941,1.69824-0.55469c0.97656-0.83691,1.08984-2.31299,0.25293-3.29053L60.04932,65.96651
			c-0.53809-0.62988-0.46387-1.57715,0.16699-2.11475c0.63184-0.53809,1.57715-0.46143,2.11426,0.1665l12.2334,14.32715
			c1.91113,2.23193,1.65137,5.60547-0.58203,7.51855C73.00635,86.69942,71.79053,87.14767,70.52002,87.14767z"/>
	</g>
</g>
<g id="grille_page_entiere" display="none">
</g>
<g id="grille">
</g>
</svg>
