<?xml version="1.0" encoding="utf-8"?>
<!-- Generator: Adobe Illustrator 26.0.1, SVG Export Plug-In . SVG Version: 6.00 Build 0)  -->
<svg version="1.1" id="Calque_1" xmlns="http://www.w3.org/2000/svg" xmlns:xlink="http://www.w3.org/1999/xlink" x="0px" y="0px"
	 viewBox="0 0 87.4 87.4" style="enable-background:new 0 0 87.4 87.4;" xml:space="preserve">
<style type="text/css">
	.st0{display:none;}
	.st1{fill:#F03436;}
</style>
<g id="Calque_1_00000018953240252005572770000000066646706926826888_">
</g>
<g id="grille_page_entiere" class="st0">
</g>
<g id="grille">
	<g>
		<g>
			<path class="st1" d="M31.5,84.7H6.1c-0.8,0-1.5-0.7-1.5-1.5V69.9c0-0.8,0.7-1.5,1.5-1.5h25.4c0.8,0,1.5,0.7,1.5,1.5v13.3
				C33,84,32.3,84.7,31.5,84.7z M7.6,81.7H30V71.4H7.6C7.6,71.4,7.6,81.7,7.6,81.7z"/>
		</g>
	</g>
	<g>
		<g>
			<path class="st1" d="M56.9,84.7H31.5c-0.8,0-1.5-0.7-1.5-1.5V60.5c0-0.8,0.7-1.5,1.5-1.5h25.4c0.8,0,1.5,0.7,1.5,1.5v22.7
				C58.4,84,57.7,84.7,56.9,84.7z M33,81.7h22.4V62H33V81.7z"/>
		</g>
	</g>
	<g>
		<g>
			<path class="st1" d="M82.2,84.7H56.9c-0.8,0-1.5-0.7-1.5-1.5V69.9c0-0.8,0.7-1.5,1.5-1.5h25.4c0.8,0,1.5,0.7,1.5,1.5v13.3
				C83.7,84,83.1,84.7,82.2,84.7z M58.4,81.7h22.4V71.4H58.4C58.4,71.4,58.4,81.7,58.4,81.7z"/>
		</g>
	</g>
	<g>
		<g>
			<path class="st1" d="M46.5,36v5.2h5.2v4.6h-5.2V51h-4.6v-5.2h-5.2v-4.6h5.2V36H46.5 M46.5,33h-4.6c-1.7,0-3,1.3-3,3v2.2h-2.2
				c-1.7,0-3,1.3-3,3v4.6c0,1.7,1.3,3,3,3h2.2V51c0,1.7,1.3,3,3,3h4.6c1.7,0,3-1.3,3-3v-2.2h2.2c1.7,0,3-1.3,3-3v-4.6
				c0-1.7-1.3-3-3-3h-2.2V36C49.5,34.3,48.1,33,46.5,33L46.5,33z"/>
		</g>
	</g>
	<g>
		<g>
			<g>
				<path class="st1" d="M45.4,77.5h-0.7c-0.6,0-1-0.4-1-1v-5.2l-0.2,0.1c-0.3,0.2-0.7,0.2-1,0c-0.3-0.2-0.5-0.5-0.5-0.9v-0.8
					c0-0.3,0.2-0.7,0.5-0.9l1.8-1.1c0.2-0.1,0.3-0.1,0.5-0.1h0.7c0.6,0,1,0.4,1,1v7.8C46.4,77.1,46,77.5,45.4,77.5z"/>
			</g>
		</g>
	</g>
</g>
</svg>
