<?xml version="1.0" encoding="utf-8"?>
<!-- Generator: Adobe Illustrator 22.0.1, SVG Export Plug-In . SVG Version: 6.00 Build 0)  -->
<svg version="1.1" xmlns="http://www.w3.org/2000/svg" xmlns:xlink="http://www.w3.org/1999/xlink" x="0px" y="0px"
	 viewBox="0 0 87.38281 87.38281" enable-background="new 0 0 87.38281 87.38281" xml:space="preserve">
<g id="Calque_1">
</g>
<g id="grille_page_entiere" display="none">
</g>
<g id="grille">
	<g>
		<g>
			<path fill="#E73C4D" d="M31.47982,84.65667h-25.375c-0.82813,0-1.5-0.67139-1.5-1.5V69.872c0-0.82861,0.67188-1.5,1.5-1.5h25.375
				c0.82813,0,1.5,0.67139,1.5,1.5v13.28467C32.97982,83.98528,32.30795,84.65667,31.47982,84.65667z M7.60482,81.65667h22.375
				V71.372h-22.375V81.65667z"/>
		</g>
	</g>
	<g>
		<g>
			<path fill="#E73C4D" d="M56.86166,84.65667h-25.375c-0.82813,0-1.5-0.67139-1.5-1.5V60.497c0-0.82861,0.67188-1.5,1.5-1.5h25.375
				c0.82813,0,1.5,0.67139,1.5,1.5v22.65967C58.36166,83.98528,57.68979,84.65667,56.86166,84.65667z M32.98666,81.65667h22.375
				V61.997h-22.375V81.65667z"/>
		</g>
	</g>
	<g>
		<g>
			<path fill="#E73C4D" d="M82.23666,84.65667h-25.375c-0.82813,0-1.5-0.67139-1.5-1.5V69.872c0-0.82861,0.67188-1.5,1.5-1.5h25.375
				c0.82813,0,1.5,0.67139,1.5,1.5v13.28467C83.73666,83.98528,83.06479,84.65667,82.23666,84.65667z M58.36166,81.65667h22.375
				V71.372h-22.375V81.65667z"/>
		</g>
	</g>
	<g>
		<g>
			<path fill="#E73C4D" d="M46.47889,35.98064v5.21605h5.21606v4.60951h-5.21606v5.21606h-4.6095V45.8062h-5.21606v-4.60951h5.21606
				v-5.21605H46.47889 M46.47889,32.98064h-4.6095c-1.65686,0-3,1.34315-3,3v2.21605h-2.21606c-1.65686,0-3,1.34315-3,3v4.60951
				c0,1.65685,1.34314,3,3,3h2.21606v2.21606c0,1.65685,1.34314,3,3,3h4.6095c1.65686,0,3-1.34315,3-3V48.8062h2.21606
				c1.65686,0,3-1.34315,3-3v-4.60951c0-1.65685-1.34314-3-3-3h-2.21606v-2.21605
				C49.47889,34.3238,48.13575,32.98064,46.47889,32.98064L46.47889,32.98064z"/>
		</g>
	</g>
	<g>
		<g>
			<g>
				<path fill="#E73C4D" d="M45.42221,77.51409h-0.73242c-0.55273,0-1-0.44775-1-1v-5.23877l-0.2334,0.146
					c-0.30859,0.19336-0.69824,0.20264-1.01465,0.02734c-0.31836-0.17627-0.51563-0.51123-0.51563-0.875v-0.82715
					c0-0.34814,0.18066-0.6709,0.47754-0.85303l1.76367-1.08008c0.15723-0.09619,0.33789-0.14697,0.52246-0.14697h0.73242
					c0.55273,0,1,0.44775,1,1v7.84766C46.42221,77.06634,45.97494,77.51409,45.42221,77.51409z"/>
			</g>
		</g>
	</g>
</g>
</svg>
