<?xml version="1.0" encoding="utf-8"?>
<!-- Generator: Adobe Illustrator 22.0.1, SVG Export Plug-In . SVG Version: 6.00 Build 0)  -->
<svg version="1.1" xmlns="http://www.w3.org/2000/svg" xmlns:xlink="http://www.w3.org/1999/xlink" x="0px" y="0px"
	 viewBox="0 0 87.38281 87.38281" enable-background="new 0 0 87.38281 87.38281" xml:space="preserve">
<g id="Calque_1">
</g>
<g id="grille_page_entiere" display="none">
</g>
<g id="grille">
	<g>
		<g>
			<path fill="#E73C4D" d="M57.04535,72.74065H17.2166c-0.83827,0-1.51838-0.67961-1.51838-1.51837V12.58977
				c0-0.83877,0.68011-1.51838,1.51838-1.51838h39.82875c0.83827,0,1.51838,0.67961,1.51838,1.51838v58.63251
				C58.56372,72.06104,57.88362,72.74065,57.04535,72.74065z M18.73498,69.7039h36.79199V14.10814H18.73498V69.7039z"/>
		</g>
	</g>
	<g>
		<g>
			<path fill="#E73C4D" d="M69.52748,83.99751H29.69873c-0.83827,0-1.51838-0.67962-1.51838-1.51838v-9.71178
				c0-0.83877,0.68011-1.51838,1.51838-1.51838c0.83827,0,1.51838,0.67961,1.51838,1.51838v8.19341H68.0091V25.365h-9.87737
				c-0.83827,0-1.51838-0.67961-1.51838-1.51838c0-0.83877,0.68011-1.51838,1.51838-1.51838h11.39574
				c0.83827,0,1.51838,0.67961,1.51838,1.51838v58.63251C71.04586,83.31789,70.36575,83.99751,69.52748,83.99751z"/>
		</g>
	</g>
	<g>
		<g>
			<path fill="#E73C4D" d="M39.67042,32.74974v6.35019h6.35005v5.61176h-6.35005v6.35019h-5.61187v-6.35019h-6.3503v-5.61176h6.3503
				v-6.35019H39.67042 M39.67042,29.71299h-5.61187c-1.67704,0-3.03676,1.35961-3.03676,3.03676v3.31343h-3.31354
				c-1.67704,0-3.03676,1.3596-3.03676,3.03675v5.61176c0,1.67715,1.35972,3.03676,3.03676,3.03676h3.31354v3.31343
				c0,1.67714,1.35972,3.03675,3.03676,3.03675h5.61187c1.67704,0,3.03676-1.35961,3.03676-3.03675v-3.31343h3.31329
				c1.67704,0,3.03675-1.35961,3.03675-3.03676v-5.61176c0-1.67716-1.35972-3.03675-3.03675-3.03675h-3.31329v-3.31343
				C42.70718,31.0726,41.34745,29.71299,39.67042,29.71299L39.67042,29.71299z"/>
		</g>
	</g>
</g>
</svg>
