<?xml version="1.0" encoding="utf-8"?>
<!-- Generator: Adobe Illustrator 26.0.1, SVG Export Plug-In . SVG Version: 6.00 Build 0)  -->
<svg version="1.1" id="Calque_1" xmlns="http://www.w3.org/2000/svg" xmlns:xlink="http://www.w3.org/1999/xlink" x="0px" y="0px"
	 viewBox="0 0 87.4 87.4" style="enable-background:new 0 0 87.4 87.4;" xml:space="preserve">
<style type="text/css">
	.st0{display:none;}
	.st1{fill:#F03436;}
</style>
<g id="Calque_1_00000008848735992952007520000006139294435338556073_">
</g>
<g id="grille_page_entiere" class="st0">
</g>
<g id="grille">
	<g>
		<g>
			<path class="st1" d="M57,72.7H17.2c-0.8,0-1.5-0.7-1.5-1.5V12.6c0-0.8,0.7-1.5,1.5-1.5H57c0.8,0,1.5,0.7,1.5,1.5v58.6
				C58.6,72.1,57.9,72.7,57,72.7z M18.7,69.7h36.8V14.1H18.7V69.7z"/>
		</g>
	</g>
	<g>
		<g>
			<path class="st1" d="M69.5,84H29.7c-0.8,0-1.5-0.7-1.5-1.5v-9.7c0-0.8,0.7-1.5,1.5-1.5c0.8,0,1.5,0.7,1.5,1.5V81H68V25.4h-9.9
				c-0.8,0-1.5-0.7-1.5-1.5s0.7-1.5,1.5-1.5h11.4c0.8,0,1.5,0.7,1.5,1.5v58.6C71,83.3,70.4,84,69.5,84z"/>
		</g>
	</g>
	<g>
		<g>
			<path class="st1" d="M39.7,32.7v6.4H46v5.6h-6.4v6.4h-5.6v-6.4h-6.4v-5.6h6.4v-6.4H39.7 M39.7,29.7h-5.6c-1.7,0-3,1.4-3,3v3.3
				h-3.3c-1.7,0-3,1.4-3,3v5.6c0,1.7,1.4,3,3,3H31v3.3c0,1.7,1.4,3,3,3h5.6c1.7,0,3-1.4,3-3v-3.3H46c1.7,0,3-1.4,3-3v-5.6
				c0-1.7-1.4-3-3-3h-3.3v-3.3C42.7,31.1,41.3,29.7,39.7,29.7L39.7,29.7z"/>
		</g>
	</g>
</g>
</svg>
