<?xml version="1.0" encoding="utf-8"?>
<!-- Generator: Adobe Illustrator 22.0.1, SVG Export Plug-In . SVG Version: 6.00 Build 0)  -->
<svg version="1.1" xmlns="http://www.w3.org/2000/svg" xmlns:xlink="http://www.w3.org/1999/xlink" x="0px" y="0px"
	 viewBox="0 0 87.38281 87.38281" enable-background="new 0 0 87.38281 87.38281" xml:space="preserve">
<g id="Calque_1">
	<g>
		<g>
			<g>
				<path fill="#E73C4D" d="M44.41311,54.16191c-0.36523,0-0.73145-0.13281-1.01953-0.39941l-5.69141-5.27002
					c-0.6084-0.5625-0.64453-1.51172-0.08203-2.11963c0.56348-0.60791,1.5127-0.64502,2.11914-0.08154l4.65039,4.30469
					l7.85547-7.60986c0.5957-0.57666,1.54395-0.56201,2.12109,0.03369c0.57617,0.59473,0.56152,1.54443-0.0332,2.12061
					l-8.87598,8.59863C45.16604,54.0208,44.79006,54.16191,44.41311,54.16191z"/>
			</g>
		</g>
		<g>
			<path fill="#E73C4D" d="M44.21487,85.89288c-0.11816,0-0.23633-0.01416-0.35254-0.04199l-0.2041-0.04932
				c-0.49219-0.11914-12.16015-3.10205-22.24902-19.24512c-7.25-11.6001-6.50293-26.9712-5.8457-33.04151
				c0.24609-2.25586,1.78809-4.17871,3.92871-4.89941c2.06152-0.69238,6.18652-2.18848,10.66504-4.42822
				c5.88867-2.94385,9.67285-5.86279,11.40429-7.34082c1.53711-1.3125,3.76855-1.31299,5.30762-0.00049
				c1.72949,1.47705,5.50879,4.39453,11.4043,7.34229c4.46777,2.23535,8.59961,3.73389,10.66504,4.42822
				c2.14063,0.7207,3.68262,2.64307,3.92871,4.89795c0,0.00049,0,0.00049,0,0.00098c0.6582,6.06934,1.40625,21.43848-5.8457,33.042
				C56.93557,82.69268,45.26565,85.68194,44.77346,85.80108l-0.20801,0.05029C44.45022,85.8792,44.33303,85.89288,44.21487,85.89288
				z M44.21584,18.86162c-0.25,0-0.49902,0.08887-0.70703,0.2666c-1.83496,1.56689-5.83594,4.65625-12.00976,7.74268
				c-4.6416,2.3208-8.91602,3.87109-11.05078,4.58838c-1.03613,0.34863-1.7832,1.28271-1.90234,2.37988
				c-0.62402,5.75879-1.3457,20.32178,5.4082,31.12745c8.95801,14.3335,18.8789,17.49902,20.26172,17.88037
				c1.37207-0.37891,11.30176-3.54639,20.26172-17.87939c6.75488-10.8086,6.03223-25.37012,5.40723-31.12891
				c-0.12012-1.09619-0.86719-2.02979-1.90332-2.37842c-2.13867-0.71924-6.41895-2.27197-11.0498-4.58887
				c-6.18066-3.09033-10.17773-6.17822-12.01074-7.74365C44.71389,18.95049,44.46487,18.86162,44.21584,18.86162z"/>
		</g>
		<g>
			<path fill="#E73C4D" d="M44.21487,79.50176c-0.19531,0-0.39063-0.03809-0.5752-0.11475
				c-2.86523-1.18945-10.26563-5.13379-17.08594-16.04493c-5.98242-9.57324-5.53809-22.81055-5.06934-28.05713
				c0.05273-0.58594,0.44238-1.08691,0.99707-1.28174c2.46973-0.86816,6.27734-2.33447,10.38965-4.38965
				c4.77734-2.38916,8.31445-4.80127,10.44043-6.4043c0.53516-0.40332,1.27246-0.40332,1.80566,0
				c2.12891,1.60352,5.66797,4.0166,10.44336,6.40479c4.11914,2.06006,7.92285,3.52344,10.3877,4.38867
				c0.55469,0.19482,0.94434,0.69629,0.99707,1.28223c0.46875,5.24658,0.91309,18.48389-5.06836,28.05713c0,0,0,0-0.00098,0
				c-6.82031,10.91114-14.2207,14.85547-17.08594,16.04493C44.60549,79.46368,44.41018,79.50176,44.21487,79.50176z
				 M24.39553,36.50469c-0.39551,5.45117-0.47363,16.96533,4.70215,25.24756c5.93652,9.49659,12.19531,13.27344,15.11719,14.6128
				c2.92188-1.33936,9.18066-5.11621,15.11816-14.6128h-0.00098c5.17578-8.28223,5.09766-19.79639,4.70215-25.24756
				c-2.52344-0.9165-6.04004-2.31934-9.81543-4.20703c-4.35645-2.17871-7.73535-4.38428-10.00391-6.02588
				c-2.26758,1.64111-5.64453,3.8457-10.00195,6.02539C30.44338,34.18096,26.92288,35.58525,24.39553,36.50469z M60.60452,62.54717
				h0.00977H60.60452z"/>
		</g>
		<g>
			<path fill="#E73C4D" d="M45.55471,70.33575c-0.46094,0-0.91602-0.21191-1.20996-0.61182
				c-0.49023-0.66748-0.34668-1.60645,0.32031-2.09717c3.25195-2.38867,6.22461-5.71973,8.83691-9.90039
				c1.375-2.19873,2.40625-4.88379,3.06641-7.98096c0.17188-0.81152,0.97852-1.32373,1.7793-1.15479
				c0.81055,0.17285,1.32715,0.96973,1.1543,1.77979c-0.73242,3.43994-1.89551,6.4502-3.45605,8.9458
				c-2.81348,4.50391-6.04492,8.11329-9.60352,10.72852C46.17483,70.24102,45.8633,70.33575,45.55471,70.33575z"/>
		</g>
		<g>
			<path fill="#E73C4D" d="M58.53909,47.07988c-0.0752,0-0.15137-0.00537-0.22754-0.01709
				c-0.81934-0.12451-1.38184-0.88965-1.25781-1.7085c0.29688-1.94482,0.35742-2.72656,0.38379-4.91943
				c0.00977-0.82227,0.67969-1.48193,1.5-1.48193c0.00586,0,0.01172,0,0.01855,0c0.82813,0.01025,1.49121,0.68994,1.48145,1.51807
				c-0.02832,2.34229-0.09863,3.23975-0.41699,5.33447C59.90725,46.54815,59.2676,47.07988,58.53909,47.07988z"/>
		</g>
	</g>
</g>
<g id="grille_page_entiere" display="none">
</g>
<g id="grille">
</g>
</svg>
