<svg xmlns="http://www.w3.org/2000/svg" xmlns:xlink="http://www.w3.org/1999/xlink" style="enable-background:new 0 0 87.4 87.4" id="Calque_1" x="0" y="0" version="1.1" viewBox="0 0 87.4 87.4" xml:space="preserve"><style type="text/css">.st0{fill:#f03436}</style><g id="Calque_1_00000101099014792729149290000009814737097780453785_"><g><g><g><path d="M44.4,54.2c-0.4,0-0.7-0.1-1-0.4l-5.7-5.3c-0.6-0.6-0.6-1.5-0.1-2.1c0.6-0.6,1.5-0.6,2.1-0.1l4.7,4.3 l7.9-7.6c0.6-0.6,1.5-0.6,2.1,0c0.6,0.6,0.6,1.5,0,2.1l-8.9,8.6C45.2,54,44.8,54.2,44.4,54.2z" class="st0"/></g></g><g><path d="M44.2,85.9c-0.1,0-0.2,0-0.4,0l-0.2,0c-0.5-0.1-12.2-3.1-22.2-19.2c-7.2-11.6-6.5-27-5.8-33 c0.2-2.3,1.8-4.2,3.9-4.9c2.1-0.7,6.2-2.2,10.7-4.4c5.9-2.9,9.7-5.9,11.4-7.3c1.5-1.3,3.8-1.3,5.3,0c1.7,1.5,5.5,4.4,11.4,7.3 c4.5,2.2,8.6,3.7,10.7,4.4c2.1,0.7,3.7,2.6,3.9,4.9c0,0,0,0,0,0c0.7,6.1,1.4,21.4-5.8,33C56.9,82.7,45.3,85.7,44.8,85.8l-0.2,0.1 C44.5,85.9,44.3,85.9,44.2,85.9z M44.2,18.9c-0.2,0-0.5,0.1-0.7,0.3c-1.8,1.6-5.8,4.7-12,7.7c-4.6,2.3-8.9,3.9-11.1,4.6 c-1,0.3-1.8,1.3-1.9,2.4C17.9,39.6,17.2,54.2,24,65c9,14.3,18.9,17.5,20.3,17.9c1.4-0.4,11.3-3.5,20.3-17.9 c6.8-10.8,6-25.4,5.4-31.1c-0.1-1.1-0.9-2-1.9-2.4c-2.1-0.7-6.4-2.3-11-4.6c-6.2-3.1-10.2-6.2-12-7.7 C44.7,19,44.5,18.9,44.2,18.9z" class="st0"/></g><g><path d="M44.2,79.5c-0.2,0-0.4,0-0.6-0.1c-2.9-1.2-10.3-5.1-17.1-16c-6-9.6-5.5-22.8-5.1-28.1c0.1-0.6,0.4-1.1,1-1.3 c2.5-0.9,6.3-2.3,10.4-4.4c4.8-2.4,8.3-4.8,10.4-6.4c0.5-0.4,1.3-0.4,1.8,0c2.1,1.6,5.7,4,10.4,6.4c4.1,2.1,7.9,3.5,10.4,4.4 c0.6,0.2,0.9,0.7,1,1.3c0.5,5.2,0.9,18.5-5.1,28.1c0,0,0,0,0,0c-6.8,10.9-14.2,14.9-17.1,16C44.6,79.5,44.4,79.5,44.2,79.5z M24.4,36.5c-0.4,5.5-0.5,17,4.7,25.2C35,71.2,41.3,75,44.2,76.4c2.9-1.3,9.2-5.1,15.1-14.6h0c5.2-8.3,5.1-19.8,4.7-25.2 c-2.5-0.9-6-2.3-9.8-4.2c-4.4-2.2-7.7-4.4-10-6c-2.3,1.6-5.6,3.8-10,6C30.4,34.2,26.9,35.6,24.4,36.5z M60.6,62.5L60.6,62.5 L60.6,62.5z" class="st0"/></g><g><path d="M45.6,70.3c-0.5,0-0.9-0.2-1.2-0.6c-0.5-0.7-0.3-1.6,0.3-2.1c3.3-2.4,6.2-5.7,8.8-9.9c1.4-2.2,2.4-4.9,3.1-8 c0.2-0.8,1-1.3,1.8-1.2c0.8,0.2,1.3,1,1.2,1.8c-0.7,3.4-1.9,6.5-3.5,8.9c-2.8,4.5-6,8.1-9.6,10.7C46.2,70.2,45.9,70.3,45.6,70.3z" class="st0"/></g><g><path d="M58.5,47.1c-0.1,0-0.2,0-0.2,0c-0.8-0.1-1.4-0.9-1.3-1.7c0.3-1.9,0.4-2.7,0.4-4.9c0-0.8,0.7-1.5,1.5-1.5 c0,0,0,0,0,0c0.8,0,1.5,0.7,1.5,1.5c0,2.3-0.1,3.2-0.4,5.3C59.9,46.5,59.3,47.1,58.5,47.1z" class="st0"/></g></g></g></svg>