<?xml version="1.0" encoding="utf-8"?>
<!-- Generator: Adobe Illustrator 22.0.1, SVG Export Plug-In . SVG Version: 6.00 Build 0)  -->
<svg version="1.1" xmlns="http://www.w3.org/2000/svg" xmlns:xlink="http://www.w3.org/1999/xlink" x="0px" y="0px"
	 viewBox="0 0 87.38281 87.38281" enable-background="new 0 0 87.38281 87.38281" xml:space="preserve">
<g id="Calque_1">
	<g>
		<path fill="#E73C4D" d="M38.07674,86.24063c-0.44081,0-0.87789-0.08002-1.28688-0.24053
			c-0.8807-0.34583-1.55737-1.02249-1.91302-1.91021l-9.946-20.04174l-0.96212,0.4834
			c-2.26211,1.03232-4.92012,0.41649-6.3633-1.4385l-0.1226-0.18438c-5.40867,1.17036-11.34332-1.57983-13.82725-6.54534
			c-2.46521-4.93088-1.12778-11.13414,3.07355-14.81604l-0.32757-0.72955c-0.60741-2.42871,0.44924-4.85882,2.62993-6.04744
			l9.86364-5.00716l24.83925-16.89004l18.2869,36.65475l-28.14304,9.8276l-2.48486,1.2457l10.0789,20.19429
			c0.41929,0.83812,0.50539,1.76889,0.25644,2.76564c-0.23959,0.95838-0.92656,1.76421-1.93454,2.2682
			C39.24757,86.10211,38.65795,86.24063,38.07674,86.24063z M27.46905,62.69434l10.06954,20.30894
			c0.0599,0.15958,0.15911,0.2644,0.3023,0.32056c0.19374,0.07627,0.43614,0.051,0.66731-0.06645
			c0.11419-0.05709,0.3856-0.20965,0.43146-0.39355c0.10295-0.41321,0.04211-0.62098-0.03931-0.78336L28.85608,61.9545
			L27.46905,62.69434z M19.95363,61.42196c0.6514,0.74171,1.8007,0.96259,2.77687,0.51522l0.82174-0.41227l7.75221-4.09698
			L18.99151,32.93918l-8.62167,4.37495c-0.94996,0.51897-1.42821,1.56111-1.21014,2.66596L19.95363,61.42196z M8.07777,44.22588
			c-2.80682,2.87233-3.62575,7.29969-1.85031,10.8515c1.79696,3.59393,5.95712,5.67307,9.90575,5.15082L8.07777,44.22588z
			 M21.47918,31.48336l12.47297,24.77l24.03717-8.36617L42.62998,17.10065L21.47918,31.48336z"/>
	</g>
	<g>
		<path fill="#E73C4D" d="M73.36365,39.79244c-0.4352,0-0.86479-0.19654-1.14744-0.57044
			c-0.47919-0.63315-0.35378-1.5349,0.27891-2.01363c6.25567-4.7306,7.96934-13.31998,4.07685-20.42453
			c-3.80076-6.81255-12.16786-9.8744-19.45773-7.12046C56.373,9.94509,55.5419,9.57025,55.26113,8.8276
			c-0.28078-0.74265,0.09359-1.57234,0.83671-1.85312c8.61138-3.25559,18.49654,0.36173,22.98988,8.41811
			c4.58974,8.37553,2.54476,18.51058-4.85741,24.10877C73.97012,39.69791,73.66595,39.79244,73.36365,39.79244z"/>
	</g>
	<g>
		<path fill="#E73C4D" d="M69.14546,31.69254c-0.33131,0-0.6645-0.11418-0.93591-0.34723
			c-0.60273-0.51756-0.67105-1.4254-0.1535-2.0272c1.86716-2.17273,2.18069-5.53829,0.74406-8.00303
			c-1.45628-2.60934-4.34172-4.02866-7.35725-3.63838c-0.7843,0.10014-1.5087-0.45439-1.60978-1.24196
			c-0.10202-0.78757,0.45392-1.50823,1.24103-1.60978c4.19852-0.53768,8.20519,1.44787,10.22303,5.06565
			c2.0534,3.52279,1.62288,8.17992-1.06039,11.30121C69.95222,31.52267,69.54978,31.69254,69.14546,31.69254z"/>
	</g>
	<g>
		<path fill="#E73C4D" d="M56.05198,40.23372l-1.40949-2.50545c2.26867-1.27706,2.9912-4.57009,1.64441-7.49717
			c-0.70568-1.53256-1.85873-2.73615-3.24763-3.38896c-1.2897-0.60694-2.63274-0.65608-3.78298-0.14132l-0.02714,0.01404
			l-0.00094-0.0014c-0.00374,0.0014-0.00748,0.00327-0.01123,0.00515l-0.16191-0.3519l-1.11187-2.22374
			c2.01597-0.9303,4.23316-0.88257,6.31932,0.09734c2.00193,0.9406,3.64821,2.64116,4.6356,4.78909
			C60.86634,33.30653,59.61595,38.22805,56.05198,40.23372z"/>
	</g>
	<g>
		<path fill="#E73C4D" d="M35.97093,71.4536l-1.46284-2.47504c0.62239-0.36875,1.26723-0.80302,1.73051-1.15679l-5.0942-2.08102
			l1.08754-2.66175l5.54063,2.26352c1.08473,0.4221,2.12173,1.50356,1.78292,2.86017
			C39.46471,68.56583,39.22418,69.53169,35.97093,71.4536z"/>
	</g>
</g>
<g id="grille_page_entiere" display="none">
</g>
<g id="grille">
</g>
</svg>
