<?xml version="1.0" encoding="utf-8"?>
<!-- Generator: Adobe Illustrator 26.0.1, SVG Export Plug-In . SVG Version: 6.00 Build 0)  -->
<svg version="1.1" id="Calque_1" xmlns="http://www.w3.org/2000/svg" xmlns:xlink="http://www.w3.org/1999/xlink" x="0px" y="0px"
	 viewBox="0 0 87.4 87.4" style="enable-background:new 0 0 87.4 87.4;" xml:space="preserve">
<style type="text/css">
	.st0{fill:#F03436;}
	.st1{display:none;}
</style>
<g id="Calque_1_00000170281058581303340300000013423921057123038901_">
	<g>
		<path class="st0" d="M38.1,86.2c-0.4,0-0.9-0.1-1.3-0.2c-0.9-0.3-1.6-1-1.9-1.9l-9.9-20l-1,0.5c-2.3,1-4.9,0.4-6.4-1.4l-0.1-0.2
			c-5.4,1.2-11.3-1.6-13.8-6.5c-2.5-4.9-1.1-11.1,3.1-14.8l-0.3-0.7c-0.6-2.4,0.4-4.9,2.6-6l9.9-5l24.8-16.9L62,49.5l-28.1,9.8
			l-2.5,1.2l10.1,20.2c0.4,0.8,0.5,1.8,0.3,2.8c-0.2,1-0.9,1.8-1.9,2.3C39.2,86.1,38.7,86.2,38.1,86.2z M27.5,62.7L37.5,83
			c0.1,0.2,0.2,0.3,0.3,0.3c0.2,0.1,0.4,0.1,0.7-0.1c0.1-0.1,0.4-0.2,0.4-0.4c0.1-0.4,0-0.6,0-0.8L28.9,62L27.5,62.7z M20,61.4
			c0.7,0.7,1.8,1,2.8,0.5l0.8-0.4l7.8-4.1L19,32.9l-8.6,4.4c-0.9,0.5-1.4,1.6-1.2,2.7L20,61.4z M8.1,44.2c-2.8,2.9-3.6,7.3-1.9,10.9
			c1.8,3.6,6,5.7,9.9,5.2L8.1,44.2z M21.5,31.5L34,56.3l24-8.4L42.6,17.1L21.5,31.5z"/>
	</g>
	<g>
		<path class="st0" d="M73.4,39.8c-0.4,0-0.9-0.2-1.1-0.6c-0.5-0.6-0.4-1.5,0.3-2c6.3-4.7,8-13.3,4.1-20.4
			C72.8,10,64.4,6.9,57.1,9.7c-0.7,0.3-1.6-0.1-1.9-0.8C55,8.1,55.4,7.3,56.1,7c8.6-3.3,18.5,0.4,23,8.4c4.6,8.4,2.5,18.5-4.9,24.1
			C74,39.7,73.7,39.8,73.4,39.8z"/>
	</g>
	<g>
		<path class="st0" d="M69.1,31.7c-0.3,0-0.7-0.1-0.9-0.3c-0.6-0.5-0.7-1.4-0.2-2c1.9-2.2,2.2-5.5,0.7-8c-1.5-2.6-4.3-4-7.4-3.6
			c-0.8,0.1-1.5-0.5-1.6-1.2c-0.1-0.8,0.5-1.5,1.2-1.6c4.2-0.5,8.2,1.4,10.2,5.1c2.1,3.5,1.6,8.2-1.1,11.3
			C70,31.5,69.5,31.7,69.1,31.7z"/>
	</g>
	<g>
		<path class="st0" d="M56.1,40.2l-1.4-2.5c2.3-1.3,3-4.6,1.6-7.5c-0.7-1.5-1.9-2.7-3.2-3.4c-1.3-0.6-2.6-0.7-3.8-0.1l0,0l0,0
			c0,0,0,0,0,0l-0.2-0.4l-1.1-2.2c2-0.9,4.2-0.9,6.3,0.1c2,0.9,3.6,2.6,4.6,4.8C60.9,33.3,59.6,38.2,56.1,40.2z"/>
	</g>
	<g>
		<path class="st0" d="M36,71.5L34.5,69c0.6-0.4,1.3-0.8,1.7-1.2l-5.1-2.1l1.1-2.7l5.5,2.3c1.1,0.4,2.1,1.5,1.8,2.9
			C39.5,68.6,39.2,69.5,36,71.5z"/>
	</g>
</g>
<g id="grille_page_entiere" class="st1">
</g>
<g id="grille">
</g>
</svg>
