<?xml version="1.0" encoding="utf-8"?>
<!-- Generator: Adobe Illustrator 26.0.1, SVG Export Plug-In . SVG Version: 6.00 Build 0)  -->
<svg version="1.1" id="Calque_1" xmlns="http://www.w3.org/2000/svg" xmlns:xlink="http://www.w3.org/1999/xlink" x="0px" y="0px"
	 viewBox="0 0 87.4 87.4" style="enable-background:new 0 0 87.4 87.4;" xml:space="preserve">
<style type="text/css">
	.st0{fill:#F03436;}
	.st1{display:none;}
</style>
<g id="Calque_1_00000147181636864954127200000004199561958197828255_">
	<g>
		<g>
			<path class="st0" d="M13.9,85.6c-3.4,0-6.2-2.8-6.2-6.2V51.6c0-1,0.8-1.7,1.7-1.7h9c1,0,1.7,0.8,1.7,1.7v27.8
				C20.1,82.8,17.3,85.6,13.9,85.6z M10.7,52.9v26.6c0,1.8,1.4,3.2,3.2,3.2s3.2-1.4,3.2-3.2V52.9H10.7z"/>
		</g>
		<g>
			<path class="st0" d="M72.9,85.6c-0.2,0-0.3,0-0.5,0c-0.2,0-0.5,0-0.7,0H13.9c-0.8,0-1.5-0.7-1.5-1.5s0.7-1.5,1.5-1.5
				c1.8,0,3.2-1.4,3.2-3.2V21.3c0-0.8,0.7-1.5,1.5-1.5h59c0.8,0,1.5,0.7,1.5,1.5v58.2C79.1,82.8,76.3,85.6,72.9,85.6z M72.4,82.6
				c0,0,0.1,0,0.1,0l0.3,0c1.8,0,3.2-1.4,3.2-3.2V22.8h-56v56.7c0,1.2-0.3,2.3-0.9,3.2h52.5c0.2,0,0.4,0,0.5,0
				C72.3,82.6,72.3,82.6,72.4,82.6z"/>
		</g>
		<g>
			<path class="st0" d="M69.7,33.6H55.9c-0.8,0-1.5-0.7-1.5-1.5s0.7-1.5,1.5-1.5h13.9c0.8,0,1.5,0.7,1.5,1.5S70.6,33.6,69.7,33.6z"
				/>
		</g>
		<g>
			<path class="st0" d="M69.7,43.4H55.9c-0.8,0-1.5-0.7-1.5-1.5s0.7-1.5,1.5-1.5h13.9c0.8,0,1.5,0.7,1.5,1.5S70.6,43.4,69.7,43.4z"
				/>
		</g>
		<g>
			<path class="st0" d="M69.7,55.2H55.9c-0.8,0-1.5-0.7-1.5-1.5s0.7-1.5,1.5-1.5h13.9c0.8,0,1.5,0.7,1.5,1.5S70.6,55.2,69.7,55.2z"
				/>
		</g>
		<g>
			<path class="st0" d="M69.7,66H26.5c-0.8,0-1.5-0.7-1.5-1.5c0-0.8,0.7-1.5,1.5-1.5h43.2c0.8,0,1.5,0.7,1.5,1.5
				C71.2,65.3,70.6,66,69.7,66z"/>
		</g>
		<g>
			<path class="st0" d="M69.7,76.8H26.5c-0.8,0-1.5-0.7-1.5-1.5s0.7-1.5,1.5-1.5h43.2c0.8,0,1.5,0.7,1.5,1.5S70.6,76.8,69.7,76.8z"
				/>
		</g>
		<g>
			<g>
				<g>
					<path class="st0" d="M27.3,42.5c-0.8,0-1.4-0.6-1.5-1.4L25,33.2c-0.3-1.8,0.4-5.3,4.8-6.3c0.8-0.2,1.6,0.3,1.8,1.1
						c0.2,0.8-0.3,1.6-1.1,1.8c-2.8,0.6-2.5,2.7-2.5,2.9c0,0,0,0.1,0,0.1l0.8,8c0.1,0.8-0.5,1.6-1.3,1.6
						C27.4,42.5,27.3,42.5,27.3,42.5z"/>
				</g>
			</g>
			<g>
				<g>
					<path class="st0" d="M42.2,42.5c0,0-0.1,0-0.1,0c-0.8-0.1-1.4-0.8-1.3-1.6l0.8-8c0-0.1,0-0.1,0-0.2c0.1-0.7,0.2-2.3-2.2-2.8
						c-0.8-0.2-1.3-1-1.1-1.8c0.2-0.8,1-1.3,1.8-1.1c1.8,0.4,3.1,1.2,3.9,2.5c1,1.6,0.8,3.3,0.7,3.8l-0.8,7.9
						C43.6,41.9,42.9,42.5,42.2,42.5z"/>
				</g>
			</g>
			<g>
				<g>
					<path class="st0" d="M38.2,30.8c-0.8,0-1.5-0.6-1.5-1.4l-0.1-1.6c0-0.4,0.1-0.8,0.4-1.1c0.3-0.3,0.6-0.5,1-0.5l1.4-0.1
						c0.4,0,0.8,0.1,1.1,0.4c0.3,0.3,0.5,0.6,0.5,1l0.1,1.6c0,0.8-0.6,1.5-1.4,1.6L38.2,30.8C38.2,30.8,38.2,30.8,38.2,30.8z"/>
				</g>
			</g>
			<g>
				<g>
					<path class="st0" d="M31.5,30.8C31.5,30.8,31.5,30.8,31.5,30.8l-1.5-0.1c-0.4,0-0.8-0.2-1-0.5c-0.3-0.3-0.4-0.7-0.4-1.1
						l0.1-1.6c0-0.8,0.8-1.5,1.6-1.4l1.4,0.1c0.4,0,0.8,0.2,1,0.5c0.3,0.3,0.4,0.7,0.4,1.1L33,29.4C33,30.2,32.3,30.8,31.5,30.8z"/>
				</g>
			</g>
			<g>
				<g>
					<path class="st0" d="M35,52.4c-4.3,0-7-1.4-8.1-4.1c-0.1-0.3-0.4-0.8-1.1-7.1c-0.1-0.8,0.5-1.6,1.3-1.7
						c0.8-0.1,1.6,0.5,1.7,1.3c0.3,2.6,0.7,5.7,0.9,6.2l0,0.1c0.2,0.6,0.9,2.2,5.3,2.2c4,0,4.9-2.1,5-2.5l0.8-6.3
						c0.1-0.8,0.9-1.4,1.7-1.3c0.8,0.1,1.4,0.9,1.3,1.7l-0.8,6.3l0,0C42.7,48.4,41,52.4,35,52.4z"/>
				</g>
			</g>
			<g>
				<g>
					<path class="st0" d="M49.6,32.5c1.1,0,1.9,0.9,1.9,1.9c0,1.1-0.9,1.9-1.9,1.9s-1.9-0.9-1.9-1.9C47.7,33.4,48.5,32.5,49.6,32.5
						 M49.6,30.5c-2.2,0-3.9,1.8-3.9,3.9s1.8,3.9,3.9,3.9s3.9-1.8,3.9-3.9S51.8,30.5,49.6,30.5L49.6,30.5z"/>
				</g>
			</g>
			<g>
				<g>
					<path class="st0" d="M39.7,58c-0.3,0-3-0.1-4.9-2c-1.2-1.3-1.8-3-1.8-5.1c0-0.8,0.7-1.5,1.5-1.5c0,0,0,0,0,0
						c0.8,0,1.5,0.7,1.5,1.5c0,1.3,0.3,2.3,0.9,2.9c1.1,1.1,2.8,1.1,2.8,1.1l0,0h3.1c1.6,0,2.8-0.5,3.6-1.4c1.9-2,1.7-5.6,1.7-5.7
						c0,0,0-0.1,0-0.1V37.3c0-0.8,0.7-1.5,1.5-1.5s1.5,0.7,1.5,1.5v10.5c0,0.6,0.2,5-2.4,7.9c-1.4,1.6-3.4,2.3-5.8,2.3L39.7,58
						C39.7,58,39.7,58,39.7,58z"/>
				</g>
			</g>
		</g>
	</g>
</g>
<g id="grille_page_entiere" class="st1">
</g>
<g id="grille">
</g>
</svg>
