<?xml version="1.0" encoding="utf-8"?>
<!-- Generator: Adobe Illustrator 22.0.1, SVG Export Plug-In . SVG Version: 6.00 Build 0)  -->
<svg version="1.1" xmlns="http://www.w3.org/2000/svg" xmlns:xlink="http://www.w3.org/1999/xlink" x="0px" y="0px"
	 viewBox="0 0 87.38281 87.38281" enable-background="new 0 0 87.38281 87.38281" xml:space="preserve">
<g id="Calque_1">
	<g>
		<g>
			<path fill="#E73C4D" d="M13.89606,85.6419c-3.43457,0-6.22949-2.79443-6.22949-6.229V51.58525
				c0-0.95117,0.77441-1.7251,1.72559-1.7251h9.00781c0.95117,0,1.72559,0.77393,1.72559,1.7251V79.4129
				C20.12556,82.84747,17.33064,85.6419,13.89606,85.6419z M10.66657,52.86016V79.4129c0,1.78027,1.44922,3.229,3.22949,3.229
				s3.22949-1.44873,3.22949-3.229V52.86016H10.66657z"/>
		</g>
		<g>
			<path fill="#E73C4D" d="M72.85603,85.6419c-0.16016,0-0.31445-0.01563-0.46777-0.03613
				c-0.23047,0.02246-0.46289,0.03613-0.69922,0.03613H13.89606c-0.82813,0-1.5-0.67139-1.5-1.5s0.67188-1.5,1.5-1.5
				c1.78027,0,3.22852-1.44873,3.22852-3.229V21.25176c0-0.82861,0.67188-1.5,1.5-1.5h58.95996c0.82813,0,1.5,0.67139,1.5,1.5
				V79.4129C79.08454,82.84747,76.2906,85.6419,72.85603,85.6419z M72.40095,82.596c0.04785,0,0.09668,0.00244,0.14453,0.00684
				l0.32129,0.03906c1.76953,0,3.21777-1.44873,3.21777-3.229V22.75176H20.12458V79.4129c0,1.18115-0.33008,2.28662-0.9043,3.229
				h52.46875c0.18262,0,0.36133-0.01514,0.53809-0.03564C72.28474,82.59942,72.34333,82.596,72.40095,82.596z"/>
		</g>
		<g>
			<path fill="#E73C4D" d="M69.72321,33.56084H55.8531c-0.82813,0-1.5-0.67139-1.5-1.5s0.67188-1.5,1.5-1.5h13.87012
				c0.82813,0,1.5,0.67139,1.5,1.5S70.55134,33.56084,69.72321,33.56084z"/>
		</g>
		<g>
			<path fill="#E73C4D" d="M69.72321,43.3875H55.8531c-0.82813,0-1.5-0.67139-1.5-1.5s0.67188-1.5,1.5-1.5h13.87012
				c0.82813,0,1.5,0.67139,1.5,1.5S70.55134,43.3875,69.72321,43.3875z"/>
		</g>
		<g>
			<path fill="#E73C4D" d="M69.72321,55.17949H55.8531c-0.82813,0-1.5-0.67139-1.5-1.5s0.67188-1.5,1.5-1.5h13.87012
				c0.82813,0,1.5,0.67139,1.5,1.5S70.55134,55.17949,69.72321,55.17949z"/>
		</g>
		<g>
			<path fill="#E73C4D" d="M69.72321,65.98858h-43.2373c-0.82813,0-1.5-0.67139-1.5-1.5c0-0.82862,0.67188-1.5,1.5-1.5h43.2373
				c0.82813,0,1.5,0.67139,1.5,1.5C71.22321,65.31719,70.55134,65.98858,69.72321,65.98858z"/>
		</g>
		<g>
			<path fill="#E73C4D" d="M69.72321,76.79815h-43.2373c-0.82813,0-1.5-0.67139-1.5-1.5s0.67188-1.5,1.5-1.5h43.2373
				c0.82813,0,1.5,0.67139,1.5,1.5S70.55134,76.79815,69.72321,76.79815z"/>
		</g>
		<g>
			<g>
				<g>
					<path fill="#E73C4D" d="M27.2945,42.48711c-0.76367,0-1.41699-0.58057-1.49121-1.35645l-0.75879-7.90625
						c-0.27246-1.78174,0.38379-5.30322,4.80566-6.2583c0.80957-0.1748,1.60742,0.34082,1.78223,1.14941
						c0.1748,0.81006-0.33984,1.6084-1.14941,1.7832c-2.77246,0.59863-2.50977,2.65479-2.4707,2.8877
						c0.00586,0.03467,0.01074,0.06934,0.01367,0.10449l0.76367,7.95264c0.0791,0.82471-0.52539,1.55762-1.34961,1.63672
						C27.39118,42.48516,27.34235,42.48711,27.2945,42.48711z"/>
				</g>
			</g>
			<g>
				<g>
					<path fill="#E73C4D" d="M42.18415,42.48711c-0.04785,0-0.09668-0.00195-0.14551-0.00684
						c-0.82422-0.0791-1.42871-0.81201-1.34961-1.63672l0.76465-7.95264c0.00684-0.06885,0.01758-0.13672,0.03418-0.20361
						c0.13672-0.65088,0.20117-2.2627-2.23242-2.78857c-0.80957-0.1748-1.32422-0.97314-1.14941-1.7832
						c0.1748-0.80859,0.97461-1.32324,1.78223-1.14941c1.76563,0.38135,3.06055,1.20996,3.85059,2.46289
						c1.01465,1.61084,0.78906,3.33008,0.69336,3.8291l-0.75684,7.87256C43.60114,41.90654,42.94782,42.48711,42.18415,42.48711z"/>
				</g>
			</g>
			<g>
				<g>
					<path fill="#E73C4D" d="M38.18317,30.77275c-0.79688,0-1.46094-0.62695-1.49707-1.43115l-0.07422-1.61719
						c-0.01855-0.39746,0.12207-0.78613,0.38965-1.08008c0.26855-0.29395,0.64258-0.46924,1.04004-0.4873l1.38867-0.06348
						c0.39063-0.02246,0.78613,0.12256,1.08008,0.39063c0.29395,0.26855,0.46875,0.64258,0.48633,1.04004l0.07324,1.61719
						c0.03809,0.82715-0.60254,1.52832-1.42969,1.56641l-1.3877,0.06348C38.22907,30.77227,38.20564,30.77275,38.18317,30.77275z"/>
				</g>
			</g>
			<g>
				<g>
					<path fill="#E73C4D" d="M31.54646,30.78545c-0.02344,0-0.0459-0.00049-0.06934-0.00146l-1.4082-0.06445
						c-0.39746-0.01807-0.77148-0.19385-1.04004-0.4873c-0.26758-0.29395-0.4082-0.68262-0.38965-1.08008l0.0752-1.64111
						c0.03711-0.82715,0.76563-1.45557,1.56641-1.42969l1.4082,0.06445c0.39746,0.01807,0.77148,0.19385,1.04004,0.4873
						c0.26758,0.29395,0.4082,0.68262,0.38965,1.08008l-0.0752,1.64111C33.00739,30.1585,32.34333,30.78545,31.54646,30.78545z"/>
				</g>
			</g>
			<g>
				<g>
					<path fill="#E73C4D" d="M34.96247,52.35137c-4.2627,0-6.97559-1.39502-8.06348-4.14648
						c-0.12598-0.28906-0.35547-0.80322-1.10449-7.09863c-0.09863-0.82275,0.48926-1.56885,1.31152-1.6665
						c0.83105-0.1001,1.56934,0.48877,1.66699,1.31201c0.30859,2.59326,0.72656,5.68408,0.87305,6.24756l0.04199,0.10205
						c0.2207,0.55664,0.89063,2.25,5.27441,2.25c4.00879,0,4.85059-2.14453,4.95898-2.4873l0.79004-6.27832
						c0.10352-0.82227,0.8623-1.40234,1.67578-1.30127c0.82129,0.10352,1.4043,0.85352,1.30078,1.67529l-0.79688,6.33398
						l-0.00293-0.00049C42.71442,48.40361,41.03083,52.35137,34.96247,52.35137z"/>
				</g>
			</g>
			<g>
				<g>
					<path fill="#E73C4D" d="M49.59997,32.51033c1.0564,0,1.91284,0.85645,1.91284,1.91284
						c0,1.05646-0.85645,1.91284-1.91284,1.91284s-1.91284-0.85638-1.91284-1.91284
						C47.68713,33.36678,48.54357,32.51033,49.59997,32.51033 M49.59997,30.51034c-2.15759,0-3.91284,1.75531-3.91284,3.91284
						s1.75525,3.91284,3.91284,3.91284s3.91284-1.75531,3.91284-3.91284S51.75756,30.51034,49.59997,30.51034L49.59997,30.51034z"/>
				</g>
			</g>
			<g>
				<g>
					<path fill="#E73C4D" d="M39.73005,57.97832c-0.33398,0-3.00391-0.06445-4.91797-2.02686
						c-1.23828-1.27002-1.83691-2.98975-1.77637-5.11133c0.02246-0.81348,0.68945-1.45752,1.49805-1.45752
						c0.01465,0,0.0293,0,0.04297,0.00049c0.82813,0.02344,1.48047,0.71387,1.45703,1.54199
						c-0.03613,1.27881,0.27539,2.26514,0.92578,2.93164c1.05176,1.07813,2.75488,1.12158,2.77344,1.12158l0,0h3.07617
						c1.58008,0,2.76953-0.45166,3.63574-1.38037c1.88867-2.02344,1.66211-5.64453,1.65918-5.68115
						c-0.00195-0.03418-0.00391-0.07275-0.00391-0.10742V37.25664c0-0.82861,0.67188-1.5,1.5-1.5s1.5,0.67139,1.5,1.5v10.50537
						c0.03516,0.61084,0.18945,5.02637-2.44824,7.86816c-1.44629,1.55811-3.41211,2.34814-5.84277,2.34814h-3.07129
						C39.73493,57.97832,39.73298,57.97832,39.73005,57.97832z"/>
				</g>
			</g>
		</g>
	</g>
</g>
<g id="grille_page_entiere" display="none">
</g>
<g id="grille">
</g>
</svg>
