<svg xmlns="http://www.w3.org/2000/svg" xmlns:xlink="http://www.w3.org/1999/xlink" style="enable-background:new 0 0 87.4 87.4" id="Calque_1" x="0" y="0" version="1.1" viewBox="0 0 87.4 87.4" xml:space="preserve"><style type="text/css">.st1{fill:#f03436}.st2{fill:none}.st3{fill-rule:evenodd;clip-rule:evenodd;fill:#f03436}</style><g id="grille"><g><g><g><g><path d="M48.6,85.9h-8.3c-2.7,0-5-2.1-5-4.8l0-3.4c-0.6-9.2-4.2-15.9-7.2-20.8l-0.7-1.2 c-3.5-5.6-6.5-10.4-6.5-16.9c0-13,10.6-23.6,23.6-23.6s23.6,10.6,23.6,23.6c0,6.5-3,11.3-6.5,16.9l-0.8,1.2 c-3,4.8-6.6,11.5-7.2,20.8l0,0.2v3.3C53.6,83.7,51.3,85.9,48.6,85.9z M37.7,78.8v2.3c0,1.3,1.1,2.4,2.6,2.4h8.3 c1.4,0,2.6-1.1,2.6-2.4v-2.3h-6.3c-0.2,0-0.6,0.1-1,0L37.7,78.8z M43.2,76.3H44c0.3,0,0.5,0,0.6,0l1,0V61 c0-0.3-0.1-0.6-0.4-0.9c-0.5-0.5-1.2-0.5-1.7,0c-0.2,0.2-0.4,0.6-0.4,0.8C43.2,61,43.2,76.3,43.2,76.3z M48.1,76.3h3.2 c0.9-9.2,4.4-15.9,7.5-20.7l0.8-1.2c3.4-5.4,6.1-9.7,6.1-15.6c0-11.7-9.5-21.2-21.2-21.2s-21.2,9.5-21.2,21.2 c0,5.8,2.7,10.2,6.2,15.6l0.7,1.2c3,4.9,6.6,11.6,7.5,20.7h3.2" class="st1"/></g></g></g></g><g><g><g><path d="M48.6,77.2c-0.8,0-1.5-0.7-1.5-1.5c0-5.9,0.9-9.2,1.7-12c0.8-2.8,1.4-5.2,1-9.8c-0.2-2.9-1.4-6.4-5.4-6.6 c-0.7,0-1.8,0.1-2.6,0.9c-0.8,0.8-1.1,2.2-1,4c0.1,0.8-0.5,1.6-1.4,1.6c-0.8,0.1-1.6-0.5-1.6-1.4c-0.3-3.3,0.8-5.3,1.8-6.3 c1.2-1.3,3-1.9,4.9-1.8c4.7,0.2,7.8,3.7,8.2,9.4c0.5,5.1-0.3,7.9-1.1,10.9c-0.8,2.8-1.6,5.7-1.6,11.2 C50.1,76.6,49.4,77.2,48.6,77.2z" class="st1"/></g></g></g><g><g><g><path d="M31.6,56c-0.7,0-1.4-0.5-1.5-1.2c-1-5.7-0.1-10.2,2.7-13.4c4.1-4.9,10.8-4.9,11.1-4.9 c0.8,0,1.5,0.7,1.5,1.5s-0.7,1.5-1.5,1.5c-0.1,0-5.6,0.1-8.8,3.9c-2.1,2.5-2.8,6.2-2,11c0.1,0.8-0.4,1.6-1.2,1.7 C31.7,56,31.6,56,31.6,56z" class="st1"/></g></g></g><g><g><g><path d="M28.3,40.1c0.4-0.7,0.1-1.6-0.6-2c-0.7-0.4-1.6-0.1-2,0.6c-0.1,0.1-1.2,2.2-1.9,4.9 c0.6,2.2,1.5,4.2,2.7,6.3c0-0.1,0-0.1,0-0.2C25.4,45.6,28.3,40.2,28.3,40.1z" class="st1"/></g></g></g><g><g><g><path d="M43,23.4c0.9,0,1.5-0.7,1.5-1.5c0-0.8-0.7-1.4-1.6-1.4C37,20.7,32.5,22.2,29.3,24c-2.6,2.6-4.5,5.9-5.4,9.6 C24.5,32.2,29,23.9,43,23.4z" class="st1"/></g></g></g><g><g><g><path d="M47.7,22.3c-0.1,0.8,0.5,1.6,1.3,1.7c0.1,0,10.6,1.3,16.2,10.8c-0.6-3.3-2-6.3-4-8.8 c-5.7-4.3-11.6-5-11.9-5C48.5,20.8,47.8,21.4,47.7,22.3z" class="st1"/></g></g></g><g><g><path d="M57.5,32.4C43.4,22,29.6,33.8,29.5,33.9c-0.6,0.5-0.7,1.5-0.1,2.1c0.5,0.6,1.5,0.7,2.1,0.1 c0.1-0.1,12.1-10.3,24.3-1.3c6.5,4.8,7.4,12.2,7.5,12.3c0,0.2,0.1,0.6,0.2,0.8c0.8-1.6,1.4-3.5,1.8-5.2 C64.1,39.8,61.9,35.7,57.5,32.4z" class="st1"/></g></g><g><g><path d="M39.9,58.9c0.1-0.8-0.6-1.5-1.4-1.6c-0.8-0.1-1.5,0.6-1.6,1.4c-0.2,2.1-0.7,5.4-1.4,7.9 c0.5,1.5,1,3.1,1.3,4.7c0.1-0.1,0.1-0.1,0.2-0.2C38.6,68.4,39.7,61.8,39.9,58.9z" class="st1"/></g></g><g><g><g><path d="M60.6,52.7c-0.5-12.3-10.1-15.2-10.2-15.2c-0.8-0.2-1.6,0.2-1.9,1c-0.2,0.8,0.2,1.6,1,1.9 c0.4,0.1,10.1,3.2,7.7,17.7c0,0,0,0.1,0,0.1c0.5-0.9,1-1.8,1.5-2.5l0.8-1.2C59.9,53.8,60.2,53.3,60.6,52.7z" class="st1"/></g></g></g><g><g><g><g><g><path d="M17.6,36.2c0.2-1.6,0.4-3.2,0.9-4.8l-5.3-1.4c-0.5,1.9-0.8,3.8-1,5.8L17.6,36.2z" class="st2"/></g></g></g><g><g><g><path d="M15.8,30.7c1.5,0.4,2.3,1.8,2.1,3.1c-0.2,1.3-1.6,2.3-3.1,2.2c-1.6-0.1-2.6-1.5-2.4-3.1 C12.7,31.2,14.4,30.2,15.8,30.7z" class="st3"/></g></g></g></g><g><g><g><g><path d="M20,27.2c0.7-1.5,1.5-2.9,2.4-4.2l-4.5-3.2c-1.1,1.6-2.1,3.3-2.9,5.1L20,27.2z" class="st2"/></g></g></g><g><g><g><path d="M20.2,21.4c1.2,0.9,1.6,2.5,0.9,3.7c-0.7,1.1-2.2,1.6-3.6,1c-1.4-0.6-2-2.4-1.2-3.8 C17.2,20.9,18.9,20.5,20.2,21.4z" class="st3"/></g></g></g></g><g><g><g><g><path d="M25.3,19.6c1.2-1.1,2.4-2.2,3.7-3.1l-3.2-4.5c-1.6,1.1-3.1,2.4-4.5,3.8L25.3,19.6z" class="st2"/></g></g></g><g><g><g><path d="M27.4,14.2c0.9,1.3,0.7,2.9-0.4,3.8c-1,0.9-2.7,0.7-3.8-0.3c-1.1-1.1-1-2.8,0.2-3.9 C24.8,12.7,26.6,13,27.4,14.2z" class="st3"/></g></g></g></g><g><g><g><g><path d="M32.8,14.3c1.5-0.7,3-1.3,4.6-1.7L36,7.3c-1.9,0.5-3.8,1.2-5.5,2L32.8,14.3z" class="st2"/></g></g></g><g><g><g><path d="M36.7,10c0.4,1.5-0.4,2.9-1.6,3.4c-1.3,0.4-2.8-0.2-3.4-1.6c-0.7-1.4,0-3.1,1.5-3.6 C34.7,7.5,36.4,8.5,36.7,10z" class="st3"/></g></g></g></g><g><g><g><g><path d="M41.8,11.8c1.6-0.1,3.3-0.1,4.9,0l0.5-5.5c-2-0.2-3.9-0.2-5.9,0L41.8,11.8z" class="st2"/></g></g></g><g><g><g><path d="M46.9,9.1c-0.2,1.5-1.4,2.7-2.7,2.6c-1.3,0.1-2.5-1.1-2.7-2.6c-0.2-1.5,1-2.8,2.7-2.9 C45.9,6.3,47.1,7.6,46.9,9.1z" class="st3"/></g></g></g></g><g><g><g><g><path d="M51,12.6c1.6,0.4,3.1,1,4.6,1.7l2.4-5c-1.8-0.9-3.6-1.6-5.5-2L51,12.6z" class="st2"/></g></g></g><g><g><g><path d="M56.8,11.8c-0.7,1.4-2.2,2-3.4,1.6c-1.2-0.5-2-1.9-1.6-3.4c0.4-1.5,2-2.4,3.5-1.8 C56.8,8.7,57.4,10.4,56.8,11.8z" class="st3"/></g></g></g></g><g><g><g><g><path d="M59.4,16.5c1.3,0.9,2.6,2,3.7,3.1l3.9-3.9c-1.4-1.4-2.9-2.7-4.5-3.8L59.4,16.5z" class="st2"/></g></g></g><g><g><g><path d="M65.1,17.7c-1.1,1-2.8,1.2-3.8,0.3c-1-0.8-1.2-2.5-0.4-3.7c0.8-1.3,2.6-1.5,3.9-0.5 C66.1,14.8,66.2,16.6,65.1,17.7z" class="st3"/></g></g></g></g><g><g><g><g><path d="M66,23c0.9,1.3,1.8,2.7,2.4,4.2l5-2.3c-0.8-1.8-1.8-3.5-2.9-5.1L66,23z" class="st2"/></g></g></g><g><g><g><path d="M70.9,26.1c-1.4,0.6-2.9,0.1-3.6-1c-0.7-1.1-0.3-2.8,0.9-3.7c1.3-0.9,3-0.5,3.8,0.9 C72.9,23.7,72.3,25.5,70.9,26.1z" class="st3"/></g></g></g></g><g><g><g><g><path d="M69.9,31.4c0.5,1.6,0.7,3.2,0.9,4.8l5.5-0.5c-0.2-2-0.5-3.9-1-5.8L69.9,31.4z" class="st2"/></g></g></g><g><g><g><path d="M73.5,36c-1.5,0.1-2.9-0.9-3.1-2.2c-0.2-1.3,0.6-2.7,2.1-3.1c1.4-0.4,3.1,0.5,3.3,2.2 C76.2,34.4,75.1,35.9,73.5,36z" class="st3"/></g></g></g></g><g><g><g><g><path d="M70.8,40.6c-0.2,1.6-0.4,3.2-0.9,4.8l5.3,1.4c0.5-1.9,0.8-3.8,1-5.8L70.8,40.6z" class="st2"/></g></g></g><g><g><g><path d="M72.6,46.1c-1.5-0.4-2.3-1.8-2.1-3.1c0.2-1.3,1.6-2.3,3.1-2.2c1.6,0.1,2.6,1.5,2.4,3.1 C75.7,45.6,74,46.6,72.6,46.1z" class="st3"/></g></g></g></g><g><g><g><g><path d="M68.4,49.6c-0.7,1.5-1.5,2.9-2.4,4.2l4.5,3.2c1.1-1.6,2.1-3.3,2.9-5.1L68.4,49.6z" class="st2"/></g></g></g><g><g><g><path d="M68.2,55.4c-1.2-0.9-1.6-2.5-0.9-3.7c0.7-1.1,2.2-1.6,3.6-1c1.4,0.6,2,2.4,1.2,3.8 C71.3,55.9,69.5,56.3,68.2,55.4z" class="st3"/></g></g></g></g><g><g><g><g><path d="M63.2,57.2c-1.2,1.1-2.4,2.2-3.7,3.1l3.2,4.5c1.6-1.1,3.1-2.4,4.5-3.8L63.2,57.2z" class="st2"/></g></g></g></g><g><g><g><g><path d="M55.6,62.5c-1.5,0.7-3,1.3-4.6,1.7l1.4,5.3c1.9-0.5,3.8-1.2,5.5-2L55.6,62.5z" class="st2"/></g></g></g></g><g><g><g><g><path d="M46.7,65c-1.6,0.1-3.3,0.1-4.9,0l-0.5,5.5c2,0.2,3.9,0.2,5.9,0L46.7,65z" class="st2"/></g></g></g></g><g><g><g><g><path d="M37.4,64.2c-1.6-0.4-3.1-1-4.6-1.7l-2.4,5c1.8,0.9,3.6,1.6,5.5,2L37.4,64.2z" class="st2"/></g></g></g></g><g><g><g><g><path d="M29,60.3c-1.3-0.9-2.6-2-3.7-3.1l-3.9,3.9c1.4,1.4,2.9,2.7,4.5,3.8L29,60.3z" class="st2"/></g></g></g></g><g><g><g><g><path d="M22.4,53.8c-0.9-1.3-1.8-2.7-2.4-4.2l-5,2.3c0.8,1.8,1.8,3.5,2.9,5.1L22.4,53.8z" class="st2"/></g></g></g><g><g><g><path d="M17.5,50.7c1.4-0.6,2.9-0.1,3.6,1c0.7,1.1,0.3,2.8-0.9,3.7c-1.3,0.9-3,0.5-3.8-0.9 C15.5,53.1,16.1,51.3,17.5,50.7z" class="st3"/></g></g></g></g><g><g><g><g><path d="M18.5,45.4c-0.5-1.6-0.7-3.2-0.9-4.8l-5.5,0.5c0.2,2,0.5,3.9,1,5.8L18.5,45.4z" class="st2"/></g></g></g><g><g><g><path d="M14.9,40.8c1.5-0.1,2.9,0.9,3.1,2.2c0.2,1.3-0.6,2.7-2.1,3.1c-1.4,0.4-3.1-0.5-3.3-2.2 C12.2,42.4,13.3,40.9,14.9,40.8z" class="st3"/></g></g></g></g></g></g></svg>