<?xml version="1.0" encoding="utf-8"?>
<!-- Generator: Adobe Illustrator 22.0.1, SVG Export Plug-In . SVG Version: 6.00 Build 0)  -->
<svg version="1.1" xmlns="http://www.w3.org/2000/svg" xmlns:xlink="http://www.w3.org/1999/xlink" x="0px" y="0px"
	 viewBox="0 0 87.38281 87.38281" enable-background="new 0 0 87.38281 87.38281" xml:space="preserve">
<g id="Calque_1">
</g>
<g id="grille_page_entiere" display="none">
</g>
<g id="grille">
	<g>
		<g>
			<g>
				<g>
					<path fill="#E73C4D" d="M48.59799,85.85803h-8.34522c-2.74932,0-4.98626-2.14442-4.98626-4.78225l-0.01423-3.44437
						c-0.64285-9.23714-4.18447-15.94083-7.19947-20.75155l-0.74723-1.18607c-3.50129-5.55557-6.52578-10.35443-6.52578-16.89919
						c0-13.01835,10.60825-23.60762,23.64558-23.60762s23.64557,10.58927,23.64557,23.60762
						c0,6.54001-3.02212,11.33175-6.51866,16.88258l-0.75434,1.20268c-3.01263,4.81309-6.55662,11.52153-7.20184,20.75155
						l-0.00949,0.16131v3.28306C53.58662,83.71361,51.34731,85.85803,48.59799,85.85803z M37.69559,78.76056v2.31522
						c0,1.29756,1.14812,2.35316,2.55717,2.35316h8.34522c1.41143,0,2.55955-1.0556,2.55955-2.35316v-2.31522h-6.30992
						c-0.21112,0.04982-0.61676,0.05219-1.02002-0.01423L37.69559,78.76056z M43.21084,76.33148H44.015
						c0.34633,0.03796,0.50052,0.04033,0.64523,0.01424l0.97969-0.00237v-15.3739c0.00475-0.30601-0.13284-0.61201-0.3748-0.85872
						c-0.48866-0.4934-1.19082-0.4934-1.67948,0c-0.24196,0.2467-0.37954,0.55271-0.3748,0.83974V76.33148z M48.069,76.33148
						h3.19765c0.8777-9.18259,4.43118-15.88391,7.47227-20.74207l0.75909-1.20742c3.43487-5.44645,6.14386-9.74953,6.14386-15.58739
						c0-11.67809-9.51706-21.17854-21.2165-21.17854s-21.2165,9.50045-21.2165,21.17854c0,5.8426,2.71611,10.15042,6.15335,15.60399
						l0.7496,1.19082c3.04109,4.85342,6.59457,11.55473,7.4699,20.74207h3.20003"/>
				</g>
			</g>
		</g>
	</g>
	<g>
		<g>
			<g>
				<path fill="#E73C4D" d="M48.59233,77.23473c-0.82813,0-1.5-0.67139-1.5-1.5c0-5.91943,0.88184-9.15527,1.65918-12.01025
					c0.76465-2.80664,1.4248-5.23096,1.00195-9.81982c-0.24609-2.93115-1.38184-6.44971-5.39648-6.63428
					c-0.74219-0.03711-1.82813,0.09473-2.61426,0.91113c-0.80078,0.83154-1.14551,2.20117-0.99707,3.96143
					c0.06934,0.8252-0.54395,1.55078-1.36914,1.62012c-0.83789,0.08252-1.55176-0.54346-1.62109-1.36914
					c-0.28027-3.3418,0.83789-5.2666,1.82617-6.29297c1.21973-1.26758,2.95801-1.91846,4.91309-1.82764
					c4.68945,0.21582,7.77246,3.71777,8.24805,9.36816c0.4707,5.11719-0.29102,7.9126-1.09668,10.87158
					c-0.76367,2.8042-1.55371,5.70361-1.55371,11.22168C50.09233,76.56335,49.42046,77.23473,48.59233,77.23473z"/>
			</g>
		</g>
	</g>
	<g>
		<g>
			<g>
				<path fill="#E73C4D" d="M31.56499,56.01843c-0.7168,0-1.35156-0.51563-1.47656-1.24658
					c-0.97266-5.67285-0.07617-10.19678,2.66309-13.4458c4.1123-4.87646,10.80762-4.93262,11.09082-4.93262
					c0.82813,0,1.5,0.67139,1.5,1.5s-0.67188,1.5-1.5,1.5c-0.05176,0.00049-5.61523,0.07324-8.81152,3.88428
					c-2.13184,2.54102-2.7998,6.23779-1.98535,10.9873c0.13965,0.81641-0.4082,1.5918-1.22559,1.73193
					C31.73491,56.01159,31.64897,56.01843,31.56499,56.01843z"/>
			</g>
		</g>
	</g>
	<g>
		<g>
			<g>
				<path fill="#E73C4D" d="M28.31681,40.14654c0.39648-0.72607,0.13086-1.6377-0.59473-2.03613
					c-0.72266-0.396-1.63477-0.13379-2.03516,0.59131c-0.0813,0.14789-1.1875,2.1875-1.88306,4.87823
					c0.58569,2.15613,1.53906,4.18378,2.72192,6.27045c-0.00903-0.06555-0.01514-0.13104-0.0332-0.19653
					C25.37931,45.58599,28.28654,40.20025,28.31681,40.14654z"/>
			</g>
		</g>
	</g>
	<g>
		<g>
			<g>
				<path fill="#E73C4D" d="M42.96148,23.42838c0.86182-0.02795,1.53564-0.70166,1.50635-1.5047
					c-0.03052-0.80402-0.74512-1.42938-1.61401-1.4043c-5.89478,0.19055-10.31055,1.63672-13.57568,3.47272
					c-2.57275,2.62274-4.45215,5.9115-5.38916,9.5763C24.54253,32.15238,28.95831,23.88107,42.96148,23.42838z"/>
			</g>
		</g>
	</g>
	<g>
		<g>
			<g>
				<path fill="#E73C4D" d="M47.68678,22.2516c-0.09082,0.82227,0.50293,1.56299,1.32422,1.65527
					c0.10889,0.01233,10.56201,1.29633,16.24268,10.84289c-0.62793-3.27612-2.02076-6.27606-3.97559-8.83124
					c-5.6958-4.25586-11.58423-4.95502-11.94092-4.99359C48.51979,20.84047,47.77858,21.43032,47.68678,22.2516z"/>
			</g>
		</g>
	</g>
	<g>
		<g>
			<path fill="#E73C4D" d="M57.54839,32.42674c-14.12305-10.40527-27.92774,1.36328-28.06641,1.48291
				c-0.625,0.54395-0.68945,1.4917-0.14551,2.11621c0.54395,0.62354,1.49023,0.69043,2.11621,0.14551
				c0.12012-0.10449,12.10938-10.32178,24.31641-1.32959c6.53516,4.81348,7.44922,12.24512,7.45703,12.31592
				c0.02197,0.20422,0.14268,0.64161,0.16621,0.81808c0.78394-1.60168,1.41508-3.46511,1.80058-5.16183
				C64.11137,39.79417,61.92461,35.65007,57.54839,32.42674z"/>
		</g>
	</g>
	<g>
		<g>
			<path fill="#E73C4D" d="M39.90552,58.90612c0.06543-0.82617-0.55176-1.54785-1.37793-1.61279
				c-0.82324-0.05957-1.54785,0.55127-1.6123,1.37842c-0.16431,2.09259-0.71069,5.3822-1.40234,7.93615
				c0.50586,1.49036,0.95557,3.06879,1.31738,4.74927c0.05664-0.06659,0.11621-0.12976,0.16211-0.20789
				C38.58814,68.41442,39.67701,61.82556,39.90552,58.90612z"/>
		</g>
	</g>
	<g>
		<g>
			<g>
				<path fill="#E73C4D" d="M60.58254,52.70816C60.07595,40.44503,50.5198,37.54007,50.41726,37.50802
					c-0.79297-0.2417-1.62012,0.19727-1.86816,0.9834c-0.24805,0.78662,0.18945,1.62744,0.97461,1.88086
					c0.37695,0.12158,10.07544,3.15186,7.70825,17.69287c-0.0061,0.03717-0.00342,0.07336-0.00659,0.11029
					c0.51245-0.89905,1.02515-1.75104,1.52393-2.5481l0.75928-1.20746C59.87624,53.83657,60.23367,53.26852,60.58254,52.70816z"/>
			</g>
		</g>
	</g>
	<g>
		<g>
			<g>
				<g>
					<g>
						<path fill="none" d="M17.63498,36.19152c0.15651-1.61899,0.39699-3.23728,0.85138-4.80114l-5.32986-1.44966
							c-0.54372,1.89194-0.84254,3.84559-1.02645,5.79838L17.63498,36.19152z"/>
					</g>
				</g>
			</g>
			<g>
				<g>
					<g>
						<path fill-rule="evenodd" clip-rule="evenodd" fill="#E73C4D" d="M15.81967,30.66508
							c1.50002,0.43227,2.30972,1.79282,2.13236,3.106c-0.22021,1.30631-1.58539,2.29008-3.07133,2.19409
							c-1.554-0.10295-2.64421-1.5141-2.36927-3.14738C12.74822,31.17952,14.39392,30.24808,15.81967,30.66508z"/>
					</g>
				</g>
			</g>
		</g>
		<g>
			<g>
				<g>
					<g>
						<path fill="none" d="M19.99398,27.24151c0.66594-1.48591,1.50568-2.89028,2.43589-4.22476l-4.5083-3.19124
							c-1.12452,1.60898-2.13412,3.30648-2.94226,5.10045L19.99398,27.24151z"/>
					</g>
				</g>
			</g>
			<g>
				<g>
					<g>
						<path fill-rule="evenodd" clip-rule="evenodd" fill="#E73C4D" d="M20.17422,21.42007
							c1.20271,0.88327,1.60628,2.50834,0.94028,3.65429c-0.69918,1.12514-2.20545,1.64034-3.62952,1.00861
							c-1.36293-0.59867-2.01396-2.36234-1.15162-3.77439C17.1671,20.87761,18.92001,20.50209,20.17422,21.42007z"/>
					</g>
				</g>
			</g>
		</g>
		<g>
			<g>
				<g>
					<g>
						<path fill="none" d="M25.26119,19.6178c1.17246-1.13478,2.40797-2.19685,3.74578-3.13263L25.8546,11.9496
							c-1.61409,1.12779-3.10738,2.40651-4.51581,3.77928L25.26119,19.6178z"/>
					</g>
				</g>
			</g>
			<g>
				<g>
					<g>
						<path fill-rule="evenodd" clip-rule="evenodd" fill="#E73C4D" d="M27.42975,14.21589
							c0.85569,1.2741,0.66779,2.92536-0.36698,3.75037c-0.97328,0.8989-2.68142,0.74348-3.76407-0.2942
							c-1.11601-1.0711-1.01165-2.82328,0.21147-3.93521C24.79803,12.70241,26.58869,12.95973,27.42975,14.21589z"/>
					</g>
				</g>
			</g>
		</g>
		<g>
			<g>
				<g>
					<g>
						<path fill="none" d="M32.84041,14.28799c1.46048-0.70796,2.99865-1.28861,4.57901-1.66484l-1.40323-5.34226
							c-1.9085,0.46231-3.76851,1.16024-5.53476,2.01269L32.84041,14.28799z"/>
					</g>
				</g>
			</g>
			<g>
				<g>
					<g>
						<path fill-rule="evenodd" clip-rule="evenodd" fill="#E73C4D" d="M36.71735,9.95025
							c0.3672,1.49557-0.40003,2.89354-1.62598,3.40022c-1.26198,0.40745-2.75474-0.18781-3.43122-1.56134
							c-0.67029-1.35907-0.03232-3.10518,1.54168-3.62891C34.74133,7.54206,36.36002,8.48677,36.71735,9.95025z"/>
					</g>
				</g>
			</g>
		</g>
		<g>
			<g>
				<g>
					<g>
						<path fill="none" d="M41.76732,11.83963c1.62928-0.13645,3.25753-0.13645,4.88681,0l0.49935-5.50088
							c-1.96149-0.16661-3.92402-0.16661-5.88551,0L41.76732,11.83963z"/>
					</g>
				</g>
			</g>
			<g>
				<g>
					<g>
						<path fill-rule="evenodd" clip-rule="evenodd" fill="#E73C4D" d="M46.90396,9.08738
							c-0.16283,1.51515-1.36958,2.70138-2.69378,2.6276c-1.32421,0.07389-2.5299-1.11246-2.69271-2.6276
							c-0.16265-1.51393,1.04226-2.81959,2.6926-2.89589C45.86042,6.26766,47.06665,7.57347,46.90396,9.08738z"/>
					</g>
				</g>
			</g>
		</g>
		<g>
			<g>
				<g>
					<g>
						<path fill="none" d="M51.00202,12.62315c1.58037,0.37623,3.11854,0.95688,4.57902,1.66484l2.35898-4.99441
							c-1.76626-0.85245-3.62626-1.55038-5.53476-2.01269L51.00202,12.62315z"/>
					</g>
				</g>
			</g>
			<g>
				<g>
					<g>
						<path fill-rule="evenodd" clip-rule="evenodd" fill="#E73C4D" d="M56.7613,11.78913
							c-0.67647,1.37346-2.17025,1.9684-3.43222,1.56097c-1.22597-0.50668-1.99223-1.90421-1.62498-3.39985
							c0.35732-1.46341,1.97481-2.40862,3.5143-1.79047C56.79242,8.68349,57.43163,10.43,56.7613,11.78913z"/>
					</g>
				</g>
			</g>
		</g>
		<g>
			<g>
				<g>
					<g>
						<path fill="none" d="M59.41447,16.48517c1.33781,0.93577,2.57333,1.99785,3.74579,3.13263l3.92239-3.88892
							c-1.40842-1.37277-2.90173-2.65149-4.51581-3.77928L59.41447,16.48517z"/>
					</g>
				</g>
			</g>
			<g>
				<g>
					<g>
						<path fill-rule="evenodd" clip-rule="evenodd" fill="#E73C4D" d="M65.12275,17.67206
							c-1.08267,1.03767-2.7916,1.19236-3.76486,0.29348c-1.03492-0.82486-1.22187-2.4756-0.36619-3.74964
							c0.84111-1.2562,2.63061-1.51417,3.91862-0.47992C66.13345,14.84791,66.23878,16.60098,65.12275,17.67206z"/>
					</g>
				</g>
			</g>
		</g>
		<g>
			<g>
				<g>
					<g>
						<path fill="none" d="M65.99158,23.01675c0.93021,1.33448,1.76996,2.73885,2.43589,4.22476l5.01469-2.31555
							c-0.80815-1.79398-1.81774-3.49147-2.94227-5.10045L65.99158,23.01675z"/>
					</g>
				</g>
			</g>
			<g>
				<g>
					<g>
						<path fill-rule="evenodd" clip-rule="evenodd" fill="#E73C4D" d="M70.93646,26.08298
							c-1.42413,0.63173-2.93072,0.11551-3.63008-1.00953c-0.66599-1.14597-0.26191-2.7701,0.94084-3.65337
							c1.2542-0.91793,3.00647-0.54357,3.84019,0.88741C72.94997,23.71943,72.29936,25.48436,70.93646,26.08298z"/>
					</g>
				</g>
			</g>
		</g>
		<g>
			<g>
				<g>
					<g>
						<path fill="none" d="M69.93509,31.39038c0.4544,1.56386,0.69486,3.18215,0.85138,4.80114l5.50492-0.45242
							c-0.18391-1.9528-0.48273-3.90645-1.02644-5.79838L69.93509,31.39038z"/>
					</g>
				</g>
			</g>
			<g>
				<g>
					<g>
						<path fill-rule="evenodd" clip-rule="evenodd" fill="#E73C4D" d="M73.54075,35.96516
							c-1.48592,0.09596-2.85132-0.88885-3.07149-2.19516c-0.17759-1.31311,0.63255-2.67269,2.13251-3.10492
							c1.4258-0.41698,3.07101,0.51322,3.30804,2.15143C76.18475,34.4498,75.0948,35.86223,73.54075,35.96516z"/>
					</g>
				</g>
			</g>
		</g>
		<g>
			<g>
				<g>
					<g>
						<path fill="none" d="M70.78647,40.61765c-0.15652,1.61899-0.39698,3.23728-0.85138,4.80114l5.32986,1.44967
							c0.54372-1.89194,0.84254-3.8456,1.02644-5.79839L70.78647,40.61765z"/>
					</g>
				</g>
			</g>
			<g>
				<g>
					<g>
						<path fill-rule="evenodd" clip-rule="evenodd" fill="#E73C4D" d="M72.60178,46.1441
							c-1.50002-0.43228-2.30972-1.79284-2.13236-3.106c0.22021-1.30632,1.58539-2.29009,3.07133-2.1941
							c1.55401,0.10295,2.64421,1.5141,2.36926,3.14738C75.67323,45.62965,74.02752,46.56108,72.60178,46.1441z"/>
					</g>
				</g>
			</g>
		</g>
		<g>
			<g>
				<g>
					<g>
						<path fill="none" d="M68.42747,49.56765c-0.66593,1.48592-1.50568,2.89029-2.43589,4.22476l4.50831,3.19125
							c1.12453-1.60899,2.13412-3.3065,2.94227-5.10045L68.42747,49.56765z"/>
					</g>
				</g>
			</g>
			<g>
				<g>
					<g>
						<path fill-rule="evenodd" clip-rule="evenodd" fill="#E73C4D" d="M68.24722,55.38909
							c-1.20271-0.88327-1.60628-2.50834-0.94028-3.65429c0.69918-1.12516,2.20544-1.64034,3.62952-1.00861
							c1.36293,0.59866,2.01396,2.36233,1.15162,3.77439C71.25435,55.93155,69.50144,56.30706,68.24722,55.38909z"/>
					</g>
				</g>
			</g>
		</g>
		<g>
			<g>
				<g>
					<g>
						<path fill="none" d="M63.16026,57.19136c-1.17246,1.13478-2.40798,2.19686-3.74579,3.13264l3.15237,4.53557
							c1.61409-1.12779,3.10739-2.40651,4.51581-3.77928L63.16026,57.19136z"/>
					</g>
				</g>
			</g>
		</g>
		<g>
			<g>
				<g>
					<g>
						<path fill="none" d="M55.58104,62.52118c-1.46048,0.70795-2.99865,1.28862-4.57902,1.66485l1.40324,5.34226
							c1.9085-0.46232,3.7685-1.16025,5.53476-2.01271L55.58104,62.52118z"/>
					</g>
				</g>
			</g>
		</g>
		<g>
			<g>
				<g>
					<g>
						<path fill="none" d="M46.65413,64.96954c-1.62928,0.13645-3.25753,0.13645-4.88681,0l-0.49935,5.50086
							c1.96149,0.16661,3.92402,0.16661,5.88551,0L46.65413,64.96954z"/>
					</g>
				</g>
			</g>
		</g>
		<g>
			<g>
				<g>
					<g>
						<path fill="none" d="M37.41943,64.18603c-1.58036-0.37623-3.11854-0.9569-4.57901-1.66485l-2.35897,4.9944
							c1.76625,0.85246,3.62626,1.55039,5.53476,2.01271L37.41943,64.18603z"/>
					</g>
				</g>
			</g>
		</g>
		<g>
			<g>
				<g>
					<g>
						<path fill="none" d="M29.00697,60.32399c-1.33781-0.93578-2.57332-1.99786-3.74578-3.13264l-3.92239,3.88893
							c1.40843,1.37278,2.90172,2.65149,4.51581,3.77928L29.00697,60.32399z"/>
					</g>
				</g>
			</g>
		</g>
		<g>
			<g>
				<g>
					<g>
						<path fill="none" d="M22.42986,53.79241c-0.93021-1.33447-1.76995-2.73884-2.43589-4.22476l-5.01468,2.31556
							c0.80814,1.79396,1.81774,3.49146,2.94226,5.10045L22.42986,53.79241z"/>
					</g>
				</g>
			</g>
			<g>
				<g>
					<g>
						<path fill-rule="evenodd" clip-rule="evenodd" fill="#E73C4D" d="M17.48499,50.7262
							c1.42413-0.63173,2.93072-0.11551,3.63008,1.00953c0.66598,1.14598,0.26191,2.7701-0.94084,3.65337
							c-1.2542,0.91794-3.00647,0.54356-3.84019-0.8874C15.47148,53.08974,16.12209,51.32481,17.48499,50.7262z"/>
					</g>
				</g>
			</g>
		</g>
		<g>
			<g>
				<g>
					<g>
						<path fill="none" d="M18.48636,45.41879c-0.4544-1.56386-0.69487-3.18215-0.85138-4.80114l-5.50493,0.45242
							c0.18391,1.95278,0.48274,3.90645,1.02645,5.79839L18.48636,45.41879z"/>
					</g>
				</g>
			</g>
			<g>
				<g>
					<g>
						<path fill-rule="evenodd" clip-rule="evenodd" fill="#E73C4D" d="M14.8807,40.844
							c1.48591-0.09596,2.85132,0.88884,3.07149,2.19516c0.17759,1.31313-0.63255,2.6727-2.13252,3.10494
							c-1.42581,0.41698-3.07102-0.51322-3.30804-2.15144C12.23671,42.35937,13.32665,40.94693,14.8807,40.844z"/>
					</g>
				</g>
			</g>
		</g>
	</g>
</g>
</svg>
