<?xml version="1.0" encoding="utf-8"?>
<!-- Generator: Adobe Illustrator 22.0.1, SVG Export Plug-In . SVG Version: 6.00 Build 0)  -->
<svg version="1.1" xmlns="http://www.w3.org/2000/svg" xmlns:xlink="http://www.w3.org/1999/xlink" x="0px" y="0px"
	 viewBox="0 0 87.38281 87.38281" enable-background="new 0 0 87.38281 87.38281" xml:space="preserve">
<g id="Calque_1">
</g>
<g id="grille_page_entiere" display="none">
</g>
<g id="grille">
	<g>
		<g>
			<g>
				<g>
					<g>
						<path fill="#E73C4D" stroke="#E73C4D" stroke-width="0.75" stroke-miterlimit="10" d="M55.85112,48.20866l-0.49927-1.75367
							c3.51239-1.00032,6.20849-3.36071,8.81615-5.64392l0.50075-0.43812c2.0223-1.76376,4.03956-2.93921,5.81163-3.72165H52.47943
							v-1.82372h24.41782v2.0315l-0.81895,0.08371c-1.25024,0.12823-5.68132,0.85368-10.21095,4.80449l-0.49808,0.43575
							C62.73876,44.48641,59.7574,47.09673,55.85112,48.20866z"/>
					</g>
				</g>
			</g>
		</g>
		<g>
			<g>
				<g>
					<g>
						<path fill="#E73C4D" stroke="#E73C4D" stroke-width="0.75" stroke-miterlimit="10" d="M57.58372,85.54214h-25.9462v-1.82372
							c1.24787,0,2.76497-0.51054,4.63827-1.56073c2.65574-1.48712,4.77302-2.07188,6.03514-2.30103l-1.19177-29.88127
							c-1.50582-0.28139-10.93254-2.24344-18.22239-8.30589c-4.60264-3.82733-8.06516-4.70179-10.1596-4.76115l-0.88604-0.02493
							v-2.05584h31.93623v1.82372H18.58917c1.78217,0.86377,3.62103,2.07544,5.47354,3.61598
							c7.51722,6.25124,17.44143,7.92654,17.54086,7.94257l1.27785,0.19116l1.31763,33.03419l-1.10183,0.14307
							c-0.99497,0.13061-3.07813,0.58238-5.87575,2.14014h14.48649c-2.7341-1.52274-4.8312-1.97451-5.84132-2.10868
							l-1.21166-0.18997l0.22707-4.02383c0.11547-1.90386,0.29683-5.18205,0.50075-8.86512
							c0.41022-7.41837,0.92076-16.65097,1.15645-19.33787l0.11992-1.34702l1.34702-0.05165
							c0.17691,0.00831,0.57347-0.05165,0.73584-0.08252l0.33958,1.79166c-0.07777,0.01484-0.42981,0.07302-0.74683,0.10033
							c-0.24162,2.94455-0.73347,11.83936-1.13122,19.02798c-0.20392,3.68723-0.38528,6.96897-0.50105,8.87106l-0.13358,2.3687
							c1.39926,0.23866,3.49844,0.83706,6.08472,2.28619c2.51415,1.40875,4.28534,1.56073,4.93005,1.56073V85.54214z"/>
					</g>
				</g>
			</g>
		</g>
		<g>
			<g>
				<g>
					<g>
						<path fill="#E73C4D" stroke="#E73C4D" stroke-width="0.75" stroke-miterlimit="10" d="M47.27452,55.74457l-0.40784-1.77801
							c0.02761-0.00594,2.77892-0.6738,5.40379-3.27166c0.81183-0.80916,1.46812-1.69965,2.0042-2.72015l0.05135-0.08608
							c0.01009-0.01543,1.28201-1.98995,0.79847-4.86742c-0.24637-1.69015-0.93709-3.33993-2.05584-4.92381
							c-0.5429-0.76938-1.14844-1.48534-1.78989-2.24285l-0.80797-0.96232c-0.65985-0.79016-1.34227-1.60822-2.05525-2.35267
							l-0.89316-0.92908c-1.48771-1.5447-3.02588-3.14224-4.4477-4.81992c-1.11371-1.31377-2.24314-2.77536-2.95613-4.55871
							c-0.77027-1.92168-1.48267-4.23873-0.927-6.84846c0.43248-2.03329,1.11311-3.47469,2.20634-4.67329
							c1.31852-1.44734,3.01223-1.97095,4.89947-1.50968c1.36512,0.33304,2.25086,1.3013,2.79822,2.00063
							c1.25945,1.61001,1.43161,3.48775,1.44111,4.944c0.00327,0.51589-0.07599,1.01872-0.14604,1.46278
							c-0.02909,0.18403-0.05818,0.36569-0.08014,0.54498l-0.01217,0.0748c-0.23836,1.14636-0.36303,1.33395-0.43782,1.44616
							c-0.26181,0.39538-0.65985,0.60138-0.87357,0.68805c-0.59484,0.24578-0.74504,0.54735-0.79372,0.95401
							c-0.15435,1.31258-0.0564,2.65247,0.2995,4.09447c0.14782,0.59663,0.37045,1.18791,0.69814,1.84509
							c0.23717-0.20066,0.47701-0.42862,0.72753-0.68983c1.30249-1.35711,1.95166-3.11968,2.57648-4.82705
							c-0.00594-0.00297-0.01455-0.03206-0.03443-0.07718l-0.08757-0.19353c-0.16029-0.34848-0.34225-0.74385-0.3933-1.20632
							c-0.09795-0.87683-0.13951-1.7513-0.12289-2.59785c0.00594-0.32176,0.01662-0.64472,0.0276-0.96707
							c0.03592-1.0674,0.06976-2.07484-0.07064-3.07278c-0.36391-2.56164-1.5637-4.27435-3.66763-5.23608
							C47.978,8.31116,47.80614,8.24051,47.63279,8.1764c-0.18819-0.07065-0.37697-0.13179-0.56576-0.18997
							c-2.96859-1.0116-5.67598,0.90236-5.70299,0.92255l-0.05462,0.03621c-0.4212,0.25943-0.79224,0.63047-1.18495,1.02347
							l-0.27486,0.27308c-1.07809,1.05493-1.90238,2.3218-2.45033,3.76499c-0.53904,1.42122-0.94303,3.02648-1.23452,4.9066
							c-0.17513,1.12558-0.17929,2.15795-0.01306,3.1559c0.39983,2.39482,1.34405,4.66617,2.80712,6.7511l-1.49305,1.04722
							c-1.62069-2.30934-2.66791-4.83239-3.11286-7.49792c-0.19888-1.19326-0.19561-2.4156,0.0095-3.73649
							c0.31137-2.00657,0.74712-3.73175,1.33188-5.27348c0.64234-1.69252,1.61119-3.17964,2.87925-4.42098l0.26121-0.25943
							c0.44347-0.44346,0.90207-0.90236,1.49335-1.27162c0.36629-0.25527,3.62043-2.40907,7.30083-1.15586
							c0.19858,0.06055,0.42239,0.13357,0.64204,0.21609c0.21016,0.07836,0.42239,0.16563,0.63136,0.26062
							c2.6783,1.22353,4.26485,3.45747,4.71692,6.64008c0.16296,1.15586,0.12467,2.29093,0.08757,3.3892
							c-0.01039,0.31345-0.02108,0.62691-0.02701,0.94036c-0.01484,0.76879,0.02285,1.56251,0.1122,2.36158
							c0.0187,0.17038,0.13001,0.412,0.23776,0.6459l0.10063,0.22203c0.21906,0.50046,0.24755,0.97598,0.08519,1.41588
							c-0.65926,1.80116-1.40757,3.84513-2.98136,5.48482c-0.63492,0.66193-1.22799,1.15526-1.86528,1.55123l-0.7958,0.49393
							l-0.47255-0.80857c-0.68894-1.17901-1.12677-2.20129-1.37818-3.21704c-0.40962-1.65869-0.52094-3.21111-0.34016-4.7469
							c0.13624-1.1428,0.77977-1.95908,1.91277-2.42629c0.00861-0.00356,0.01692-0.00712,0.02464-0.01128
							c0.05165-0.1775,0.12942-0.5052,0.18552-0.77176c0.02375-0.187,0.05373-0.37638,0.084-0.56873
							c0.06471-0.41081,0.12615-0.79907,0.12378-1.16595c-0.01128-1.75605-0.32652-2.9024-1.05375-3.83207
							c-0.60375-0.77176-1.17397-1.20157-1.79404-1.35295c-1.24995-0.30277-2.24077,0.00237-3.11938,0.96648
							c-0.86318,0.94689-1.40905,2.1259-1.77029,3.82495c-0.45385,2.13124,0.16801,4.12356,0.83617,5.79115
							c0.61622,1.54114,1.63998,2.86085,2.65425,4.05707c1.38441,1.63316,2.9024,3.20933,4.37023,4.73384l0.89643,0.93264
							c0.75632,0.78957,1.45892,1.63197,2.13836,2.44588l0.79995,0.95223c0.63878,0.75454,1.29893,1.5352,1.88784,2.36989
							c1.28527,1.81957,2.08226,3.73471,2.36752,5.69201c0.56665,3.37199-0.81777,5.74366-1.05612,6.12123
							c-0.61978,1.1707-1.377,2.19535-2.31438,3.12978C50.53876,54.974,47.4066,55.71429,47.27452,55.74457z"/>
					</g>
				</g>
			</g>
		</g>
		<g>
			<g>
				<g>
					<g>
						<path fill="#E73C4D" stroke="#E73C4D" stroke-width="0.75" stroke-miterlimit="10" d="M47.72303,50.30131l-0.57882-1.72993
							c1.22383-0.40963,2.00895-1.38738,2.15202-2.14074c0.23627-1.24015,0.08905-2.35327-0.43753-3.30965
							c-0.3182-0.57822-0.6925-1.14398-1.04929-1.66937c-0.67796-1.00032-1.52363-1.86231-2.41917-2.77536l-1.11578-1.13686
							c-0.57169-0.58119-1.14279-1.16179-1.70707-1.74952c-1.57082-1.6385-3.52545-3.67654-5.10132-5.92235l1.49246-1.04722
							c1.3859,1.97392,2.98225,3.68069,4.92471,5.70685c0.55893,0.58238,1.12498,1.15763,1.69134,1.73349l1.11757,1.13864
							c0.91275,0.93026,1.85667,1.89199,2.62635,3.02826c0.38113,0.5616,0.78333,1.1701,1.13775,1.81363
							c0.73703,1.3387,0.94956,2.86263,0.63165,4.53022C50.7964,48.30602,49.44434,49.72486,47.72303,50.30131z"/>
					</g>
				</g>
			</g>
		</g>
		<g>
			<g>
				<g>
					<g>
						<path fill="#FFFFFF" stroke="#E73C4D" stroke-width="0.75" stroke-miterlimit="10" d="M54.40563,61.11615
							c-0.40996-1.49216-1.41914-2.50287-2.87413-3.08911c-1.28156-0.51463-3.25934-0.67484-4.60828-0.65622l-0.22013,3.84781
							c0.53273-0.12385,1.0546-0.12526,1.31692-0.02486c0.4917,0.18774,0.81413,0.6862,0.62104,1.08669
							c-0.22363,0.40139-0.58146,0.50862-0.99716,0.61607c-1.04073,0.26952-2.10148,0.31397-3.16944,0.24088
							c-0.68809-0.04586-1.35466-0.19353-1.99254-0.46736c-3.97103-1.34234-3.31303-3.92379-3.31303-3.92379
							c0.16771-0.89019,0.72271-1.37863,1.57706-1.76851c0.26236-0.11903,1.26676-0.52643,1.54058-0.61243l-0.20478-5.13471
							c-1.91734,0.48717-3.58411,1.12313-5.01123,2.23075c-2.62041,1.98535-3.6683,4.64598-3.19096,7.85842
							c0.23079,1.55391,0.9762,2.93001,2.03414,4.11555c0,0,1.62143,1.69817,5.02192,2.71451
							c1.36182,0.45868,2.13543,0.51945,3.57754,0.60257c1.08083,0.06307,2.14163-0.07451,3.19667-0.28674
							c2.06709-0.41853,3.93493-1.23852,5.42-2.78233C54.36693,64.39597,54.88442,62.85647,54.40563,61.11615z"/>
					</g>
				</g>
			</g>
			<g>
				<g>
					<g>
						<path fill="#E73C4D" stroke="#E73C4D" stroke-width="0.75" stroke-miterlimit="10" d="M45.0477,69.67955
							c-0.19947,0-0.39508-0.00594-0.58802-0.01722c-1.4981-0.08608-2.34852-0.15435-3.81516-0.64828
							c-3.56047-1.06384-5.31741-2.87212-5.39043-2.94871c-1.2737-1.42715-2.03269-2.97067-2.27668-4.61155
							c-0.52717-3.5489,0.69755-6.5641,3.54237-8.71908c1.36334-1.05849,3.01223-1.79701,5.3373-2.38829l1.09085-0.27724
							l0.27753,6.95829l-0.66727,0.20838c-0.21936,0.06886-1.1799,0.45652-1.43636,0.57228
							c-0.77562,0.35442-0.97538,0.6744-1.05671,1.10658c-0.0472,0.22381-0.30039,1.87418,2.70887,2.89172l0.06738,0.02553
							c0.51767,0.22203,1.08759,0.3556,1.69371,0.39538c0.41942,0.02909,0.81777,0.03621,1.19563,0.02197l0.33037-5.77868
							l0.84953-0.01188c1.47554-0.0279,3.5581,0.15851,4.96092,0.72248c1.76466,0.71061,2.94455,1.98757,3.41325,3.69316
							c0.5432,1.97451,0.02523,3.85641-1.49751,5.44089c-1.48742,1.54649-3.41621,2.54146-5.89653,3.04369
							C46.81799,69.57507,45.89871,69.67955,45.0477,69.67955z M36.59398,64.82816c0.00119,0,1.51888,1.5263,4.60294,2.44765
							c1.27963,0.431,1.9567,0.48443,3.36872,0.56635c0.86971,0.05046,1.78306-0.03265,2.96385-0.27071
							c2.10423-0.42566,3.72165-1.25025,4.94311-2.52009c1.08254-1.12677,1.42746-2.33486,1.05375-3.69375l0,0
							c-0.32117-1.16832-1.08491-1.98104-2.33546-2.48446c-0.91186-0.36629-2.2663-0.53311-3.40731-0.57882l-0.10983,1.9193
							c0.23034,0.01188,0.46335,0.04868,0.67202,0.12823c0.5248,0.20066,0.95431,0.61147,1.14843,1.09887
							c0.16444,0.41319,0.15317,0.8519-0.03146,1.2354c-0.44851,0.80797-1.16357,0.9926-1.59071,1.10302
							c-1.03653,0.26834-2.16716,0.35917-3.45985,0.26774c-0.79788-0.05284-1.55746-0.22915-2.25591-0.5242
							c-3.74303-1.27993-4.16987-3.82911-3.87096-5.00158c0.25973-1.38857,1.31347-2.022,2.08197-2.37286
							c0.15583-0.07065,0.58683-0.24993,0.98191-0.40547l-0.13268-3.32331c-1.50611,0.46662-2.63882,1.02644-3.58689,1.76198
							c-2.35475,1.78395-3.28383,4.0731-2.84808,7.004C34.97211,62.46836,35.58179,63.69427,36.59398,64.82816L36.59398,64.82816z
							 M47.29589,62.0433c-0.1128,0.01068-0.2434,0.03027-0.38588,0.06352l-0.25824,0.05996
							C46.87291,62.13473,47.08751,62.09317,47.29589,62.0433z"/>
					</g>
				</g>
			</g>
		</g>
		<g>
			<g>
				<g>
					<g>
						<path fill="#FFFFFF" stroke="#E73C4D" stroke-width="0.75" stroke-miterlimit="10" d="M49.76823,75.32185
							c-2.25631-0.74971-4.51262-1.5023-6.76033-2.27924c-0.61783-0.2136-1.25573-0.44152-1.79042-0.80132
							c-0.93464-0.62787-1.33601-1.62271-1.53097-2.7007c-0.10894-0.60349-0.14877-1.16493,0.2354-1.73116
							c0,0-2.166-0.72289-3.90779-2.27642c-0.31468,0.58645-0.54203,1.44595-0.67105,2.06951
							c-0.26806,1.30161-0.26806,2.58888,0.30103,3.83745c0.6508,1.42633,1.55103,2.61325,2.97592,3.34863
							c1.40482,0.72678,2.85694,1.34174,4.41228,1.64995c1.57253,0.31249,3.1551,0.58199,4.74197,0.81422
							c2.2262,0.32396,4.32913,0.99483,6.30304,2.06709c0.28957,0.15768,0.54186,0.38417,0.81136,0.5777
							c-0.00573,0.01576,0.01576-0.01577,0.02007-0.04874c0.01004-0.06307,0.0129-0.12614,0.01147-0.18922
							c0-0.47591-0.22075-0.86296-0.50602-1.22276C53.19856,76.90157,51.60596,75.93253,49.76823,75.32185"/>
					</g>
				</g>
			</g>
			<g>
				<g>
					<g>
						<path fill="#E73C4D" stroke="#E73C4D" stroke-width="0.75" stroke-miterlimit="10" d="M55.17227,80.76793 M55.27155,80.76793
							c-0.53591,0.17007-1.00313-0.19413-1.00313-0.19413c-0.065-0.04868-0.12942-0.09855-0.19383-0.14841
							c-0.15435-0.11932-0.30039-0.23212-0.43248-0.30396c-1.82372-0.99081-3.84217-1.65215-5.99923-1.9662
							c-1.63998-0.23984-3.25088-0.51648-4.78846-0.82281c-1.43814-0.28437-2.91695-0.83588-4.6534-1.73409
							c-1.46278-0.75513-2.57084-1.99173-3.38653-3.78043c-0.58891-1.2918-0.70794-2.73083-0.36451-4.39961
							c0.11309-0.54676,0.36184-1.5732,0.76048-2.31646l0.54706-1.01991l0.86348,0.77057
							c1.58329,1.41232,3.56997,2.08553,3.58986,2.09206l1.14161,0.38113l-0.67588,0.99615
							c-0.17157,0.25231-0.19324,0.49927-0.09261,1.05672c0.19027,1.05375,0.5426,1.70321,1.1419,2.10571
							c0.42447,0.28555,0.96677,0.48443,1.58002,0.69636c2.22741,0.77058,4.46373,1.51621,6.74991,2.27551l0,0
							c2.16448,0.71951,3.82406,1.83678,5.07312,3.41473c0.27457,0.34551,0.63165,0.87328,0.69369,1.57498v0.33356l-0.0279,0.30284
							C55.76916,80.36765,55.58405,80.66875,55.27155,80.76793z M36.42331,67.01461c-0.06768,0.23984-0.1309,0.49986-0.1873,0.77235
							c-0.26626,1.29358-0.19057,2.33427,0.23776,3.27463c0.64828,1.42122,1.46337,2.34851,2.56461,2.91665
							c1.58032,0.81747,2.90537,1.31496,4.17105,1.56548c1.5079,0.30039,3.08792,0.5717,4.69704,0.80679
							c1.38649,0.20184,2.72252,0.53548,3.99563,0.99616c-0.70319-0.47137-1.50701-0.85546-2.42154-1.15942l0,0
							c-2.29153-0.76167-4.53348-1.50909-6.77069-2.28262c-0.73643-0.25468-1.3951-0.49927-2.00122-0.90652
							c-1.01397-0.68093-1.64177-1.75902-1.9193-3.29541c-0.08014-0.44405-0.13001-0.90829-0.04453-1.38322
							C38.13512,68.04817,37.28411,67.61777,36.42331,67.01461z"/>
					</g>
				</g>
			</g>
		</g>
	</g>
</g>
</svg>
