<svg xmlns="http://www.w3.org/2000/svg" xmlns:xlink="http://www.w3.org/1999/xlink" style="enable-background:new 0 0 87.4 87.4" id="Calque_1" x="0" y="0" version="1.1" viewBox="0 0 87.4 87.4" xml:space="preserve"><style type="text/css">.st1{fill:#f03436}.st1,.st2,.st3{stroke:#f03436;stroke-width:.75;stroke-miterlimit:10}.st2{fill:#e73c4d}.st3{fill:#fff}</style><g id="grille"><g><g><g><g><g><path d="M55.9,48.2l-0.5-1.8c3.5-1,6.2-3.4,8.8-5.6l0.5-0.4c2-1.8,4-2.9,5.8-3.7h-18v-1.8h24.4v2l-0.8,0.1 c-1.3,0.1-5.7,0.9-10.2,4.8l-0.5,0.4C62.7,44.5,59.8,47.1,55.9,48.2z" class="st1"/></g></g></g></g><g><g><g><g><path d="M57.6,85.5H31.6v-1.8c1.2,0,2.8-0.5,4.6-1.6c2.7-1.5,4.8-2.1,6-2.3L41.1,50c-1.5-0.3-10.9-2.2-18.2-8.3 c-4.6-3.8-8.1-4.7-10.2-4.8l-0.9,0v-2.1h31.9v1.8H18.6c1.8,0.9,3.6,2.1,5.5,3.6c7.5,6.3,17.4,7.9,17.5,7.9l1.3,0.2l1.3,33 l-1.1,0.1c-1,0.1-3.1,0.6-5.9,2.1h14.5c-2.7-1.5-4.8-2-5.8-2.1l-1.2-0.2l0.2-4c0.1-1.9,0.3-5.2,0.5-8.9 c0.4-7.4,0.9-16.7,1.2-19.3l0.1-1.3l1.3-0.1c0.2,0,0.6-0.1,0.7-0.1l0.3,1.8c-0.1,0-0.4,0.1-0.7,0.1c-0.2,2.9-0.7,11.8-1.1,19 c-0.2,3.7-0.4,7-0.5,8.9l-0.1,2.4c1.4,0.2,3.5,0.8,6.1,2.3c2.5,1.4,4.3,1.6,4.9,1.6L57.6,85.5L57.6,85.5z" class="st1"/></g></g></g></g><g><g><g><g><path d="M47.3,55.7L46.9,54c0,0,2.8-0.7,5.4-3.3c0.8-0.8,1.5-1.7,2-2.7l0.1-0.1c0,0,1.3-2,0.8-4.9 c-0.2-1.7-0.9-3.3-2.1-4.9c-0.5-0.8-1.1-1.5-1.8-2.2l-0.8-1c-0.7-0.8-1.3-1.6-2.1-2.4l-0.9-0.9c-1.5-1.5-3-3.1-4.4-4.8 c-1.1-1.3-2.2-2.8-3-4.6c-0.8-1.9-1.5-4.2-0.9-6.8c0.4-2,1.1-3.5,2.2-4.7c1.3-1.4,3-2,4.9-1.5c1.4,0.3,2.3,1.3,2.8,2 c1.3,1.6,1.4,3.5,1.4,4.9c0,0.5-0.1,1-0.1,1.5c0,0.2-0.1,0.4-0.1,0.5l0,0.1c-0.2,1.1-0.4,1.3-0.4,1.4 c-0.3,0.4-0.7,0.6-0.9,0.7c-0.6,0.2-0.7,0.5-0.8,1c-0.2,1.3-0.1,2.7,0.3,4.1c0.1,0.6,0.4,1.2,0.7,1.8c0.2-0.2,0.5-0.4,0.7-0.7 c1.3-1.4,2-3.1,2.6-4.8c0,0,0,0,0-0.1l-0.1-0.2c-0.2-0.3-0.3-0.7-0.4-1.2c-0.1-0.9-0.1-1.8-0.1-2.6c0-0.3,0-0.6,0-1 c0-1.1,0.1-2.1-0.1-3.1c-0.4-2.6-1.6-4.3-3.7-5.2c-0.2-0.1-0.3-0.1-0.5-0.2C47.4,8.1,47.3,8,47.1,8c-3-1-5.7,0.9-5.7,0.9 l-0.1,0c-0.4,0.3-0.8,0.6-1.2,1l-0.3,0.3c-1.1,1.1-1.9,2.3-2.5,3.8c-0.5,1.4-0.9,3-1.2,4.9c-0.2,1.1-0.2,2.2,0,3.2 c0.4,2.4,1.3,4.7,2.8,6.8l-1.5,1c-1.6-2.3-2.7-4.8-3.1-7.5c-0.2-1.2-0.2-2.4,0-3.7c0.3-2,0.7-3.7,1.3-5.3 c0.6-1.7,1.6-3.2,2.9-4.4l0.3-0.3c0.4-0.4,0.9-0.9,1.5-1.3c0.4-0.3,3.6-2.4,7.3-1.2c0.2,0.1,0.4,0.1,0.6,0.2 c0.2,0.1,0.4,0.2,0.6,0.3c2.7,1.2,4.3,3.5,4.7,6.6c0.2,1.2,0.1,2.3,0.1,3.4c0,0.3,0,0.6,0,0.9c0,0.8,0,1.6,0.1,2.4 c0,0.2,0.1,0.4,0.2,0.6l0.1,0.2c0.2,0.5,0.2,1,0.1,1.4c-0.7,1.8-1.4,3.8-3,5.5c-0.6,0.7-1.2,1.2-1.9,1.6l-0.8,0.5l-0.5-0.8 c-0.7-1.2-1.1-2.2-1.4-3.2c-0.4-1.7-0.5-3.2-0.3-4.7c0.1-1.1,0.8-2,1.9-2.4c0,0,0,0,0,0c0.1-0.2,0.1-0.5,0.2-0.8 c0-0.2,0.1-0.4,0.1-0.6c0.1-0.4,0.1-0.8,0.1-1.2c0-1.8-0.3-2.9-1.1-3.8c-0.6-0.8-1.2-1.2-1.8-1.4c-1.2-0.3-2.2,0-3.1,1 c-0.9,0.9-1.4,2.1-1.8,3.8c-0.5,2.1,0.2,4.1,0.8,5.8c0.6,1.5,1.6,2.9,2.7,4.1c1.4,1.6,2.9,3.2,4.4,4.7l0.9,0.9 c0.8,0.8,1.5,1.6,2.1,2.4l0.8,1c0.6,0.8,1.3,1.5,1.9,2.4c1.3,1.8,2.1,3.7,2.4,5.7c0.6,3.4-0.8,5.7-1.1,6.1 c-0.6,1.2-1.4,2.2-2.3,3.1C50.5,55,47.4,55.7,47.3,55.7z" class="st1"/></g></g></g></g><g><g><g><g><path d="M47.7,50.3l-0.6-1.7c1.2-0.4,2-1.4,2.2-2.1c0.2-1.2,0.1-2.4-0.4-3.3c-0.3-0.6-0.7-1.1-1-1.7 c-0.7-1-1.5-1.9-2.4-2.8l-1.1-1.1c-0.6-0.6-1.1-1.2-1.7-1.7c-1.6-1.6-3.5-3.7-5.1-5.9l1.5-1c1.4,2,3,3.7,4.9,5.7 c0.6,0.6,1.1,1.2,1.7,1.7l1.1,1.1c0.9,0.9,1.9,1.9,2.6,3c0.4,0.6,0.8,1.2,1.1,1.8c0.7,1.3,0.9,2.9,0.6,4.5 C50.8,48.3,49.4,49.7,47.7,50.3z" class="st2"/></g></g></g></g><g><g><g><g><path d="M54.4,61.1C54,59.6,53,58.6,51.5,58c-1.3-0.5-3.3-0.7-4.6-0.7l-0.2,3.8c0.5-0.1,1.1-0.1,1.3,0 c0.5,0.2,0.8,0.7,0.6,1.1c-0.2,0.4-0.6,0.5-1,0.6c-1,0.3-2.1,0.3-3.2,0.2c-0.7,0-1.4-0.2-2-0.5c-4-1.3-3.3-3.9-3.3-3.9 c0.2-0.9,0.7-1.4,1.6-1.8c0.3-0.1,1.3-0.5,1.5-0.6l-0.2-5.1c-1.9,0.5-3.6,1.1-5,2.2c-2.6,2-3.7,4.6-3.2,7.9 c0.2,1.6,1,2.9,2,4.1c0,0,1.6,1.7,5,2.7c1.4,0.5,2.1,0.5,3.6,0.6c1.1,0.1,2.1-0.1,3.2-0.3c2.1-0.4,3.9-1.2,5.4-2.8 C54.4,64.4,54.9,62.9,54.4,61.1z" class="st3"/></g></g></g><g><g><g><path d="M45,69.7c-0.2,0-0.4,0-0.6,0c-1.5-0.1-2.3-0.2-3.8-0.6c-3.6-1.1-5.3-2.9-5.4-2.9c-1.3-1.4-2-3-2.3-4.6 c-0.5-3.5,0.7-6.6,3.5-8.7c1.4-1.1,3-1.8,5.3-2.4l1.1-0.3l0.3,7l-0.7,0.2c-0.2,0.1-1.2,0.5-1.4,0.6c-0.8,0.4-1,0.7-1.1,1.1 c0,0.2-0.3,1.9,2.7,2.9l0.1,0c0.5,0.2,1.1,0.4,1.7,0.4c0.4,0,0.8,0,1.2,0l0.3-5.8l0.8,0c1.5,0,3.6,0.2,5,0.7 c1.8,0.7,2.9,2,3.4,3.7c0.5,2,0,3.9-1.5,5.4c-1.5,1.5-3.4,2.5-5.9,3C46.8,69.6,45.9,69.7,45,69.7z M36.6,64.8 c0,0,1.5,1.5,4.6,2.4c1.3,0.4,2,0.5,3.4,0.6c0.9,0.1,1.8,0,3-0.3c2.1-0.4,3.7-1.3,4.9-2.5c1.1-1.1,1.4-2.3,1.1-3.7l0,0 c-0.3-1.2-1.1-2-2.3-2.5c-0.9-0.4-2.3-0.5-3.4-0.6l-0.1,1.9c0.2,0,0.5,0,0.7,0.1c0.5,0.2,1,0.6,1.1,1.1c0.2,0.4,0.2,0.9,0,1.2 c-0.4,0.8-1.2,1-1.6,1.1c-1,0.3-2.2,0.4-3.5,0.3c-0.8-0.1-1.6-0.2-2.3-0.5c-3.7-1.3-4.2-3.8-3.9-5c0.3-1.4,1.3-2,2.1-2.4 c0.2-0.1,0.6-0.2,1-0.4l-0.1-3.3c-1.5,0.5-2.6,1-3.6,1.8c-2.4,1.8-3.3,4.1-2.8,7C35,62.5,35.6,63.7,36.6,64.8L36.6,64.8z M47.3,62c-0.1,0-0.2,0-0.4,0.1l-0.3,0.1C46.9,62.1,47.1,62.1,47.3,62z" class="st1"/></g></g></g></g><g><g><g><g><path d="M49.8,75.3c-2.3-0.7-4.5-1.5-6.8-2.3c-0.6-0.2-1.3-0.4-1.8-0.8c-0.9-0.6-1.3-1.6-1.5-2.7 c-0.1-0.6-0.1-1.2,0.2-1.7c0,0-2.2-0.7-3.9-2.3c-0.3,0.6-0.5,1.4-0.7,2.1c-0.3,1.3-0.3,2.6,0.3,3.8c0.7,1.4,1.6,2.6,3,3.3 c1.4,0.7,2.9,1.3,4.4,1.6c1.6,0.3,3.2,0.6,4.7,0.8c2.2,0.3,4.3,1,6.3,2.1c0.3,0.2,0.5,0.4,0.8,0.6c0,0,0,0,0,0 c0-0.1,0-0.1,0-0.2c0-0.5-0.2-0.9-0.5-1.2C53.2,76.9,51.6,75.9,49.8,75.3" class="st3"/></g></g></g><g><g><g><path d="M55.3,80.8c-0.5,0.2-1-0.2-1-0.2c-0.1,0-0.1-0.1-0.2-0.1c-0.2-0.1-0.3-0.2-0.4-0.3c-1.8-1-3.8-1.7-6-2 c-1.6-0.2-3.3-0.5-4.8-0.8c-1.4-0.3-2.9-0.8-4.7-1.7c-1.5-0.8-2.6-2-3.4-3.8c-0.6-1.3-0.7-2.7-0.4-4.4 c0.1-0.5,0.4-1.6,0.8-2.3l0.5-1l0.9,0.8c1.6,1.4,3.6,2.1,3.6,2.1l1.1,0.4l-0.7,1c-0.2,0.3-0.2,0.5-0.1,1.1 c0.2,1.1,0.5,1.7,1.1,2.1c0.4,0.3,1,0.5,1.6,0.7c2.2,0.8,4.5,1.5,6.7,2.3l0,0c2.2,0.7,3.8,1.8,5.1,3.4 c0.3,0.3,0.6,0.9,0.7,1.6v0.3l0,0.3C55.8,80.4,55.6,80.7,55.3,80.8z M36.4,67c-0.1,0.2-0.1,0.5-0.2,0.8 c-0.3,1.3-0.2,2.3,0.2,3.3c0.6,1.4,1.5,2.3,2.6,2.9c1.6,0.8,2.9,1.3,4.2,1.6c1.5,0.3,3.1,0.6,4.7,0.8c1.4,0.2,2.7,0.5,4,1 c-0.7-0.5-1.5-0.9-2.4-1.2l0,0c-2.3-0.8-4.5-1.5-6.8-2.3c-0.7-0.3-1.4-0.5-2-0.9c-1-0.7-1.6-1.8-1.9-3.3 c-0.1-0.4-0.1-0.9,0-1.4C38.1,68,37.3,67.6,36.4,67z" class="st1"/></g></g></g></g></g></g></svg>