<svg xmlns="http://www.w3.org/2000/svg" xmlns:xlink="http://www.w3.org/1999/xlink" style="enable-background:new 0 0 87.4 87.4" id="Calque_1" x="0" y="0" version="1.1" viewBox="0 0 87.4 87.4" xml:space="preserve"><style type="text/css">.st0{fill:#f03436}</style><g id="Calque_1_00000073701064736131113280000012117124902373465784_"><g><g><g><path d="M43.6,66c-4.6,0-8.4-3.8-8.4-8.4c0-4.6,3.8-8.4,8.4-8.4c4.8,0,8.4,3.6,8.4,8.4C52,62.2,48.2,66,43.6,66z M43.6,52.4c-2.9,0-5.2,2.3-5.2,5.2c0,2.9,2.3,5.2,5.2,5.2c2.9,0,5.2-2.3,5.2-5.2C48.8,54.5,46.6,52.4,43.6,52.4z" class="st0"/></g></g><g><path d="M60.7,84.4H26.5l0-1.6c0.1-10.1,7-16.9,17.1-16.9c10.1,0,16.9,6.8,17.1,16.9L60.7,84.4z M29.9,81.1h27.5 c-0.8-7.4-6-12.1-13.7-12.1C35.9,69.1,30.6,73.8,29.9,81.1z" class="st0"/></g></g><g><g><g><path d="M66,66c-4.6,0-8.4-3.8-8.4-8.4c0-4.6,3.8-8.4,8.4-8.4c4.8,0,8.4,3.6,8.4,8.4C74.4,62.2,70.6,66,66,66z M66,52.4c-2.9,0-5.2,2.3-5.2,5.2c0,2.9,2.3,5.2,5.2,5.2s5.2-2.3,5.2-5.2C71.1,54.5,69,52.4,66,52.4z" class="st0"/></g></g><g><path d="M83.2,84.4H57.6l0-1.6c-0.1-4-1.4-7.5-3.8-9.9l-1.1-1.1l1.1-1.1c3.1-3.1,7.5-4.8,12.3-4.8 c10.1,0,16.9,6.8,17.1,16.9L83.2,84.4z M60.7,81.1h19.1c-0.8-7.4-6-12.1-13.7-12.1c-3.4,0-6.5,1-8.9,2.8 C59.2,74.4,60.4,77.6,60.7,81.1z" class="st0"/></g></g><g><g><g><path d="M22.1,66c-4.6,0-8.4-3.8-8.4-8.4c0-4.6,3.8-8.4,8.4-8.4c4.8,0,8.4,3.6,8.4,8.4C30.6,62.2,26.8,66,22.1,66z M22.1,52.4c-2.9,0-5.2,2.3-5.2,5.2c0,2.9,2.3,5.2,5.2,5.2c2.9,0,5.2-2.3,5.2-5.2C27.3,54.5,25.2,52.4,22.1,52.4z" class="st0"/></g></g><g><path d="M29.7,84.4H5l0-1.6c0.1-10.1,7-16.9,17.1-16.9c4.6,0,8.8,1.5,11.8,4.3l1.3,1.2L34,72.5 c-2.7,2.4-4.1,6-4.2,10.3L29.7,84.4z M8.4,81.1h18.2c0.3-3.8,1.6-7.1,3.8-9.7c-2.3-1.6-5.2-2.4-8.3-2.4 C14.4,69.1,9.2,73.8,8.4,81.1z" class="st0"/></g></g><g><path d="M81.6,69.1c-0.9,0-1.6-0.7-1.6-1.6V29.7H64.3c-0.9,0-1.6-0.7-1.6-1.6s0.7-1.6,1.6-1.6h17.3 c0.9,0,1.6,0.7,1.6,1.6v39.4C83.2,68.4,82.5,69.1,81.6,69.1z" class="st0"/></g><g><path d="M58,29.7h-3.7c-0.9,0-1.6-0.7-1.6-1.6s0.7-1.6,1.6-1.6H58c0.9,0,1.6,0.7,1.6,1.6S58.9,29.7,58,29.7z" class="st0"/></g><g><path d="M6.7,67.7c-0.9,0-1.6-0.7-1.6-1.6v-38c0-0.9,0.7-1.6,1.6-1.6h42c0.9,0,1.6,0.7,1.6,1.6s-0.7,1.6-1.6,1.6H8.3 v36.4C8.3,67,7.6,67.7,6.7,67.7z" class="st0"/></g></g></svg>