<?xml version="1.0" encoding="utf-8"?>
<!-- Generator: Adobe Illustrator 22.0.1, SVG Export Plug-In . SVG Version: 6.00 Build 0)  -->
<svg version="1.1" xmlns="http://www.w3.org/2000/svg" xmlns:xlink="http://www.w3.org/1999/xlink" x="0px" y="0px"
	 viewBox="0 0 87.38281 87.38281" enable-background="new 0 0 87.38281 87.38281" xml:space="preserve">
<g id="Calque_1">
	<g>
		<g>
			<g>
				<path fill="#E73C4D" d="M43.5974,65.9785c-4.64321,0-8.41985-3.77716-8.41985-8.41985
					c0-4.64163,3.77664-8.41827,8.41985-8.41827c4.79943,0,8.4188,3.61884,8.4188,8.41827
					C52.01619,62.20134,48.23956,65.9785,43.5974,65.9785z M43.5974,52.38293c-2.85517,0-5.1773,2.32161-5.1773,5.17572
					c0,2.85464,2.32214,5.1773,5.1773,5.1773c2.85411,0,5.17625-2.32266,5.17625-5.1773
					C48.77365,54.51138,46.64467,52.38293,43.5974,52.38293z"/>
			</g>
		</g>
		<g>
			<path fill="#E73C4D" d="M60.68726,84.37244H26.50543l0.02322-1.64449c0.14672-10.10392,7.00546-16.89194,17.06875-16.89194
				c10.06223,0,16.91992,6.78802,17.06664,16.89194L60.68726,84.37244z M29.86725,81.12991h27.45819
				c-0.77052-7.37647-6.01011-12.05135-13.72804-12.05135C35.87735,69.07855,30.63777,73.75343,29.86725,81.12991z"/>
		</g>
	</g>
	<g>
		<g>
			<g>
				<path fill="#E73C4D" d="M65.96272,65.9785c-4.64322,0-8.41985-3.77716-8.41985-8.41985
					c0-4.64163,3.77663-8.41827,8.41985-8.41827c4.80048,0,8.41985,3.61884,8.41985,8.41827
					C74.38258,62.20134,70.60594,65.9785,65.96272,65.9785z M65.96272,52.38293c-2.85517,0-5.1773,2.32161-5.1773,5.17572
					c0,2.85464,2.32213,5.1773,5.1773,5.1773s5.17731-2.32266,5.17731-5.1773
					C71.14003,54.51138,69.01105,52.38293,65.96272,52.38293z"/>
			</g>
		</g>
		<g>
			<path fill="#E73C4D" d="M83.21724,84.37244H57.60831l-0.02322-1.59805c-0.05805-4.0421-1.36689-7.4567-3.78719-9.87488
				l-1.14735-1.14682l1.14735-1.14682c3.07894-3.07578,7.45722-4.76987,12.32948-4.76987
				c10.06223,0,16.91991,6.78802,17.06664,16.89194L83.21724,84.37244z M60.74742,81.12991h19.108
				c-0.77052-7.37647-6.01011-12.05135-13.72803-12.05135c-3.42093,0-6.52098,0.98955-8.8885,2.81348
				C59.23909,74.40733,60.43393,77.5517,60.74742,81.12991z"/>
		</g>
	</g>
	<g>
		<g>
			<g>
				<path fill="#E73C4D" d="M22.13454,65.9785c-4.64322,0-8.41985-3.77716-8.41985-8.41985
					c0-4.64163,3.77664-8.41827,8.41985-8.41827c4.79943,0,8.41879,3.61884,8.41879,8.41827
					C30.55333,62.20134,26.7767,65.9785,22.13454,65.9785z M22.13454,52.38293c-2.85517,0-5.17731,2.32161-5.17731,5.17572
					c0,2.85464,2.32213,5.1773,5.17731,5.1773c2.85411,0,5.17625-2.32266,5.17625-5.1773
					C27.31079,54.51138,25.18181,52.38293,22.13454,52.38293z"/>
			</g>
		</g>
		<g>
			<path fill="#E73C4D" d="M29.74797,84.37244H5.04257l0.02322-1.64449c0.14672-10.10392,7.00546-16.89194,17.06875-16.89194
				c4.58938,0,8.78823,1.52206,11.82178,4.28592l1.31623,1.19854L33.95632,72.519
				c-2.67574,2.43666-4.12285,5.98319-4.18512,10.25592L29.74797,84.37244z M8.40439,81.12991h18.20448
				c0.33038-3.78772,1.64027-7.07249,3.8463-9.65005c-2.28625-1.55795-5.18047-2.4013-8.32063-2.4013
				C14.4145,69.07855,9.17491,73.75343,8.40439,81.12991z"/>
		</g>
	</g>
	<g>
		<path fill="#E73C4D" d="M81.57275,69.07855c-0.89507,0-1.62127-0.72567-1.62127-1.62128V29.68459h-15.6343
			c-0.89508,0-1.62127-0.72567-1.62127-1.62127s0.72619-1.62127,1.62127-1.62127h17.25557
			c0.89508,0,1.62128,0.72567,1.62128,1.62127v39.39396C83.19402,68.35288,82.46783,69.07855,81.57275,69.07855z"/>
	</g>
	<g>
		<path fill="#E73C4D" d="M58.02102,29.68459h-3.69853c-0.89508,0-1.62127-0.72567-1.62127-1.62127s0.7262-1.62127,1.62127-1.62127
			h3.69853c0.89508,0,1.62127,0.72567,1.62127,1.62127S58.9161,29.68459,58.02102,29.68459z"/>
	</g>
	<g>
		<path fill="#E73C4D" d="M6.68706,67.68211c-0.89508,0-1.62127-0.72567-1.62127-1.62128V28.06331
			c0-0.89561,0.72619-1.62127,1.62127-1.62127h42.01059c0.89508,0,1.62127,0.72567,1.62127,1.62127s-0.7262,1.62127-1.62127,1.62127
			H8.30834v36.37624C8.30834,66.95644,7.58214,67.68211,6.68706,67.68211z"/>
	</g>
</g>
<g id="grille_page_entiere" display="none">
</g>
<g id="grille">
</g>
</svg>
