<?xml version="1.0" encoding="utf-8"?>
<!-- Generator: Adobe Illustrator 26.0.1, SVG Export Plug-In . SVG Version: 6.00 Build 0)  -->
<svg version="1.1" id="Calque_1" xmlns="http://www.w3.org/2000/svg" xmlns:xlink="http://www.w3.org/1999/xlink" x="0px" y="0px"
	 viewBox="0 0 87.4 87.4" style="enable-background:new 0 0 87.4 87.4;" xml:space="preserve">
<style type="text/css">
	.st0{fill:#F03436;}
	.st1{display:none;}
</style>
<g id="Calque_1_00000117667405870613871650000002095765143647803033_">
	<g>
		<path class="st0" d="M31.7,39c-0.2,0-0.4,0-0.5-0.1c-0.8-0.3-1.2-1.2-0.9-1.9l9-23.9c0.3-0.8,1.2-1.2,1.9-0.9
			c0.8,0.3,1.2,1.2,0.9,1.9l-9,23.9C32.9,38.6,32.3,39,31.7,39z"/>
	</g>
	<g>
		<path class="st0" d="M28.2,25c-1,0-2-0.3-2.8-1c-1-0.8-1.6-1.8-1.8-3.1s0.2-2.5,0.9-3.4c0.8-1,1.8-1.6,3.1-1.8
			c1.2-0.2,2.5,0.2,3.4,0.9c1,0.8,1.6,1.8,1.8,3.1l0,0c0,0,0,0,0,0l0,0c0.2,1.2-0.2,2.5-0.9,3.4c-0.8,1-1.8,1.6-3.1,1.8
			C28.7,25,28.5,25,28.2,25z M28.3,18.7c-0.1,0-0.1,0-0.2,0c-0.4,0.1-0.8,0.3-1.1,0.6c-0.3,0.4-0.4,0.8-0.3,1.2
			c0.1,0.4,0.3,0.8,0.6,1.1c0.4,0.3,0.8,0.4,1.2,0.3c0.4-0.1,0.8-0.3,1.1-0.6c0.3-0.4,0.4-0.8,0.3-1.2c0,0,0,0,0,0
			c-0.1-0.4-0.3-0.8-0.6-1.1C29,18.8,28.6,18.7,28.3,18.7z"/>
	</g>
	<g>
		<path class="st0" d="M44,35.5c-1,0-2-0.3-2.8-1c-1-0.8-1.6-1.8-1.8-3.1c-0.2-1.2,0.2-2.5,0.9-3.4s1.8-1.6,3.1-1.8
			c2.5-0.3,4.9,1.4,5.2,4c0,0,0,0,0,0c0.3,2.5-1.4,4.9-4,5.2C44.4,35.5,44.2,35.5,44,35.5z M44,29.2c-0.1,0-0.1,0-0.2,0
			c-0.4,0.1-0.8,0.3-1.1,0.6c-0.3,0.4-0.4,0.8-0.3,1.2c0.1,0.4,0.3,0.8,0.6,1.1c0.4,0.3,0.8,0.4,1.2,0.3c0.9-0.1,1.5-1,1.4-1.9
			C45.5,29.8,44.8,29.2,44,29.2z"/>
	</g>
	<g>
		<path class="st0" d="M39.2,51.2c-0.3,0-0.6-0.1-0.8-0.3L33,47.4l-6.2,2.2c-0.7,0.3-1.5-0.1-1.9-0.8l-3-6.7
			c-0.1-0.1-0.2-0.1-0.2-0.2l-7-2.2c-0.7-0.2-1.2-1-1-1.8l1.6-7.2c0-0.1,0-0.2,0-0.2l-4.3-6c-0.5-0.6-0.3-1.5,0.3-2l5.7-4.8
			c0,0,0-0.1,0.1-0.1l0.2-7.4c0-0.8,0.6-1.4,1.4-1.5L26.1,8c0,0,0.1,0,0.1-0.1l4.7-5.8c0.5-0.6,1.4-0.7,2-0.3l5.4,3.6l6.2-2.2
			c0.7-0.3,1.5,0.1,1.9,0.8l3.1,6.8c0,0,0.1,0.1,0.1,0.1l7.1,2.3c0.7,0.2,1.2,1,1,1.8l-1.6,7.2c0,0.1,0,0.1,0,0.2l4.3,6
			c0.5,0.6,0.3,1.5-0.3,2l-5.6,4.8c0,0.1-0.1,0.2-0.1,0.3L54,42.9c0,0.8-0.6,1.4-1.4,1.5l-7.3,0.4c-0.1,0.1-0.2,0.1-0.3,0.2
			l-4.6,5.7C40.1,51,39.7,51.2,39.2,51.2z M33.2,44.2c0.3,0,0.6,0.1,0.8,0.3l4.9,3.3l3.9-4.9c0.1-0.2,0.3-0.3,0.5-0.4
			c0.3-0.1,0.6-0.3,0.8-0.4c0.2-0.1,0.4-0.2,0.6-0.2l6.3-0.4l0.2-6.3c0-0.2,0.1-0.4,0.2-0.6c0.1-0.3,0.3-0.5,0.4-0.8
			c0.1-0.2,0.2-0.4,0.4-0.5l4.8-4.1l-3.7-5.2c-0.1-0.2-0.2-0.4-0.3-0.6c0-0.3-0.1-0.5-0.2-0.8c0-0.2,0-0.4,0-0.7l1.4-6.2l-6.1-1.9
			c-0.2-0.1-0.4-0.2-0.6-0.3c-0.2-0.2-0.4-0.3-0.5-0.5c-0.2-0.1-0.3-0.3-0.4-0.5l-2.6-5.8l-5.6,2c-0.4,0.2-0.9,0.1-1.3-0.2l-4.9-3.3
			l-4,5c-0.1,0.2-0.3,0.3-0.5,0.4c-0.2,0.1-0.4,0.2-0.6,0.3C27,11,26.8,11,26.6,11l-6.4,0.4L20,17.8c0,0.2-0.1,0.4-0.2,0.6
			c-0.1,0.2-0.2,0.4-0.3,0.6c-0.1,0.2-0.2,0.4-0.4,0.5l-4.9,4.1l3.7,5.2c0.1,0.2,0.2,0.4,0.3,0.6c0,0.3,0.1,0.5,0.2,0.8
			c0,0.2,0,0.4,0,0.7l-1.4,6.2l6,1.9c0.2,0.1,0.4,0.2,0.6,0.3c0.2,0.2,0.4,0.4,0.6,0.6c0.2,0.1,0.3,0.3,0.4,0.5l2.6,5.8l5.6-2
			C32.8,44.2,33,44.2,33.2,44.2z M52.5,42.9L52.5,42.9L52.5,42.9z"/>
	</g>
</g>
<g id="grille_page_entiere" class="st1">
</g>
<g id="grille">
	<g>
		<g>
			<path class="st0" d="M67.7,71.9H44.3c-0.8,0-1.5-0.7-1.5-1.5s0.7-1.5,1.5-1.5h23.4c0.8,0,1.5,0.7,1.5,1.5S68.6,71.9,67.7,71.9z"
				/>
		</g>
	</g>
	<g>
		<g>
			<path class="st0" d="M63.5,85.3H49.3c-2.6,0-6.5-1.7-6.5-6.5v-7.7l-2.9-24c-0.1-0.8,0.5-1.6,1.3-1.7c0.8-0.1,1.6,0.5,1.7,1.3
				l2.9,24.1c0,0.1,0,0.1,0,0.2v7.8c0,3.3,2.9,3.5,3.5,3.5h14.2c0.6,0,3.5-0.2,3.5-3.5V71c0-0.1,0-0.1,0-0.2l4.2-34.7v-7
				c0-0.6-0.2-2.1-2-2.1H56.4c-0.8,0-1.5-0.7-1.5-1.5s0.7-1.5,1.5-1.5h12.8c3.7,0,5,3,5,5.1v7.1c0,0.1,0,0.1,0,0.2L70,71.1v7.7
				C70,83.6,66.1,85.3,63.5,85.3z"/>
		</g>
	</g>
</g>
</svg>
