<?xml version="1.0" encoding="utf-8"?>
<!-- Generator: Adobe Illustrator 22.0.1, SVG Export Plug-In . SVG Version: 6.00 Build 0)  -->
<svg version="1.1" xmlns="http://www.w3.org/2000/svg" xmlns:xlink="http://www.w3.org/1999/xlink" x="0px" y="0px"
	 viewBox="0 0 87.38281 87.38281" enable-background="new 0 0 87.38281 87.38281" xml:space="preserve">
<g id="Calque_1">
	<g>
		<path fill="#E73C4D" d="M31.71373,39.00282c-0.17676,0-0.35547-0.03125-0.53027-0.09766
			c-0.77539-0.29297-1.16602-1.15869-0.87305-1.93359l9.01953-23.85156c0.29395-0.7749,1.16016-1.16406,1.93359-0.87207
			c0.77539,0.29297,1.16602,1.15869,0.87305,1.93359l-9.01953,23.85156C32.88951,38.63319,32.3192,39.00282,31.71373,39.00282z"/>
	</g>
	<g>
		<path fill="#E73C4D" d="M28.24791,24.96424c-1.01172,0-1.99219-0.3291-2.81152-0.95361
			c-0.98828-0.75391-1.62402-1.84766-1.79004-3.07959s0.15723-2.45459,0.91113-3.44287
			c0.75293-0.98877,1.84668-1.625,3.0791-1.79102c1.22949-0.16602,2.4541,0.15674,3.44336,0.91113
			c0.98828,0.75342,1.62402,1.84668,1.79004,3.07861l0,0c0,0.00049,0,0.00098,0,0.00098l0,0
			c0.16699,1.23193-0.15723,2.45459-0.91016,3.44287c-0.75391,0.98877-1.84766,1.62451-3.08008,1.79053
			C28.66881,24.95008,28.45787,24.96424,28.24791,24.96424z M28.26159,18.65516c-0.07422,0-0.14941,0.00537-0.22461,0.01514
			c-0.4375,0.05908-0.82617,0.28516-1.09375,0.63623c-0.26758,0.35156-0.38281,0.78613-0.32422,1.22412
			c0.05957,0.4375,0.28516,0.82617,0.63672,1.09375c0.35156,0.26855,0.78711,0.38379,1.22363,0.32422
			c0.4375-0.05908,0.82617-0.28516,1.09473-0.63672c0.26758-0.35107,0.38184-0.78516,0.32324-1.22266c0-0.00049,0-0.00098,0-0.00098
			c-0.05957-0.43799-0.28516-0.82666-0.63574-1.09424C28.97057,18.77235,28.62194,18.65516,28.26159,18.65516z"/>
	</g>
	<g>
		<path fill="#E73C4D" d="M43.97936,35.52577c-1.0127,0-1.99219-0.3291-2.81152-0.95361
			c-0.98828-0.75391-1.62402-1.84766-1.79004-3.07959c-0.16699-1.23145,0.15625-2.45459,0.91016-3.44336
			s1.84766-1.62451,3.08008-1.79053c2.54492-0.34326,4.88965,1.44727,5.2334,3.98975c0,0.00049,0,0.00049,0,0.00098
			c0.34277,2.54346-1.44727,4.89111-3.99023,5.2334C44.40026,35.51161,44.18932,35.52577,43.97936,35.52577z M43.99108,29.21717
			c-0.07324,0-0.14746,0.00488-0.22266,0.01465c-0.4375,0.05908-0.82617,0.28516-1.09473,0.63623
			c-0.26758,0.35156-0.38184,0.78564-0.32324,1.22314c0.05957,0.43896,0.28516,0.82764,0.63574,1.09521
			c0.35059,0.26709,0.78418,0.38135,1.22461,0.32373c0.90332-0.12207,1.53906-0.95605,1.41797-1.85986
			C45.51647,29.82118,44.80455,29.21717,43.99108,29.21717z"/>
	</g>
	<g>
		<path fill="#E73C4D" d="M39.21276,51.23133c-0.28809,0-0.57813-0.08252-0.83301-0.25342l-5.41992-3.62695l-6.15234,2.1626
			c-0.7334,0.25879-1.54492-0.08838-1.86523-0.80029l-3.01758-6.7124c-0.07715-0.06787-0.1543-0.13672-0.23047-0.20605
			l-7.01465-2.229c-0.74316-0.23633-1.18164-1.00195-1.00879-1.76172l1.63965-7.2168
			c-0.01563-0.07617-0.03027-0.15234-0.04492-0.229l-4.28516-6.03662c-0.45117-0.63525-0.34082-1.51074,0.25391-2.01367
			l5.68262-4.80322c0.02344-0.04883,0.04688-0.09717,0.07031-0.14551l0.21191-7.43848
			c0.02148-0.7793,0.63672-1.41162,1.41504-1.45508l7.44336-0.41699c0.04102-0.02148,0.08203-0.04297,0.12305-0.06445
			l4.65234-5.82178c0.4873-0.60889,1.35938-0.74365,2.00586-0.31006l5.41992,3.62695l6.15234-2.1626
			c0.73535-0.2583,1.5459,0.08936,1.86523,0.7998l3.05566,6.79639c0.03613,0.03174,0.07129,0.06299,0.10742,0.09473l7.10059,2.25684
			c0.74316,0.23633,1.18164,1.00195,1.00879,1.76221l-1.6416,7.22412c0.01465,0.07129,0.0293,0.14307,0.04297,0.21436
			l4.29004,6.04346c0.4502,0.63525,0.33984,1.51074-0.25488,2.01367l-5.62207,4.75195
			c-0.04395,0.09326-0.08887,0.18604-0.13379,0.27832l-0.20996,7.35693c-0.02148,0.7793-0.63672,1.41162-1.41504,1.45508
			l-7.30469,0.40918c-0.11426,0.06055-0.22949,0.11963-0.3457,0.17773l-4.56836,5.71631
			C40.09069,51.03651,39.65514,51.23133,39.21276,51.23133z M33.17076,44.1869c0.29297,0,0.58398,0.08594,0.83398,0.25342
			l4.89746,3.27783l3.91699-4.90039c0.13965-0.1748,0.31738-0.31641,0.51855-0.41357
			c0.27734-0.13428,0.55176-0.27441,0.82031-0.42285c0.19727-0.1084,0.41602-0.17139,0.64063-0.18408l6.26172-0.35059
			l0.17969-6.31152c0.00586-0.22363,0.0625-0.44287,0.16406-0.6416c0.12891-0.25244,0.25195-0.5083,0.36914-0.76709
			c0.0918-0.20361,0.22852-0.38428,0.39844-0.52832l4.82324-4.07715l-3.68262-5.18799
			c-0.12695-0.17969-0.21387-0.38525-0.25293-0.60205c-0.0459-0.25439-0.09473-0.50732-0.15137-0.75732
			c-0.0498-0.21875-0.0498-0.44531,0-0.66406l1.40918-6.20313l-6.09863-1.93848c-0.20898-0.06641-0.40137-0.17822-0.5625-0.32715
			c-0.1748-0.16064-0.35059-0.31787-0.53125-0.47119c-0.16797-0.14404-0.30273-0.32324-0.39355-0.52539l-2.62598-5.84033
			l-5.56055,1.95459c-0.44434,0.15723-0.93848,0.09473-1.33105-0.16846l-4.89746-3.27783l-3.99609,5.00049
			c-0.13867,0.17285-0.31348,0.31348-0.5127,0.41064c-0.20996,0.10303-0.41602,0.2124-0.62012,0.32324
			c-0.19531,0.10547-0.41016,0.1665-0.63086,0.17871l-6.39844,0.3584l-0.18164,6.39258
			c-0.00586,0.22314-0.06152,0.44189-0.16406,0.64063c-0.10938,0.21436-0.21387,0.43066-0.31543,0.64941
			c-0.0918,0.19971-0.22559,0.37646-0.39355,0.51855l-4.87891,4.12451l3.67969,5.18457
			c0.12988,0.18213,0.2168,0.39111,0.25488,0.61182c0.04492,0.25781,0.09473,0.51318,0.15039,0.7666
			c0.04883,0.2168,0.04785,0.44189-0.00098,0.6582l-1.40723,6.19336l6.01855,1.9126c0.21289,0.06787,0.4082,0.18213,0.57129,0.33545
			c0.20801,0.19482,0.4209,0.38428,0.6377,0.56885c0.16992,0.14453,0.30469,0.32471,0.39648,0.52783l2.58789,5.75781
			l5.56055-1.95459C32.83483,44.21473,33.00377,44.1869,33.17076,44.1869z M52.52037,42.86708h0.00977H52.52037z"/>
	</g>
</g>
<g id="grille_page_entiere" display="none">
</g>
<g id="grille">
	<g>
		<g>
			<path fill="#E73C4D" d="M67.74792,71.91346H44.31627c-0.82813,0-1.5-0.67139-1.5-1.5s0.67188-1.5,1.5-1.5h23.43164
				c0.82813,0,1.5,0.67139,1.5,1.5S68.57604,71.91346,67.74792,71.91346z"/>
		</g>
	</g>
	<g>
		<g>
			<path fill="#E73C4D" d="M63.48815,85.30116H49.28698c-2.60059,0-6.4707-1.72314-6.4707-6.4707v-7.71924l-2.93848-23.9956
				c-0.10059-0.82227,0.48438-1.57031,1.30664-1.6709c0.83008-0.10352,1.57031,0.48438,1.67188,1.30664l2.94922,24.08642
				c0.00684,0.06055,0.01074,0.12109,0.01074,0.18213v7.81055c0,3.25684,2.89941,3.4624,3.48047,3.4707h14.19141
				c0.57129-0.0083,3.47071-0.21387,3.47071-3.4707v-7.81055c0-0.06104,0.00391-0.12158,0.01074-0.18213l4.24902-34.70166v-7.00928
				c-0.0127-0.60645-0.23828-2.05029-2.0498-2.05029H56.39244c-0.82813,0-1.5-0.67139-1.5-1.5s0.67188-1.5,1.5-1.5h12.77637
				c3.70508,0,5.0498,3.02002,5.0498,5.05029v7.10059c0,0.06104-0.00391,0.12158-0.01074,0.18213l-4.24902,34.70166v7.71924
				C69.95885,83.57801,66.08874,85.30116,63.48815,85.30116z"/>
		</g>
	</g>
</g>
</svg>
