<svg xmlns="http://www.w3.org/2000/svg" xmlns:xlink="http://www.w3.org/1999/xlink" style="enable-background:new 0 0 87.4 87.4" id="Calque_1" x="0" y="0" version="1.1" viewBox="0 0 87.4 87.4" xml:space="preserve"><style type="text/css">.st0{fill:#f03436}</style><g id="Calque_1_00000180333546912975616520000010550145701776638378_"><g><g><g><path d="M47.8,41.3c-0.6-0.3-1.4-0.4-2.6-0.4c-1.1,0-2.1,0.3-3,1c-0.9,0.7-1.5,1.6-1.8,2.9h4.8v1.2h-5 c-0.1,0.4-0.1,0.8-0.1,1.3c0,0.5,0,0.9,0.1,1.3h5v1.2h-4.8c0.3,1.3,1,2.3,1.8,3c0.9,0.7,1.9,1.1,3,1.1c1.1,0,2-0.2,2.6-0.5v1.4 c-0.6,0.3-1.6,0.5-2.7,0.5c-1.5,0-2.8-0.5-4-1.5c-1.1-1-1.9-2.3-2.3-4h-2.4v-1.2h2.3c0-0.4-0.1-0.8-0.1-1.3s0-0.9,0.1-1.3h-2.3 v-1.2h2.5c0.4-1.7,1.2-3,2.3-3.9c1.1-0.9,2.5-1.4,4.1-1.4c1.1,0,2,0.1,2.6,0.4L47.8,41.3L47.8,41.3z" class="st0"/></g><g><path d="M45.1,55.6c-1.6,0-3.1-0.5-4.3-1.6c-1.1-1-1.9-2.3-2.3-3.9h-2.6V48h2.2c0-0.2,0-0.5,0-0.8 c0-0.3,0-0.6,0-0.8h-2.2v-2.2h2.6c0.5-1.6,1.3-2.9,2.4-3.8c1.2-1,2.7-1.5,4.4-1.5c1.2,0,2.1,0.2,2.8,0.5l0.3,0.1v2.5l-0.7-0.4 c-0.5-0.3-1.3-0.4-2.3-0.4c-1,0-1.9,0.3-2.7,0.9c-0.6,0.5-1.1,1.1-1.4,2h4.6v2.2h-5.1c0,0.2,0,0.5,0,0.8c0,0.3,0,0.5,0,0.8h5.1 v2.2h-4.6c0.3,0.9,0.8,1.6,1.5,2.1c0.8,0.7,1.7,1,2.7,1c1,0,1.8-0.1,2.3-0.4l0.7-0.4v2.5l-0.3,0.1 C47.3,55.4,46.4,55.6,45.1,55.6z M36.9,49.1h2.3l0.1,0.4c0.3,1.6,1.1,2.8,2.1,3.7c1.1,0.9,2.3,1.4,3.6,1.4 c0.9,0,1.7-0.1,2.2-0.3V54c-0.6,0.2-1.3,0.3-2.1,0.3c-1.2,0-2.4-0.4-3.3-1.2c-1-0.8-1.6-1.9-2-3.3l-0.2-0.6h5V49h-5l-0.1-0.4 c0-0.4-0.1-0.8-0.1-1.3c0-0.5,0-1,0.1-1.4l0.1-0.4h4.9v-0.2h-4.9l0.2-0.6c0.4-1.4,1-2.4,2-3.2c1-0.7,2.1-1.1,3.3-1.1 c0.8,0,1.5,0.1,2.1,0.2v-0.3c-0.5-0.2-1.2-0.3-2.1-0.3c-1.5,0-2.7,0.4-3.7,1.3c-1,0.9-1.8,2.1-2.1,3.6l-0.1,0.4h-2.4v0.2h2.4 l-0.1,0.6c-0.1,0.4-0.1,0.8-0.1,1.2c0,0.5,0,0.9,0.1,1.2l0.1,0.6h-2.3V49.1z" class="st0"/></g></g></g><g><g><path d="M49,85.2H1.9l0.6-2c0.2-0.5,4-12,15.6-19.6c0.4-0.2,8.8-5.2,19.1-5.2c0,0,0.1,0,0.1,0c5.1,0,6.2,0,6.2,0 l9,0.1c0.2,0,1.7,0.1,2.8,1.3c0.9,1.1,1.3,2.6,1,4.4c-0.1,0.9-0.4,1.6-0.9,2.3c0.3-0.1,0.6-0.2,0.9-0.2 c4.2-1.2,17.1-5.3,18.4-5.7c1-0.4,7.3-3.2,10.4,0.6l0,0c1.3,1.6,1.5,3.1,1.4,4c-0.2,2.2-1.9,3.6-2.1,3.7l-0.2,0.2L54,84.3 C53.2,84.9,51.5,85.2,49,85.2z M6.2,82.2H49c2.1,0,2.9-0.2,3.2-0.3l0,0l30.4-15.2c0.2-0.2,0.8-0.8,0.9-1.6 c0.1-0.6-0.2-1.1-0.7-1.8c-1.5-1.8-5.6-0.4-7,0.2l-0.2,0.1c-0.1,0-14.2,4.4-18.5,5.7c-4.6,1.4-10,1.3-10.3,1.2 c-0.1,0-3.5,0-6.2,0c-1.4,0-2.5,0-2.9,0l-0.5,0l-0.4-0.3c-0.9-0.7-1-1.4-1-1.8c0-0.8,0.5-1.5,1-1.9l0.4-0.3l9.8,0 c1.3,0.1,6.1-0.1,6.4-2.2c0.1-1,0-1.7-0.3-2.1c-0.2-0.3-0.5-0.3-0.5-0.3l-9-0.1c0,0-1.2,0-6.1,0c0,0,0,0-0.1,0 c-9.4,0-17.4,4.7-17.5,4.7C11.8,71.3,7.7,78.7,6.2,82.2z" class="st0"/></g></g><g><g><path d="M16,61.6c-0.5,0-1-0.2-1.3-0.7c-0.5-0.7-0.3-1.6,0.4-2.1l3.4-2.2c-0.8-2.2-1-4.1-1.1-6.9l-3.9-0.9 c-0.8-0.2-1.3-0.9-1.1-1.7l1.3-7.2c0.1-0.8,0.9-1.3,1.6-1.2l4.1,0.5c1-2.5,2.4-4.8,4.1-6.9L21,28.8c-0.5-0.6-0.4-1.5,0.2-2 l5.6-4.7c0.6-0.5,1.5-0.5,2.1,0.1l2.9,3.1c2.3-1.2,4.8-2.1,7.4-2.6l0.3-4.3c0-0.8,0.7-1.4,1.5-1.4h7.4c0.8,0,1.5,0.6,1.5,1.4 l0.3,4.4c2.6,0.5,5,1.4,7.3,2.7l3.1-3.3c0.5-0.6,1.4-0.6,2.1-0.1l5.6,4.7c0.6,0.5,0.7,1.4,0.2,2l-2.7,3.6c1.6,2,2.9,4.3,3.9,6.7 l4.5-0.5c0.8-0.1,1.5,0.4,1.6,1.2l1.3,7.2c0.1,0.8-0.4,1.5-1.1,1.7l-4.4,1c0,2.5-0.2,4-0.9,6.1l1.6,1.2c0.7,0.5,0.8,1.4,0.4,2.1 c-0.5,0.7-1.4,0.8-2.1,0.4L68,57.8c-0.6-0.4-0.8-1.1-0.5-1.7c1-2.6,1.1-3.9,1.1-6.9l0-0.5c0-0.7,0.5-1.3,1.2-1.5l4.1-1L73,41.8 l-4.3,0.5c-0.7,0.1-1.4-0.3-1.6-1c-1-2.9-2.5-5.5-4.5-7.8c-0.5-0.5-0.5-1.3-0.1-1.9l2.6-3.4l-3.5-2.9l-2.9,3.1 c-0.5,0.5-1.3,0.6-1.9,0.3c-2.6-1.6-5.4-2.6-8.5-3.1c-0.7-0.1-1.2-0.7-1.3-1.4L47,19.9h-4.5L42.2,24c0,0.7-0.6,1.3-1.3,1.4 c-3,0.5-5.9,1.5-8.6,3c-0.6,0.4-1.4,0.2-1.8-0.3l-2.8-2.9l-3.5,2.9l2.4,3.2c0.4,0.6,0.4,1.4-0.1,1.9c-2.1,2.3-3.7,5-4.7,8 c-0.2,0.7-0.9,1.1-1.6,1l-3.9-0.4l-0.8,4.5l3.7,0.9c0.7,0.2,1.2,0.8,1.2,1.5l0,0.2c0,0.1,0,0.2,0,0.4c0,3.2,0.3,4.9,1.3,7.5 c0.3,0.7,0,1.4-0.6,1.8l-4.3,2.9C16.6,61.5,16.3,61.6,16,61.6z" class="st0"/></g></g><g><g><g><path d="M53.9,67.6c-0.5,0-1-0.3-1.3-0.8c-0.4-0.7-0.2-1.6,0.6-2c5.6-3.1,9-9.1,9-15.4c0-9.8-7.9-17.7-17.7-17.7 s-17.7,7.9-17.7,17.7c0,3.9,1.2,7.6,3.6,10.7c0.5,0.7,0.4,1.6-0.3,2.1c-0.7,0.5-1.6,0.4-2.1-0.3c-2.7-3.6-4.2-7.9-4.2-12.5 c0-11.4,9.3-20.7,20.7-20.7s20.7,9.3,20.7,20.7c0,7.4-4,14.4-10.5,18C54.5,67.5,54.2,67.6,53.9,67.6z" class="st0"/></g></g></g></g></svg>