<?xml version="1.0" encoding="utf-8"?>
<!-- Generator: Adobe Illustrator 22.0.1, SVG Export Plug-In . SVG Version: 6.00 Build 0)  -->
<svg version="1.1" xmlns="http://www.w3.org/2000/svg" xmlns:xlink="http://www.w3.org/1999/xlink" x="0px" y="0px"
	 viewBox="0 0 87.38281 87.38281" enable-background="new 0 0 87.38281 87.38281" xml:space="preserve">
<g id="Calque_1">
	<g>
		<g>
			<g>
				<path fill="#E73C4D" d="M47.83508,41.26168c-0.57934-0.29827-1.43687-0.44741-2.57261-0.44741
					c-1.13573,0-2.13762,0.33269-3.00759,0.99807c-0.86901,0.66729-1.47607,1.63285-1.82023,2.90243h4.7695v1.15103h-5.00468
					c-0.0631,0.39196-0.09369,0.82598-0.09369,1.30399c0,0.478,0.02295,0.90438,0.06979,1.28104h5.02858v1.15103h-4.81635
					c0.34416,1.30016,0.95887,2.3097,1.84413,3.03053c0.8843,0.72083,1.89098,1.08028,3.01906,1.08028
					c1.12713,0,1.98849-0.16443,2.58408-0.4933v1.38621c-0.64243,0.32887-1.55828,0.4933-2.74851,0.4933
					c-1.50379,0-2.82786-0.4933-3.97124-1.47989c-1.14338-0.9866-1.90245-2.325-2.27816-4.01713h-2.44355v-1.15103h2.27911
					c-0.0478-0.37667-0.07075-0.80304-0.07075-1.28104c0-0.478,0.03059-0.91203,0.09369-1.30399h-2.30206v-1.15103h2.49039
					c0.40726-1.65962,1.1778-2.95596,2.31353-3.88902c1.13573-0.93115,2.48656-1.39768,4.05346-1.39768
					c1.12713,0,1.98849,0.14914,2.58408,0.44741V41.26168z"/>
			</g>
			<g>
				<path fill="#E73C4D" d="M45.08665,55.59893c-1.62109,0-3.06738-0.53857-4.29785-1.60156
					c-1.13184-0.97607-1.91895-2.28564-2.34473-3.89551H35.8933v-2.15088h2.23145c-0.01465-0.2417-0.02246-0.50098-0.02246-0.78125
					c0-0.28564,0.00977-0.55225,0.03027-0.80371H35.8933v-2.15137h2.60645c0.45508-1.58203,1.25586-2.85107,2.38086-3.7749
					c1.22363-1.00342,2.69336-1.51172,4.37012-1.51172c1.21777,0,2.13574,0.16357,2.80762,0.5l0.27637,0.13867v2.51465
					l-0.72852-0.37549c-0.50488-0.25977-1.29297-0.3916-2.34375-0.3916c-1.03223,0-1.91602,0.29297-2.7041,0.89502
					c-0.6377,0.49023-1.11133,1.1499-1.4375,2.00537h4.58301v2.15137h-5.06348c-0.02246,0.24902-0.03418,0.51807-0.03418,0.80371
					c0,0.2793,0.00781,0.54102,0.02441,0.78125h5.07324v2.15088h-4.63477c0.33203,0.89355,0.82715,1.61279,1.47852,2.14307
					c0.79883,0.65137,1.68262,0.96777,2.70313,0.96777c1.03711,0,1.8252-0.14502,2.3418-0.43066l0.74219-0.41016v2.53955
					l-0.27246,0.13916C47.34251,55.41973,46.36888,55.59893,45.08665,55.59893z M36.8933,49.10186h2.3457l0.08691,0.3916
					c0.34863,1.57568,1.06055,2.83643,2.11621,3.74707c1.05859,0.91406,2.25098,1.3584,3.64453,1.3584
					c0.94043,0,1.69434-0.10693,2.24805-0.31787v-0.31934c-0.56836,0.16846-1.25781,0.25098-2.08398,0.25098
					c-1.24219,0-2.36426-0.40137-3.33496-1.19238c-0.96387-0.78564-1.64063-1.89258-2.01172-3.29053l-0.16602-0.62793h4.96582
					v-0.15088h-4.96973l-0.05469-0.43848c-0.04883-0.39551-0.07324-0.83496-0.07324-1.34277
					c0-0.51514,0.0332-0.96777,0.10059-1.38379l0.06738-0.41992h4.92969v-0.15137h-4.92383l0.17188-0.63086
					c0.37207-1.36963,1.04395-2.43506,1.99805-3.16797c0.95605-0.73096,2.07031-1.10156,3.3125-1.10156
					c0.82715,0,1.51172,0.07471,2.07227,0.22656v-0.33594c-0.51074-0.18359-1.20996-0.27686-2.08398-0.27686
					c-1.45898,0-2.68164,0.42041-3.73535,1.28467c-1.04395,0.85693-1.76563,2.0752-2.14648,3.62158l-0.09375,0.38037H36.8933
					v0.15137h2.39063l-0.09473,0.58008c-0.05762,0.35742-0.08691,0.76904-0.08691,1.22363c0,0.46826,0.02148,0.8667,0.06641,1.21826
					l0.07129,0.56299H36.8933V49.10186z"/>
			</g>
		</g>
	</g>
	<g>
		<g>
			<path fill="#E73C4D" d="M49.03392,85.17852H1.90208l0.62793-1.95801C2.68626,82.7337,6.48802,71.20977,18.16868,63.6209
				c0.40625-0.24268,8.83105-5.16943,19.07129-5.16943c0.02734,0,0.05273,0,0.08008,0
				c5.05664-0.02588,6.16113-0.00098,6.20703,0.00049l9.01074,0.11475c0.17578,0.00342,1.6582,0.06885,2.76074,1.34375
				c0.91406,1.05566,1.25684,2.55127,1.01953,4.4458c-0.1123,0.89648-0.44824,1.63965-0.94043,2.25244
				c0.29883-0.07422,0.59473-0.15479,0.88477-0.2417c4.15234-1.24609,17.1377-5.26905,18.41309-5.66407
				c0.9541-0.44092,7.2793-3.16016,10.44629,0.60059l0,0c1.32617,1.5752,1.4834,3.05176,1.38281,4.01319
				c-0.23242,2.20166-1.9248,3.57715-2.11719,3.72705l-0.24805,0.15674L54.01341,84.32012
				C53.1804,84.89727,51.54173,85.17852,49.03392,85.17852z M6.17845,82.17852h42.85547c2.08203,0,2.94043-0.21729,3.21387-0.31104
				l0.02637-0.03125l30.35352-15.23389c0.2207-0.20703,0.82031-0.83447,0.89453-1.61621
				c0.05371-0.55811-0.17383-1.13086-0.69531-1.75c-1.53125-1.81982-5.6377-0.4165-6.95313,0.21875L75.6638,63.5374
				c-0.1416,0.04395-14.17969,4.39454-18.53809,5.70264c-4.57715,1.37549-10.04297,1.2583-10.27246,1.24951
				c-0.05566-0.02295-3.50684-0.00928-6.20898-0.00928c-1.35352,0-2.50879,0.00244-2.93359,0.00977l-0.51367,0.0083
				l-0.41113-0.30811c-0.87305-0.6543-0.99512-1.43994-0.99023-1.84961c0.01074-0.83887,0.53418-1.50684,1.02051-1.85254
				l0.38965-0.27783l9.78418,0.00342c1.27246,0.07959,6.0791-0.05127,6.35156-2.22998
				c0.12305-0.98633,0.0127-1.73584-0.31152-2.11035c-0.2207-0.25537-0.53809-0.30664-0.54102-0.30713l-9.01855-0.11475
				c-0.02734-0.00146-1.16699-0.02686-6.14648,0c-0.02344,0-0.04785,0-0.07129,0c-9.43946,0-17.42188,4.66993-17.50098,4.71729
				C11.78978,71.34258,7.74388,78.70342,6.17845,82.17852z"/>
		</g>
	</g>
	<g>
		<g>
			<path fill="#E73C4D" d="M15.98997,61.5794c-0.48633,0-0.96387-0.23682-1.25293-0.67334
				c-0.45605-0.69141-0.26563-1.62207,0.42578-2.07861l3.3623-2.21973c-0.75879-2.23779-1.0459-4.10986-1.08008-6.85547
				l-3.94726-0.94287c-0.77148-0.18457-1.2666-0.93799-1.12891-1.71924l1.27832-7.25
				c0.1377-0.78223,0.85742-1.31934,1.64941-1.22998l4.09766,0.47217c1.00293-2.49365,2.36328-4.80664,4.05957-6.90186l-2.5-3.37012
				c-0.47266-0.63721-0.36719-1.53271,0.24121-2.04248l5.63965-4.73193c0.60742-0.50928,1.50684-0.45898,2.05273,0.11768
				l2.94922,3.11572c2.34278-1.24463,4.83008-2.12842,7.42383-2.63672l0.26074-4.34961
				c0.04688-0.79199,0.70313-1.41016,1.49707-1.41016h7.3623c0.79395,0,1.4502,0.61816,1.49707,1.41016l0.2666,4.43896
				c2.55566,0.5415,4.99609,1.44287,7.28223,2.68994l3.08496-3.2583c0.54688-0.57666,1.44629-0.62695,2.05273-0.11768
				l5.63965,4.73193c0.6084,0.50977,0.71387,1.40527,0.24121,2.04248l-2.69824,3.6377
				c1.6084,2.03857,2.90332,4.27734,3.86426,6.6792l4.49121-0.51709c0.79199-0.08838,1.51172,0.44775,1.64941,1.22998l1.27832,7.25
				c0.1377,0.78125-0.35742,1.53467-1.12891,1.71924l-4.35645,1.04053c-0.02441,2.48193-0.20215,4.00342-0.91309,6.1499
				l1.64258,1.16504c0.67578,0.479,0.83594,1.41553,0.35645,2.09131c-0.47949,0.67627-1.41797,0.83398-2.09082,0.35596
				L67.9724,57.7918c-0.55566-0.39355-0.77637-1.11133-0.53809-1.74854c0.9668-2.58838,1.11328-3.85498,1.11328-6.86572
				l-0.01367-0.47412c-0.01563-0.70703,0.46387-1.3291,1.15137-1.49365l4.14453-0.99023l-0.78711-4.46729l-4.25293,0.48975
				c-0.68359,0.08008-1.35742-0.33301-1.58789-0.99561c-0.99707-2.85449-2.50879-5.46826-4.49512-7.76904
				c-0.45801-0.53125-0.4873-1.30957-0.06934-1.87354l2.55664-3.4458l-3.47559-2.91602l-2.92578,3.09033
				c-0.48535,0.51221-1.26367,0.6167-1.86523,0.25195c-2.60059-1.57324-5.44531-2.62549-8.45703-3.12646
				c-0.69043-0.11475-1.20898-0.69141-1.25098-1.38965l-0.25195-4.19531h-4.53613l-0.24805,4.12549
				c-0.04199,0.70752-0.57422,1.28906-1.27539,1.39355c-3.04102,0.45459-5.93262,1.48047-8.59668,3.04883
				c-0.60254,0.35449-1.3711,0.24561-1.84961-0.26123l-2.78125-2.9375l-3.47559,2.91602l2.36719,3.19043
				c0.42188,0.56982,0.3877,1.35742-0.08203,1.88818c-2.07715,2.34473-3.65527,5.02539-4.68945,7.96729
				c-0.23242,0.66113-0.89258,1.06836-1.58691,0.99268l-3.85742-0.44434l-0.78711,4.46729l3.73633,0.89258
				c0.68848,0.16455,1.16797,0.7876,1.15137,1.49512l-0.00684,0.21484c-0.00391,0.11865-0.00781,0.23633-0.00781,0.35547
				c0,3.15576,0.30273,4.90674,1.2959,7.49316c0.25195,0.65723,0.01367,1.40137-0.57422,1.78955l-4.34863,2.87109
				C16.56126,61.49932,16.27415,61.5794,15.98997,61.5794z"/>
		</g>
	</g>
	<g>
		<g>
			<g>
				<path fill="#E73C4D" d="M53.94896,67.56036c-0.52246,0-1.03027-0.27393-1.30664-0.76123
					c-0.4082-0.72119-0.1543-1.63623,0.56641-2.04443c5.55566-3.14551,9.00684-9.05713,9.00684-15.42823
					c0-9.771-7.94922-17.7207-17.7207-17.7207s-17.72168,7.94971-17.72168,17.7207c0,3.89307,1.24023,7.58887,3.58691,10.68701
					c0.50098,0.66064,0.37109,1.60107-0.29004,2.10156c-0.66016,0.49854-1.60059,0.37061-2.10059-0.29004
					c-2.74512-3.62402-4.19629-7.9458-4.19629-12.49854c0-11.42529,9.2959-20.7207,20.72168-20.7207
					s20.7207,9.29541,20.7207,20.7207c0,7.44971-4.03418,14.36182-10.52832,18.03858
					C54.45384,67.49737,54.19994,67.56036,53.94896,67.56036z"/>
			</g>
		</g>
	</g>
</g>
<g id="grille_page_entiere" display="none">
</g>
<g id="grille">
</g>
</svg>
