<?xml version="1.0" encoding="utf-8"?>
<!-- Generator: Adobe Illustrator 26.0.1, SVG Export Plug-In . SVG Version: 6.00 Build 0)  -->
<svg version="1.1" id="Calque_1" xmlns="http://www.w3.org/2000/svg" xmlns:xlink="http://www.w3.org/1999/xlink" x="0px" y="0px"
	 viewBox="0 0 87.4 87.4" style="enable-background:new 0 0 87.4 87.4;" xml:space="preserve">
<style type="text/css">
	.st0{display:none;}
	.st1{fill:#F03436;}
</style>
<g id="Calque_1_00000057141451883262766690000012003578718607240834_">
</g>
<g id="grille_page_entiere" class="st0">
</g>
<g id="grille">
	<g>
		<g>
			<path class="st1" d="M40.6,85.6H13.8c-4.3,0-7.9-3.5-7.9-7.9v-14c0-4.3,3.5-7.9,7.9-7.9h26.8c4.3,0,7.9,3.5,7.9,7.9v14
				C48.5,82,45,85.6,40.6,85.6z M13.8,58.8c-2.7,0-4.9,2.2-4.9,4.9v14c0,2.7,2.2,4.9,4.9,4.9h26.8c2.7,0,4.9-2.2,4.9-4.9v-14
				c0-2.7-2.2-4.9-4.9-4.9H13.8z"/>
		</g>
	</g>
	<g>
		<g>
			<path class="st1" d="M46.7,66.1H8.3c-0.8,0-1.5-0.7-1.5-1.5c0-0.8,0.7-1.5,1.5-1.5h38.5c0.8,0,1.5,0.7,1.5,1.5
				C48.2,65.4,47.6,66.1,46.7,66.1z"/>
		</g>
	</g>
	<g>
		<g>
			<path class="st1" d="M51.6,19.8H39.5c-0.8,0-1.5-0.7-1.5-1.5s0.7-1.5,1.5-1.5h12.1c0.8,0,1.5,0.7,1.5,1.5S52.4,19.8,51.6,19.8z"
				/>
		</g>
	</g>
	<g>
		<g>
			<path class="st1" d="M70.7,85.6H59.5c-2.2,0-5.4-1.4-5.4-5.4v-6l-3.3-27.2c0-0.1,0-0.1,0-0.2v-5.6c0-1.7,1.1-4.3,4.3-4.3h20.1
				c3.1,0,4.3,2.6,4.3,4.3v5.6c0,0.1,0,0.1,0,0.2l-3.3,27.2v6C76.1,84.1,72.9,85.6,70.7,85.6z M53.8,46.6l3.3,27.2
				c0,0.1,0,0.1,0,0.2v6.1c0,2.1,1.7,2.4,2.4,2.4h11.1c0.7,0,2.4-0.3,2.4-2.4V74c0-0.1,0-0.1,0-0.2l3.3-27.2v-5.5
				c0-0.8-0.5-1.3-1.3-1.3H55.1c-0.8,0-1.3,0.4-1.3,1.3C53.8,41.2,53.8,46.6,53.8,46.6z M77.9,46.7L77.9,46.7L77.9,46.7z"/>
		</g>
	</g>
	<g>
		<g>
			<path class="st1" d="M74,75H55.6c-0.8,0-1.5-0.7-1.5-1.5s0.7-1.5,1.5-1.5H74c0.8,0,1.5,0.7,1.5,1.5S74.9,75,74,75z"/>
		</g>
	</g>
	<g>
		<g>
			<path class="st1" d="M31.4,58.8c-0.8,0-1.5-0.7-1.5-1.5v-6.2c0-11.2,1.7-15,5.3-20.3c2.7-4,2.6-9.9,2.5-13.8c0-0.5,0-1,0-1.5
				c0-4.1,2.6-5.7,4-5.9c0.1,0,0.2,0,0.3,0h7.2c0.1,0,0.2,0,0.3,0c1.4,0.3,4,1.9,4,5.9c0,0.5,0,1,0,1.5c-0.1,3.9-0.1,9.8,2.5,13.8
				c1.7,2.6,2.9,4.5,3.7,7.1c0.3,0.8-0.2,1.6-1,1.9c-0.8,0.3-1.6-0.2-1.9-1c-0.7-2.2-1.8-4-3.4-6.4c-3.2-4.8-3.1-11.3-3.1-15.5
				c0-0.5,0-1,0-1.5c0-2.2-1.1-2.8-1.5-3h-6.8c-0.4,0.1-1.5,0.7-1.5,3c0,0.4,0,0.9,0,1.5c0.1,4.3,0.2,10.7-3.1,15.5
				c-3.1,4.7-4.8,7.7-4.8,18.7v6.2C32.9,58.1,32.2,58.8,31.4,58.8z"/>
		</g>
	</g>
	<g>
		<g>
			<path class="st1" d="M43.1,85.6c-0.5,0-1.1,0-1.7,0c-0.8,0-1.5-0.7-1.5-1.5c0-0.8,0.7-1.5,1.5-1.5c0,0,0,0,0,0c2.5,0,4.3,0,5,0
				c2,0.1,8.6,0,12.3,0c0,0,0,0,0,0c0.8,0,1.5,0.7,1.5,1.5c0,0.8-0.7,1.5-1.5,1.5c-3.8,0-10.4,0.1-12.3,0
				C45.9,85.6,44.7,85.6,43.1,85.6z"/>
		</g>
	</g>
	<g>
		<g>
			<path class="st1" d="M72.6,54.5c-0.4,0-0.7-0.1-1-0.4l-4.3-4l-4.3,4c-0.4,0.4-1.1,0.5-1.6,0.3c-0.5-0.2-0.9-0.8-0.9-1.4V38.4
				c0-0.8,0.7-1.5,1.5-1.5h10.7c0.8,0,1.5,0.7,1.5,1.5V53c0,0.6-0.4,1.1-0.9,1.4C73,54.5,72.8,54.5,72.6,54.5z M67.3,46.6
				c0.4,0,0.7,0.1,1,0.4l2.8,2.6v-9.7h-7.7v9.7l2.8-2.6C66.5,46.7,66.9,46.6,67.3,46.6z"/>
		</g>
	</g>
</g>
</svg>
