<?xml version="1.0" encoding="utf-8"?>
<!-- Generator: Adobe Illustrator 22.0.1, SVG Export Plug-In . SVG Version: 6.00 Build 0)  -->
<svg version="1.1" xmlns="http://www.w3.org/2000/svg" xmlns:xlink="http://www.w3.org/1999/xlink" x="0px" y="0px"
	 viewBox="0 0 87.38281 87.38281" enable-background="new 0 0 87.38281 87.38281" xml:space="preserve">
<g id="Calque_1">
</g>
<g id="grille_page_entiere" display="none">
</g>
<g id="grille">
	<g>
		<g>
			<path fill="#E73C4D" d="M40.63574,85.56866H13.81836c-4.34277,0-7.875-3.53271-7.875-7.875v-14
				c0-4.34229,3.53223-7.875,7.875-7.875h26.81738c4.34277,0,7.875,3.53271,7.875,7.875v14
				C48.51074,82.03594,44.97852,85.56866,40.63574,85.56866z M13.81836,58.81865c-2.68848,0-4.875,2.18701-4.875,4.875v14
				c0,2.68799,2.18652,4.875,4.875,4.875h26.81738c2.68848,0,4.875-2.18701,4.875-4.875v-14c0-2.68799-2.18652-4.875-4.875-4.875
				H13.81836z"/>
		</g>
	</g>
	<g>
		<g>
			<path fill="#E73C4D" d="M46.73145,66.06377H8.2793c-0.82813,0-1.5-0.67139-1.5-1.5c0-0.82862,0.67188-1.5,1.5-1.5h38.45215
				c0.82813,0,1.5,0.67139,1.5,1.5C48.23145,65.39239,47.55957,66.06377,46.73145,66.06377z"/>
		</g>
	</g>
	<g>
		<g>
			<path fill="#E73C4D" d="M51.61621,19.80889H39.4873c-0.82813,0-1.5-0.67139-1.5-1.5s0.67188-1.5,1.5-1.5h12.12891
				c0.82813,0,1.5,0.67139,1.5,1.5S52.44434,19.80889,51.61621,19.80889z"/>
		</g>
	</g>
	<g>
		<g>
			<path fill="#E73C4D" d="M70.69531,85.56866H59.5498c-2.1709,0-5.40137-1.43848-5.40137-5.40088v-6.03906L50.81543,46.9124
				c-0.00684-0.06055-0.01074-0.12109-0.01074-0.18213v-5.57275c0-1.72266,1.1416-4.28613,4.28613-4.28613h20.0625
				c3.14453,0,4.28613,2.56348,4.28613,4.28613v5.57275c0,0.06104-0.00391,0.12158-0.01074,0.18213L76.0957,74.12872v6.03906
				C76.0957,84.13018,72.86621,85.56866,70.69531,85.56866z M53.80469,46.63897l3.33301,27.21631
				c0.00684,0.06055,0.01074,0.12109,0.01074,0.18213v6.13037c0,2.12646,1.68848,2.3877,2.41504,2.40088h11.13184
				c0.71289-0.01318,2.40039-0.27441,2.40039-2.40088v-6.13037c0-0.06104,0.00391-0.12158,0.01074-0.18213l3.33301-27.21631
				v-5.48145c-0.02441-0.84668-0.45703-1.28613-1.28613-1.28613h-20.0625c-0.8291,0-1.26172,0.43945-1.28613,1.30566V46.63897z
				 M77.93945,46.73027h0.00977H77.93945z"/>
		</g>
	</g>
	<g>
		<g>
			<path fill="#E73C4D" d="M74.03906,74.98028H55.64844c-0.82813,0-1.5-0.67139-1.5-1.5s0.67188-1.5,1.5-1.5h18.39063
				c0.82813,0,1.5,0.67139,1.5,1.5S74.86719,74.98028,74.03906,74.98028z"/>
		</g>
	</g>
	<g>
		<g>
			<path fill="#E73C4D" d="M31.38672,58.81865c-0.82813,0-1.5-0.67139-1.5-1.5v-6.19189
				c0-11.21094,1.68652-14.96777,5.26758-20.33691c2.69727-4.04639,2.6084-9.93115,2.5498-13.8252
				c-0.00781-0.54102-0.01563-1.04541-0.01563-1.50391c0-4.05811,2.61133-5.65283,3.99219-5.9292
				c0.09668-0.01953,0.19531-0.0293,0.29395-0.0293h7.24512c0.09863,0,0.19727,0.00977,0.29395,0.0293
				c1.38086,0.27637,3.99219,1.87109,3.99219,5.9292c0,0.45898-0.00781,0.96387-0.01563,1.50537
				c-0.05859,3.89355-0.14746,9.77783,2.5498,13.82373c1.70605,2.55859,2.86035,4.54199,3.71191,7.10938
				c0.26074,0.78613-0.16504,1.63525-0.95117,1.896c-0.79199,0.25928-1.63574-0.16602-1.89648-0.95166
				c-0.74512-2.24658-1.7959-4.04395-3.36035-6.38965c-3.21484-4.82227-3.11816-11.26758-3.05371-15.53271
				c0.00781-0.52539,0.01563-1.01514,0.01563-1.46045c0-2.20166-1.07715-2.80664-1.49707-2.9585h-6.83301
				c-0.38281,0.13672-1.4873,0.729-1.4873,2.9585c0,0.44482,0.00781,0.93408,0.01563,1.4585
				c0.06348,4.26563,0.16113,10.71191-3.05371,15.53467c-3.12988,4.69385-4.76367,7.65674-4.76367,18.67285v6.19189
				C32.88672,58.14727,32.21484,58.81865,31.38672,58.81865z"/>
		</g>
	</g>
	<g>
		<g>
			<path fill="#E73C4D" d="M43.05566,85.56866c-0.51953,0-1.08984-0.00098-1.71094-0.00244
				c-0.82813-0.00195-1.49805-0.67529-1.49609-1.50391c0.00195-0.82715,0.67383-1.49609,1.5-1.49609c0.00098,0,0.00293,0,0.00391,0
				c2.54688,0.00537,4.29102-0.00098,5.03906-0.02148c2.00977,0.05566,8.56836,0.00635,12.30371-0.02734
				c0.00488,0,0.00977,0,0.01367,0c0.82227,0,1.49219,0.6626,1.5,1.48682c0.00684,0.82813-0.6582,1.50586-1.48633,1.51318
				c-3.75879,0.0332-10.35645,0.08057-12.33203,0.02637C45.85352,85.56036,44.72168,85.56866,43.05566,85.56866z"/>
		</g>
	</g>
	<g>
		<g>
			<path fill="#E73C4D" d="M72.61719,54.53057c-0.36914,0-0.7334-0.13623-1.01563-0.39648l-4.34082-3.99658l-4.34082,3.99658
				c-0.43945,0.40381-1.07617,0.50732-1.61816,0.27002c-0.54492-0.23877-0.89746-0.77783-0.89746-1.37354V38.3709
				c0-0.82861,0.67188-1.5,1.5-1.5h10.71289c0.82813,0,1.5,0.67139,1.5,1.5v14.65967c0,0.5957-0.35254,1.13477-0.89746,1.37354
				C73.02637,54.48906,72.82129,54.53057,72.61719,54.53057z M67.26074,46.59844c0.36426,0,0.72852,0.13232,1.01563,0.39648
				l2.84082,2.61523V39.8709H63.4043v9.73926l2.84082-2.61523C66.53223,46.73076,66.89648,46.59844,67.26074,46.59844z"/>
		</g>
	</g>
</g>
</svg>
