<?xml version="1.0" encoding="utf-8"?>
<!-- Generator: Adobe Illustrator 26.0.1, SVG Export Plug-In . SVG Version: 6.00 Build 0)  -->
<svg version="1.1" id="Calque_1" xmlns="http://www.w3.org/2000/svg" xmlns:xlink="http://www.w3.org/1999/xlink" x="0px" y="0px"
	 viewBox="0 0 87.4 87.4" style="enable-background:new 0 0 87.4 87.4;" xml:space="preserve">
<style type="text/css">
	.st0{display:none;}
	.st1{fill:#F03436;}
</style>
<g id="Calque_1_00000170240630506656923060000007143788891014684081_">
</g>
<g id="grille_page_entiere" class="st0">
</g>
<g id="grille">
	<g>
		<g>
			<g>
				<path class="st1" d="M69.5,77.2H58.4c-0.8,0-1.5-0.7-1.5-1.5V36c0-0.6,0.4-1.2,1-1.4L69,30.4c0.5-0.2,1-0.1,1.4,0.2
					s0.6,0.7,0.6,1.2v43.9C71,76.5,70.4,77.2,69.5,77.2z M59.9,74.2H68V34l-8.2,3C59.9,37,59.9,74.2,59.9,74.2z"/>
			</g>
		</g>
		<g>
			<g>
				<path class="st1" d="M51,77.2H39.9c-0.8,0-1.5-0.7-1.5-1.5V42.9c0-0.6,0.4-1.2,1-1.4l11.2-4.2c0.5-0.2,1-0.1,1.4,0.2
					s0.6,0.7,0.6,1.2v37C52.5,76.5,51.9,77.2,51,77.2z M41.4,74.2h8.2V40.9l-8.2,3C41.4,43.9,41.4,74.2,41.4,74.2z"/>
			</g>
		</g>
		<g>
			<g>
				<path class="st1" d="M32,77.2H20.9c-0.8,0-1.5-0.7-1.5-1.5V50c0-0.6,0.4-1.2,1-1.4l11.2-4.2c0.5-0.2,1-0.1,1.4,0.2
					s0.6,0.7,0.6,1.2v29.9C33.5,76.5,32.9,77.2,32,77.2z M22.4,74.2h8.2V48l-8.2,3V74.2z"/>
			</g>
		</g>
		<g>
			<g>
				<path class="st1" d="M20.9,38.5c-0.6,0-1.2-0.4-1.4-1c-0.3-0.8,0.1-1.6,0.9-1.9L69,17.4c0.8-0.3,1.6,0.1,1.9,0.9
					c0.3,0.8-0.1,1.6-0.9,1.9L21.4,38.4C21.2,38.4,21,38.5,20.9,38.5z"/>
			</g>
		</g>
		<g>
			<g>
				<path class="st1" d="M71.2,19.3c-0.2,0-0.4,0-0.6-0.1l-8-3.6c-0.8-0.3-1.1-1.2-0.7-2c0.3-0.8,1.2-1.1,2-0.7l8,3.6
					c0.8,0.3,1.1,1.2,0.7,2C72.3,19,71.7,19.3,71.2,19.3z"/>
			</g>
		</g>
		<g>
			<g>
				<path class="st1" d="M67.6,27.5c-0.2,0-0.4,0-0.6-0.1c-0.8-0.3-1.1-1.2-0.8-2l3.6-8c0.3-0.8,1.2-1.1,2-0.8
					c0.8,0.3,1.1,1.2,0.8,2l-3.6,8C68.8,27.2,68.2,27.5,67.6,27.5z"/>
			</g>
		</g>
		<g>
			<g>
				<path class="st1" d="M72.5,84.4H13.8c-0.8,0-1.5-0.7-1.5-1.5V36.5c0-0.8,0.7-1.5,1.5-1.5s1.5,0.7,1.5,1.5v44.8h57.2
					c0.8,0,1.5,0.7,1.5,1.5S73.3,84.4,72.5,84.4z"/>
			</g>
		</g>
	</g>
</g>
</svg>
