<?xml version="1.0" encoding="utf-8"?>
<!-- Generator: Adobe Illustrator 22.0.1, SVG Export Plug-In . SVG Version: 6.00 Build 0)  -->
<svg version="1.1" xmlns="http://www.w3.org/2000/svg" xmlns:xlink="http://www.w3.org/1999/xlink" x="0px" y="0px"
	 viewBox="0 0 87.38281 87.38281" enable-background="new 0 0 87.38281 87.38281" xml:space="preserve">
<g id="Calque_1">
</g>
<g id="grille_page_entiere" display="none">
</g>
<g id="grille">
	<g>
		<g>
			<g>
				<path fill="#E73C4D" d="M69.54544,77.20482H58.36868c-0.82813,0-1.5-0.67139-1.5-1.5v-39.7207
					c0-0.62646,0.38965-1.18701,0.97656-1.40576L69.022,30.41332c0.45996-0.1709,0.97461-0.10645,1.37891,0.17383
					s0.64453,0.74072,0.64453,1.23193v43.88574C71.04544,76.53343,70.37357,77.20482,69.54544,77.20482z M59.86868,74.20482h8.17676
					V33.97875l-8.17676,3.04736V74.20482z"/>
			</g>
		</g>
		<g>
			<g>
				<path fill="#E73C4D" d="M51.04544,77.20482H39.86868c-0.82813,0-1.5-0.67139-1.5-1.5V42.87816
					c0-0.62646,0.38965-1.18701,0.97656-1.40576L50.522,37.30736c0.46094-0.16992,0.97461-0.10645,1.37891,0.17383
					s0.64453,0.74072,0.64453,1.23193v36.9917C52.54544,76.53343,51.87357,77.20482,51.04544,77.20482z M41.36868,74.20482h8.17676
					V40.87279l-8.17676,3.04736V74.20482z"/>
			</g>
		</g>
		<g>
			<g>
				<path fill="#E73C4D" d="M32.04544,77.20482H20.86868c-0.82813,0-1.5-0.67139-1.5-1.5V49.95873
					c0-0.62646,0.38965-1.18701,0.97656-1.40576l11.17676-4.16504c0.45996-0.1709,0.97461-0.10645,1.3789,0.17383
					s0.64453,0.74072,0.64453,1.23193v29.91113C33.54544,76.53343,32.87357,77.20482,32.04544,77.20482z M22.36868,74.20482h8.17676
					V47.95336l-8.17676,3.04736V74.20482z"/>
			</g>
		</g>
		<g>
			<g>
				<path fill="#E73C4D" d="M20.86868,38.45922c-0.6084,0-1.18066-0.37305-1.40527-0.97656
					c-0.29004-0.77637,0.10547-1.64014,0.88184-1.92969L69.022,17.41332c0.77246-0.28906,1.63965,0.10547,1.92871,0.88184
					c0.29004,0.77637-0.10547,1.64014-0.88184,1.92969L21.39212,38.36449C21.22025,38.42846,21.04251,38.45922,20.86868,38.45922z"
					/>
			</g>
		</g>
		<g>
			<g>
				<path fill="#E73C4D" d="M71.15286,19.27953c-0.20801,0-0.41992-0.04346-0.62109-0.13574l-7.97168-3.63525
					c-0.75391-0.34375-1.08691-1.2334-0.74316-1.9873c0.34473-0.75293,1.2373-1.08594,1.9873-0.74219l7.97168,3.63525
					c0.75391,0.34375,1.08691,1.2334,0.74316,1.9873C72.26712,18.95336,71.7222,19.27953,71.15286,19.27953z"/>
			</g>
		</g>
		<g>
			<g>
				<path fill="#E73C4D" d="M67.64603,27.50072c-0.2041,0-0.41113-0.04199-0.60938-0.13037
					c-0.75684-0.33691-1.09668-1.22363-0.75977-1.98047l3.56543-8.00391c0.33691-0.75732,1.22461-1.09766,1.98047-0.75977
					c0.75684,0.33691,1.09668,1.22363,0.75977,1.98047l-3.56543,8.00391C68.7681,27.16918,68.22025,27.50072,67.64603,27.50072z"/>
			</g>
		</g>
		<g>
			<g>
				<path fill="#E73C4D" d="M72.49564,84.37132H13.82865c-0.82813,0-1.5-0.67139-1.5-1.5V36.53783c0-0.82861,0.67188-1.5,1.5-1.5
					s1.5,0.67139,1.5,1.5v44.83349h57.16699c0.82813,0,1.5,0.67139,1.5,1.5S73.32376,84.37132,72.49564,84.37132z"/>
			</g>
		</g>
	</g>
</g>
</svg>
