<svg xmlns="http://www.w3.org/2000/svg" xmlns:xlink="http://www.w3.org/1999/xlink" style="enable-background:new 0 0 87.4 87.4" id="Calque_1" x="0" y="0" version="1.1" viewBox="0 0 87.4 87.4" xml:space="preserve"><style type="text/css">.st1{fill:#f03436}</style><g id="grille"><g><g><g><path d="M45.6,56.4c-0.3,0-0.6-0.1-0.9-0.3c-0.4-0.3-0.6-0.9-0.5-1.4c0.6-3.2,1-7.4,1-10.8c0-3.4-0.4-4.9-0.8-5.5 c-0.3-0.4-0.5-0.6-1.1-0.6c0,0,0,0,0,0c-0.6,0-1.8,0-1.8,6.1c0,3.3,0.4,7.5,1,10.7c0.1,0.5-0.1,1.1-0.6,1.4 c-0.5,0.3-1.1,0.3-1.5,0.1c-4.8-2.8-8-12-8-22.8c0-6.2,1-12,2.9-16.3c2-4.8,4.9-7.4,8.1-7.4c0,0,0,0,0,0c3.2,0,6,2.6,8.1,7.4 c1.9,4.4,2.9,10.2,3,16.3l0,0c0,11.1-3.4,20.6-8.3,23.1C46,56.4,45.8,56.4,45.6,56.4z M43.4,35c1.6,0,2.8,0.7,3.5,2 c0.8,1.4,1.1,3.6,1.1,6.9c0,2.2-0.2,4.7-0.4,7.1c2.3-3.5,4.1-9.8,4.1-17.9l0,0c0-5.8-1-11.2-2.7-15.2c-1.6-3.6-3.6-5.7-5.5-5.7 c0,0,0,0,0,0c-1.9,0-3.9,2.1-5.5,5.7c-1.7,4-2.7,9.5-2.7,15.2c0,7.7,1.7,13.8,3.8,17.3c-0.2-2.3-0.4-4.6-0.4-6.6 C38.7,39.3,39.3,35,43.4,35C43.4,35,43.4,35,43.4,35z" class="st1"/></g></g><g><g><path d="M43.4,61.5c-1.7,0-2.7-1.8-3.6-6.4c-0.1-0.8,0.4-1.5,1.1-1.7c0.8-0.1,1.5,0.4,1.7,1.1 c0.3,1.6,0.6,2.6,0.8,3.2c0.2-0.6,0.5-1.6,0.8-3.1c0.2-0.8,0.9-1.3,1.7-1.1c0.8,0.2,1.3,0.9,1.1,1.7 C46.1,59.7,45.1,61.5,43.4,61.5C43.4,61.5,43.4,61.5,43.4,61.5z" class="st1"/></g></g></g><g><g><path d="M44,12.3c-0.1,0-0.1,0-0.2,0c-0.1,0-0.2,0-0.4,0c0,0,0,0,0,0c-0.1,0-0.2,0-0.3,0c-0.4,0-0.8-0.1-1.1-0.4 c-0.3-0.3-0.5-0.7-0.4-1.1L42,6.7c-0.2-0.3-0.3-0.6-0.3-1c0-1,0.8-1.8,1.8-1.8s1.8,0.8,1.8,1.8c0,0.4-0.1,0.7-0.3,1l0.4,4.1 c0,0.4-0.1,0.8-0.4,1.1C44.7,12.2,44.4,12.3,44,12.3z" class="st1"/></g></g><g><g><path d="M57.1,56.7C57,56.7,57,56.7,57.1,56.7c-0.4,0-0.8-0.2-1-0.5c-1.2-1.3-4.7-4.9-6.4-5.8 c-0.7-0.3-1-1.1-0.7-1.8c1.5-3.4,2.5-8,2.7-12.9c0-0.5,0.3-0.9,0.7-1.2c0.4-0.2,1-0.2,1.4,0c2.2,1.3,3.7,3.6,4.4,6.7 c0,0,0,0,0,0.1c0,0.1,2.1,12.8-0.2,15C57.8,56.6,57.4,56.7,57.1,56.7z M56,54.4L56,54.4L56,54.4z M52,48.7c1.4,1,3,2.5,4.2,3.8 c0.1-2.9-0.4-8-0.8-10.6c-0.2-1.1-0.6-2.1-1.2-2.9C53.9,42.5,53.1,45.9,52,48.7z" class="st1"/></g></g><g><g><path d="M30.1,56.8c-0.4,0-0.7-0.1-1-0.4c-2.3-2.1-0.3-14.9-0.2-15c0.6-3,2.1-5.3,4.2-6.6c0.4-0.3,1-0.3,1.4-0.1 c0.4,0.2,0.7,0.7,0.8,1.2c0.3,4.9,1.3,9.5,2.8,12.8c0.3,0.7,0,1.5-0.6,1.8c-1.7,0.9-5.1,4.5-6.3,5.7 C30.8,56.6,30.5,56.8,30.1,56.8C30.1,56.8,30.1,56.8,30.1,56.8z M31.1,54.5L31.1,54.5L31.1,54.5z M32.6,39.2 c-0.5,0.8-0.8,1.7-1,2.8c-0.4,2.5-0.9,7.6-0.8,10.5c1.2-1.2,2.7-2.7,4.1-3.7C33.9,46,33.1,42.7,32.6,39.2z" class="st1"/></g></g><g><g><path d="M43.5,28.6c-2.8,0-5.1-2.3-5.1-5.1c0-2.8,2.3-5.1,5.1-5.1c2.8,0,5.1,2.3,5.1,5.1 C48.6,26.3,46.3,28.6,43.5,28.6z M43.5,21.2c-1.3,0-2.3,1-2.3,2.3c0,1.3,1,2.3,2.3,2.3s2.3-1,2.3-2.3 C45.8,22.3,44.8,21.2,43.5,21.2z" class="st1"/></g></g><g><g><path d="M36.9,69.9c-0.8,0-1.4-0.6-1.4-1.4v-8.7c0-0.8,0.6-1.4,1.4-1.4s1.4,0.6,1.4,1.4v8.7 C38.3,69.3,37.7,69.9,36.9,69.9z" class="st1"/></g></g><g><g><path d="M43.4,69.9c-0.8,0-1.4-0.6-1.4-1.4v-3.4c0-0.8,0.6-1.4,1.4-1.4c0.8,0,1.4,0.6,1.4,1.4v3.4 C44.8,69.3,44.2,69.9,43.4,69.9z" class="st1"/></g></g><g><g><path d="M49.9,69.9c-0.8,0-1.4-0.6-1.4-1.4v-8.7c0-0.8,0.6-1.4,1.4-1.4c0.8,0,1.4,0.6,1.4,1.4v8.7 C51.3,69.3,50.7,69.9,49.9,69.9z" class="st1"/></g></g><g><g><path d="M76.9,85.3H12.8c-0.6,0-1.1-0.4-1.3-0.9c-0.4-0.9-0.4-3.4-0.4-3.4c0-3,2.2-5.5,5-6.1c1-4.7,5.2-8.2,10.2-8.2 c5.4,0,9.9,4.2,10.3,9.5c1.7-0.2,3.5,0.2,4.9,1.1c1.2-2.8,4.1-4.8,7.3-4.8c0.8,0,1.6,0.1,2.3,0.3c1.5-4.5,5.8-7.7,10.6-7.7 c4.9,0,9.3,3.3,10.7,7.9c3.5,1,6.1,4.2,6.1,7.9c0,0.6-0.1,2.5-0.3,3.2C78.1,84.8,77.5,85.3,76.9,85.3z M14,82.5h61.7 c0.1-0.5,0.1-1.2,0.1-1.5c0-2.6-2-4.9-4.6-5.3c-0.6-0.1-1.1-0.5-1.2-1.1c-0.8-3.8-4.2-6.6-8.1-6.6c-4.1,0-7.6,3-8.2,7.1 c-0.1,0.5-0.4,0.9-0.8,1.1c-0.4,0.2-0.9,0.2-1.3-0.1c-0.8-0.5-1.7-0.7-2.6-0.7c-2.7,0-4.9,2-5.1,4.7c-0.1,0.6-0.5,1.1-1,1.2 c-0.6,0.2-1.2,0-1.5-0.5c-0.8-1.1-2.1-1.8-3.6-1.8c-0.6,0-1.3,0.1-1.8,0.4c-0.5,0.2-1,0.2-1.4-0.1c-0.4-0.3-0.6-0.8-0.6-1.3 c0-0.3,0-0.5,0-0.8c0-4.2-3.4-7.6-7.6-7.6c-3.9,0-7.1,2.9-7.5,6.8c-0.1,0.8-0.7,1.3-1.5,1.3c-1.8,0-3.3,1.5-3.3,3.4 C13.9,81.4,14,82,14,82.5z" class="st1"/></g></g></g></svg>