<?xml version="1.0" encoding="utf-8"?>
<!-- Generator: Adobe Illustrator 22.0.1, SVG Export Plug-In . SVG Version: 6.00 Build 0)  -->
<svg version="1.1" xmlns="http://www.w3.org/2000/svg" xmlns:xlink="http://www.w3.org/1999/xlink" x="0px" y="0px"
	 viewBox="0 0 87.38281 87.38281" enable-background="new 0 0 87.38281 87.38281" xml:space="preserve">
<g id="Calque_1">
</g>
<g id="grille_page_entiere" display="none">
</g>
<g id="grille">
	<g>
		<g>
			<g>
				<path fill="#E73C4D" d="M45.5826,56.40113c-0.30201,0-0.60217-0.09668-0.85262-0.28589
					c-0.43183-0.3264-0.63992-0.87057-0.53495-1.40138c0.62703-3.18626,1.03032-7.43599,1.02756-10.82619
					c-0.00276-3.39803-0.42447-4.86341-0.77803-5.49412c-0.25137-0.44887-0.4705-0.5658-1.06163-0.5658
					c-0.00184,0-0.00368,0-0.0046,0c-0.59849,0.00046-1.84335,0.00184-1.83782,6.06361
					c0.00184,3.3147,0.3996,7.50228,1.01374,10.66829c0.10589,0.54554-0.11786,1.10214-0.57087,1.42348
					c-0.45393,0.32042-1.05334,0.34712-1.53213,0.06629c-4.75568-2.78389-7.96174-11.9647-7.97923-22.84522
					c-0.01105-6.15016,1.01927-11.95688,2.90037-16.34886c2.04407-4.77133,4.91313-7.40192,8.07959-7.40698
					c0.00368,0,0.00644,0,0.01013,0c3.16186,0,6.03645,2.62,8.0934,7.37936c1.89675,4.386,2.9464,10.18811,2.95561,16.33827l0,0
					c0.01934,11.09874-3.38837,20.5903-8.28768,23.08139C46.02088,56.35049,45.80174,56.40113,45.5826,56.40113z M43.38108,34.99919
					c1.61776,0,2.77238,0.65788,3.53108,2.01138c0.77435,1.38251,1.13621,3.56699,1.13897,6.87525
					c0.00184,2.19323-0.15837,4.73128-0.43644,7.13997c2.25584-3.49103,4.08169-9.79357,4.06788-17.85521l0,0
					c-0.00921-5.77449-0.976-11.17976-2.72266-15.22048c-1.55883-3.60566-3.56331-5.67321-5.49873-5.67321
					c-0.00092,0-0.00276,0-0.00368,0c-1.93726,0.00322-3.93621,2.07768-5.48492,5.69208
					c-1.73378,4.0467-2.68215,9.45566-2.67202,15.23015c0.01197,7.70669,1.67485,13.7795,3.80086,17.34327
					c-0.24768-2.25308-0.38856-4.5812-0.38948-6.64875c-0.00368-4.61711,0.55798-8.89032,4.66269-8.89446
					C43.3774,34.99919,43.37924,34.99919,43.38108,34.99919z"/>
			</g>
		</g>
		<g>
			<g>
				<path fill="#E73C4D" d="M43.39397,61.46158c-1.69234,0-2.73923-1.84381-3.61671-6.36331
					c-0.14824-0.76653,0.35265-1.50911,1.11871-1.65781c0.76514-0.1487,1.50911,0.35219,1.65827,1.11917
					c0.30661,1.58093,0.60309,2.59145,0.83789,3.22723c0.2265-0.61506,0.50917-1.58047,0.80289-3.07301
					c0.15008-0.76699,0.90049-1.26741,1.66011-1.11457c0.76699,0.15054,1.26603,0.89405,1.11503,1.66058
					c-0.86551,4.40303-1.90135,6.19988-3.57436,6.20172C43.3949,61.46158,43.3949,61.46158,43.39397,61.46158z"/>
			</g>
		</g>
	</g>
	<g>
		<g>
			<path fill="#E73C4D" d="M43.99154,12.31832c-0.06261,0-0.12522-0.00414-0.18783-0.01243
				c-0.12338-0.01657-0.24768-0.02854-0.37199-0.02854c-0.00184,0-0.00368,0-0.0046,0c-0.09944,0-0.19428,0.00875-0.28912,0.01841
				c-0.42723,0.04512-0.84249-0.10589-1.14357-0.40467c-0.30017-0.29924-0.45117-0.71819-0.40974-1.14081l0.40421-4.09734
				c-0.19704-0.29234-0.3103-0.64268-0.3103-1.01789c0-1.01237,0.82407-1.83598,1.83598-1.83598s1.83598,0.82361,1.83598,1.83598
				c0,0.36922-0.11325,0.7168-0.30753,1.00822l0.35725,4.13924c0.03683,0.42723-0.12154,0.84847-0.43275,1.14495
				C44.70329,12.17975,44.35248,12.31832,43.99154,12.31832z"/>
		</g>
	</g>
	<g>
		<g>
			<path fill="#E73C4D" d="M57.06069,56.72616c-0.01842,0-0.03683-0.00046-0.05433-0.00092
				c-0.38119-0.01473-0.73936-0.18277-0.99533-0.46498c-1.19421-1.3222-4.66821-4.93339-6.36884-5.75746
				c-0.68596-0.33285-0.9852-1.14956-0.67583-1.84657c1.51188-3.40678,2.47866-7.98153,2.72266-12.88085
				c0.02486-0.49398,0.30569-0.93917,0.74028-1.17396c0.43459-0.23433,0.96126-0.22605,1.38849,0.02486
				c2.22177,1.3047,3.74193,3.61211,4.39566,6.67315c0.00368,0.01749,0.00737,0.03499,0.01013,0.05248
				c0.0221,0.12706,2.07261,12.84218-0.18967,14.98661C57.77059,56.58759,57.42162,56.72616,57.06069,56.72616z M55.98709,54.40725
				L55.98709,54.40725L55.98709,54.40725z M52.02694,48.65715c1.39218,0.9829,3.01178,2.52056,4.23546,3.75896
				c0.0801-2.90543-0.38027-8.00501-0.82039-10.55227c-0.24676-1.14265-0.64084-2.13292-1.16659-2.94733
				C53.87949,42.51114,53.10698,45.86497,52.02694,48.65715z"/>
		</g>
	</g>
	<g>
		<g>
			<path fill="#E73C4D" d="M30.05045,56.77404c-0.36001,0-0.70622-0.13719-0.96955-0.38441
				c-2.26689-2.1343-0.26333-14.85862-0.24124-14.98569c0.63532-3.03157,2.0855-5.30813,4.20323-6.63631
				c0.42263-0.26564,0.95666-0.28773,1.40138-0.05801c0.44473,0.23065,0.73476,0.67859,0.76238,1.17902
				c0.26702,4.89563,1.25683,9.45842,2.78712,12.84771c0.30661,0.68044,0.03223,1.48195-0.62703,1.83137
				c-1.7439,0.92443-5.11293,4.4546-6.26387,5.73674c-0.25413,0.28359-0.6123,0.45209-0.99257,0.4682
				C30.09004,56.77357,30.06978,56.77404,30.05045,56.77404z M31.12128,54.45144h0.00921H31.12128z M32.64973,39.16328
				c-0.4613,0.78172-0.80934,1.71122-1.03216,2.76916c-0.42447,2.49938-0.86827,7.61507-0.77896,10.52833
				c1.18593-1.20849,2.74292-2.7001,4.10103-3.68761C33.85407,46.02104,33.06775,42.71416,32.64973,39.16328z"/>
		</g>
	</g>
	<g>
		<g>
			<path fill="#E73C4D" d="M43.49157,28.64232c-2.82118,0-5.11661-2.29543-5.11661-5.11707
				c0-2.82118,2.29543-5.11662,5.11661-5.11662c2.82118,0,5.11662,2.29543,5.11662,5.11662
				C48.60819,26.34689,46.31276,28.64232,43.49157,28.64232z M43.49157,21.23718c-1.26143,0-2.28807,1.02664-2.28807,2.28807
				c0,1.26189,1.02664,2.28853,2.28807,2.28853c1.26143,0,2.28807-1.02664,2.28807-2.28853
				C45.77964,22.26382,44.75301,21.23718,43.49157,21.23718z"/>
		</g>
	</g>
	<g>
		<g>
			<path fill="#E73C4D" d="M36.90728,69.93388c-0.7808,0-1.41428-0.63302-1.41428-1.41428v-8.72412
				c0-0.78126,0.63348-1.41428,1.41428-1.41428c0.7808,0,1.41427,0.63302,1.41427,1.41428v8.72412
				C38.32156,69.30086,37.68808,69.93388,36.90728,69.93388z"/>
		</g>
	</g>
	<g>
		<g>
			<path fill="#E73C4D" d="M43.38937,69.93388c-0.7808,0-1.41427-0.63302-1.41427-1.41428v-3.37455
				c0-0.78126,0.63348-1.41428,1.41427-1.41428c0.7808,0,1.41428,0.63302,1.41428,1.41428v3.37455
				C44.80365,69.30086,44.17017,69.93388,43.38937,69.93388z"/>
		</g>
	</g>
	<g>
		<g>
			<path fill="#E73C4D" d="M49.87146,69.93388c-0.7808,0-1.41427-0.63302-1.41427-1.41428v-8.72412
				c0-0.78126,0.63348-1.41428,1.41427-1.41428c0.7808,0,1.41428,0.63302,1.41428,1.41428v8.72412
				C51.28574,69.30086,50.65226,69.93388,49.87146,69.93388z"/>
		</g>
	</g>
	<g>
		<g>
			<path fill="#E73C4D" d="M76.89183,85.28188h-64.0889c-0.58652,0-1.11227-0.36231-1.32128-0.91062
				c-0.36093-0.94699-0.36554-3.36672-0.36554-3.39113c0-3.02006,2.16653-5.54338,5.0273-6.09814
				c1.00546-4.74647,5.18107-8.1956,10.15036-8.1956c5.42138,0,9.88519,4.17837,10.34096,9.4842
				c1.70707-0.24032,3.49886,0.16481,4.94075,1.09615c1.24025-2.83684,4.05591-4.76581,7.32642-4.76581
				c0.79,0,1.57449,0.11877,2.32766,0.34896c1.47044-4.50109,5.7547-7.71313,10.61074-7.71313
				c4.9343,0,9.2867,3.28985,10.68439,7.94655c3.51083,0.95068,6.05394,4.18988,6.05394,7.89682
				c0,0.60079-0.12337,2.498-0.31858,3.24473C78.09801,84.84728,77.53543,85.28188,76.89183,85.28188z M14.00912,82.45333h61.65166
				c0.05064-0.54877,0.08932-1.15646,0.08932-1.47321c0-2.63841-1.96949-4.91405-4.58074-5.29432
				c-0.58744-0.08562-1.05886-0.52897-1.1804-1.10996c-0.80198-3.83033-4.22901-6.61053-8.14865-6.61053
				c-4.07893,0-7.6183,3.03526-8.23152,7.06078c-0.06998,0.46268-0.36554,0.8609-0.78724,1.063
				c-0.42263,0.20072-0.91891,0.18139-1.3222-0.05432c-0.79184-0.4613-1.6905-0.7053-2.59744-0.7053
				c-2.68951,0-4.90392,2.01829-5.14976,4.69399c-0.05433,0.58468-0.46314,1.07497-1.02848,1.23289
				c-0.5589,0.15652-1.16843-0.04834-1.5174-0.52161c-0.84893-1.14772-2.14719-1.80605-3.56331-1.80605
				c-0.63716,0-1.25867,0.13765-1.84795,0.40881c-0.46313,0.21223-1.00454,0.15975-1.41888-0.13766
				c-0.41342-0.29832-0.6344-0.79645-0.57823-1.30286c0.03038-0.273,0.04696-0.54969,0.04696-0.83052
				c0-4.1641-3.38744-7.55154-7.55108-7.55154c-3.90491,0-7.13582,2.92661-7.51425,6.80711
				c-0.07458,0.75364-0.74765,1.31852-1.52016,1.2734c-1.79639,0.00185-3.31471,1.51924-3.31471,3.38468
				C13.94466,81.39907,13.97045,81.96717,14.00912,82.45333z"/>
		</g>
	</g>
</g>
</svg>
