<?xml version="1.0" encoding="utf-8"?>
<!-- Generator: Adobe Illustrator 22.0.1, SVG Export Plug-In . SVG Version: 6.00 Build 0)  -->
<svg version="1.1" xmlns="http://www.w3.org/2000/svg" xmlns:xlink="http://www.w3.org/1999/xlink" x="0px" y="0px"
	 viewBox="0 0 87.38281 87.38281" enable-background="new 0 0 87.38281 87.38281" xml:space="preserve">
<g id="Calque_1">
	<g>
		<g>
			<g>
				<path fill="#E73C4D" d="M79.29433,85.56813H9.75038c-0.82813,0-1.5-0.67139-1.5-1.5V68.11745c0-0.82861,0.67188-1.5,1.5-1.5
					h69.54395c0.82813,0,1.5,0.67139,1.5,1.5v15.95068C80.79433,84.89674,80.12245,85.56813,79.29433,85.56813z M11.25038,82.56813
					h66.54395V69.61745H11.25038V82.56813z"/>
			</g>
			<g>
				<path fill="#E73C4D" d="M16.13027,76.63551c-0.82813,0-1.5-0.67139-1.5-1.5v-7.01807c0-0.82861,0.67188-1.5,1.5-1.5
					c0.82813,0,1.5,0.67139,1.5,1.5v7.01807C17.63027,75.96413,16.95839,76.63551,16.13027,76.63551z"/>
			</g>
			<g>
				<path fill="#E73C4D" d="M25.38222,76.63551c-0.82813,0-1.5-0.67139-1.5-1.5v-7.01807c0-0.82861,0.67188-1.5,1.5-1.5
					s1.5,0.67139,1.5,1.5v7.01807C26.88222,75.96413,26.21035,76.63551,25.38222,76.63551z"/>
			</g>
			<g>
				<path fill="#E73C4D" d="M34.6332,76.63551c-0.82813,0-1.5-0.67139-1.5-1.5v-7.01807c0-0.82861,0.67188-1.5,1.5-1.5
					s1.5,0.67139,1.5,1.5v7.01807C36.1332,75.96413,35.46132,76.63551,34.6332,76.63551z"/>
			</g>
			<g>
				<path fill="#E73C4D" d="M43.88417,76.63551c-0.82813,0-1.5-0.67139-1.5-1.5v-7.01807c0-0.82861,0.67188-1.5,1.5-1.5
					s1.5,0.67139,1.5,1.5v7.01807C45.38417,75.96413,44.7123,76.63551,43.88417,76.63551z"/>
			</g>
			<g>
				<path fill="#E73C4D" d="M53.13613,76.63551c-0.82813,0-1.5-0.67139-1.5-1.5v-7.01807c0-0.82861,0.67188-1.5,1.5-1.5
					s1.5,0.67139,1.5,1.5v7.01807C54.63613,75.96413,53.96425,76.63551,53.13613,76.63551z"/>
			</g>
			<g>
				<path fill="#E73C4D" d="M62.3871,76.63551c-0.82813,0-1.5-0.67139-1.5-1.5v-7.01807c0-0.82861,0.67188-1.5,1.5-1.5
					s1.5,0.67139,1.5,1.5v7.01807C63.8871,75.96413,63.21523,76.63551,62.3871,76.63551z"/>
			</g>
			<g>
				<path fill="#E73C4D" d="M71.63808,76.63551c-0.82813,0-1.5-0.67139-1.5-1.5v-7.01807c0-0.82861,0.67188-1.5,1.5-1.5
					s1.5,0.67139,1.5,1.5v7.01807C73.13808,75.96413,72.4662,76.63551,71.63808,76.63551z"/>
			</g>
		</g>
	</g>
</g>
<g id="grille_page_entiere" display="none">
</g>
<g id="grille">
	<g>
		<g>
			<path fill="#E73C4D" d="M73.53564,54.90266H16.13037c-0.82813,0-1.5-0.67139-1.5-1.5s0.67188-1.5,1.5-1.5h57.40527
				c0.82813,0,1.5,0.67139,1.5,1.5S74.36376,54.90266,73.53564,54.90266z"/>
		</g>
	</g>
	<g>
		<g>
			<g>
				<path fill="#E73C4D" d="M74.9497,54.59162c-0.38379,0-0.76758-0.14648-1.06055-0.43896l-4.68359-4.68018
					c-0.58594-0.58545-0.58594-1.53516-0.00098-2.12109c0.58594-0.58691,1.53613-0.58594,2.12207-0.00098l4.68359,4.68018
					c0.58594,0.58545,0.58594,1.53516,0.00098,2.12109C75.71825,54.44514,75.33349,54.59162,74.9497,54.59162z"/>
			</g>
		</g>
		<g>
			<g>
				<path fill="#E73C4D" d="M70.29443,59.48566c-0.37891,0-0.75879-0.14307-1.05078-0.42969
					c-0.59082-0.58057-0.59961-1.53027-0.01953-2.12109l4.63867-4.72461c0.58105-0.59082,1.53027-0.6001,2.12109-0.01953
					s0.59961,1.53027,0.01953,2.12109l-4.63867,4.72461C71.07079,59.33576,70.6831,59.48566,70.29443,59.48566z"/>
			</g>
		</g>
	</g>
	<g>
		<g>
			<g>
				<path fill="#E73C4D" d="M15.10205,54.59162c-0.38379,0-0.76855-0.14648-1.06152-0.43994
					c-0.58496-0.58594-0.58496-1.53564,0.00098-2.12109l4.68359-4.68018c0.58594-0.58496,1.53613-0.58594,2.12207,0.00098
					c0.58496,0.58594,0.58496,1.53564-0.00098,2.12109l-4.68359,4.68018C15.86962,54.44514,15.48583,54.59162,15.10205,54.59162z"/>
			</g>
		</g>
		<g>
			<g>
				<path fill="#E73C4D" d="M19.75732,59.48566c-0.38867,0-0.77637-0.1499-1.07031-0.44922l-4.63965-4.72461
					c-0.58008-0.59082-0.57129-1.54053,0.01953-2.12109c0.5918-0.58008,1.54102-0.5708,2.12109,0.01953l4.63965,4.72461
					c0.58008,0.59082,0.57129,1.54053-0.01953,2.12109C20.51611,59.3426,20.13622,59.48566,19.75732,59.48566z"/>
			</g>
		</g>
	</g>
	<g>
		<g>
			<path fill="#E73C4D" d="M79.29443,64.72004c-0.82813,0-1.5-0.67139-1.5-1.5V44.20539c0-0.82861,0.67188-1.5,1.5-1.5
				s1.5,0.67139,1.5,1.5v19.01465C80.79443,64.04865,80.12255,64.72004,79.29443,64.72004z"/>
		</g>
	</g>
	<g>
		<g>
			<path fill="#E73C4D" d="M9.75048,64.72004c-0.82813,0-1.5-0.67139-1.5-1.5V44.20539c0-0.82861,0.67188-1.5,1.5-1.5
				s1.5,0.67139,1.5,1.5v19.01465C11.25048,64.04865,10.57861,64.72004,9.75048,64.72004z"/>
		</g>
	</g>
</g>
</svg>
