<svg xmlns="http://www.w3.org/2000/svg" xmlns:xlink="http://www.w3.org/1999/xlink" style="enable-background:new 0 0 87.4 87.4" id="Calque_1" x="0" y="0" version="1.1" viewBox="0 0 87.4 87.4" xml:space="preserve"><style type="text/css">.st0{fill:#f03436}</style><g id="Calque_1_00000102509480762038811990000000388040904184310953_"><g><g><g><path d="M79.3,85.6H9.8c-0.8,0-1.5-0.7-1.5-1.5v-16c0-0.8,0.7-1.5,1.5-1.5h69.5c0.8,0,1.5,0.7,1.5,1.5v16 C80.8,84.9,80.1,85.6,79.3,85.6z M11.3,82.6h66.5v-13H11.3V82.6z" class="st0"/></g><g><path d="M16.1,76.6c-0.8,0-1.5-0.7-1.5-1.5v-7c0-0.8,0.7-1.5,1.5-1.5c0.8,0,1.5,0.7,1.5,1.5v7 C17.6,76,17,76.6,16.1,76.6z" class="st0"/></g><g><path d="M25.4,76.6c-0.8,0-1.5-0.7-1.5-1.5v-7c0-0.8,0.7-1.5,1.5-1.5s1.5,0.7,1.5,1.5v7 C26.9,76,26.2,76.6,25.4,76.6z" class="st0"/></g><g><path d="M34.6,76.6c-0.8,0-1.5-0.7-1.5-1.5v-7c0-0.8,0.7-1.5,1.5-1.5s1.5,0.7,1.5,1.5v7 C36.1,76,35.5,76.6,34.6,76.6z" class="st0"/></g><g><path d="M43.9,76.6c-0.8,0-1.5-0.7-1.5-1.5v-7c0-0.8,0.7-1.5,1.5-1.5s1.5,0.7,1.5,1.5v7 C45.4,76,44.7,76.6,43.9,76.6z" class="st0"/></g><g><path d="M53.1,76.6c-0.8,0-1.5-0.7-1.5-1.5v-7c0-0.8,0.7-1.5,1.5-1.5s1.5,0.7,1.5,1.5v7C54.6,76,54,76.6,53.1,76.6z" class="st0"/></g><g><path d="M62.4,76.6c-0.8,0-1.5-0.7-1.5-1.5v-7c0-0.8,0.7-1.5,1.5-1.5s1.5,0.7,1.5,1.5v7 C63.9,76,63.2,76.6,62.4,76.6z" class="st0"/></g><g><path d="M71.6,76.6c-0.8,0-1.5-0.7-1.5-1.5v-7c0-0.8,0.7-1.5,1.5-1.5s1.5,0.7,1.5,1.5v7 C73.1,76,72.5,76.6,71.6,76.6z" class="st0"/></g></g></g></g><g id="grille"><g><g><path d="M73.5,54.9H16.1c-0.8,0-1.5-0.7-1.5-1.5s0.7-1.5,1.5-1.5h57.4c0.8,0,1.5,0.7,1.5,1.5S74.4,54.9,73.5,54.9z" class="st0"/></g></g><g><g><g><path d="M74.9,54.6c-0.4,0-0.8-0.1-1.1-0.4l-4.7-4.7c-0.6-0.6-0.6-1.5,0-2.1c0.6-0.6,1.5-0.6,2.1,0L76,52 c0.6,0.6,0.6,1.5,0,2.1C75.7,54.4,75.3,54.6,74.9,54.6z" class="st0"/></g></g><g><g><path d="M70.3,59.5c-0.4,0-0.8-0.1-1.1-0.4c-0.6-0.6-0.6-1.5,0-2.1l4.6-4.7c0.6-0.6,1.5-0.6,2.1,0s0.6,1.5,0,2.1 L71.4,59C71.1,59.3,70.7,59.5,70.3,59.5z" class="st0"/></g></g></g><g><g><g><path d="M15.1,54.6c-0.4,0-0.8-0.1-1.1-0.4c-0.6-0.6-0.6-1.5,0-2.1l4.7-4.7c0.6-0.6,1.5-0.6,2.1,0 c0.6,0.6,0.6,1.5,0,2.1l-4.7,4.7C15.9,54.4,15.5,54.6,15.1,54.6z" class="st0"/></g></g><g><g><path d="M19.8,59.5c-0.4,0-0.8-0.1-1.1-0.4L14,54.3c-0.6-0.6-0.6-1.5,0-2.1c0.6-0.6,1.5-0.6,2.1,0l4.6,4.7 c0.6,0.6,0.6,1.5,0,2.1C20.5,59.3,20.1,59.5,19.8,59.5z" class="st0"/></g></g></g><g><g><path d="M79.3,64.7c-0.8,0-1.5-0.7-1.5-1.5v-19c0-0.8,0.7-1.5,1.5-1.5s1.5,0.7,1.5,1.5v19 C80.8,64,80.1,64.7,79.3,64.7z" class="st0"/></g></g><g><g><path d="M9.8,64.7c-0.8,0-1.5-0.7-1.5-1.5v-19c0-0.8,0.7-1.5,1.5-1.5s1.5,0.7,1.5,1.5v19C11.3,64,10.6,64.7,9.8,64.7 z" class="st0"/></g></g></g></svg>