<?xml version="1.0" encoding="utf-8"?>
<!-- Generator: Adobe Illustrator 22.0.1, SVG Export Plug-In . SVG Version: 6.00 Build 0)  -->
<svg version="1.1" xmlns="http://www.w3.org/2000/svg" xmlns:xlink="http://www.w3.org/1999/xlink" x="0px" y="0px"
	 viewBox="0 0 87.38281 87.38281" enable-background="new 0 0 87.38281 87.38281" xml:space="preserve">
<g id="Calque_1">
	<g id="eye-icon_1_">
		<path fill="#E73C4D" d="M41.27763,74.56207c-14.49317,0-24.0459-13.7583-24.44531-14.34424
			c-0.35449-0.51904-0.34668-1.20459,0.01855-1.71631c0.36816-0.51709,9.21094-12.66748,24.42676-12.66748
			c15.47168,0,24.02832,12.16992,24.38477,12.68799c0.33301,0.48389,0.35352,1.11816,0.05078,1.62256
			C65.35966,60.73296,56.88309,74.56207,41.27763,74.56207z M19.9661,59.40191c2.29492,2.92432,10.40723,12.16016,21.31153,12.16016
			c11.79102,0,19.27051-9.26075,21.30273-12.12793c-2.11328-2.58301-9.61621-10.6001-21.30273-10.6001
			C29.85282,48.83403,22.19852,56.76079,19.9661,59.40191z M41.47392,70.69927c-5.79004,0-10.50098-4.71094-10.50098-10.50147
			c0-5.79004,4.71094-10.50098,10.50098-10.50098s10.50098,4.71094,10.50098,10.50098
			C51.97489,65.98833,47.26395,70.69927,41.47392,70.69927z M41.47392,52.69683c-4.13574,0-7.50098,3.36475-7.50098,7.50098
			s3.36523,7.50147,7.50098,7.50147s7.50098-3.36523,7.50098-7.50147S45.60966,52.69683,41.47392,52.69683z M41.47392,65.49517
			c-2.9209,0-5.29688-2.37647-5.29688-5.29737s2.37598-5.29688,5.29688-5.29688s5.29785,2.37598,5.29785,5.29688
			S44.39481,65.49517,41.47392,65.49517z M41.47392,57.90093c-1.2666,0-2.29688,1.03027-2.29688,2.29688
			s1.03027,2.29736,2.29688,2.29736s2.29785-1.03076,2.29785-2.29736S42.74052,57.90093,41.47392,57.90093z"/>
	</g>
	<g>
		<g>
			<path fill="#E73C4D" d="M59.02372,82.43951H6.51981c-0.82813,0-1.5-0.67139-1.5-1.5V33.23345c0-0.82861,0.67188-1.5,1.5-1.5
				h71.4248c0.82813,0,1.5,0.67139,1.5,1.5v20.06201c0,0.82861-0.67188,1.5-1.5,1.5s-1.5-0.67139-1.5-1.5V34.73345H8.01981v44.70606
				h51.00391c0.82813,0,1.5,0.67139,1.5,1.5S59.85184,82.43951,59.02372,82.43951z"/>
		</g>
		<g>
			<path fill="#E73C4D" d="M77.80985,41.71392H6.65458c-0.82813,0-1.5-0.67139-1.5-1.5s0.67188-1.5,1.5-1.5h71.15527
				c0.82813,0,1.5,0.67139,1.5,1.5S78.63798,41.71392,77.80985,41.71392z"/>
		</g>
		<g>
			<circle fill="#E73C4D" cx="10.37826" cy="36.8247" r="0.80858"/>
		</g>
		<g>
			<circle fill="#E73C4D" cx="13.91212" cy="36.8247" r="0.80858"/>
		</g>
		<g>
			<circle fill="#E73C4D" cx="17.44598" cy="36.8247" r="0.80858"/>
		</g>
	</g>
	<g>
		<circle fill="#FFFFFF" cx="65.1479" cy="64.89655" r="12.49605"/>
		<path fill="#E73C4D" d="M65.14774,78.89263c-7.71777,0-13.99609-6.27881-13.99609-13.99609s6.27832-13.9961,13.99609-13.9961
			s13.99609,6.27881,13.99609,13.9961S72.86552,78.89263,65.14774,78.89263z M65.14774,53.90044
			c-6.06348,0-10.99609,4.93262-10.99609,10.9961s4.93262,10.99609,10.99609,10.99609s10.99609-4.93262,10.99609-10.99609
			S71.21122,53.90044,65.14774,53.90044z"/>
	</g>
	<g>
		<path fill="#E73C4D" d="M79.80399,85.90386c-1.01563,0-2.02539-0.42627-2.73633-1.25586l-6.75684-7.91455
			c-0.53809-0.63037-0.46289-1.57715,0.16699-2.11475c0.63086-0.53857,1.57715-0.4624,2.11426,0.1665l6.75488,7.9126
			c0.21289,0.24854,0.59277,0.27881,0.84473,0.06348c0.16406-0.14063,0.2002-0.31738,0.20801-0.40967
			c0.00684-0.09277-0.00195-0.27246-0.14258-0.43652l-6.70313-7.85107c-0.53809-0.63037-0.46289-1.57715,0.16699-2.11475
			c0.63086-0.53809,1.57715-0.46143,2.11426,0.1665l6.70117,7.84912c0.62402,0.72852,0.92773,1.65869,0.85449,2.61768
			c-0.07422,0.9585-0.51758,1.83105-1.24707,2.45703C81.4661,85.61968,80.63212,85.90386,79.80399,85.90386z"/>
	</g>
</g>
<g id="grille_page_entiere" display="none">
</g>
<g id="grille">
</g>
</svg>
