<?xml version="1.0" encoding="utf-8"?>
<!-- Generator: Adobe Illustrator 26.0.1, SVG Export Plug-In . SVG Version: 6.00 Build 0)  -->
<svg version="1.1" id="Calque_1" xmlns="http://www.w3.org/2000/svg" xmlns:xlink="http://www.w3.org/1999/xlink" x="0px" y="0px"
	 viewBox="0 0 87.4 87.4" style="enable-background:new 0 0 87.4 87.4;" xml:space="preserve">
<style type="text/css">
	.st0{fill:#F03436;}
	.st1{fill:#FFFFFF;}
	.st2{display:none;}
</style>
<g id="Calque_1_00000160175991545318949780000003383425121033966005_">
	<g id="eye-icon_1_">
		<path class="st0" d="M41.3,74.6c-14.5,0-24-13.8-24.4-14.3c-0.4-0.5-0.3-1.2,0-1.7c0.4-0.5,9.2-12.7,24.4-12.7
			c15.5,0,24,12.2,24.4,12.7c0.3,0.5,0.4,1.1,0.1,1.6C65.4,60.7,56.9,74.6,41.3,74.6z M20,59.4c2.3,2.9,10.4,12.2,21.3,12.2
			c11.8,0,19.3-9.3,21.3-12.1c-2.1-2.6-9.6-10.6-21.3-10.6C29.9,48.8,22.2,56.8,20,59.4z M41.5,70.7C35.7,70.7,31,66,31,60.2
			c0-5.8,4.7-10.5,10.5-10.5S52,54.4,52,60.2C52,66,47.3,70.7,41.5,70.7z M41.5,52.7c-4.1,0-7.5,3.4-7.5,7.5s3.4,7.5,7.5,7.5
			s7.5-3.4,7.5-7.5S45.6,52.7,41.5,52.7z M41.5,65.5c-2.9,0-5.3-2.4-5.3-5.3s2.4-5.3,5.3-5.3s5.3,2.4,5.3,5.3S44.4,65.5,41.5,65.5z
			 M41.5,57.9c-1.3,0-2.3,1-2.3,2.3s1,2.3,2.3,2.3s2.3-1,2.3-2.3S42.7,57.9,41.5,57.9z"/>
	</g>
	<g>
		<g>
			<path class="st0" d="M59,82.4H6.5c-0.8,0-1.5-0.7-1.5-1.5V33.2c0-0.8,0.7-1.5,1.5-1.5h71.4c0.8,0,1.5,0.7,1.5,1.5v20.1
				c0,0.8-0.7,1.5-1.5,1.5s-1.5-0.7-1.5-1.5V34.7H8v44.7h51c0.8,0,1.5,0.7,1.5,1.5S59.9,82.4,59,82.4z"/>
		</g>
		<g>
			<path class="st0" d="M77.8,41.7H6.7c-0.8,0-1.5-0.7-1.5-1.5s0.7-1.5,1.5-1.5h71.2c0.8,0,1.5,0.7,1.5,1.5S78.6,41.7,77.8,41.7z"/>
		</g>
		<g>
			<circle class="st0" cx="10.4" cy="36.8" r="0.8"/>
		</g>
		<g>
			<circle class="st0" cx="13.9" cy="36.8" r="0.8"/>
		</g>
		<g>
			<circle class="st0" cx="17.4" cy="36.8" r="0.8"/>
		</g>
	</g>
	<g>
		<circle class="st1" cx="65.1" cy="64.9" r="12.5"/>
		<path class="st0" d="M65.1,78.9c-7.7,0-14-6.3-14-14s6.3-14,14-14s14,6.3,14,14S72.9,78.9,65.1,78.9z M65.1,53.9
			c-6.1,0-11,4.9-11,11s4.9,11,11,11s11-4.9,11-11S71.2,53.9,65.1,53.9z"/>
	</g>
	<g>
		<path class="st0" d="M79.8,85.9c-1,0-2-0.4-2.7-1.3l-6.8-7.9c-0.5-0.6-0.5-1.6,0.2-2.1c0.6-0.5,1.6-0.5,2.1,0.2l6.8,7.9
			c0.2,0.2,0.6,0.3,0.8,0.1c0.2-0.1,0.2-0.3,0.2-0.4c0-0.1,0-0.3-0.1-0.4l-6.7-7.9c-0.5-0.6-0.5-1.6,0.2-2.1
			c0.6-0.5,1.6-0.5,2.1,0.2l6.7,7.8c0.6,0.7,0.9,1.7,0.9,2.6c-0.1,1-0.5,1.8-1.2,2.5C81.5,85.6,80.6,85.9,79.8,85.9z"/>
	</g>
</g>
<g id="grille_page_entiere" class="st2">
</g>
<g id="grille">
</g>
</svg>
