<?xml version="1.0" encoding="utf-8"?>
<!-- Generator: Adobe Illustrator 26.0.1, SVG Export Plug-In . SVG Version: 6.00 Build 0)  -->
<svg version="1.1" id="Calque_1" xmlns="http://www.w3.org/2000/svg" xmlns:xlink="http://www.w3.org/1999/xlink" x="0px" y="0px"
	 viewBox="0 0 181.3 181" style="enable-background:new 0 0 181.3 181;" xml:space="preserve">
<style type="text/css">
	.st0{fill:#F03436;}
	.st1{display:none;}
</style>
<g id="Calque_1_00000073682568596197845470000014211197225184983984_">
	<g>
		<path class="st0" d="M90.7,180c-49.3,0-89.4-40.1-89.4-89.4S41.3,1.1,90.7,1.1s89.4,40.1,89.4,89.4S140,180,90.7,180z M90.7,4.1
			C43,4.1,4.2,42.9,4.2,90.5S43,177,90.7,177s86.4-38.8,86.4-86.4S138.3,4.1,90.7,4.1z"/>
	</g>
	<g>
		<g id="raisons">
			<g>
				<g>
					<g>
						<path class="st0" d="M95,66.6c-7,0-12.7-5.7-12.7-12.7c0-7,5.7-12.7,12.7-12.7c7.4,0,12.7,5.3,12.7,12.7
							C107.7,60.9,102,66.6,95,66.6z M95,44.2c-5.4,0-9.7,4.4-9.7,9.7c0,5.4,4.4,9.7,9.7,9.7c5.4,0,9.7-4.4,9.7-9.7
							C104.7,48.3,100.6,44.2,95,44.2z"/>
					</g>
				</g>
				<g>
					<g>
						<path class="st0" d="M122,96.9H68l0-1.5c0.2-16,11.1-26.7,27-26.7c15.9,0,26.7,10.7,27,26.7L122,96.9z M71.1,93.9h47.8
							C118,80.6,108.6,71.7,95,71.7C81.4,71.7,71.9,80.6,71.1,93.9z"/>
					</g>
				</g>
			</g>
		</g>
		<g>
			<path class="st0" d="M95.2,134.3h-65l0.6-2c0.2-0.7,5.5-16.6,21.6-27l0.1,0c0.5-0.3,12.1-7.1,26.2-7.1c0,0,0.1,0,0.1,0
				c7,0,8.6,0,8.6,0l12.6,0.2c0.2,0,2,0.1,3.4,1.7c1.2,1.3,1.6,3.3,1.3,5.7c-0.2,2-1.3,3.3-2.7,4.3c1.2-0.2,2.3-0.5,3.4-0.8
				c5.8-1.8,24.2-7.4,25.7-7.9c1.1-0.5,9.7-4.3,13.9,0.7c1.4,1.6,2,3.4,1.8,5.2c-0.3,2.8-2.5,4.6-2.7,4.8l-0.2,0.2l-42.1,21.1
				C100.8,133.9,98.6,134.3,95.2,134.3z M34.5,131.3h60.7c3.4,0,4.5-0.4,4.8-0.5l0.1-0.1l42.3-21.2c0.3-0.3,1.4-1.3,1.5-2.7
				c0.1-0.9-0.3-1.9-1.1-2.9c-2.8-3.4-10.3,0.1-10.4,0.2l-0.2,0.1c-0.2,0.1-19.8,6.1-25.9,8c-6.3,1.9-13.8,1.7-14.2,1.7h0
				c-0.1,0-11,0-12.8,0l-0.5,0l-0.4-0.3c-1-0.7-1.2-1.5-1.1-2.1c0-1.2,1-2,1.2-2.1l0.4-0.3l13.4,0c0.1,0,9,0.5,9.5-3.6
				c0.2-1.6,0-2.7-0.6-3.4c-0.5-0.6-1.2-0.6-1.2-0.6l-12.6-0.2c0,0-1.6,0-8.6,0c0,0-0.1,0-0.1,0c-13,0-24.1,6.3-24.7,6.7
				C42.1,115.6,36.4,126.8,34.5,131.3z M100.1,130.7L100.1,130.7L100.1,130.7z"/>
		</g>
	</g>
</g>
<g id="grille_page_entiere" class="st1">
</g>
</svg>
