<?xml version="1.0" encoding="utf-8"?>
<!-- Generator: Adobe Illustrator 22.0.1, SVG Export Plug-In . SVG Version: 6.00 Build 0)  -->
<svg version="1.1" xmlns="http://www.w3.org/2000/svg" xmlns:xlink="http://www.w3.org/1999/xlink" x="0px" y="0px"
	 viewBox="0 0 181.32367 181.04546" enable-background="new 0 0 181.32367 181.04546" xml:space="preserve">
<g id="Calque_1">
	<g>
		<path fill="#E73C4D" d="M90.66195,179.95903c-49.31543,0-89.43652-40.12109-89.43652-89.43653S41.34652,1.08598,90.66195,1.08598
			s89.43652,40.12109,89.43652,89.43652S139.97737,179.95903,90.66195,179.95903z M90.66195,4.08598
			c-47.66114,0-86.43652,38.77539-86.43652,86.43652s38.77539,86.43653,86.43652,86.43653s86.43652-38.77539,86.43652-86.43653
			S138.32307,4.08598,90.66195,4.08598z"/>
	</g>
	<g>
		<g id="raisons">
			<g>
				<g>
					<g>
						<path fill="#E73C4D" d="M94.97836,66.59769c-7.00977,0-12.7124-5.70215-12.7124-12.71191
							c0-7.00781,5.70264-12.70996,12.7124-12.70996c7.36572,0,12.71191,5.3457,12.71191,12.70996
							C107.69027,60.89555,101.98763,66.59769,94.97836,66.59769z M94.97836,44.17582c-5.35547,0-9.7124,4.35547-9.7124,9.70996
							c0,5.35547,4.35693,9.71191,9.7124,9.71191c5.35498,0,9.71191-4.35645,9.71191-9.71191
							C104.69027,48.2598,100.6058,44.17582,94.97836,44.17582z"/>
					</g>
				</g>
				<g>
					<g>
						<path fill="#E73C4D" d="M121.97347,96.93363H67.9808l0.02197-1.52148c0.23145-15.9707,11.07178-26.70117,26.97559-26.70117
							c15.90234,0,26.7417,10.73047,26.97314,26.70117L121.97347,96.93363z M71.06185,93.93363h47.83057
							c-0.84863-13.3584-10.29102-22.22266-23.91406-22.22266C81.35384,71.71098,71.91048,80.57523,71.06185,93.93363z"/>
					</g>
				</g>
			</g>
		</g>
		<g>
			<path fill="#E73C4D" d="M95.1766,134.30962H30.21273l0.62793-1.95801c0.21533-0.6709,5.45703-16.55958,21.58301-27.03712
				l0.05225-0.03223c0.48877-0.29004,12.10938-7.08594,26.23926-7.08594c0.03711,0,0.07422,0,0.11133,0
				c7.0459-0.03809,8.58789-0.00195,8.6499,0l12.58252,0.16016c0.21436,0.00391,2.0415,0.08594,3.4126,1.66992
				c1.16016,1.34082,1.5918,3.27344,1.28271,5.74316c-0.24561,1.96484-1.32031,3.32031-2.74805,4.25488
				c1.15674-0.20898,2.32031-0.47363,3.43018-0.80664c5.83984-1.75293,24.19628-7.43945,25.73974-7.91797
				c1.12598-0.52539,9.72314-4.30762,13.91162,0.66602c1.37793,1.63574,1.98145,3.37012,1.79346,5.15527
				c-0.29785,2.8291-2.48145,4.60254-2.72949,4.79492l-0.24805,0.15723l-42.07323,21.11622
				C100.81576,133.93266,98.58236,134.30962,95.1766,134.30962z M34.46029,131.30962H95.1766
				c3.35254,0,4.54004-0.39746,4.83496-0.52539l0.05859-0.06836l42.32812-21.24415c0.31396-0.28223,1.36719-1.32227,1.50146-2.68457
				c0.09229-0.93555-0.28027-1.90723-1.10693-2.88965c-2.84326-3.375-10.34082,0.11719-10.41602,0.15332l-0.21094,0.08301
				c-0.19678,0.06152-19.7871,6.13281-25.86669,7.95703c-6.2998,1.8916-13.83008,1.72754-14.15137,1.71973H92.1473
				c-0.12646,0-11.00586-0.03125-12.7832,0l-0.51416,0.00879l-0.41113-0.30859c-0.95752-0.71777-1.15039-1.53711-1.14355-2.09863
				c0.01514-1.22363,0.97998-1.97168,1.17285-2.10938l0.39063-0.27832l13.42725,0.00293
				c0.09033,0.00977,8.97754,0.47949,9.4917-3.63086c0.1958-1.56738-0.00293-2.74609-0.57471-3.40723
				c-0.49658-0.57422-1.18652-0.63281-1.19287-0.63281l-12.58984-0.16016c-0.03223-0.00195-1.61475-0.03711-8.58984,0
				c-0.03369,0-0.06836,0-0.10156,0c-13.0415,0-24.12012,6.31641-24.69971,6.65234
				C42.07454,115.62797,36.36849,126.82914,34.46029,131.30962z M100.09066,130.74516L100.09066,130.74516L100.09066,130.74516z"/>
		</g>
	</g>
</g>
<g id="grille_page_entiere" display="none">
</g>
</svg>
