<?xml version="1.0" encoding="utf-8"?>
<!-- Generator: Adobe Illustrator 26.0.1, SVG Export Plug-In . SVG Version: 6.00 Build 0)  -->
<svg version="1.1" id="Calque_1" xmlns="http://www.w3.org/2000/svg" xmlns:xlink="http://www.w3.org/1999/xlink" x="0px" y="0px"
	 viewBox="0 0 181.3 181" style="enable-background:new 0 0 181.3 181;" xml:space="preserve">
<style type="text/css">
	.st0{fill:#F03436;}
	.st1{display:none;}
</style>
<g id="Calque_1_00000152950497225756324400000001134602272713765559_">
	<g>
		<path class="st0" d="M91,180c-49.3,0-89.4-40.1-89.4-89.4C1.6,41.2,41.7,1.1,91,1.1s89.4,40.1,89.4,89.4
			C180.4,139.8,140.3,180,91,180z M91,4.1C43.3,4.1,4.6,42.9,4.6,90.5C4.6,138.2,43.3,177,91,177s86.4-38.8,86.4-86.4
			C177.4,42.9,138.7,4.1,91,4.1z"/>
	</g>
	<g>
		<g>
			<path class="st0" d="M91.2,95.8c-0.4,0-0.7-0.1-1-0.4l-9.9-9.2c-0.6-0.6-0.6-1.5-0.1-2.1c0.6-0.6,1.5-0.6,2.1-0.1l8.9,8.2
				l14.5-14c0.6-0.6,1.5-0.6,2.1,0s0.6,1.5,0,2.1l-15.5,15C92,95.7,91.6,95.8,91.2,95.8z"/>
		</g>
	</g>
	<g>
		<path class="st0" d="M91.3,141.8c-0.1,0-0.2,0-0.4,0l-0.3-0.1c-0.7-0.2-17.8-4.5-32.6-28.2c-10.6-17-9.5-39.6-8.6-48.6
			c0.3-3.1,2.4-5.7,5.3-6.7c3.1-1,9.2-3.3,15.9-6.6c8.8-4.4,14.5-8.8,17.1-11c2-1.7,4.9-1.7,6.9,0c2.6,2.2,8.3,6.6,17.1,11
			c6.7,3.3,12.8,5.6,15.9,6.6c2.9,1,5,3.6,5.3,6.7c0,0,0,0,0,0c1,8.9,2.1,31.6-8.6,48.6c-14.8,23.7-31.9,28.1-32.6,28.2l-0.3,0.1
			C91.6,141.8,91.4,141.8,91.3,141.8z M91.3,42.3c-0.5,0-1.1,0.2-1.5,0.6c-2.7,2.3-8.6,6.8-17.7,11.4C65.3,57.7,59,59.9,55.8,61
			c-1.8,0.6-3.1,2.2-3.3,4.1c-0.9,8.6-2,30.4,8.1,46.7c13.9,22.3,29.5,26.6,30.7,26.9c1.2-0.3,16.8-4.6,30.7-26.9
			c10.1-16.2,9.1-38,8.1-46.7c-0.2-1.9-1.5-3.5-3.3-4.1c-3.2-1.1-9.5-3.3-16.3-6.8c-9.1-4.5-15-9.1-17.7-11.4
			C92.4,42.5,91.9,42.3,91.3,42.3z"/>
	</g>
	<g>
		<path class="st0" d="M91.3,132.3c-0.2,0-0.4,0-0.6-0.1c-4.2-1.7-15-7.5-25-23.5c-8.8-14-8.1-33.5-7.4-41.2c0.1-0.6,0.4-1.1,1-1.3
			c3.7-1.3,9.4-3.5,15.5-6.6C82,56,87.2,52.4,90.4,50c0.5-0.4,1.3-0.4,1.8,0c3.2,2.4,8.5,6,15.6,9.6c6.2,3.1,11.8,5.3,15.5,6.6
			c0.6,0.2,0.9,0.7,1,1.3c0.7,7.7,1.3,27.2-7.4,41.2l0,0c-10,16-20.8,21.8-25,23.5C91.7,132.2,91.5,132.3,91.3,132.3z M61.2,68.7
			c-0.6,8-0.9,25.7,7.1,38.4c9.1,14.6,18.8,20.2,23.1,22.1c4.3-1.9,13.9-7.5,23.1-22.1c7.9-12.7,7.7-30.4,7.1-38.4
			c-3.8-1.3-9.1-3.5-14.9-6.4c-6.7-3.4-11.8-6.7-15.2-9.2c-3.3,2.4-8.5,5.8-15.2,9.2C70.4,65.2,65,67.3,61.2,68.7z M115.7,107.8
			L115.7,107.8L115.7,107.8z"/>
	</g>
	<g>
		<path class="st0" d="M96.1,118.6c-0.3,0-0.6-0.1-0.8-0.4c-0.3-0.4-0.2-1.1,0.2-1.4c5-3.6,9.5-8.7,13.4-15
			c2.1-3.4,3.7-7.5,4.7-12.2c0.1-0.5,0.6-0.9,1.2-0.8c0.5,0.1,0.9,0.6,0.8,1.2c-1.1,5-2.7,9.3-5,12.9c-4.1,6.6-8.8,11.8-13.9,15.6
			C96.5,118.5,96.3,118.6,96.1,118.6z"/>
	</g>
	<g>
		<path class="st0" d="M115.4,84.1c-0.1,0-0.1,0-0.2,0c-0.5-0.1-0.9-0.6-0.8-1.1c0.5-3,0.5-4.2,0.6-7.5c0-0.5,0.5-1,1-1c0,0,0,0,0,0
			c0.6,0,1,0.5,1,1c0,3.4-0.1,4.7-0.6,7.7C116.3,83.7,115.9,84.1,115.4,84.1z"/>
	</g>
</g>
<g id="grille_page_entiere" class="st1">
</g>
</svg>
