<?xml version="1.0" encoding="utf-8"?>
<!-- Generator: Adobe Illustrator 22.0.1, SVG Export Plug-In . SVG Version: 6.00 Build 0)  -->
<svg version="1.1" xmlns="http://www.w3.org/2000/svg" xmlns:xlink="http://www.w3.org/1999/xlink" x="0px" y="0px"
	 viewBox="0 0 181.32367 181.04546" enable-background="new 0 0 181.32367 181.04546" xml:space="preserve">
<g id="Calque_1">
	<g>
		<path fill="#E73C4D" d="M90.99591,179.95975c-49.31543,0-89.43652-40.12109-89.43652-89.43653
			c0-49.3164,40.12109-89.4375,89.43652-89.4375s89.43652,40.12109,89.43652,89.4375
			C180.43243,139.83865,140.31134,179.95975,90.99591,179.95975z M90.99591,4.08572c-47.66114,0-86.43652,38.77539-86.43652,86.4375
			c0,47.66114,38.77539,86.43653,86.43652,86.43653s86.43652-38.77539,86.43652-86.43653
			C177.43243,42.86111,138.65704,4.08572,90.99591,4.08572z"/>
	</g>
	<g>
		<g>
			<path fill="#E73C4D" d="M91.20782,95.79177c-0.36572,0-0.73096-0.13281-1.01904-0.39941l-9.93506-9.19824
				c-0.60791-0.5625-0.64453-1.51172-0.08154-2.12012c0.5625-0.60547,1.51221-0.64453,2.11963-0.08105l8.89258,8.2334
				l14.47119-14.01855c0.59375-0.57715,1.54395-0.5625,2.12061,0.0332s0.56152,1.54492-0.03369,2.12109L92.25128,95.36892
				C91.96124,95.65017,91.58429,95.79177,91.20782,95.79177z"/>
		</g>
	</g>
	<g>
		<path fill="#E73C4D" d="M91.32941,141.77127c-0.11963,0-0.23926-0.01465-0.35596-0.04297l-0.30371-0.07422
			c-0.71533-0.17285-17.75684-4.5332-32.5752-28.24415c-10.64551-17.03125-9.54102-39.64941-8.57178-48.58398
			c0.33496-3.06738,2.43115-5.68164,5.34131-6.66113c3.07861-1.03516,9.24073-3.27051,15.92334-6.61133
			c8.80957-4.4043,14.47949-8.77832,17.07471-10.99414c2.00781-1.71484,4.92432-1.7168,6.93506,0
			c2.59424,2.21484,8.26172,6.58789,17.0752,10.99512c6.6792,3.34082,12.84326,5.57617,15.92334,6.61133
			c2.91016,0.97949,5.00684,3.59375,5.3418,6.66113c0,0.00098,0,0.00098,0,0.00098
			c0.96875,8.93457,2.07324,31.55273-8.57178,48.58301c-14.81982,23.70997-31.86133,28.07032-32.57959,28.24415l-0.30078,0.07324
			C91.56866,141.75662,91.44904,141.77127,91.32941,141.77127z M91.32941,42.27713c-0.53955,0-1.0791,0.1875-1.51904,0.56348
			c-2.69971,2.30469-8.58691,6.84961-17.68115,11.39648c-6.8457,3.42188-13.15625,5.71094-16.3086,6.77148
			c-1.80566,0.60742-3.10693,2.2334-3.31543,4.14257c-0.93555,8.62207-2.01514,30.43262,8.1333,46.66895
			c13.92725,22.28516,29.51075,26.60743,30.69092,26.90723c1.20361-0.30664,16.77441-4.63867,30.69238-26.90626
			c10.14795-16.23535,9.06836-38.0459,8.1333-46.66895c-0.20898-1.90918-1.51025-3.53515-3.31592-4.14257
			c-3.15332-1.05957-9.46631-3.34961-16.30859-6.77148c-9.09863-4.5498-14.9834-9.09375-17.68115-11.39746
			C92.409,42.46463,91.86896,42.27713,91.32941,42.27713z"/>
	</g>
	<g>
		<path fill="#E73C4D" d="M91.32941,132.28397c-0.19531,0-0.39111-0.03809-0.5752-0.11426
			c-4.18896-1.73926-15.01318-7.51368-25.0249-23.53126c-8.76368-14.02344-8.10645-33.48242-7.417-41.19824
			c0.05225-0.58496,0.44189-1.08594,0.99658-1.28125c3.68994-1.29688,9.375-3.48632,15.50635-6.55175
			c7.14551-3.57324,12.43359-7.17969,15.61084-9.5752c0.53516-0.4043,1.27197-0.40332,1.80615-0.00098
			c3.18018,2.39746,8.47021,6.00391,15.61279,9.57715c6.15332,3.07715,11.82764,5.26074,15.50391,6.55078
			c0.55518,0.19434,0.94531,0.69531,0.99756,1.28125c0.68945,7.71582,1.34668,27.1748-7.41699,41.19824l0,0
			c-10.01172,16.01758-20.83594,21.792-25.0249,23.53126C91.72052,132.24588,91.52472,132.28397,91.32941,132.28397z
			 M61.22052,68.66286c-0.62012,7.96289-0.89355,25.66992,7.05274,38.38574c9.11768,14.58691,18.7832,20.20508,23.05615,22.10255
			c4.27295-1.89747,13.93848-7.51563,23.05615-22.10255c7.94629-12.71582,7.67285-30.42188,7.05273-38.38477
			c-3.75-1.34766-9.13281-3.47168-14.93506-6.37207c-6.70752-3.35547-11.83594-6.74707-15.17383-9.19336
			c-3.33545,2.44531-8.4624,5.83594-15.17236,9.19238C70.37433,65.18142,64.98224,67.30935,61.22052,68.66286z M115.65753,107.84353
			h0.00977H115.65753z"/>
	</g>
	<g>
		<path fill="#E73C4D" d="M96.09503,118.61013c-0.30762,0-0.61084-0.1416-0.80664-0.4082
			c-0.32715-0.44434-0.23145-1.07031,0.21338-1.39746c4.95264-3.63965,9.47168-8.69727,13.43115-15.03418
			c2.11572-3.38281,3.70068-7.50195,4.71045-12.24121c0.11523-0.54004,0.64697-0.88281,1.18652-0.77051
			c0.54004,0.11523,0.88477,0.64648,0.76953,1.18652c-1.05859,4.96875-2.73096,9.30371-4.9707,12.88574
			c-4.09375,6.55176-8.78516,11.7959-13.94238,15.58496C96.50763,118.54665,96.3006,118.61013,96.09503,118.61013z"/>
	</g>
	<g>
		<path fill="#E73C4D" d="M115.36749,84.08962c-0.05029,0-0.10107-0.00391-0.15186-0.01172
			c-0.5459-0.08301-0.92139-0.59277-0.83838-1.13867c0.45117-2.96484,0.54395-4.15137,0.58301-7.47168
			c0.00635-0.54785,0.45313-0.98828,0.99951-0.98828c0.00439,0,0.0083,0,0.01221,0c0.55225,0.00684,0.99463,0.45996,0.98828,1.01172
			c-0.04004,3.39941-0.14209,4.70313-0.60547,7.74902C116.27911,83.73513,115.85333,84.08962,115.36749,84.08962z"/>
	</g>
</g>
<g id="grille_page_entiere" display="none">
</g>
</svg>
