<svg xmlns="http://www.w3.org/2000/svg" xmlns:xlink="http://www.w3.org/1999/xlink" style="enable-background:new 0 0 181.3 181" id="Calque_1" x="0" y="0" version="1.1" viewBox="0 0 181.3 181" xml:space="preserve"><style type="text/css">.st0{fill:#f03436}.st1{fill:#fff}</style><g id="Calque_1_00000122702989735356589830000004902237426819156402_"><g><path d="M90.6,180.2c-49.3,0-89.4-40.1-89.4-89.4c0-49.3,40.1-89.4,89.4-89.4S180,41.5,180,90.8 C180,140.1,139.9,180.2,90.6,180.2z M90.6,4.3C42.9,4.3,4.1,43.1,4.1,90.8c0,47.7,38.8,86.4,86.4,86.4S177,138.4,177,90.8 C177,43.1,138.2,4.3,90.6,4.3z" class="st0"/></g><g><g><path d="M109.6,95l-0.8-2.9c5.8-1.6,10.2-5.5,14.5-9.3l0.8-0.7c3.3-2.9,6.6-4.8,9.6-6.1h-29.6v-3h40.2v3.3l-1.3,0.1 c-2.1,0.2-9.3,1.4-16.8,7.9l-0.8,0.7C121,88.9,116.1,93.2,109.6,95z" class="st0"/></g><g><path d="M112.5,156.4H69.8v-3c2.1,0,4.5-0.8,7.6-2.6c4.4-2.4,7.9-3.4,9.9-3.8l-2-49.2c-2.5-0.5-18-3.7-30-13.7 c-7.6-6.3-13.3-7.7-16.7-7.8l-1.5,0V73h52.5v3H48.3c2.9,1.4,6,3.4,9,5.9C69.7,92.3,86,95,86.2,95l2.1,0.3l2.2,54.3l-1.8,0.2 c-1.6,0.2-5.1,1-9.7,3.5h23.8c-4.5-2.5-7.9-3.2-9.6-3.5l-2-0.3l0.4-6.6c0.2-3.1,0.5-8.5,0.8-14.5c0.7-12.2,1.5-27.4,1.9-31.9 l0.2-2.2l2.2-0.1c0.2,0,0.9-0.1,1.2-0.1l0.6,2.9c-0.1,0-0.7,0.1-1.2,0.2c-0.4,4.9-1.2,19.5-1.9,31.4c-0.3,6-0.6,11.4-0.8,14.5 l-0.2,3.9c2.3,0.4,5.8,1.4,10,3.8c4.1,2.3,7,2.6,8.1,2.6C112.5,153.4,112.5,156.4,112.5,156.4z" class="st0"/></g><g><path d="M95.5,107.4l-0.7-2.9c0,0,4.6-1.1,8.9-5.4c1.3-1.3,2.4-2.8,3.3-4.5l0.1-0.1c0,0,2.1-3.3,1.3-8 c-0.4-2.8-1.5-5.5-3.4-8.1c-0.9-1.3-1.9-2.4-3-3.7l-1.3-1.6c-1.1-1.3-2.2-2.7-3.4-3.9l-1.5-1.5c-2.4-2.5-5-5.2-7.3-7.9 c-1.8-2.2-3.7-4.6-4.9-7.5c-1.3-3.2-2.4-7-1.5-11.3c0.7-3.3,1.8-5.7,3.6-7.7c2.2-2.4,5-3.2,8.1-2.5c2.2,0.5,3.7,2.1,4.6,3.3 c2.1,2.7,2.4,5.7,2.4,8.1c0,0.8-0.1,1.7-0.2,2.4c0,0.3-0.1,0.6-0.1,0.9l0,0.1c-0.4,1.9-0.6,2.2-0.7,2.4c-0.4,0.7-1.1,1-1.4,1.1 c-1,0.4-1.2,0.9-1.3,1.6c-0.3,2.2-0.1,4.4,0.5,6.7c0.2,1,0.6,2,1.1,3c0.4-0.3,0.8-0.7,1.2-1.1c2.1-2.2,3.2-5.1,4.2-7.9 c0,0,0-0.1-0.1-0.1l-0.1-0.3c-0.3-0.6-0.6-1.2-0.6-2c-0.2-1.4-0.2-2.9-0.2-4.3c0-0.5,0-1.1,0-1.6c0.1-1.8,0.1-3.4-0.1-5.1 c-0.6-4.2-2.6-7-6-8.6c-0.3-0.1-0.6-0.2-0.8-0.3c-0.3-0.1-0.6-0.2-0.9-0.3c-4.9-1.7-9.3,1.5-9.4,1.5l-0.1,0.1 c-0.7,0.4-1.3,1-2,1.7l-0.4,0.4c-1.8,1.7-3.1,3.8-4,6.2c-0.9,2.3-1.6,5-2,8.1c-0.3,1.8-0.3,3.5,0,5.2c0.7,3.9,2.2,7.7,4.6,11.1 l-2.5,1.7c-2.7-3.8-4.4-7.9-5.1-12.3c-0.3-2-0.3-4,0-6.1c0.5-3.3,1.2-6.1,2.2-8.7c1.1-2.8,2.7-5.2,4.7-7.3l0.4-0.4 c0.7-0.7,1.5-1.5,2.5-2.1c0.6-0.4,6-4,12-1.9c0.3,0.1,0.7,0.2,1.1,0.4c0.3,0.1,0.7,0.3,1,0.4c4.4,2,7,5.7,7.8,10.9 c0.3,1.9,0.2,3.8,0.1,5.6c0,0.5,0,1,0,1.5c0,1.3,0,2.6,0.2,3.9c0,0.3,0.2,0.7,0.4,1.1l0.2,0.4c0.4,0.8,0.4,1.6,0.1,2.3 c-1.1,3-2.3,6.3-4.9,9c-1,1.1-2,1.9-3.1,2.6l-1.3,0.8l-0.8-1.3c-1.1-1.9-1.9-3.6-2.3-5.3c-0.7-2.7-0.9-5.3-0.6-7.8 c0.2-1.9,1.3-3.2,3.1-4c0,0,0,0,0,0c0.1-0.3,0.2-0.8,0.3-1.3c0-0.3,0.1-0.6,0.1-0.9c0.1-0.7,0.2-1.3,0.2-1.9 c0-2.9-0.5-4.8-1.7-6.3c-1-1.3-1.9-2-3-2.2c-2.1-0.5-3.7,0-5.1,1.6c-1.4,1.6-2.3,3.5-2.9,6.3c-0.7,3.5,0.3,6.8,1.4,9.5 c1,2.5,2.7,4.7,4.4,6.7c2.3,2.7,4.8,5.3,7.2,7.8l1.5,1.5c1.2,1.3,2.4,2.7,3.5,4l1.3,1.5c1.1,1.2,2.1,2.5,3.1,3.9 c2.1,3,3.4,6.1,3.9,9.4c0.9,5.5-1.3,9.4-1.7,10.1c-1,1.9-2.3,3.6-3.8,5.1C100.9,106.2,95.7,107.4,95.5,107.4z" class="st0"/></g><g><path d="M96.3,98.5l-1-2.8c2-0.7,3.3-2.3,3.5-3.5c0.4-2,0.1-3.9-0.7-5.4c-0.5-0.9-1.1-1.9-1.7-2.7 c-1.1-1.6-2.5-3.1-4-4.6l-1.8-1.9c-0.9-1-1.9-1.9-2.8-2.9c-2.6-2.7-5.8-6-8.4-9.7l2.5-1.7c2.3,3.2,4.9,6.1,8.1,9.4 c0.9,1,1.8,1.9,2.8,2.8l1.8,1.9c1.5,1.5,3.1,3.1,4.3,5c0.6,0.9,1.3,1.9,1.9,3c1.2,2.2,1.6,4.7,1,7.5 C101.3,95.2,99.1,97.5,96.3,98.5z" class="st0"/></g><g><path d="M107.3,116.3c-0.7-2.5-2.3-4.1-4.7-5.1c-2.1-0.8-5.4-1.1-7.6-1.1l-0.4,6.3c0.9-0.2,1.7-0.2,2.2,0 c0.8,0.3,1.3,1.1,1,1.8c-0.4,0.7-1,0.8-1.6,1c-1.7,0.4-3.5,0.5-5.2,0.4c-1.1-0.1-2.2-0.3-3.3-0.8c-6.5-2.2-5.4-6.5-5.4-6.5 c0.3-1.5,1.2-2.3,2.6-2.9c0.4-0.2,2.1-0.9,2.5-1L87,100c-3.2,0.8-5.9,1.8-8.2,3.7c-4.3,3.3-6,7.6-5.2,12.9 c0.4,2.6,1.6,4.8,3.3,6.8c0,0,2.7,2.8,8.3,4.5c2.2,0.8,3.5,0.9,5.9,1c1.8,0.1,3.5-0.1,5.3-0.5c3.4-0.7,6.5-2,8.9-4.6 C107.2,121.7,108,119.1,107.3,116.3z" class="st1"/><path d="M91.9,130.4c-0.3,0-0.6,0-1,0c-2.5-0.1-3.9-0.3-6.3-1.1c-5.9-1.8-8.7-4.7-8.9-4.9c-2.1-2.3-3.3-4.9-3.7-7.6 c-0.9-5.8,1.1-10.8,5.8-14.3c2.2-1.7,5-3,8.8-3.9l1.8-0.5l0.5,11.4l-1.1,0.3c-0.4,0.1-1.9,0.8-2.4,0.9c-1.3,0.6-1.6,1.1-1.7,1.8 c-0.1,0.4-0.5,3.1,4.5,4.8l0.1,0c0.9,0.4,1.8,0.6,2.8,0.7c0.7,0,1.3,0.1,2,0l0.5-9.5l1.4,0c2.4,0,5.9,0.3,8.2,1.2 c2.9,1.2,4.8,3.3,5.6,6.1c0.9,3.2,0,6.3-2.5,9c-2.4,2.5-5.6,4.2-9.7,5C94.8,130.2,93.3,130.4,91.9,130.4z M78,122.4 c0,0,2.5,2.5,7.6,4c2.1,0.7,3.2,0.8,5.5,0.9c1.4,0.1,2.9-0.1,4.9-0.4c3.5-0.7,6.1-2.1,8.1-4.1c1.8-1.9,2.3-3.8,1.7-6.1l0,0 c-0.5-1.9-1.8-3.3-3.8-4.1c-1.5-0.6-3.7-0.9-5.6-1l-0.2,3.2c0.4,0,0.8,0.1,1.1,0.2c0.9,0.3,1.6,1,1.9,1.8c0.3,0.7,0.3,1.4-0.1,2 c-0.7,1.3-1.9,1.6-2.6,1.8c-1.7,0.4-3.6,0.6-5.7,0.4c-1.3-0.1-2.6-0.4-3.7-0.9c-6.2-2.1-6.9-6.3-6.4-8.2c0.4-2.3,2.2-3.3,3.4-3.9 c0.3-0.1,1-0.4,1.6-0.7l-0.2-5.5c-2.5,0.8-4.3,1.7-5.9,2.9c-3.9,2.9-5.4,6.7-4.7,11.5C75.3,118.5,76.3,120.5,78,122.4L78,122.4z M95.6,117.8c-0.2,0-0.4,0-0.6,0.1l-0.4,0.1C94.9,117.9,95.2,117.9,95.6,117.8z" class="st0"/></g><g><path d="M99.6,139.6c-3.7-1.2-7.4-2.5-11.1-3.7c-1-0.4-2.1-0.7-2.9-1.3c-1.5-1-2.2-2.7-2.5-4.4 c-0.2-1-0.2-1.9,0.4-2.8c0,0-3.6-1.2-6.4-3.7c-0.5,1-0.9,2.4-1.1,3.4c-0.4,2.1-0.4,4.3,0.5,6.3c1.1,2.3,2.6,4.3,4.9,5.5 c2.3,1.2,4.7,2.2,7.3,2.7c2.6,0.5,5.2,1,7.8,1.3c3.7,0.5,7.1,1.6,10.4,3.4c0.5,0.3,0.9,0.6,1.3,1c0,0,0,0,0-0.1 c0-0.1,0-0.2,0-0.3c0-0.8-0.4-1.4-0.8-2C105.3,142.2,102.7,140.6,99.6,139.6" class="st1"/><path d="M107.6,148.9l-0.6-0.6c-0.1-0.1-0.2-0.2-0.3-0.2c-0.3-0.2-0.5-0.4-0.7-0.5c-3-1.6-6.3-2.7-9.9-3.2 c-2.7-0.4-5.3-0.8-7.9-1.4c-2.4-0.5-4.8-1.4-7.7-2.9c-2.4-1.2-4.2-3.3-5.6-6.2c-1-2.1-1.2-4.5-0.6-7.2c0.2-0.9,0.6-2.6,1.3-3.8 l0.9-1.7l1.4,1.3c2.6,2.3,5.9,3.4,5.9,3.4l1.9,0.6l-1.1,1.6c-0.3,0.4-0.3,0.8-0.2,1.7c0.3,1.7,0.9,2.8,1.9,3.5 c0.7,0.5,1.6,0.8,2.6,1.1c3.7,1.3,7.4,2.5,11.1,3.7l0,0c3.6,1.2,6.3,3,8.3,5.6c0.5,0.6,1,1.4,1.1,2.6l0.3,0.2l-0.3,0.8l-0.1,0.8 l-0.9,0.4L107.6,148.9z M77.7,126c-0.1,0.4-0.2,0.8-0.3,1.3c-0.4,2.1-0.3,3.8,0.4,5.4c1.1,2.3,2.4,3.9,4.2,4.8 c2.6,1.3,4.8,2.2,6.9,2.6c2.5,0.5,5.1,0.9,7.7,1.3c2.3,0.3,4.5,0.9,6.6,1.6c-1.2-0.8-2.5-1.4-4-1.9l0,0 c-3.8-1.2-7.4-2.5-11.1-3.8c-1.2-0.4-2.3-0.8-3.3-1.5c-1.7-1.1-2.7-2.9-3.2-5.4c-0.1-0.7-0.2-1.5-0.1-2.3 C80.5,127.7,79.1,127,77.7,126z" class="st0"/></g></g></g></svg>