<?xml version="1.0" encoding="utf-8"?>
<!-- Generator: Adobe Illustrator 22.0.1, SVG Export Plug-In . SVG Version: 6.00 Build 0)  -->
<svg version="1.1" xmlns="http://www.w3.org/2000/svg" xmlns:xlink="http://www.w3.org/1999/xlink" x="0px" y="0px"
	 viewBox="0 0 181.32367 181.04546" enable-background="new 0 0 181.32367 181.04546" xml:space="preserve">
<g id="Calque_1">
	<g>
		<path fill="#E73C4D" d="M90.57715,180.22296c-49.31543,0-89.43652-40.12109-89.43652-89.4375
			c0-49.31543,40.12109-89.43652,89.43652-89.43652s89.43652,40.12109,89.43652,89.43652
			C180.01367,140.10187,139.89258,180.22296,90.57715,180.22296z M90.57715,4.34894
			c-47.66113,0-86.43652,38.77539-86.43652,86.43652c0,47.66211,38.77539,86.4375,86.43652,86.4375
			s86.43652-38.77539,86.43652-86.4375C177.01367,43.12433,138.23828,4.34894,90.57715,4.34894z"/>
	</g>
	<g>
		<g>
			<path fill="#E73C4D" d="M109.63574,95.03448l-0.82129-2.88477c5.77832-1.64551,10.21387-5.52832,14.50293-9.28418l0.82373-0.7207
				c3.32666-2.90137,6.64502-4.83496,9.56006-6.12207h-29.61133v-3h40.16699v3.3418l-1.34717,0.1377
				c-2.05664,0.21094-9.3457,1.4043-16.79688,7.90332l-0.81885,0.7168C120.9668,88.91144,116.06201,93.20538,109.63574,95.03448z"/>
		</g>
		<g>
			<path fill="#E73C4D" d="M112.48633,156.44757H69.80518v-3c2.05273,0,4.54834-0.83984,7.62988-2.56738
				c4.36865-2.44629,7.85107-3.4082,9.92725-3.78516l-1.96045-49.1543c-2.47852-0.46289-17.98438-3.69043-29.9751-13.66309
				c-7.57129-6.2959-13.26709-7.73438-16.7124-7.83203l-1.45752-0.04102v-3.38184h52.53418v3h-41.4502
				c2.93164,1.4209,5.95654,3.41406,9.00391,5.94824c12.36475,10.2832,28.69092,13.03906,28.85449,13.06543l2.10156,0.31445
				l2.16748,54.3418l-1.8125,0.23438c-1.63623,0.21484-5.06299,0.95801-9.66504,3.52051h23.83008
				c-4.49756-2.50488-7.94727-3.24805-9.60889-3.46875l-1.99316-0.3125l0.37354-6.61914
				c0.18945-3.12012,0.48584-8.48535,0.81982-14.51758c0.67578-12.22949,1.51758-27.44824,1.90625-31.875l0.19727-2.2168
				l2.21582-0.08496c0.24121,0,0.94336-0.08496,1.21094-0.13574L98.5,97.16437c-0.12842,0.02441-0.70703,0.12012-1.22803,0.16504
				c-0.39844,4.85156-1.20947,19.51563-1.86475,31.36523c-0.33398,6.03906-0.63086,11.41016-0.82031,14.52832l-0.21973,3.89648
				c2.30176,0.39258,5.75488,1.37695,10.00928,3.76074c4.13525,2.31738,7.04883,2.56738,8.10986,2.56738V156.44757z"/>
		</g>
		<g>
			<path fill="#E73C4D" d="M95.52734,107.43097l-0.6709-2.9248c0.04541-0.00977,4.57178-1.1084,8.88916-5.38184
				c1.33643-1.33203,2.41602-2.79688,3.29736-4.47461l0.08447-0.14063c0.0166-0.02637,2.1084-3.27441,1.31348-8.00879
				c-0.40576-2.78027-1.54199-5.49414-3.38184-8.09863c-0.89551-1.26855-1.89502-2.44922-2.95313-3.7002l-1.31055-1.55957
				c-1.08887-1.30469-2.21484-2.6543-3.39063-3.88281l-1.46143-1.51953c-2.44971-2.54395-4.9834-5.1748-7.32422-7.9375
				c-1.83252-2.16113-3.69092-4.56641-4.86328-7.49902c-1.2666-3.16113-2.43848-6.97266-1.5249-11.26563
				c0.7124-3.3457,1.83203-5.7168,3.62988-7.6875c2.16895-2.38184,4.95508-3.24121,8.05908-2.4834
				c2.24609,0.54785,3.70313,2.14063,4.60352,3.29102c2.07227,2.65039,2.35498,5.73926,2.37012,8.13281
				c0.00586,0.84863-0.125,1.67676-0.24023,2.40723c-0.04785,0.30273-0.09521,0.60156-0.13135,0.89551l-0.02002,0.12305
				c-0.39209,1.88574-0.59717,2.19434-0.72021,2.37891c-0.43066,0.65137-1.08643,0.98926-1.43848,1.13281
				c-0.97754,0.40332-1.22461,0.89941-1.3042,1.56836c-0.25439,2.16113-0.09326,4.36523,0.49268,6.73438
				c0.24268,0.98145,0.60889,1.95508,1.14795,3.03613c0.39014-0.33008,0.78467-0.70508,1.19678-1.13477
				c2.14307-2.23242,3.21094-5.13184,4.23877-7.93945c-0.00977-0.00488-0.02393-0.05273-0.05615-0.12695l-0.14648-0.32324
				c-0.26318-0.57227-0.56152-1.2207-0.64551-1.98047c-0.16064-1.43848-0.229-2.87695-0.20215-4.27246
				c0.00977-0.53125,0.02734-1.0625,0.04541-1.59375c0.05908-1.75488,0.11523-3.41211-0.11621-5.05176
				c-0.59814-4.21387-2.57178-7.03223-6.0332-8.61426c-0.27637-0.12598-0.55908-0.24219-0.84375-0.34766
				c-0.31006-0.11621-0.62061-0.2168-0.93115-0.3125c-4.88232-1.66113-9.33643,1.48633-9.38086,1.51758l-0.08984,0.05957
				c-0.69385,0.42773-1.30518,1.03906-1.95215,1.68652l-0.44873,0.44629c-1.77344,1.73535-3.12988,3.81836-4.03174,6.19336
				c-0.88623,2.33691-1.55029,4.97656-2.03027,8.07129c-0.28857,1.84961-0.29541,3.54785-0.02197,5.19238
				c0.65723,3.9375,2.21094,7.67383,4.61816,11.10449l-2.45605,1.72265c-2.6665-3.7998-4.38916-7.94921-5.12109-12.33398
				c-0.32715-1.96582-0.32178-3.97559,0.0166-6.14648c0.51221-3.30176,1.22852-6.13965,2.18994-8.6748
				c1.05762-2.78516,2.65186-5.23145,4.7373-7.27246l0.42578-0.42285c0.73047-0.73145,1.48584-1.4873,2.45996-2.0957
				c0.60156-0.41797,5.95703-3.96094,12.00977-1.90137c0.32617,0.09961,0.69531,0.21973,1.05615,0.35547
				c0.34619,0.12891,0.69531,0.27246,1.03906,0.42871c4.40576,2.0127,7.01514,5.68848,7.7583,10.92383
				c0.26807,1.90039,0.20508,3.7666,0.14404,5.57227c-0.01709,0.5166-0.03467,1.0332-0.04443,1.54883
				c-0.02393,1.26758,0.03809,2.57422,0.18457,3.88477c0.03076,0.2793,0.21338,0.67578,0.38965,1.05957l0.16699,0.36914
				c0.36084,0.82031,0.4082,1.60352,0.14063,2.32813c-1.08447,2.96289-2.31543,6.3252-4.90479,9.02246
				c-1.04443,1.08887-2.02002,1.90039-3.06836,2.55175l-1.30908,0.8125l-0.77734-1.33007
				c-1.13379-1.93945-1.854-3.62109-2.2666-5.29297c-0.67432-2.72559-0.85693-5.2793-0.55957-7.80762
				c0.22363-1.87988,1.28223-3.22168,3.14551-3.99121c0.01465-0.00586,0.02881-0.0127,0.0415-0.01855
				c0.08496-0.29199,0.21289-0.83105,0.30518-1.26953c0.03906-0.30664,0.08789-0.61816,0.1377-0.93359
				c0.10693-0.67676,0.20801-1.31641,0.20361-1.91895c-0.01807-2.88867-0.53613-4.77441-1.73291-6.30469
				c-0.99316-1.26953-1.93115-1.97656-2.95166-2.22559c-2.05664-0.49805-3.68604,0.00488-5.13086,1.58984
				c-1.41943,1.55664-2.31738,3.49609-2.9126,6.29199c-0.74609,3.50586,0.27637,6.7832,1.37549,9.52637
				c1.01318,2.53516,2.69775,4.70508,4.3667,6.67383c2.2793,2.68945,4.7793,5.28516,7.19678,7.79589l1.4668,1.52539
				c1.24756,1.30273,2.40674,2.69238,3.52734,4.03613l1.29688,1.54395c1.05371,1.24414,2.14307,2.53125,3.11426,3.90723
				c2.11426,2.99316,3.4248,6.14355,3.89502,9.36426c0.93164,5.54688-1.34521,9.44824-1.7373,10.06836
				c-1.01904,1.92676-2.26514,3.61133-3.80762,5.14941C100.89746,106.16339,95.74463,107.38116,95.52734,107.43097z"/>
		</g>
		<g>
			<path fill="#E73C4D" d="M96.26514,98.47687l-0.95215-2.8457c2.01318-0.67383,3.30469-2.28223,3.54004-3.52148
				C99.24219,90.07062,99,88.23956,98.1333,86.66534c-0.51904-0.94238-1.13672-1.87695-1.72656-2.74609
				c-1.11621-1.64844-2.50977-3.06836-3.98486-4.57129l-1.84619-1.88184c-0.93457-0.9502-1.86865-1.89941-2.79102-2.86035
				c-2.58398-2.69531-5.79932-6.04785-8.3916-9.74219l2.45508-1.72265c2.27979,3.24707,4.90576,6.05468,8.10107,9.38769
				c0.91406,0.95215,1.83936,1.89258,2.76514,2.83398l1.84863,1.88379c1.50391,1.5332,3.05859,3.11719,4.32666,4.98828
				c0.63037,0.92871,1.29346,1.93359,1.87158,2.9834c1.21289,2.20215,1.56201,4.70996,1.03906,7.45215
				C101.3208,95.19464,99.09668,97.52863,96.26514,98.47687z"/>
		</g>
		<g>
			<path fill="#FFFFFF" d="M107.25819,116.26721c-0.67438-2.45459-2.33447-4.11719-4.72791-5.08154
				c-2.10815-0.84656-5.36157-1.11011-7.58057-1.07947l-0.36212,6.32959c0.87634-0.20374,1.7348-0.20605,2.16632-0.04089
				c0.80884,0.30884,1.33923,1.12878,1.02161,1.7876c-0.36786,0.66028-0.95648,0.83667-1.64032,1.01343
				c-1.71198,0.44336-3.45691,0.51648-5.21368,0.39624c-1.1319-0.07544-2.22839-0.31836-3.27771-0.7688
				c-6.53229-2.20813-5.44989-6.45459-5.44989-6.45459c0.27588-1.46436,1.18884-2.26782,2.59424-2.90918
				c0.43158-0.1958,2.0838-0.86597,2.53424-1.00745l-0.33685-8.44653c-3.15399,0.80139-5.89581,1.84753-8.24341,3.66956
				c-4.31055,3.26587-6.0343,7.64258-5.24908,12.927c0.37964,2.55615,1.60583,4.81982,3.34613,6.77002
				c0,0,2.66724,2.79346,8.26099,4.46533c2.24017,0.75452,3.51276,0.85449,5.88501,0.99121
				c1.77795,0.10376,3.52295-0.12256,5.25848-0.47168c3.40033-0.68848,6.4729-2.03735,8.91583-4.5769
				C107.19453,121.66248,108.04578,119.13,107.25819,116.26721z"/>
			<path fill="#E73C4D" d="M91.86475,130.35382c-0.32813,0-0.6499-0.00977-0.96729-0.02832
				c-2.46436-0.1416-3.86328-0.25391-6.27637-1.06641c-5.85742-1.75-8.74658-4.72461-8.8667-4.85059
				c-2.09619-2.34766-3.34473-4.8877-3.74512-7.58691c-0.86719-5.83691,1.14746-10.79688,5.82715-14.3418
				c2.24268-1.74121,4.95459-2.95605,8.7793-3.92871l1.79443-0.45605l0.45654,11.44434l-1.09424,0.34375
				c-0.36914,0.11621-1.94873,0.75391-2.36621,0.94238c-1.27588,0.58301-1.60449,1.10938-1.73828,1.82031
				c-0.07764,0.36816-0.49414,3.08301,4.45654,4.75684l0.11084,0.04199c0.86377,0.37109,1.7749,0.58398,2.78564,0.65039
				c0.69092,0.04785,1.34619,0.05957,1.9668,0.03613l0.54443-9.50586l1.39697-0.01953
				c2.42188-0.04492,5.85303,0.26074,8.16016,1.18848c2.90283,1.16895,4.84424,3.26953,5.61523,6.0752
				c0.89307,3.24805,0.0415,6.34277-2.46338,8.9502c-2.44678,2.54395-5.61963,4.18066-9.69971,5.00684
				C94.77686,130.18195,93.26465,130.35382,91.86475,130.35382z M77.9585,122.37335c0.00195,0,2.49805,2.51074,7.57129,4.02637
				c2.10596,0.70898,3.21924,0.79688,5.54199,0.93164c1.43066,0.08398,2.93262-0.05371,4.87549-0.44531
				c3.46143-0.7002,6.12207-2.05664,8.13135-4.14551c1.78076-1.85352,2.34814-3.8418,1.7334-6.07617l0,0
				c-0.52832-1.92188-1.78467-3.25879-3.84229-4.08691c-1.49951-0.60254-3.72754-0.87695-5.60449-0.95215l-0.18066,3.15723
				c0.37842,0.01953,0.76172,0.08008,1.10498,0.21094c0.86377,0.33008,1.5708,1.00586,1.88965,1.80859
				c0.27051,0.67969,0.25146,1.40137-0.05273,2.03223c-0.73633,1.32715-1.9126,1.63184-2.61572,1.81348
				c-1.70605,0.44238-3.56641,0.58789-5.69189,0.44043c-1.3125-0.08691-2.56152-0.37695-3.71045-0.8623
				c-6.15771-2.10449-6.85986-6.29883-6.36816-8.22754c0.42725-2.28418,2.16016-3.32617,3.4248-3.90332
				c0.25439-0.11523,0.96387-0.41016,1.61523-0.66699l-0.21826-5.4668c-2.47754,0.76758-4.34033,1.68848-5.8999,2.89844
				c-3.87354,2.93457-5.40186,6.7002-4.68506,11.52148C75.29004,118.49152,76.29297,120.50714,77.9585,122.37335L77.9585,122.37335z
				 M95.56299,117.7923c-0.18555,0.01758-0.40088,0.0498-0.63525,0.10449l-0.42578,0.09863
				C94.8667,117.94269,95.21973,117.87433,95.56299,117.7923z"/>
		</g>
		<g>
			<path fill="#FFFFFF" d="M99.62972,139.63539c-3.7116-1.23326-7.4232-2.47125-11.12065-3.74931
				c-1.01633-0.35136-2.06567-0.72629-2.94522-1.31816c-1.53746-1.03284-2.19772-2.66934-2.51842-4.44261
				c-0.17921-0.99274-0.24473-1.91631,0.38723-2.84774c0,0-3.56304-1.18915-6.42826-3.74468
				c-0.51765,0.96471-0.89164,2.37856-1.10386,3.40433c-0.44096,2.14111-0.44096,4.25867,0.49519,6.31255
				c1.07056,2.34628,2.55143,4.29875,4.89535,5.50844c2.31091,1.19554,4.69963,2.20715,7.25813,2.71414
				c2.5868,0.51405,5.1901,0.95737,7.80048,1.33939c3.66208,0.53291,7.12136,1.63649,10.36842,3.40033
				c0.47633,0.25938,0.89136,0.63196,1.33467,0.9503c-0.00943,0.02594,0.02593-0.02594,0.03301-0.08018
				c0.01651-0.10374,0.02122-0.2075,0.01887-0.31126c0-0.78287-0.36314-1.41956-0.8324-2.01143
				C105.27258,142.23399,102.65276,140.63994,99.62972,139.63539"/>
			<path fill="#E73C4D" d="M107.63721,148.888l-0.59814-0.6084c-0.10938-0.08203-0.21777-0.16602-0.32617-0.24902
				c-0.25439-0.19727-0.49414-0.38281-0.71094-0.5c-2.99951-1.62988-6.31982-2.71777-9.86865-3.23438
				c-2.69678-0.39453-5.34668-0.84961-7.87646-1.35352c-2.36523-0.46777-4.79785-1.375-7.65479-2.85254
				c-2.40625-1.24219-4.22852-3.27637-5.57129-6.21777c-0.96875-2.12598-1.16455-4.49316-0.59961-7.23828
				c0.18652-0.90039,0.59668-2.58984,1.25146-3.81055l0.8999-1.67773l1.42041,1.26758
				c2.58643,2.30664,5.87354,3.43066,5.90674,3.44238l1.87012,0.62988l-1.10596,1.63379
				c-0.28223,0.41602-0.31787,0.82227-0.15234,1.73926c0.31348,1.7334,0.89307,2.80176,1.87842,3.46387
				c0.69873,0.46973,1.59082,0.79688,2.59961,1.14551c3.68555,1.27441,7.35498,2.49805,11.10352,3.74316l0,0
				c3.56006,1.18359,6.28955,3.02051,8.34521,5.61621c0.45117,0.56934,1.03857,1.4375,1.14063,2.5918l0.25195,0.18066
				l-0.29102,0.82715l-0.12695,0.79199l-0.89844,0.37402L107.63721,148.888z M77.67773,125.97003
				c-0.11133,0.39453-0.21533,0.82227-0.30859,1.27148c-0.43799,2.12695-0.31348,3.83887,0.39111,5.38574
				c1.06689,2.33789,2.40771,3.86328,4.21875,4.79785c2.6001,1.34473,4.78027,2.16309,6.86182,2.5752
				c2.48145,0.49414,5.08057,0.94043,7.72607,1.32715c2.28076,0.33203,4.47852,0.88086,6.57324,1.63867
				c-1.15723-0.77539-2.47949-1.40723-3.9834-1.90723l0,0c-3.75732-1.24902-7.43604-2.47559-11.1377-3.75488
				c-1.21143-0.41895-2.29492-0.82031-3.29248-1.49219c-1.66699-1.11816-2.69971-2.8916-3.15723-5.41992
				c-0.13184-0.73047-0.21387-1.49414-0.07275-2.27539C80.49365,127.67023,79.09375,126.96222,77.67773,125.97003z"/>
		</g>
	</g>
</g>
<g id="grille_page_entiere" display="none">
</g>
</svg>
