<?xml version="1.0" encoding="utf-8"?>
<!-- Generator: Adobe Illustrator 22.0.1, SVG Export Plug-In . SVG Version: 6.00 Build 0)  -->
<svg version="1.1" xmlns="http://www.w3.org/2000/svg" xmlns:xlink="http://www.w3.org/1999/xlink" x="0px" y="0px"
	 viewBox="0 0 181.32367 181.04546" enable-background="new 0 0 181.32367 181.04546" xml:space="preserve">
<g id="Calque_1">
	<g>
		<path fill="#E73C4D" d="M90.66208,179.95975c-49.31592,0-89.43701-40.12109-89.43701-89.43653
			c0-49.3164,40.12109-89.4375,89.43701-89.4375c49.31543,0,89.43652,40.12109,89.43652,89.4375
			C180.0986,139.83865,139.97751,179.95975,90.66208,179.95975z M90.66208,4.08572c-47.66162,0-86.43701,38.77539-86.43701,86.4375
			c0,47.66114,38.77539,86.43653,86.43701,86.43653c47.66113,0,86.43652-38.77539,86.43652-86.43653
			C177.0986,42.86111,138.32321,4.08572,90.66208,4.08572z"/>
	</g>
	<g>
		<g>
			<g>
				<g>
					<path fill="none" d="M64.0013,50.21022c0.15651-1.61899,0.39699-3.23728,0.85139-4.80114l-5.32986-1.44966
						c-0.54372,1.89194-0.84254,3.84559-1.02645,5.79839L64.0013,50.21022z"/>
				</g>
			</g>
			<g>
				<g>
					<path fill-rule="evenodd" clip-rule="evenodd" fill="#E73C4D" d="M62.186,44.68378
						c1.50002,0.43227,2.30972,1.79283,2.13236,3.106c-0.22021,1.30631-1.58539,2.29009-3.07133,2.19409
						c-1.554-0.10295-2.64421-1.5141-2.36927-3.14738C59.11455,45.19822,60.76025,44.26678,62.186,44.68378z"/>
				</g>
			</g>
		</g>
		<g>
			<g>
				<g>
					<path fill="none" d="M66.36031,41.26022c0.66593-1.48591,1.50568-2.89028,2.43588-4.22476l-4.5083-3.19125
						c-1.12452,1.60899-2.13412,3.30648-2.94226,5.10045L66.36031,41.26022z"/>
				</g>
			</g>
			<g>
				<g>
					<path fill-rule="evenodd" clip-rule="evenodd" fill="#E73C4D" d="M66.54055,35.43878
						c1.20271,0.88327,1.60629,2.50834,0.94028,3.6543c-0.69917,1.12514-2.20545,1.64034-3.62952,1.00861
						c-1.36293-0.59867-2.01397-2.36234-1.15162-3.77438C63.53343,34.89632,65.28633,34.52079,66.54055,35.43878z"/>
				</g>
			</g>
		</g>
		<g>
			<g>
				<g>
					<path fill="none" d="M71.62752,33.6365c1.17246-1.13478,2.40797-2.19685,3.74578-3.13263l-3.15237-4.53557
						c-1.61409,1.12779-3.10738,2.40651-4.51581,3.77928L71.62752,33.6365z"/>
				</g>
			</g>
			<g>
				<g>
					<path fill-rule="evenodd" clip-rule="evenodd" fill="#E73C4D" d="M73.79607,28.2346
						c0.85569,1.2741,0.66779,2.92536-0.36698,3.75037c-0.97327,0.89889-2.68142,0.74348-3.76407-0.2942
						c-1.11601-1.0711-1.01165-2.82328,0.21147-3.93521C71.16436,26.72112,72.95502,26.97844,73.79607,28.2346z"/>
				</g>
			</g>
		</g>
		<g>
			<g>
				<g>
					<path fill="none" d="M79.20674,28.30669c1.46047-0.70796,2.99865-1.28861,4.57901-1.66484l-1.40323-5.34226
						c-1.9085,0.46231-3.76851,1.16024-5.53476,2.01269L79.20674,28.30669z"/>
				</g>
			</g>
			<g>
				<g>
					<path fill-rule="evenodd" clip-rule="evenodd" fill="#E73C4D" d="M83.08367,23.96896
						c0.3672,1.49557-0.40002,2.89354-1.62598,3.40022c-1.26199,0.40745-2.75474-0.18781-3.43122-1.56134
						c-0.67028-1.35907-0.03232-3.10518,1.54168-3.6289C81.10765,21.56076,82.72635,22.50547,83.08367,23.96896z"/>
				</g>
			</g>
		</g>
		<g>
			<g>
				<g>
					<path fill="none" d="M88.13364,25.85834c1.62929-0.13645,3.25752-0.13645,4.88681,0l0.49935-5.50088
						c-1.96149-0.16661-3.92402-0.16661-5.88551,0L88.13364,25.85834z"/>
				</g>
			</g>
			<g>
				<g>
					<path fill-rule="evenodd" clip-rule="evenodd" fill="#E73C4D" d="M93.27029,23.10609
						c-0.16283,1.51515-1.36958,2.70138-2.69378,2.6276c-1.32421,0.07389-2.52991-1.11246-2.69271-2.6276
						c-0.16265-1.51393,1.04227-2.8196,2.6926-2.89589C92.22675,20.28637,93.43298,21.59218,93.27029,23.10609z"/>
				</g>
			</g>
		</g>
		<g>
			<g>
				<g>
					<path fill="none" d="M97.36835,26.64185c1.58037,0.37623,3.11854,0.95688,4.57901,1.66484l2.35899-4.99441
						c-1.76626-0.85245-3.62627-1.55038-5.53476-2.01269L97.36835,26.64185z"/>
				</g>
			</g>
			<g>
				<g>
					<path fill-rule="evenodd" clip-rule="evenodd" fill="#E73C4D" d="M103.12762,25.80784
						c-0.67647,1.37346-2.17025,1.9684-3.43222,1.56097c-1.22597-0.50668-1.99223-1.90421-1.62498-3.39985
						c0.35732-1.46341,1.97482-2.40862,3.5143-1.79047C103.15875,22.70219,103.79796,24.44871,103.12762,25.80784z"/>
				</g>
			</g>
		</g>
		<g>
			<g>
				<g>
					<path fill="none" d="M105.7808,30.50388c1.33781,0.93578,2.57333,1.99785,3.74579,3.13263l3.92239-3.88891
						c-1.40842-1.37277-2.90172-2.65149-4.51581-3.77928L105.7808,30.50388z"/>
				</g>
			</g>
			<g>
				<g>
					<path fill-rule="evenodd" clip-rule="evenodd" fill="#E73C4D" d="M111.48907,31.69077
						c-1.08267,1.03767-2.7916,1.19236-3.76485,0.29348c-1.03493-0.82486-1.22187-2.4756-0.3662-3.74965
						c0.84112-1.2562,2.63062-1.51417,3.91862-0.47992C112.49978,28.86661,112.60511,30.61968,111.48907,31.69077z"/>
				</g>
			</g>
		</g>
		<g>
			<g>
				<g>
					<path fill="none" d="M112.3579,37.03546c0.93022,1.33448,1.76996,2.73885,2.43589,4.22476l5.01469-2.31555
						c-0.80815-1.79397-1.81774-3.49147-2.94227-5.10045L112.3579,37.03546z"/>
				</g>
			</g>
			<g>
				<g>
					<path fill-rule="evenodd" clip-rule="evenodd" fill="#E73C4D" d="M117.30279,40.10168
						c-1.42413,0.63173-2.93072,0.11551-3.63008-1.00953c-0.66599-1.14597-0.26191-2.7701,0.94084-3.65337
						c1.2542-0.91793,3.00647-0.54358,3.84019,0.88741C119.3163,37.73813,118.66569,39.50307,117.30279,40.10168z"/>
				</g>
			</g>
		</g>
		<g>
			<g>
				<g>
					<path fill="none" d="M116.30141,45.40908c0.4544,1.56386,0.69486,3.18214,0.85138,4.80114l5.50492-0.45241
						c-0.18391-1.9528-0.48273-3.90645-1.02644-5.79839L116.30141,45.40908z"/>
				</g>
			</g>
			<g>
				<g>
					<path fill-rule="evenodd" clip-rule="evenodd" fill="#E73C4D" d="M119.90707,49.98387
						c-1.48591,0.09596-2.85131-0.88885-3.07149-2.19516c-0.17759-1.31311,0.63255-2.67269,2.13251-3.10492
						c1.4258-0.41698,3.07101,0.51322,3.30804,2.15143C122.55107,48.46851,121.46113,49.88094,119.90707,49.98387z"/>
				</g>
			</g>
		</g>
		<g>
			<g>
				<g>
					<path fill="none" d="M117.15279,54.63635c-0.15652,1.61899-0.39698,3.23728-0.85138,4.80114l5.32986,1.44967
						c0.54372-1.89194,0.84254-3.84561,1.02644-5.79839L117.15279,54.63635z"/>
				</g>
			</g>
			<g>
				<g>
					<path fill-rule="evenodd" clip-rule="evenodd" fill="#E73C4D" d="M118.9681,60.1628
						c-1.50002-0.43228-2.30972-1.79283-2.13235-3.10599c0.22021-1.30632,1.58538-2.29009,3.07133-2.1941
						c1.55401,0.10295,2.64421,1.5141,2.36926,3.14738C122.03955,59.64836,120.39384,60.57979,118.9681,60.1628z"/>
				</g>
			</g>
		</g>
		<g>
			<g>
				<g>
					<path fill="none" d="M114.79379,63.58636c-0.66593,1.48592-1.50567,2.89029-2.43589,4.22476l4.50831,3.19125
						c1.12453-1.60899,2.13412-3.3065,2.94227-5.10046L114.79379,63.58636z"/>
				</g>
			</g>
			<g>
				<g>
					<path fill-rule="evenodd" clip-rule="evenodd" fill="#E73C4D" d="M114.61355,69.4078
						c-1.20271-0.88326-1.60628-2.50834-0.94028-3.65429c0.69918-1.12516,2.20544-1.64034,3.62952-1.00861
						c1.36293,0.59866,2.01396,2.36233,1.15162,3.77438C117.62067,69.95026,115.86777,70.32578,114.61355,69.4078z"/>
				</g>
			</g>
		</g>
		<g>
			<g>
				<g>
					<path fill="none" d="M109.52659,71.21007c-1.17246,1.13477-2.40798,2.19685-3.74579,3.13263l3.15237,4.53558
						c1.61409-1.12778,3.10738-2.40651,4.51581-3.77928L109.52659,71.21007z"/>
				</g>
			</g>
		</g>
		<g>
			<g>
				<g>
					<path fill="none" d="M101.94736,76.53989c-1.46047,0.70795-2.99864,1.28862-4.57901,1.66485l1.40324,5.34226
						c1.90849-0.46232,3.7685-1.16025,5.53476-2.01271L101.94736,76.53989z"/>
				</g>
			</g>
		</g>
		<g>
			<g>
				<g>
					<path fill="none" d="M93.02045,78.98824c-1.62929,0.13646-3.25752,0.13646-4.88681,0l-0.49934,5.50087
						c1.96149,0.16661,3.92401,0.16661,5.88551,0L93.02045,78.98824z"/>
				</g>
			</g>
		</g>
		<g>
			<g>
				<g>
					<path fill="none" d="M83.78575,78.20473c-1.58036-0.37623-3.11854-0.9569-4.57901-1.66485l-2.35898,4.9944
						c1.76625,0.85246,3.62626,1.55039,5.53476,2.01271L83.78575,78.20473z"/>
				</g>
			</g>
		</g>
		<g>
			<g>
				<g>
					<path fill="none" d="M75.3733,74.3427c-1.33781-0.93578-2.57332-1.99786-3.74578-3.13263l-3.92239,3.88892
						c1.40842,1.37277,2.90172,2.6515,4.51581,3.77928L75.3733,74.3427z"/>
				</g>
			</g>
		</g>
		<g>
			<g>
				<g>
					<path fill="none" d="M68.79619,67.81112c-0.93021-1.33447-1.76995-2.73884-2.43588-4.22476l-5.01468,2.31556
						c0.80814,1.79396,1.81774,3.49146,2.94226,5.10046L68.79619,67.81112z"/>
				</g>
			</g>
			<g>
				<g>
					<path fill-rule="evenodd" clip-rule="evenodd" fill="#E73C4D" d="M63.85131,64.7449
						c1.42413-0.63174,2.93071-0.11552,3.63008,1.00952c0.66598,1.14598,0.26191,2.7701-0.94085,3.65337
						c-1.2542,0.91794-3.00647,0.54356-3.84019-0.8874C61.83781,67.10844,62.48841,65.34352,63.85131,64.7449z"/>
				</g>
			</g>
		</g>
		<g>
			<g>
				<g>
					<path fill="none" d="M64.85269,59.43749c-0.4544-1.56386-0.69488-3.18214-0.85139-4.80114l-5.50492,0.45242
						c0.18391,1.95278,0.48273,3.90645,1.02645,5.79839L64.85269,59.43749z"/>
				</g>
			</g>
			<g>
				<g>
					<path fill-rule="evenodd" clip-rule="evenodd" fill="#E73C4D" d="M61.24703,54.86271
						c1.4859-0.09596,2.85131,0.88884,3.07149,2.19515c0.17759,1.31313-0.63255,2.6727-2.13252,3.10494
						c-1.4258,0.41698-3.07102-0.51322-3.30804-2.15144C58.60303,56.37807,59.69298,54.96564,61.24703,54.86271z"/>
				</g>
			</g>
		</g>
	</g>
	<g>
		<g>
			<g>
				<g>
					<path fill="none" d="M117.15279,54.63635c-0.15652,1.61899-0.39699,3.23728-0.85139,4.80114l5.32986,1.44966
						c0.54372-1.89194,0.84254-3.84559,1.02645-5.79839L117.15279,54.63635z"/>
				</g>
			</g>
		</g>
		<g>
			<g>
				<g>
					<path fill="none" d="M114.79379,63.58636c-0.66594,1.48591-1.50568,2.89027-2.43589,4.22476l4.50831,3.19124
						c1.12452-1.60898,2.13412-3.30647,2.94226-5.10045L114.79379,63.58636z"/>
				</g>
			</g>
		</g>
		<g>
			<g>
				<g>
					<path fill="none" d="M109.52658,71.21007c-1.17246,1.13478-2.40797,2.19685-3.74578,3.13263l3.15237,4.53557
						c1.61409-1.12779,3.10738-2.40651,4.51581-3.77928L109.52658,71.21007z"/>
				</g>
			</g>
			<g>
				<g>
					<path fill-rule="evenodd" clip-rule="evenodd" fill="#E73C4D" d="M107.35802,76.61197
						c-0.85569-1.2741-0.66779-2.92535,0.36698-3.75037c0.97327-0.8989,2.68142-0.74348,3.76407,0.2942
						c1.11601,1.0711,1.01164,2.82328-0.21147,3.93521C109.98974,78.12546,108.19908,77.86813,107.35802,76.61197z"/>
				</g>
			</g>
		</g>
		<g>
			<g>
				<g>
					<path fill="none" d="M101.94736,76.53988c-1.46047,0.70796-2.99865,1.28861-4.57901,1.66484l1.40323,5.34226
						c1.9085-0.4623,3.76851-1.16024,5.53476-2.01269L101.94736,76.53988z"/>
				</g>
			</g>
			<g>
				<g>
					<path fill-rule="evenodd" clip-rule="evenodd" fill="#E73C4D" d="M100.83755,82.84943
						c0.24775-0.02257,0.49911-0.08169,0.74839-0.18179c1.574-0.52373,2.21196-2.26983,1.54167-3.62891
						c-0.16912-0.34338-0.38926-0.63813-0.64405-0.88072L100.83755,82.84943z"/>
				</g>
			</g>
		</g>
		<g>
			<g>
				<g>
					<path fill="none" d="M93.02045,78.98824c-1.62929,0.13645-3.25753,0.13645-4.88681,0l-0.49935,5.50089
						c1.96149,0.1666,3.92402,0.1666,5.88551,0L93.02045,78.98824z"/>
				</g>
			</g>
		</g>
		<g>
			<g>
				<g>
					<path fill="none" d="M83.78575,78.20472c-1.58037-0.37623-3.11854-0.95688-4.57902-1.66484l-2.35898,4.99442
						c1.76626,0.85245,3.62627,1.55038,5.53476,2.01269L83.78575,78.20472z"/>
				</g>
			</g>
			<g>
				<g>
					<path fill-rule="evenodd" clip-rule="evenodd" fill="#E73C4D" d="M80.77362,82.85061
						c-0.39066,0.03428-0.80014-0.02026-1.20425-0.18253c-1.57402-0.5237-2.21323-2.27022-1.54289-3.62935
						c0.22878-0.46451,0.55106-0.83997,0.92623-1.11772L80.77362,82.85061z"/>
				</g>
			</g>
		</g>
		<g>
			<g>
				<g>
					<path fill="none" d="M75.3733,74.3427c-1.33781-0.93578-2.57333-1.99785-3.74579-3.13263l-3.92239,3.88892
						c1.40842,1.37277,2.90172,2.65149,4.51581,3.77928L75.3733,74.3427z"/>
				</g>
			</g>
			<g>
				<g>
					<path fill-rule="evenodd" clip-rule="evenodd" fill="#E73C4D" d="M69.66502,73.15581
						c1.08267-1.03767,2.7916-1.19236,3.76486-0.29348c1.03493,0.82486,1.22187,2.47559,0.36619,3.74964
						c-0.84111,1.2562-2.63061,1.51418-3.91861,0.47992C68.65432,75.97996,68.54899,74.22689,69.66502,73.15581z"/>
				</g>
			</g>
		</g>
		<g>
			<g>
				<g>
					<path fill="none" d="M68.79619,67.81112c-0.93021-1.33449-1.76995-2.73885-2.43589-4.22476l-5.01468,2.31555
						c0.80815,1.79398,1.81774,3.49147,2.94227,5.10045L68.79619,67.81112z"/>
				</g>
			</g>
		</g>
		<g>
			<g>
				<g>
					<path fill="none" d="M64.85268,59.43749c-0.4544-1.56386-0.69487-3.18214-0.85138-4.80114l-5.50492,0.45241
						c0.18391,1.9528,0.48273,3.90645,1.02644,5.79839L64.85268,59.43749z"/>
				</g>
			</g>
		</g>
		<g>
			<g>
				<g>
					<path fill="none" d="M64.0013,50.21022c0.15651-1.61899,0.39698-3.23728,0.85138-4.80114l-5.32986-1.44967
						c-0.54371,1.89194-0.84254,3.84561-1.02644,5.79839L64.0013,50.21022z"/>
				</g>
			</g>
		</g>
		<g>
			<g>
				<g>
					<path fill="none" d="M66.3603,41.26021c0.66594-1.48592,1.50568-2.89029,2.43589-4.22476l-4.5083-3.19125
						c-1.12453,1.60899-2.13412,3.3065-2.94227,5.10045L66.3603,41.26021z"/>
				</g>
			</g>
		</g>
		<g>
			<g>
				<g>
					<path fill="none" d="M71.62751,33.63651c1.17246-1.13478,2.40798-2.19686,3.74579-3.13264l-3.15237-4.53558
						c-1.61409,1.12779-3.10738,2.40651-4.51581,3.77929L71.62751,33.63651z"/>
				</g>
			</g>
		</g>
		<g>
			<g>
				<g>
					<path fill="none" d="M79.20673,28.30669c1.46048-0.70795,2.99865-1.28862,4.57902-1.66485l-1.40324-5.34226
						c-1.90849,0.46232-3.7685,1.16025-5.53476,2.01271L79.20673,28.30669z"/>
				</g>
			</g>
		</g>
		<g>
			<g>
				<g>
					<path fill="none" d="M88.13364,25.85833c1.62928-0.13645,3.25752-0.13645,4.88681,0l0.49934-5.50086
						c-1.96149-0.16661-3.92402-0.16661-5.88551,0L88.13364,25.85833z"/>
				</g>
			</g>
		</g>
		<g>
			<g>
				<g>
					<path fill="none" d="M97.36835,26.64184c1.58036,0.37623,3.11854,0.9569,4.57901,1.66485l2.35898-4.9944
						c-1.76625-0.85246-3.62626-1.55039-5.53476-2.01271L97.36835,26.64184z"/>
				</g>
			</g>
		</g>
		<g>
			<g>
				<g>
					<path fill="none" d="M105.7808,30.50387c1.33781,0.93578,2.57332,1.99786,3.74578,3.13264l3.92239-3.88893
						c-1.40842-1.37278-2.90172-2.6515-4.51581-3.77929L105.7808,30.50387z"/>
				</g>
			</g>
		</g>
		<g>
			<g>
				<g>
					<path fill="none" d="M112.3579,37.03545c0.93021,1.33447,1.76995,2.73884,2.43589,4.22476l5.01468-2.31556
						c-0.80814-1.79395-1.81774-3.49146-2.94226-5.10045L112.3579,37.03545z"/>
				</g>
			</g>
		</g>
		<g>
			<g>
				<g>
					<path fill="none" d="M116.30141,45.40908c0.4544,1.56385,0.69487,3.18214,0.85139,4.80114l5.50492-0.45242
						c-0.18391-1.95278-0.48273-3.90645-1.02645-5.79839L116.30141,45.40908z"/>
				</g>
			</g>
		</g>
	</g>
	<g transform="translate(0.18336736,-0.87410704)">
		<g>
			<g>
				<path fill="#E73C4D" d="M94.03731,168.26076h-7.28725V102.7515h7.28725V168.26076z M89.17915,165.83168h2.42908v-60.6511
					h-2.42908V165.83168z M103.59232,144.27359c-1.62255,0-3.14547-0.39378-4.6162-0.77332l-1.80283-0.45546l0.26093-1.15286
					c2.2915-10.13857,10.99254-17.22655,21.15957-17.24078h0.00948c1.62255,0,3.14547,0.39378,4.6162,0.77332l1.79334,0.45545
					l-0.26093,1.15286C122.46039,137.17612,113.75935,144.2641,103.59232,144.27359z M100.09577,141.27994
					c1.20031,0.30838,2.34368,0.56458,3.49654,0.56458c8.63937-0.00949,16.08791-5.79279,18.49802-14.20443
					c-1.19556-0.30363-2.33894-0.55983-3.48706-0.55983l-0.00948-1.21454v1.21454
					C109.95442,127.09449,102.50587,132.87305,100.09577,141.27994z M77.45361,133.09602
					c-10.29987,0-19.10765-7.17812-21.41813-17.45901l-0.25856-1.15286l1.74353-0.44359
					c1.51343-0.3914,3.07905-0.79704,4.7443-0.80416h0.01423c10.28801,0,19.08631,7.17812,21.39678,17.45901l0.25857,1.15288
					l-1.772,0.4507C80.66313,132.68802,79.11175,133.09128,77.45361,133.09602z M58.69704,116.24665
					c2.42908,8.54685,9.98438,14.4203,18.7542,14.4203c1.17659-0.00475,2.34368-0.27043,3.56297-0.57881
					c-2.42908-8.54922-9.97726-14.42266-18.73523-14.42266l-0.00949-1.21454l0.00474,1.21454
					C61.09291,115.67022,59.92107,115.93353,58.69704,116.24665z M94.56629,100.32242h-8.34521
					c-2.74932,0-4.98626-2.14442-4.98626-4.78225l-0.01423-3.44436c-0.64285-9.23714-4.18447-15.94083-7.19947-20.75156
					l-0.74723-1.18607c-3.50129-5.55557-6.52578-10.35443-6.52578-16.89919c0-13.01835,10.60825-23.60762,23.64558-23.60762
					s23.64558,10.58927,23.64558,23.60762c0,6.54001-3.02212,11.33176-6.51866,16.88258l-0.75435,1.20267
					c-3.01263,4.81309-6.55662,11.52153-7.20184,20.75156l-0.00948,0.16131v3.28305
					C99.55492,98.178,97.31561,100.32242,94.56629,100.32242z M83.6639,93.22495v2.31522c0,1.29757,1.14812,2.35317,2.55717,2.35317
					h8.34521c1.41143,0,2.55955-1.0556,2.55955-2.35317v-2.31522h-6.30991c-0.21112,0.04981-0.61676,0.05219-1.02002-0.01424
					L83.6639,93.22495z M89.17915,90.79588h0.80415c0.34634,0.03795,0.50053,0.04032,0.64523,0.01423l0.9797-0.00237V75.43384
					c0.00475-0.30601-0.13284-0.61201-0.3748-0.85872c-0.48866-0.49341-1.19082-0.49341-1.67948,0
					c-0.24196,0.2467-0.37954,0.55271-0.37479,0.83974V90.79588z M94.03731,90.79588h3.19765
					c0.87769-9.18259,4.43117-15.88391,7.47227-20.74207l0.75909-1.20743c3.43487-5.44645,6.14386-9.74953,6.14386-15.58739
					c0-11.67809-9.51706-21.17854-21.21649-21.17854s-21.2165,9.50046-21.2165,21.17854c0,5.8426,2.71611,10.15042,6.15336,15.604
					l0.7496,1.19082c3.04109,4.85341,6.59457,11.55473,7.46989,20.74207h3.20003V75.43384
					c-0.01423-0.91565,0.37717-1.85739,1.07458-2.56429c1.39482-1.4138,3.74325-1.4138,5.13808,0
					c0.69741,0.7069,1.08881,1.64864,1.07458,2.58327V90.79588z"/>
			</g>
		</g>
	</g>
</g>
<g id="grille_page_entiere" display="none">
</g>
</svg>
