<svg xmlns="http://www.w3.org/2000/svg" xmlns:xlink="http://www.w3.org/1999/xlink" style="enable-background:new 0 0 181.3 181" id="Calque_1" x="0" y="0" version="1.1" viewBox="0 0 181.3 181" xml:space="preserve"><style type="text/css">.st0{fill:#f03436}.st1{fill:none}.st2{fill-rule:evenodd;clip-rule:evenodd;fill:#f03436}</style><g id="Calque_1_00000146479862044374176020000011962934744582219660_"><g><path d="M90.7,180c-49.3,0-89.4-40.1-89.4-89.4c0-49.3,40.1-89.4,89.4-89.4c49.3,0,89.4,40.1,89.4,89.4 C180.1,139.8,140,180,90.7,180z M90.7,4.1C43,4.1,4.2,42.9,4.2,90.5C4.2,138.2,43,177,90.7,177c47.7,0,86.4-38.8,86.4-86.4 C177.1,42.9,138.3,4.1,90.7,4.1z" class="st0"/></g><g><g><g><g><path d="M64,50.2c0.2-1.6,0.4-3.2,0.9-4.8L59.5,44c-0.5,1.9-0.8,3.8-1,5.8L64,50.2z" class="st1"/></g></g><g><g><path d="M62.2,44.7c1.5,0.4,2.3,1.8,2.1,3.1c-0.2,1.3-1.6,2.3-3.1,2.2c-1.6-0.1-2.6-1.5-2.4-3.1 C59.1,45.2,60.8,44.3,62.2,44.7z" class="st2"/></g></g></g><g><g><g><path d="M66.4,41.3c0.7-1.5,1.5-2.9,2.4-4.2l-4.5-3.2c-1.1,1.6-2.1,3.3-2.9,5.1L66.4,41.3z" class="st1"/></g></g><g><g><path d="M66.5,35.4c1.2,0.9,1.6,2.5,0.9,3.7c-0.7,1.1-2.2,1.6-3.6,1c-1.4-0.6-2-2.4-1.2-3.8 C63.5,34.9,65.3,34.5,66.5,35.4z" class="st2"/></g></g></g><g><g><g><path d="M71.6,33.6c1.2-1.1,2.4-2.2,3.7-3.1L72.2,26c-1.6,1.1-3.1,2.4-4.5,3.8L71.6,33.6z" class="st1"/></g></g><g><g><path d="M73.8,28.2c0.9,1.3,0.7,2.9-0.4,3.8c-1,0.9-2.7,0.7-3.8-0.3c-1.1-1.1-1-2.8,0.2-3.9 C71.2,26.7,73,27,73.8,28.2z" class="st2"/></g></g></g><g><g><g><path d="M79.2,28.3c1.5-0.7,3-1.3,4.6-1.7l-1.4-5.3c-1.9,0.5-3.8,1.2-5.5,2L79.2,28.3z" class="st1"/></g></g><g><g><path d="M83.1,24c0.4,1.5-0.4,2.9-1.6,3.4c-1.3,0.4-2.8-0.2-3.4-1.6c-0.7-1.4,0-3.1,1.5-3.6 C81.1,21.6,82.7,22.5,83.1,24z" class="st2"/></g></g></g><g><g><g><path d="M88.1,25.9c1.6-0.1,3.3-0.1,4.9,0l0.5-5.5c-2-0.2-3.9-0.2-5.9,0L88.1,25.9z" class="st1"/></g></g><g><g><path d="M93.3,23.1c-0.2,1.5-1.4,2.7-2.7,2.6c-1.3,0.1-2.5-1.1-2.7-2.6c-0.2-1.5,1-2.8,2.7-2.9 C92.2,20.3,93.4,21.6,93.3,23.1z" class="st2"/></g></g></g><g><g><g><path d="M97.4,26.6c1.6,0.4,3.1,1,4.6,1.7l2.4-5c-1.8-0.9-3.6-1.6-5.5-2L97.4,26.6z" class="st1"/></g></g><g><g><path d="M103.1,25.8c-0.7,1.4-2.2,2-3.4,1.6c-1.2-0.5-2-1.9-1.6-3.4c0.4-1.5,2-2.4,3.5-1.8 C103.2,22.7,103.8,24.4,103.1,25.8z" class="st2"/></g></g></g><g><g><g><path d="M105.8,30.5c1.3,0.9,2.6,2,3.7,3.1l3.9-3.9c-1.4-1.4-2.9-2.7-4.5-3.8L105.8,30.5z" class="st1"/></g></g><g><g><path d="M111.5,31.7c-1.1,1-2.8,1.2-3.8,0.3c-1-0.8-1.2-2.5-0.4-3.7c0.8-1.3,2.6-1.5,3.9-0.5 C112.5,28.9,112.6,30.6,111.5,31.7z" class="st2"/></g></g></g><g><g><g><path d="M112.4,37c0.9,1.3,1.8,2.7,2.4,4.2l5-2.3c-0.8-1.8-1.8-3.5-2.9-5.1L112.4,37z" class="st1"/></g></g><g><g><path d="M117.3,40.1c-1.4,0.6-2.9,0.1-3.6-1c-0.7-1.1-0.3-2.8,0.9-3.7c1.3-0.9,3-0.5,3.8,0.9 C119.3,37.7,118.7,39.5,117.3,40.1z" class="st2"/></g></g></g><g><g><g><path d="M116.3,45.4c0.5,1.6,0.7,3.2,0.9,4.8l5.5-0.5c-0.2-2-0.5-3.9-1-5.8L116.3,45.4z" class="st1"/></g></g><g><g><path d="M119.9,50c-1.5,0.1-2.9-0.9-3.1-2.2c-0.2-1.3,0.6-2.7,2.1-3.1c1.4-0.4,3.1,0.5,3.3,2.2 C122.6,48.5,121.5,49.9,119.9,50z" class="st2"/></g></g></g><g><g><g><path d="M117.2,54.6c-0.2,1.6-0.4,3.2-0.9,4.8l5.3,1.4c0.5-1.9,0.8-3.8,1-5.8L117.2,54.6z" class="st1"/></g></g><g><g><path d="M119,60.2c-1.5-0.4-2.3-1.8-2.1-3.1c0.2-1.3,1.6-2.3,3.1-2.2c1.6,0.1,2.6,1.5,2.4,3.1 C122,59.6,120.4,60.6,119,60.2z" class="st2"/></g></g></g><g><g><g><path d="M114.8,63.6c-0.7,1.5-1.5,2.9-2.4,4.2l4.5,3.2c1.1-1.6,2.1-3.3,2.9-5.1L114.8,63.6z" class="st1"/></g></g><g><g><path d="M114.6,69.4c-1.2-0.9-1.6-2.5-0.9-3.7c0.7-1.1,2.2-1.6,3.6-1c1.4,0.6,2,2.4,1.2,3.8 C117.6,70,115.9,70.3,114.6,69.4z" class="st2"/></g></g></g><g><g><g><path d="M109.5,71.2c-1.2,1.1-2.4,2.2-3.7,3.1l3.2,4.5c1.6-1.1,3.1-2.4,4.5-3.8L109.5,71.2z" class="st1"/></g></g></g><g><g><g><path d="M101.9,76.5c-1.5,0.7-3,1.3-4.6,1.7l1.4,5.3c1.9-0.5,3.8-1.2,5.5-2L101.9,76.5z" class="st1"/></g></g></g><g><g><g><path d="M93,79c-1.6,0.1-3.3,0.1-4.9,0l-0.5,5.5c2,0.2,3.9,0.2,5.9,0L93,79z" class="st1"/></g></g></g><g><g><g><path d="M83.8,78.2c-1.6-0.4-3.1-1-4.6-1.7l-2.4,5c1.8,0.9,3.6,1.6,5.5,2L83.8,78.2z" class="st1"/></g></g></g><g><g><g><path d="M75.4,74.3c-1.3-0.9-2.6-2-3.7-3.1l-3.9,3.9c1.4,1.4,2.9,2.7,4.5,3.8L75.4,74.3z" class="st1"/></g></g></g><g><g><g><path d="M68.8,67.8c-0.9-1.3-1.8-2.7-2.4-4.2l-5,2.3c0.8,1.8,1.8,3.5,2.9,5.1L68.8,67.8z" class="st1"/></g></g><g><g><path d="M63.9,64.7c1.4-0.6,2.9-0.1,3.6,1c0.7,1.1,0.3,2.8-0.9,3.7c-1.3,0.9-3,0.5-3.8-0.9 C61.8,67.1,62.5,65.3,63.9,64.7z" class="st2"/></g></g></g><g><g><g><path d="M64.9,59.4c-0.5-1.6-0.7-3.2-0.9-4.8l-5.5,0.5c0.2,2,0.5,3.9,1,5.8L64.9,59.4z" class="st1"/></g></g><g><g><path d="M61.2,54.9c1.5-0.1,2.9,0.9,3.1,2.2c0.2,1.3-0.6,2.7-2.1,3.1c-1.4,0.4-3.1-0.5-3.3-2.2 C58.6,56.4,59.7,55,61.2,54.9z" class="st2"/></g></g></g></g><g><g><g><g><path d="M117.2,54.6c-0.2,1.6-0.4,3.2-0.9,4.8l5.3,1.4c0.5-1.9,0.8-3.8,1-5.8L117.2,54.6z" class="st1"/></g></g></g><g><g><g><path d="M114.8,63.6c-0.7,1.5-1.5,2.9-2.4,4.2l4.5,3.2c1.1-1.6,2.1-3.3,2.9-5.1L114.8,63.6z" class="st1"/></g></g></g><g><g><g><path d="M109.5,71.2c-1.2,1.1-2.4,2.2-3.7,3.1l3.2,4.5c1.6-1.1,3.1-2.4,4.5-3.8L109.5,71.2z" class="st1"/></g></g><g><g><path d="M107.4,76.6c-0.9-1.3-0.7-2.9,0.4-3.8c1-0.9,2.7-0.7,3.8,0.3c1.1,1.1,1,2.8-0.2,3.9 C110,78.1,108.2,77.9,107.4,76.6z" class="st2"/></g></g></g><g><g><g><path d="M101.9,76.5c-1.5,0.7-3,1.3-4.6,1.7l1.4,5.3c1.9-0.5,3.8-1.2,5.5-2L101.9,76.5z" class="st1"/></g></g><g><g><path d="M100.8,82.8c0.2,0,0.5-0.1,0.7-0.2c1.6-0.5,2.2-2.3,1.5-3.6c-0.2-0.3-0.4-0.6-0.6-0.9L100.8,82.8z" class="st2"/></g></g></g><g><g><g><path d="M93,79c-1.6,0.1-3.3,0.1-4.9,0l-0.5,5.5c2,0.2,3.9,0.2,5.9,0L93,79z" class="st1"/></g></g></g><g><g><g><path d="M83.8,78.2c-1.6-0.4-3.1-1-4.6-1.7l-2.4,5c1.8,0.9,3.6,1.6,5.5,2L83.8,78.2z" class="st1"/></g></g><g><g><path d="M80.8,82.9c-0.4,0-0.8,0-1.2-0.2C78,82.1,77.4,80.4,78,79c0.2-0.5,0.6-0.8,0.9-1.1L80.8,82.9z" class="st2"/></g></g></g><g><g><g><path d="M75.4,74.3c-1.3-0.9-2.6-2-3.7-3.1l-3.9,3.9c1.4,1.4,2.9,2.7,4.5,3.8L75.4,74.3z" class="st1"/></g></g><g><g><path d="M69.7,73.2c1.1-1,2.8-1.2,3.8-0.3c1,0.8,1.2,2.5,0.4,3.7c-0.8,1.3-2.6,1.5-3.9,0.5 C68.7,76,68.5,74.2,69.7,73.2z" class="st2"/></g></g></g><g><g><g><path d="M68.8,67.8c-0.9-1.3-1.8-2.7-2.4-4.2l-5,2.3c0.8,1.8,1.8,3.5,2.9,5.1L68.8,67.8z" class="st1"/></g></g></g><g><g><g><path d="M64.9,59.4c-0.5-1.6-0.7-3.2-0.9-4.8l-5.5,0.5c0.2,2,0.5,3.9,1,5.8L64.9,59.4z" class="st1"/></g></g></g><g><g><g><path d="M64,50.2c0.2-1.6,0.4-3.2,0.9-4.8L59.5,44c-0.5,1.9-0.8,3.8-1,5.8L64,50.2z" class="st1"/></g></g></g><g><g><g><path d="M66.4,41.3c0.7-1.5,1.5-2.9,2.4-4.2l-4.5-3.2c-1.1,1.6-2.1,3.3-2.9,5.1L66.4,41.3z" class="st1"/></g></g></g><g><g><g><path d="M71.6,33.6c1.2-1.1,2.4-2.2,3.7-3.1L72.2,26c-1.6,1.1-3.1,2.4-4.5,3.8L71.6,33.6z" class="st1"/></g></g></g><g><g><g><path d="M79.2,28.3c1.5-0.7,3-1.3,4.6-1.7l-1.4-5.3c-1.9,0.5-3.8,1.2-5.5,2L79.2,28.3z" class="st1"/></g></g></g><g><g><g><path d="M88.1,25.9c1.6-0.1,3.3-0.1,4.9,0l0.5-5.5c-2-0.2-3.9-0.2-5.9,0L88.1,25.9z" class="st1"/></g></g></g><g><g><g><path d="M97.4,26.6c1.6,0.4,3.1,1,4.6,1.7l2.4-5c-1.8-0.9-3.6-1.6-5.5-2L97.4,26.6z" class="st1"/></g></g></g><g><g><g><path d="M105.8,30.5c1.3,0.9,2.6,2,3.7,3.1l3.9-3.9c-1.4-1.4-2.9-2.7-4.5-3.8L105.8,30.5z" class="st1"/></g></g></g><g><g><g><path d="M112.4,37c0.9,1.3,1.8,2.7,2.4,4.2l5-2.3c-0.8-1.8-1.8-3.5-2.9-5.1L112.4,37z" class="st1"/></g></g></g><g><g><g><path d="M116.3,45.4c0.5,1.6,0.7,3.2,0.9,4.8l5.5-0.5c-0.2-2-0.5-3.9-1-5.8L116.3,45.4z" class="st1"/></g></g></g></g><g><g><g><path d="M94,168.3h-7.3v-65.5H94V168.3z M89.2,165.8h2.4v-60.7h-2.4V165.8z M103.6,144.3c-1.6,0-3.1-0.4-4.6-0.8 l-1.8-0.5l0.3-1.2c2.3-10.1,11-17.2,21.2-17.2h0c1.6,0,3.1,0.4,4.6,0.8l1.8,0.5l-0.3,1.2C122.5,137.2,113.8,144.3,103.6,144.3z M100.1,141.3c1.2,0.3,2.3,0.6,3.5,0.6c8.6,0,16.1-5.8,18.5-14.2c-1.2-0.3-2.3-0.6-3.5-0.6l0-1.2v1.2 C110,127.1,102.5,132.9,100.1,141.3z M77.5,133.1c-10.3,0-19.1-7.2-21.4-17.5l-0.3-1.2l1.7-0.4c1.5-0.4,3.1-0.8,4.7-0.8h0 c10.3,0,19.1,7.2,21.4,17.5l0.3,1.2l-1.8,0.5C80.7,132.7,79.1,133.1,77.5,133.1z M58.7,116.2c2.4,8.5,10,14.4,18.8,14.4 c1.2,0,2.3-0.3,3.6-0.6c-2.4-8.5-10-14.4-18.7-14.4l0-1.2l0,1.2C61.1,115.7,59.9,115.9,58.7,116.2z M94.6,100.3h-8.3 c-2.7,0-5-2.1-5-4.8l0-3.4C80.6,82.9,77,76.2,74,71.3l-0.7-1.2c-3.5-5.6-6.5-10.4-6.5-16.9c0-13,10.6-23.6,23.6-23.6 S114,40.2,114,53.3c0,6.5-3,11.3-6.5,16.9l-0.8,1.2c-3,4.8-6.6,11.5-7.2,20.8l0,0.2v3.3C99.6,98.2,97.3,100.3,94.6,100.3z M83.7,93.2v2.3c0,1.3,1.1,2.4,2.6,2.4h8.3c1.4,0,2.6-1.1,2.6-2.4v-2.3h-6.3c-0.2,0-0.6,0.1-1,0L83.7,93.2z M89.2,90.8H90 c0.3,0,0.5,0,0.6,0l1,0V75.4c0-0.3-0.1-0.6-0.4-0.9c-0.5-0.5-1.2-0.5-1.7,0c-0.2,0.2-0.4,0.6-0.4,0.8L89.2,90.8L89.2,90.8z M94,90.8h3.2c0.9-9.2,4.4-15.9,7.5-20.7l0.8-1.2c3.4-5.4,6.1-9.7,6.1-15.6c0-11.7-9.5-21.2-21.2-21.2s-21.2,9.5-21.2,21.2 c0,5.8,2.7,10.2,6.2,15.6l0.7,1.2c3,4.9,6.6,11.6,7.5,20.7h3.2V75.4c0-0.9,0.4-1.9,1.1-2.6c1.4-1.4,3.7-1.4,5.1,0 c0.7,0.7,1.1,1.6,1.1,2.6L94,90.8L94,90.8z" class="st0" transform="translate(0.18336736,-0.87410704)"/></g></g></g></g></svg>