<?xml version="1.0" encoding="utf-8"?>
<!-- Generator: Adobe Illustrator 22.0.1, SVG Export Plug-In . SVG Version: 6.00 Build 0)  -->
<svg version="1.1" xmlns="http://www.w3.org/2000/svg" xmlns:xlink="http://www.w3.org/1999/xlink" x="0px" y="0px"
	 viewBox="0 0 181.32367 181.04546" enable-background="new 0 0 181.32367 181.04546" xml:space="preserve">
<g id="Calque_1">
	<g>
		<path fill="#E73C4D" d="M90.66189,179.95946c-49.31543,0-89.43652-40.12109-89.43652-89.43652S41.34646,1.08642,90.66189,1.08642
			s89.43653,40.12109,89.43653,89.43652S139.97733,179.95946,90.66189,179.95946z M90.66189,4.08642
			c-47.66113,0-86.43652,38.77539-86.43652,86.43652s38.77539,86.43652,86.43652,86.43652s86.43653-38.77539,86.43653-86.43652
			S138.32303,4.08642,90.66189,4.08642z"/>
	</g>
	<g>
		<path fill="#E73C4D" d="M135.16971,137.38914c-0.37451,0-0.74951-0.13965-1.04053-0.41992
			c-0.59668-0.57422-0.61475-1.52344-0.04004-2.12012l5.0708-5.26563l-5.08936-5.48144
			c-0.56396-0.60645-0.52881-1.55566,0.07861-2.12012c0.60645-0.5625,1.55615-0.52734,2.11963,0.0791l6.05469,6.5205
			c0.5415,0.58301,0.5332,1.4873-0.01855,2.06055l-6.05469,6.28711C135.95584,137.23582,135.56277,137.38914,135.16971,137.38914z"
			/>
	</g>
	<g>
		<g>
			<path fill="#E73C4D" d="M91.60427,115.92431c-16.23535,0-29.44384-13.20898-29.44384-29.44434
				s13.20849-29.44434,29.44384-29.44434c16.23584,0,29.44434,13.20898,29.44434,29.44434S107.84011,115.92431,91.60427,115.92431z
				 M91.60427,60.03564c-14.58105,0-26.44385,11.86328-26.44385,26.44434s11.86279,26.44434,26.44385,26.44434
				c14.58154,0,26.44434-11.86328,26.44434-26.44434S106.18581,60.03564,91.60427,60.03564z"/>
		</g>
		<g>
			<path fill="#E73C4D" d="M68.75564,123.40185c-0.27637,0-0.55566-0.07617-0.80566-0.23535
				c-12.62451-8.06055-20.16113-21.80273-20.16113-36.76074c0-20.06934,13.58496-37.46289,33.03564-42.29785
				c0.80469-0.20117,1.61768,0.29102,1.81738,1.09375c0.2002,0.80469-0.28955,1.61816-1.09375,1.81836
				c-18.11084,4.50098-30.75927,20.69727-30.75927,39.38574c0,13.92871,7.01904,26.72559,18.77539,34.23145
				c0.69824,0.44629,0.90283,1.37402,0.45703,2.07227C69.73513,123.15673,69.25076,123.40185,68.75564,123.40185z"/>
		</g>
		<g>
			<path fill="#E73C4D" d="M91.37087,129.98778c-0.82031,0-1.49023-0.66016-1.49951-1.4834
				c-0.00928-0.82812,0.65479-1.50683,1.48291-1.51659c22.38672-0.25195,40.59962-18.45703,40.59962-40.58203
				c0-21.4668-16.76856-39.26172-38.1753-40.5127c-0.82715-0.04785-1.4585-0.75781-1.41016-1.58496s0.76904-1.46777,1.58496-1.40918
				c22.99072,1.34277,41.0005,20.45313,41.0005,43.50684c0,23.76074-19.54346,43.31152-43.56544,43.58202
				C91.38259,129.98778,91.37673,129.98778,91.37087,129.98778z"/>
		</g>
		<g>
			<path fill="#E73C4D" d="M91.37136,129.98778H44.09939c-0.82861,0-1.5-0.67188-1.5-1.5c0-0.82812,0.67139-1.49999,1.5-1.49999
				h47.27197c0.82861,0,1.5,0.67188,1.5,1.49999C92.87136,129.3159,92.19997,129.98778,91.37136,129.98778z"/>
		</g>
		<g>
			<path fill="#E73C4D" d="M141.03934,130.98582h-25.0835c-0.82861,0-1.5-0.67188-1.5-1.5s0.67139-1.49999,1.5-1.49999h25.0835
				c0.82861,0,1.5,0.67187,1.5,1.49999S141.86795,130.98582,141.03934,130.98582z"/>
		</g>
		<g>
			<path fill="#E73C4D" d="M98.56423,51.55322c-0.41943,0-0.83643-0.1748-1.13281-0.5166l-4.9668-5.71875
				c-0.52197-0.60059-0.48389-1.50488,0.08691-2.05957l5.3291-5.17871c0.59473-0.57715,1.54395-0.5625,2.12109,0.03125
				s0.56396,1.54297-0.03027,2.12109l-4.31201,4.18945l4.03662,4.64844c0.54346,0.625,0.47656,1.57227-0.14893,2.11621
				C99.26345,51.43212,98.91286,51.55322,98.56423,51.55322z"/>
		</g>
		<g>
			<g>
				<path fill="#E73C4D" d="M98.56632,76.11327c-1.02619-0.52834-2.54517-0.79251-4.55692-0.79251
					c-2.01176,0-3.78643,0.5893-5.32742,1.76791c-1.5393,1.18199-2.6146,2.89232-3.22423,5.14115h8.44836v2.03885h-8.86493
					c-0.11176,0.69429-0.16595,1.46309-0.16595,2.30979c0,0.84669,0.04064,1.60195,0.12362,2.26915h8.90726v2.03885h-8.53133
					c0.60962,2.30302,1.69847,4.09124,3.26656,5.36806c1.56639,1.27682,3.34953,1.91354,5.34774,1.91354
					c1.99651,0,3.52226-0.29127,4.57725-0.87379v2.45542c-1.13796,0.58253-2.76023,0.87379-4.86851,0.87379
					c-2.66371,0-5.00906-0.87379-7.03436-2.62138c-2.02531-1.74759-3.36986-4.11834-4.03536-7.11565h-4.32832v-2.03885h4.03706
					c-0.08467-0.6672-0.12531-1.42245-0.12531-2.26915c0-0.8467,0.05419-1.6155,0.16595-2.30979h-4.0777v-2.03885h4.4113
					c0.72138-2.93974,2.08626-5.23598,4.09801-6.88873c2.01175-1.64937,4.40452-2.47575,7.17999-2.47575
					c1.99651,0,3.52226,0.26417,4.57725,0.79251V76.11327z"/>
			</g>
		</g>
	</g>
</g>
<g id="grille_page_entiere" display="none">
</g>
</svg>
