<?xml version="1.0" encoding="utf-8"?>
<!-- Generator: Adobe Illustrator 26.0.1, SVG Export Plug-In . SVG Version: 6.00 Build 0)  -->
<svg version="1.1" id="Calque_1" xmlns="http://www.w3.org/2000/svg" xmlns:xlink="http://www.w3.org/1999/xlink" x="0px" y="0px"
	 viewBox="0 0 181.3 181" style="enable-background:new 0 0 181.3 181;" xml:space="preserve">
<style type="text/css">
	.st0{fill:#F03436;}
	.st1{display:none;}
</style>
<g id="Calque_1_00000163757350277138005020000015982769183987947676_">
	<g>
		<path class="st0" d="M90.7,180c-49.3,0-89.4-40.1-89.4-89.4S41.3,1.1,90.7,1.1s89.4,40.1,89.4,89.4S140,180,90.7,180z M90.7,4.1
			C43,4.1,4.2,42.9,4.2,90.5S43,177,90.7,177s86.4-38.8,86.4-86.4S138.3,4.1,90.7,4.1z"/>
	</g>
	<g>
		<path class="st0" d="M135.2,137.4c-0.4,0-0.7-0.1-1-0.4c-0.6-0.6-0.6-1.5,0-2.1l5.1-5.3l-5.1-5.5c-0.6-0.6-0.5-1.6,0.1-2.1
			c0.6-0.6,1.6-0.5,2.1,0.1l6.1,6.5c0.5,0.6,0.5,1.5,0,2.1l-6.1,6.3C136,137.2,135.6,137.4,135.2,137.4z"/>
	</g>
	<g>
		<g>
			<path class="st0" d="M91.6,115.9c-16.2,0-29.4-13.2-29.4-29.4S75.4,57,91.6,57c16.2,0,29.4,13.2,29.4,29.4
				S107.8,115.9,91.6,115.9z M91.6,60C77,60,65.2,71.9,65.2,86.5s11.9,26.4,26.4,26.4c14.6,0,26.4-11.9,26.4-26.4S106.2,60,91.6,60z
				"/>
		</g>
		<g>
			<path class="st0" d="M68.8,123.4c-0.3,0-0.6-0.1-0.8-0.2c-12.6-8.1-20.2-21.8-20.2-36.8c0-20.1,13.6-37.5,33-42.3
				c0.8-0.2,1.6,0.3,1.8,1.1c0.2,0.8-0.3,1.6-1.1,1.8c-18.1,4.5-30.8,20.7-30.8,39.4c0,13.9,7,26.7,18.8,34.2
				c0.7,0.4,0.9,1.4,0.5,2.1C69.7,123.2,69.3,123.4,68.8,123.4z"/>
		</g>
		<g>
			<path class="st0" d="M91.4,130c-0.8,0-1.5-0.7-1.5-1.5c0-0.8,0.7-1.5,1.5-1.5c22.4-0.3,40.6-18.5,40.6-40.6
				c0-21.5-16.8-39.3-38.2-40.5c-0.8,0-1.5-0.8-1.4-1.6s0.8-1.5,1.6-1.4c23,1.3,41,20.5,41,43.5C135,110.2,115.4,129.7,91.4,130
				C91.4,130,91.4,130,91.4,130z"/>
		</g>
		<g>
			<path class="st0" d="M91.4,130H44.1c-0.8,0-1.5-0.7-1.5-1.5c0-0.8,0.7-1.5,1.5-1.5h47.3c0.8,0,1.5,0.7,1.5,1.5
				C92.9,129.3,92.2,130,91.4,130z"/>
		</g>
		<g>
			<path class="st0" d="M141,131H116c-0.8,0-1.5-0.7-1.5-1.5s0.7-1.5,1.5-1.5H141c0.8,0,1.5,0.7,1.5,1.5S141.9,131,141,131z"/>
		</g>
		<g>
			<path class="st0" d="M98.6,51.6c-0.4,0-0.8-0.2-1.1-0.5l-5-5.7c-0.5-0.6-0.5-1.5,0.1-2.1l5.3-5.2c0.6-0.6,1.5-0.6,2.1,0
				s0.6,1.5,0,2.1l-4.3,4.2l4,4.6c0.5,0.6,0.5,1.6-0.1,2.1C99.3,51.4,98.9,51.6,98.6,51.6z"/>
		</g>
		<g>
			<g>
				<path class="st0" d="M98.6,76.1c-1-0.5-2.5-0.8-4.6-0.8c-2,0-3.8,0.6-5.3,1.8c-1.5,1.2-2.6,2.9-3.2,5.1h8.4v2H85
					c-0.1,0.7-0.2,1.5-0.2,2.3c0,0.8,0,1.6,0.1,2.3h8.9v2h-8.5c0.6,2.3,1.7,4.1,3.3,5.4c1.6,1.3,3.3,1.9,5.3,1.9
					c2,0,3.5-0.3,4.6-0.9v2.5c-1.1,0.6-2.8,0.9-4.9,0.9c-2.7,0-5-0.9-7-2.6c-2-1.7-3.4-4.1-4-7.1h-4.3v-2h4
					c-0.1-0.7-0.1-1.4-0.1-2.3s0.1-1.6,0.2-2.3h-4.1v-2h4.4c0.7-2.9,2.1-5.2,4.1-6.9c2-1.6,4.4-2.5,7.2-2.5c2,0,3.5,0.3,4.6,0.8
					V76.1z"/>
			</g>
		</g>
	</g>
</g>
<g id="grille_page_entiere" class="st1">
</g>
</svg>
