<?xml version="1.0" encoding="utf-8"?>
<!-- Generator: Adobe Illustrator 22.0.1, SVG Export Plug-In . SVG Version: 6.00 Build 0)  -->
<svg version="1.1" xmlns="http://www.w3.org/2000/svg" xmlns:xlink="http://www.w3.org/1999/xlink" x="0px" y="0px"
	 viewBox="0 0 181.32367 181.04546" enable-background="new 0 0 181.32367 181.04546" xml:space="preserve">
<g id="Calque_1">
	<g>
		<path fill="#E73C4D" d="M90.66195,179.95985c-49.31543,0-89.43652-40.12109-89.43652-89.43751
			c0-49.31543,40.12109-89.43652,89.43652-89.43652s89.43652,40.12109,89.43652,89.43652
			C180.09846,139.83876,139.97737,179.95985,90.66195,179.95985z M90.66195,4.08582
			c-47.66114,0-86.43652,38.77539-86.43652,86.43652c0,47.66212,38.77539,86.43751,86.43652,86.43751
			s86.43652-38.77539,86.43652-86.43751C177.09846,42.86121,138.32307,4.08582,90.66195,4.08582z"/>
	</g>
	<g>
		<g id="eye-icon_1_">
			<path fill="#E73C4D" d="M90.29574,127.73133c-32.52295,0-54.06299-31.02637-54.96436-32.34668l-0.58984-0.86523l0.60791-0.85156
				c0.20361-0.28516,20.72852-28.50098,54.94629-28.50098c34.7915,0,54.63329,28.23633,54.82958,28.52148l0.54736,0.79492
				l-0.49658,0.82715C144.98177,95.63465,125.31918,127.73133,90.29574,127.73133z M38.44124,94.56434
				c3.75537,5.03906,23.89502,30.16699,51.8545,30.16699c30.22803,0,48.48534-25.19336,51.77197-30.13184
				c-3.43994-4.48242-21.82714-26.43262-51.77197-26.43262C60.95491,68.16688,42.097,89.95887,38.44124,94.56434z
				 M90.7513,118.78797c-12.31738,0-22.33838-10.02148-22.33838-22.33887s10.021-22.33887,22.33838-22.33887
				c12.31787,0,22.33887,10.02148,22.33887,22.33887S103.06918,118.78797,90.7513,118.78797z M90.7513,77.11024
				c-10.66309,0-19.33838,8.67578-19.33838,19.33887s8.67529,19.33887,19.33838,19.33887
				c10.66357,0,19.33887-8.67578,19.33887-19.33887S101.41488,77.11024,90.7513,77.11024z M90.7513,106.74012
				c-5.67432,0-10.29102-4.61621-10.29102-10.29102s4.6167-10.29199,10.29102-10.29199c5.6748,0,10.2915,4.61719,10.2915,10.29199
				S96.42611,106.74012,90.7513,106.74012z M90.7513,89.15711c-4.02051,0-7.29102,3.27148-7.29102,7.29199
				s3.27051,7.29102,7.29102,7.29102s7.2915-3.27051,7.2915-7.29102S94.77181,89.15711,90.7513,89.15711z"/>
		</g>
		<g>
			<rect x="89.05062" y="46.10047" fill="#E73C4D" width="3" height="13.02441"/>
		</g>
		<g>
			
				<rect x="111.12689" y="56.58275" transform="matrix(0.43814 -0.89891 0.89891 0.43814 13.88521 138.38045)" fill="#E73C4D" width="13.02347" height="3.00029"/>
		</g>
		<g>
			
				<rect x="134.13333" y="70.08061" transform="matrix(0.70711 -0.70711 0.70711 0.70711 -9.42089 120.41688)" fill="#E73C4D" width="13.02451" height="2.99968"/>
		</g>
		<g>
			
				<rect x="62.62434" y="51.31052" transform="matrix(0.89894 -0.43807 0.43807 0.89894 -18.85006 33.93482)" fill="#E73C4D" width="3.0005" height="13.02424"/>
		</g>
		<g>
			
				<rect x="39.61792" y="64.28695" transform="matrix(0.70713 -0.70709 0.70709 0.70713 -38.01893 49.80915)" fill="#E73C4D" width="2.99968" height="13.02451"/>
		</g>
	</g>
</g>
<g id="grille_page_entiere" display="none">
</g>
</svg>
