<?xml version="1.0" encoding="utf-8"?>
<!-- Generator: Adobe Illustrator 26.0.1, SVG Export Plug-In . SVG Version: 6.00 Build 0)  -->
<svg version="1.1" id="Calque_1" xmlns="http://www.w3.org/2000/svg" xmlns:xlink="http://www.w3.org/1999/xlink" x="0px" y="0px"
	 viewBox="0 0 181.3 181" style="enable-background:new 0 0 181.3 181;" xml:space="preserve">
<style type="text/css">
	.st0{fill:#F03436;}
	.st1{display:none;}
</style>
<g id="Calque_1_00000145762683112365923430000010451284016878989445_">
	<g>
		<path class="st0" d="M90.7,180c-49.3,0-89.4-40.1-89.4-89.4c0-49.3,40.1-89.4,89.4-89.4s89.4,40.1,89.4,89.4
			C180.1,139.8,140,180,90.7,180z M90.7,4.1C43,4.1,4.2,42.9,4.2,90.5C4.2,138.2,43,177,90.7,177s86.4-38.8,86.4-86.4
			C177.1,42.9,138.3,4.1,90.7,4.1z"/>
	</g>
	<g>
		<g id="eye-icon_1_">
			<path class="st0" d="M90.3,127.7c-32.5,0-54.1-31-55-32.3l-0.6-0.9l0.6-0.9c0.2-0.3,20.7-28.5,54.9-28.5
				c34.8,0,54.6,28.2,54.8,28.5l0.5,0.8l-0.5,0.8C145,95.6,125.3,127.7,90.3,127.7z M38.4,94.6c3.8,5,23.9,30.2,51.9,30.2
				c30.2,0,48.5-25.2,51.8-30.1c-3.4-4.5-21.8-26.4-51.8-26.4C61,68.2,42.1,90,38.4,94.6z M90.8,118.8c-12.3,0-22.3-10-22.3-22.3
				s10-22.3,22.3-22.3c12.3,0,22.3,10,22.3,22.3S103.1,118.8,90.8,118.8z M90.8,77.1c-10.7,0-19.3,8.7-19.3,19.3s8.7,19.3,19.3,19.3
				c10.7,0,19.3-8.7,19.3-19.3S101.4,77.1,90.8,77.1z M90.8,106.7c-5.7,0-10.3-4.6-10.3-10.3s4.6-10.3,10.3-10.3
				c5.7,0,10.3,4.6,10.3,10.3S96.4,106.7,90.8,106.7z M90.8,89.2c-4,0-7.3,3.3-7.3,7.3s3.3,7.3,7.3,7.3s7.3-3.3,7.3-7.3
				S94.8,89.2,90.8,89.2z"/>
		</g>
		<g>
			<rect x="89.1" y="46.1" class="st0" width="3" height="13"/>
		</g>
		<g>
			<rect x="111.1" y="56.6" transform="matrix(0.4381 -0.8989 0.8989 0.4381 13.886 138.3805)" class="st0" width="13" height="3"/>
		</g>
		<g>
			
				<rect x="134.1" y="70.1" transform="matrix(0.7071 -0.7071 0.7071 0.7071 -9.4205 120.4173)" class="st0" width="13" height="3"/>
		</g>
		<g>
			<rect x="62.6" y="51.3" transform="matrix(0.8989 -0.4381 0.4381 0.8989 -18.8501 33.9346)" class="st0" width="3" height="13"/>
		</g>
		<g>
			<rect x="39.6" y="64.3" transform="matrix(0.7071 -0.7071 0.7071 0.7071 -38.019 49.8093)" class="st0" width="3" height="13"/>
		</g>
	</g>
</g>
<g id="grille_page_entiere" class="st1">
</g>
</svg>
