<?xml version="1.0" encoding="utf-8"?>
<!-- Generator: Adobe Illustrator 22.0.1, SVG Export Plug-In . SVG Version: 6.00 Build 0)  -->
<svg version="1.1" xmlns="http://www.w3.org/2000/svg" xmlns:xlink="http://www.w3.org/1999/xlink" x="0px" y="0px"
	 viewBox="0 0 146.45038 55.96013" enable-background="new 0 0 146.45038 55.96013" xml:space="preserve">
<g id="Calque_1">
	<g id="Calque_1_5_">
		<g>
			<path fill="#E73C4D" d="M119.76713,55.84503v-4.10344c0-0.50249-0.10754-0.87936-0.32228-1.1306
				c-0.21507-0.25124-0.54886-0.37687-1.00169-0.37687c-0.59457,0-1.03392,0.17067-1.31773,0.51202
				c-0.28413,0.34135-0.42587,0.86719-0.42587,1.57686v3.52203h-0.95532v-4.10344c0-0.50249-0.10754-0.87936-0.32227-1.1306
				c-0.21507-0.25124-0.55051-0.37687-1.00729-0.37687c-0.59851,0-1.03687,0.17923-1.31476,0.53801
				c-0.27821,0.35878-0.41731,0.94644-0.41731,1.76397v3.30893h-0.95532V49.5376h0.77675l0.15555,0.86324h0.04604
				c0.18021-0.30682,0.43442-0.54656,0.76261-0.7192c0.32787-0.17265,0.6952-0.25914,1.10199-0.25914
				c0.98591,0,1.63046,0.35681,1.93367,1.07042h0.04604c0.18777-0.32984,0.4604-0.59062,0.81721-0.78267
				c0.3568-0.19172,0.76327-0.28775,1.22005-0.28775c0.71362,0,1.24767,0.1835,1.60284,0.54952
				c0.35484,0.36667,0.53209,0.95236,0.53209,1.75838v4.11462H119.76713z"/>
			<path fill="#E73C4D" d="M125.944,55.96013c-0.93198,0-1.66795-0.2838-2.20694-0.85173
				c-0.53899-0.5676-0.80865-1.35619-0.80865-2.36512c0-1.01682,0.25059-1.82449,0.7511-2.423
				c0.50085-0.59851,1.17303-0.89777,2.0172-0.89777c0.79024,0,1.41572,0.26012,1.87611,0.77972
				c0.4604,0.52025,0.6906,1.20591,0.6906,2.05764v0.60411h-4.34515c0.0194,0.74058,0.20619,1.30259,0.56136,1.68604
				c0.35483,0.38377,0.85469,0.5755,1.49924,0.5755c0.67876,0,1.35027-0.14174,2.0139-0.42554v0.85173
				c-0.3374,0.14568-0.65705,0.25026-0.95795,0.3134C126.73358,55.92856,126.37019,55.96013,125.944,55.96013z M125.68519,50.22261
				c-0.50643,0-0.91026,0.16508-1.21149,0.49492c-0.30123,0.32984-0.47849,0.78629-0.53242,1.36935h3.29775
				c0-0.60213-0.1345-1.06351-0.40285-1.38382C126.5675,50.38276,126.18373,50.22261,125.68519,50.22261z"/>
			<path fill="#E73C4D" d="M134.77473,54.99921h-0.05164c-0.44133,0.64061-1.10133,0.96091-1.97971,0.96091
				c-0.82509,0-1.46669-0.28216-1.92511-0.84581c-0.45876-0.56432-0.68797-1.36606-0.68797-2.4059
				c0-1.03951,0.23021-1.84718,0.6906-2.42267c0.4604-0.57549,1.10133-0.86324,1.92249-0.86324
				c0.85535,0,1.51141,0.31077,1.96786,0.9323h0.07498l-0.04012-0.45448l-0.02303-0.44329v-2.56671h0.95499v8.9547h-0.77675
				L134.77473,54.99921z M132.86409,55.16035c0.65211,0,1.125-0.17758,1.41867-0.53241
				c0.29333-0.35484,0.44034-0.92737,0.44034-1.71794v-0.20159c0-0.89383-0.14897-1.53148-0.44626-1.91328
				c-0.29729-0.3818-0.77214-0.57253-1.42427-0.57253c-0.56036,0-0.98886,0.2177-1.28615,0.6531
				c-0.29761,0.4354-0.44626,1.05003-0.44626,1.84454c0,0.80569,0.14766,1.41375,0.4433,1.82416
				C131.85878,54.95515,132.29221,55.16035,132.86409,55.16035z"/>
			<path fill="#E73C4D" d="M138.21257,47.82854c0-0.21869,0.0536-0.37884,0.16115-0.48079
				c0.10719-0.10129,0.2417-0.15226,0.40285-0.15226c0.15324,0,0.28577,0.05163,0.39725,0.15522
				c0.11116,0.10359,0.16673,0.26308,0.16673,0.47783s-0.05557,0.37489-0.16673,0.48046
				c-0.11148,0.10556-0.244,0.15818-0.39725,0.15818c-0.16115,0-0.29565-0.05262-0.40285-0.15818
				C138.26617,48.20344,138.21257,48.04329,138.21257,47.82854z M139.24846,55.84503h-0.95532V49.5376h0.95532V55.84503z"/>
			<path fill="#E73C4D" d="M145.74236,55.84503l-0.18976-0.89777h-0.04604c-0.31471,0.39528-0.62843,0.66297-0.94118,0.80273
				c-0.31274,0.14009-0.70309,0.21014-1.17105,0.21014c-0.62549,0-1.11548-0.16114-1.47031-0.48342
				c-0.35516-0.32228-0.53242-0.7807-0.53242-1.37527c0-1.27398,1.01846-1.94156,3.05605-2.00272l1.0701-0.03486v-0.39134
				c0-0.49459-0.10622-0.86028-0.31932-1.09607c-0.21277-0.23612-0.55347-0.35385-1.02142-0.35385
				c-0.52583,0-1.12041,0.16114-1.78403,0.48341l-0.29333-0.73104c0.31042-0.1687,0.65112-0.3009,1.02141-0.39693
				c0.36996-0.09602,0.74124-0.14404,1.11351-0.14404c0.75175,0,1.30917,0.16706,1.67189,0.50084
				c0.3624,0.33379,0.54393,0.86884,0.54393,1.60547v4.3047H145.74236z M143.58408,55.17154
				c0.59491,0,1.06187-0.16278,1.40158-0.48901c0.33939-0.32589,0.50906-0.78267,0.50906-1.36968v-0.56958l-0.95499,0.04012
				c-0.75966,0.02697-1.30753,0.14503-1.64328,0.35385c-0.33577,0.20915-0.50348,0.53439-0.50348,0.97538
				c0,0.34529,0.10457,0.60838,0.31372,0.78859C142.91553,55.08176,143.20821,55.17154,143.58408,55.17154z"/>
		</g>
		<g>
			<polygon fill="#E73C4D" points="12.52574,44.31135 1.79305,44.31135 1.79305,1.79301 12.52574,1.79301 12.52574,0 1.79305,0 0,0 
				0,1.79301 0,44.31135 0,46.1044 1.79305,46.1044 12.52574,46.1044 			"/>
			<polygon fill="#E73C4D" points="44.31135,0 33.58492,0 33.58492,1.79301 44.31135,1.79301 44.31135,44.31135 33.58492,44.31135 
				33.58492,46.1044 44.31135,46.1044 46.1044,46.1044 46.1044,44.31135 46.1044,1.79301 46.1044,0 			"/>
		</g>
		<path fill="#E73C4D" d="M22.94062,15.18062l6.94572,16.5423l-6.13683-3.10218l-0.80888-0.4089l-0.80893,0.4089l-6.13674,3.10217
			L22.94062,15.18062 M22.94062,10.54907l-10.48517,24.9722l10.48517-5.30033l10.48522,5.30033L22.94062,10.54907L22.94062,10.54907
			z"/>
		<g>
			<path fill="#FFFFFF" d="M59.09565,2.01757v41.92747h-2.36855V2.01757H59.09565z M60.70139,29.99546h0.02624l8.1064-14.00207
				h2.7636l-8.05392,14.00207l9.13304,13.94958h-2.68452L60.70139,29.99546z"/>
			<path fill="#FFFFFF" d="M83.57477,44.41882c-3.87177,0-8.26456-5.1325-8.26456-14.4496
				c0-9.31745,4.15765-14.47585,8.26456-14.47585c4.10587,0,8.26422,5.1584,8.26422,14.47585
				C91.83899,39.28632,87.52283,44.41882,83.57477,44.41882z M83.57477,42.04992c3.21638,0,5.73785-4.60589,5.73785-12.0807
				s-2.52707-12.1073-5.73785-12.1073c-3.32311,0-5.73785,4.63248-5.73785,12.1073S80.51234,42.04992,83.57477,42.04992z"/>
			<path fill="#FFFFFF" d="M94.47277,43.94504l12.05445-25.74091H96.23598v-2.21074h13.89709L98.05202,41.7343h11.68634v2.21074
				H94.47277z"/>
			<path fill="#FFFFFF" d="M128.18956,30.65365l-12.89669-0.02659l0.13156,1.28977
				c0.60535,6.42193,3.9743,10.13309,7.34325,10.13309c1.36886,0,2.68487-0.42094,3.71117-0.92097l0.78975,2.07918
				c-1.42135,0.68443-3.31647,1.21069-5.05342,1.21069c-5.10627,0-9.44902-6.36944-9.44902-15.29184
				c0-9.15929,4.57964-13.63361,8.9224-13.63361C127.08488,15.49337,129.45309,22.04687,128.18956,30.65365z M121.58322,17.86193
				c-3.52676,0-5.68501,3.47428-6.13255,9.1068l-0.10498,1.44758h10.63313l0.13156-1.86888
				C126.32103,21.04682,124.6628,17.86193,121.58322,17.86193z"/>
			<path fill="#FFFFFF" d="M131.61275,35.07513c0-4.84278,3.68492-8.94864,11.15973-9.3171l1.13161-0.05284
				c-0.05247-5.81658-2.10541-7.84327-5.55344-7.84327c-1.28978,0-2.89517,0.65819-4.07962,1.21069l-0.81599-2.39514
				c1.81639-0.71067,4.00089-1.1841,5.47472-1.1841c4.369,0,7.34325,2.89517,7.34325,8.34329v19.79241l-2.52672-1.1841
				l-0.5791,0.47343c-1.10538,0.89507-2.52672,1.42134-4.13211,1.42134C135.00793,44.33974,131.61275,40.62893,131.61275,35.07513z
				 M143.90408,39.9445V28.12694h-1.15785c-4.79028,0-8.60678,1.76285-8.60678,7.55354c0,3.94806,2.31607,6.29071,5.44814,6.29071
				C141.39941,41.97119,142.82217,41.02643,143.90408,39.9445z"/>
		</g>
	</g>
</g>
<g id="grille_page_entiere" display="none">
	<g display="inline">
		<rect x="35.47053" y="-471.86319" opacity="0.23" fill="#FF00FF" width="74.64307" height="3705.06226"/>
	</g>
</g>
<g id="grille" display="none">
</g>
</svg>
