<?xml version="1.0" encoding="utf-8"?>
<!-- Generator: Adobe Illustrator 22.0.1, SVG Export Plug-In . SVG Version: 6.00 Build 0)  -->
<svg version="1.1" xmlns="http://www.w3.org/2000/svg" xmlns:xlink="http://www.w3.org/1999/xlink" x="0px" y="0px"
	 viewBox="0 0 195.43002 74.86939" enable-background="new 0 0 195.43002 74.86939" xml:space="preserve">
<g id="Calque_1">
	<g id="Calque_1_4_">
		<g>
			<path fill="#FFFFFF" d="M159.78136,74.55979v-5.46711c0-0.66948-0.14328-1.17159-0.42938-1.50632
				c-0.28654-0.33474-0.73125-0.50211-1.33456-0.50211c-0.79216,0-1.37752,0.22739-1.75563,0.68218
				c-0.37856,0.45479-0.5674,1.15537-0.5674,2.10088v4.69247h-1.2728v-5.46711c0-0.66948-0.14326-1.17159-0.42937-1.50632
				c-0.28654-0.33474-0.73346-0.50211-1.34203-0.50211c-0.79742,0-1.38145,0.23878-1.75169,0.7168
				c-0.37065,0.47801-0.55598,1.26096-0.55598,2.35018v4.40856h-1.2728v-8.40352h1.03488l0.20724,1.15012h0.06133
				c0.24011-0.40878,0.5788-0.72819,1.01605-0.95821c0.43683-0.23003,0.92622-0.34525,1.46822-0.34525
				c1.31354,0,2.17229,0.47538,2.57625,1.42615h0.06134c0.25018-0.43946,0.6134-0.7869,1.08879-1.04278
				c0.47537-0.25543,1.01692-0.38337,1.62549-0.38337c0.95078,0,1.66231,0.24448,2.1355,0.73213
				c0.47275,0.48853,0.70891,1.26885,0.70891,2.34274v5.482H159.78136z"/>
			<path fill="#FFFFFF" d="M168.01094,74.71314c-1.2417,0-2.22224-0.37811-2.94035-1.13478
				c-0.71812-0.75623-1.07739-1.80689-1.07739-3.15111c0-1.35473,0.33386-2.43079,1.00072-3.22821
				c0.66728-0.79742,1.56284-1.19612,2.68755-1.19612c1.05284,0,1.88618,0.34657,2.49959,1.03883
				c0.61339,0.69314,0.92009,1.60666,0.92009,2.74145v0.80486H165.312c0.02585,0.98669,0.27472,1.73547,0.74791,2.24634
				c0.47275,0.51131,1.13872,0.76675,1.99747,0.76675c0.90433,0,1.79901-0.18884,2.68318-0.56696v1.13479
				c-0.44954,0.19409-0.87541,0.33342-1.27631,0.41754C169.06291,74.67108,168.57877,74.71314,168.01094,74.71314z
				 M167.66612,67.06892c-0.67474,0-1.21277,0.21995-1.61411,0.6594s-0.6375,1.04759-0.70935,1.82441h4.39366
				c0-0.80223-0.1792-1.41694-0.53671-1.84369C168.84164,67.28229,168.33034,67.06892,167.66612,67.06892z"/>
			<path fill="#FFFFFF" d="M179.77631,73.4329h-0.06879c-0.58798,0.85349-1.46733,1.28024-2.6376,1.28024
				c-1.09929,0-1.9541-0.37592-2.56487-1.1269c-0.61121-0.75185-0.9166-1.82003-0.9166-3.20543
				c0-1.38496,0.3067-2.46103,0.92009-3.22778c0.6134-0.76675,1.46733-1.15012,2.56137-1.15012
				c1.1396,0,2.01369,0.41404,2.62183,1.24213h0.0999l-0.05345-0.60551l-0.03067-0.59061v-3.41969h1.27235v11.93055h-1.03488
				L179.77631,73.4329z M177.23071,73.64758c0.86884,0,1.49889-0.2366,1.89014-0.70934
				c0.39082-0.47276,0.58667-1.23556,0.58667-2.28885v-0.26858c0-1.19086-0.19847-2.04041-0.59456-2.5491
				c-0.39607-0.50868-1.02875-0.7628-1.89758-0.7628c-0.74658,0-1.31749,0.29005-1.71356,0.87015
				c-0.39651,0.58009-0.59456,1.39898-0.59456,2.45753c0,1.07344,0.19673,1.88356,0.59062,2.43036
				C175.89133,73.37418,176.4688,73.64758,177.23071,73.64758z"/>
			<path fill="#FFFFFF" d="M184.35663,63.87926c0-0.29136,0.07141-0.50474,0.21468-0.64056
				c0.14284-0.13495,0.32204-0.20286,0.53673-0.20286c0.20418,0,0.38074,0.06879,0.52927,0.2068
				c0.1481,0.13802,0.22214,0.35051,0.22214,0.63662c0,0.2861-0.07404,0.49948-0.22214,0.64012
				c-0.14853,0.14064-0.32509,0.21075-0.52927,0.21075c-0.21469,0-0.39389-0.07011-0.53673-0.21075
				C184.42804,64.37874,184.35663,64.16536,184.35663,63.87926z M185.73677,74.55979h-1.2728v-8.40352h1.2728V74.55979z"/>
			<path fill="#FFFFFF" d="M194.38872,74.55979l-0.25281-1.19612h-0.06134c-0.4193,0.52664-0.8373,0.88329-1.25397,1.0695
				c-0.41666,0.18665-0.93674,0.27997-1.56021,0.27997c-0.83334,0-1.48618-0.21469-1.95892-0.64407
				c-0.47319-0.42937-0.70935-1.04015-0.70935-1.8323c0-1.69736,1.35692-2.58678,4.07164-2.66827l1.4257-0.04645v-0.52139
				c0-0.65896-0.14153-1.14617-0.42543-1.46032c-0.28348-0.31458-0.7374-0.47144-1.36087-0.47144
				c-0.70058,0-1.49274,0.21468-2.37691,0.64407l-0.39082-0.97398c0.4136-0.22477,0.86752-0.4009,1.36087-0.52884
				c0.4929-0.12794,0.98756-0.1919,1.48354-0.1919c1.00159,0,1.74423,0.22257,2.22751,0.66728
				c0.48283,0.44472,0.72469,1.15757,0.72469,2.139v5.73525H194.38872z M191.5132,73.66248
				c0.7926,0,1.41475-0.21688,1.86736-0.65151c0.45216-0.4342,0.67824-1.04278,0.67824-1.82485v-0.75887l-1.27235,0.05346
				c-1.0121,0.03593-1.74205,0.19321-2.18939,0.47144c-0.44734,0.27866-0.67079,0.71198-0.67079,1.29952
				c0,0.46004,0.13933,0.81056,0.41798,1.05066C190.62247,73.54287,191.01241,73.66248,191.5132,73.66248z"/>
		</g>
		<g>
			<polygon fill="#FFFFFF" points="16.90133,59.19322 2.60194,59.19322 2.60194,2.54511 16.90133,2.54511 16.90133,0.15625 
				2.60194,0.15625 0.21302,0.15625 0.21302,2.54511 0.21302,59.19322 0.21302,61.58214 2.60194,61.58214 16.90133,61.58214 			"/>
			<polygon fill="#FFFFFF" points="59.24999,0.15625 44.95893,0.15625 44.95893,2.54511 59.24999,2.54511 59.24999,59.19322 
				44.95893,59.19322 44.95893,61.58214 59.24999,61.58214 61.63892,61.58214 61.63892,59.19322 61.63892,2.54511 61.63892,0.15625 
							"/>
		</g>
		<path fill="#FFFFFF" d="M30.77731,20.38173l9.25393,22.03966l-8.17624-4.1331l-1.07769-0.54478l-1.07776,0.54478l-8.17612,4.13309
			L30.77731,20.38173 M30.77731,14.211L16.80769,47.48201l13.96962-7.06174l13.96968,7.06174L30.77731,14.211L30.77731,14.211z"/>
		<g>
			<path fill="#FFFFFF" d="M78.94743,2.84431v55.86087h-3.15567V2.84431H78.94743z M81.0868,40.11986h0.03496L91.9221,21.4646h3.682
				L84.8737,40.11986l12.16815,18.58532H93.4652L81.0868,40.11986z"/>
			<path fill="#FFFFFF" d="M111.56149,59.33641c-5.15845,0-11.01106-6.83814-11.01106-19.25152
				c0-12.41384,5.53933-19.28649,11.01106-19.28649c5.47033,0,11.0106,6.87264,11.0106,19.28649
				C122.57209,52.49826,116.82157,59.33641,111.56149,59.33641z M111.56149,56.18027c4.28526,0,7.64467-6.13652,7.64467-16.09538
				s-3.36687-16.13081-7.64467-16.13081c-4.42745,0-7.64467,6.17196-7.64467,16.13081S107.48135,56.18027,111.56149,56.18027z"/>
			<path fill="#FFFFFF" d="M126.08114,58.70518l16.0604-34.29517H128.4303V21.4646h18.5154l-16.09586,34.29517h15.56998v2.94542
				H126.08114z"/>
			<path fill="#FFFFFF" d="M171.00275,40.99677l-17.18254-0.03543l0.17528,1.7184
				c0.80652,8.55608,5.29504,13.50053,9.78357,13.50053c1.82376,0,3.57712-0.56083,4.94446-1.22702l1.05222,2.77013
				c-1.89369,0.91188-4.41861,1.61303-6.73279,1.61303c-6.80319,0-12.58913-8.48615-12.58913-20.37365
				c0-12.20312,6.10155-18.16435,11.8875-18.16435C169.53096,20.7984,172.68617,29.52977,171.00275,40.99677z M162.20099,23.95408
				c-4.69878,0-7.57428,4.62885-8.17053,12.13319l-0.13986,1.92865h14.16673l0.17528-2.48994
				C168.51326,28.19739,166.30396,23.95408,162.20099,23.95408z"/>
			<path fill="#FFFFFF" d="M175.56352,46.88761c0-6.45214,4.90952-11.92247,14.86836-12.41337l1.50766-0.0704
				c-0.06992-7.74956-2.80508-10.44976-7.39897-10.44976c-1.71838,0-3.85728,0.87691-5.43536,1.61303l-1.08717-3.1911
				c2.42003-0.94684,5.33047-1.57761,7.29408-1.57761c5.82092,0,9.78357,3.8573,9.78357,11.11595V58.2842l-3.36639-1.57761
				l-0.77155,0.63076c-1.47272,1.19253-3.36639,1.89368-5.50529,1.89368C180.08702,59.23105,175.56352,54.28705,175.56352,46.88761z
				 M191.93954,53.37518v-15.7448h-1.54263c-6.3822,0-11.467,2.34869-11.467,10.06375c0,5.26008,3.08575,8.38125,7.25867,8.38125
				C188.60252,56.07537,190.49808,54.81665,191.93954,53.37518z"/>
		</g>
	</g>
</g>
<g id="grille_page_entiere" display="none">
</g>
<g id="grille" display="none">
</g>
</svg>
