<svg xmlns="http://www.w3.org/2000/svg" xmlns:xlink="http://www.w3.org/1999/xlink" id="Calque_1" x="0" y="0" version="1.1" viewBox="0 0 212 38.7" xml:space="preserve" style="enable-background:new 0 0 212 38.7"><style type="text/css">.st0{display:none}.st1{display:inline}.st2{opacity:.23;fill:#f0f;enable-background:new}.st3{fill:url(#SVGID_1_)}.st4{fill:#fff}</style><g id="grille_page_entiere" class="st0"><g class="st1"><rect width="74.6" height="3705.1" x="35.5" y="-480.2" class="st2"/></g></g><linearGradient id="SVGID_1_" x1="-11.661" x2="30.979" y1="-3.231" y2="42.94" gradientUnits="userSpaceOnUse"><stop offset="0" style="stop-color:#f03436"/><stop offset="1" style="stop-color:#ff3943"/></linearGradient><path d="M32.1,33.8L18.3,3.1c-0.4-0.9-1.3-1.4-2.1-1.4c-0.9,0-1.7,0.5-2.1,1.4L0.2,33.8C-0.5,35.4,0.7,37,2.3,37	c0.3,0,0.6-0.1,0.9-0.2l12.1-4.7c0.3-0.1,0.6-0.2,0.8-0.2s0.6,0.1,0.8,0.2l12.1,4.7C29.4,37,29.7,37,30,37	C31.6,37,32.8,35.4,32.1,33.8z M17.9,29.8c-0.6-0.2-1.2-0.3-1.8-0.3c-0.6,0-1.2,0.1-1.8,0.3L2.7,34.3L16.2,4.6l13.4,29.7L17.9,29.8z" class="st3"/><g><path d="M44.9,30.5V7.9h4v22.5H44.9z M48.5,25.2l0-4.8h0.6l6.1-6.8h4.7l-7.5,8.3h-0.8L48.5,25.2z M55.5,30.5L50,22.8 l2.7-2.8l7.6,10.5H55.5z" class="st4"/><path d="M67.7,30.8c-1.7,0-3.1-0.4-4.3-1.1s-2.1-1.7-2.8-3c-0.7-1.3-1-2.8-1-4.6c0-1.7,0.3-3.3,1-4.6 c0.7-1.3,1.6-2.3,2.8-3.1s2.6-1.1,4.3-1.1s3.1,0.4,4.3,1.1s2.1,1.7,2.8,3.1c0.7,1.3,1,2.8,1,4.6c0,1.7-0.3,3.3-1,4.6 c-0.7,1.3-1.6,2.3-2.8,3S69.3,30.8,67.7,30.8z M67.7,27.6c0.9,0,1.6-0.2,2.2-0.7c0.6-0.5,1.1-1.2,1.3-2s0.4-1.8,0.4-2.8 c0-1-0.1-2-0.4-2.8c-0.3-0.8-0.7-1.5-1.3-2c-0.6-0.5-1.4-0.7-2.2-0.7c-0.9,0-1.7,0.2-2.3,0.7c-0.6,0.5-1.1,1.2-1.4,2 c-0.3,0.8-0.4,1.8-0.4,2.8c0,1,0.1,2,0.4,2.8c0.3,0.8,0.7,1.5,1.4,2S66.8,27.6,67.7,27.6z" class="st4"/><path d="M77.4,30.5V28L86.1,17v-0.1h-8.4v-3.3h13.3v2.7L82.6,27v0.1h8.6v3.3H77.4z" class="st4"/><path d="M100.4,30.8c-1.7,0-3.2-0.4-4.4-1.1c-1.2-0.7-2.2-1.7-2.8-3c-0.7-1.3-1-2.8-1-4.6c0-1.7,0.3-3.3,1-4.6 c0.7-1.3,1.6-2.3,2.8-3.1c1.2-0.7,2.6-1.1,4.2-1.1c1,0,2,0.2,3,0.5c0.9,0.3,1.8,0.8,2.5,1.5c0.7,0.7,1.3,1.6,1.7,2.7 s0.6,2.4,0.6,3.8v1.2H94.1v-2.7h10c0-0.8-0.2-1.4-0.5-2s-0.8-1.1-1.3-1.4c-0.6-0.3-1.2-0.5-2-0.5c-0.8,0-1.5,0.2-2.1,0.6 c-0.6,0.4-1.1,0.9-1.4,1.5s-0.5,1.3-0.5,2.1V23c0,1,0.2,1.8,0.5,2.5c0.4,0.7,0.9,1.2,1.5,1.6c0.6,0.4,1.4,0.6,2.3,0.6 c0.6,0,1.1-0.1,1.6-0.2s0.9-0.4,1.2-0.7c0.3-0.3,0.6-0.7,0.8-1.2l3.7,0.4c-0.2,1-0.7,1.8-1.3,2.6s-1.5,1.3-2.5,1.7 C102.9,30.6,101.8,30.8,100.4,30.8z" class="st4"/><path d="M114.6,30.8c-1.1,0-2-0.2-2.9-0.6c-0.9-0.4-1.5-1-2-1.7s-0.7-1.7-0.7-2.8c0-1,0.2-1.7,0.5-2.4 c0.4-0.6,0.8-1.1,1.4-1.5c0.6-0.4,1.3-0.7,2.1-0.9s1.6-0.3,2.4-0.4c1-0.1,1.8-0.2,2.4-0.3c0.6-0.1,1.1-0.2,1.3-0.4 c0.3-0.2,0.4-0.5,0.4-0.8V19c0-0.8-0.2-1.5-0.7-1.9s-1.2-0.7-2.1-0.7c-1,0-1.7,0.2-2.3,0.6c-0.6,0.4-1,0.9-1.2,1.5l-3.7-0.5 c0.3-1,0.8-1.9,1.5-2.6s1.5-1.2,2.5-1.6s2.1-0.5,3.2-0.5c0.8,0,1.6,0.1,2.4,0.3c0.8,0.2,1.5,0.5,2.2,0.9c0.7,0.4,1.2,1,1.6,1.8 c0.4,0.7,0.6,1.7,0.6,2.8v11.3h-3.8v-2.3h-0.1c-0.2,0.5-0.6,0.9-1,1.3c-0.4,0.4-1,0.7-1.6,1C116.3,30.7,115.5,30.8,114.6,30.8z M115.7,27.9c0.8,0,1.5-0.2,2.1-0.5c0.6-0.3,1-0.7,1.4-1.3c0.3-0.5,0.5-1.1,0.5-1.7v-2c-0.1,0.1-0.3,0.2-0.6,0.3 c-0.3,0.1-0.6,0.2-1,0.2c-0.4,0.1-0.7,0.1-1.1,0.2c-0.4,0.1-0.7,0.1-0.9,0.1c-0.6,0.1-1.1,0.2-1.6,0.4s-0.8,0.4-1.1,0.8 c-0.3,0.3-0.4,0.7-0.4,1.3c0,0.7,0.3,1.3,0.8,1.7S114.8,27.9,115.7,27.9z" class="st4"/><path d="M133.8,30.5V13.6h1.9v2.6h0.2c0.3-0.9,0.9-1.6,1.7-2.1s1.7-0.8,2.8-0.8c1.2,0,2.1,0.3,2.9,0.8 c0.8,0.5,1.3,1.3,1.7,2.3h0.1c0.4-0.9,1-1.7,1.9-2.2c0.9-0.6,1.9-0.8,3.1-0.8c1.6,0,2.8,0.5,3.7,1.5s1.4,2.4,1.4,4.3v11.3h-2V19.2 c0-1.3-0.3-2.3-1-3s-1.6-1-2.7-1c-1.3,0-2.3,0.4-3,1.2c-0.7,0.8-1,1.8-1,3v11.1h-2V19c0-1.1-0.3-2.1-1-2.8 c-0.6-0.7-1.5-1.1-2.7-1.1c-0.8,0-1.5,0.2-2.1,0.6c-0.6,0.4-1.1,0.9-1.5,1.6s-0.5,1.5-0.5,2.3v10.8H133.8z" class="st4"/><path d="M165.6,30.8c-1.6,0-2.9-0.4-4.1-1.1s-2-1.8-2.7-3.1c-0.6-1.3-0.9-2.8-0.9-4.5c0-1.7,0.3-3.2,0.9-4.5 c0.6-1.3,1.5-2.4,2.6-3.1s2.4-1.1,3.9-1.1c0.9,0,1.8,0.2,2.7,0.5c0.9,0.3,1.6,0.8,2.3,1.5c0.7,0.7,1.2,1.5,1.6,2.6 c0.4,1,0.6,2.3,0.6,3.7v1h-13.2v-1.7h11.2c0-1.1-0.2-2.1-0.7-2.9s-1-1.6-1.8-2.1c-0.8-0.5-1.7-0.8-2.7-0.8c-1.1,0-2,0.3-2.8,0.9 s-1.5,1.3-1.9,2.3c-0.5,0.9-0.7,2-0.7,3.1v1c0,1.3,0.2,2.5,0.7,3.5c0.5,1,1.1,1.8,2,2.3c0.9,0.5,1.9,0.8,3,0.8 c0.8,0,1.5-0.1,2.1-0.4c0.6-0.2,1.1-0.6,1.5-1c0.4-0.4,0.7-0.9,0.9-1.4l1.9,0.6c-0.3,0.7-0.7,1.4-1.3,2c-0.6,0.6-1.3,1.1-2.2,1.4 C167.8,30.7,166.8,30.8,165.6,30.8z" class="st4"/><path d="M181.3,30.8c-1.4,0-2.6-0.4-3.6-1.1c-1-0.7-1.9-1.8-2.4-3.1c-0.6-1.3-0.9-2.8-0.9-4.6c0-1.7,0.3-3.3,0.9-4.6 c0.6-1.3,1.4-2.3,2.4-3.1c1-0.7,2.3-1.1,3.7-1.1c1,0,1.9,0.2,2.6,0.5c0.7,0.4,1.2,0.8,1.6,1.3c0.4,0.5,0.7,1.1,1,1.6h0.2V7.9h2 v22.5h-1.9v-3.1h-0.2c-0.2,0.5-0.6,1-1,1.6c-0.4,0.5-1,1-1.7,1.4S182.4,30.8,181.3,30.8z M181.6,29c1.1,0,2-0.3,2.8-0.9 c0.8-0.6,1.4-1.4,1.8-2.5c0.4-1.1,0.6-2.3,0.6-3.6c0-1.4-0.2-2.5-0.6-3.6c-0.4-1-1-1.9-1.8-2.4c-0.8-0.6-1.7-0.9-2.8-0.9 c-1.1,0-2.1,0.3-2.9,0.9c-0.8,0.6-1.4,1.4-1.8,2.5s-0.6,2.2-0.6,3.5c0,1.3,0.2,2.5,0.6,3.6c0.4,1.1,1,1.9,1.8,2.5 S180.5,29,181.6,29z" class="st4"/><path d="M193.7,10.7c-0.4,0-0.7-0.1-1-0.4c-0.3-0.3-0.4-0.6-0.4-1c0-0.4,0.1-0.7,0.4-1c0.3-0.3,0.6-0.4,1-0.4 c0.4,0,0.8,0.1,1,0.4c0.3,0.3,0.4,0.6,0.4,1c0,0.4-0.1,0.7-0.4,1C194.5,10.5,194.1,10.7,193.7,10.7z M192.7,30.5V13.6h2v16.9H192.7 z" class="st4"/><path d="M203.1,30.9c-1,0-2-0.2-2.8-0.6c-0.8-0.4-1.5-1-2-1.7s-0.7-1.7-0.7-2.8c0-0.8,0.2-1.5,0.5-2.1 c0.3-0.6,0.8-1,1.3-1.4c0.6-0.4,1.3-0.7,2.1-0.9c0.8-0.2,1.7-0.4,2.6-0.5c0.9-0.1,1.7-0.2,2.4-0.3c0.7-0.1,1.2-0.2,1.5-0.4 s0.5-0.5,0.5-0.9v-0.4c0-1.2-0.3-2.1-1-2.7c-0.7-0.7-1.7-1-3-1c-1.2,0-2.2,0.3-3,0.8c-0.8,0.5-1.3,1.2-1.6,1.9l-1.9-0.7 c0.4-0.9,0.9-1.7,1.6-2.2c0.7-0.6,1.4-1,2.3-1.2c0.8-0.2,1.7-0.4,2.5-0.4c0.6,0,1.3,0.1,2,0.3c0.7,0.2,1.4,0.5,2,0.9 c0.6,0.4,1.1,1,1.5,1.7c0.4,0.7,0.6,1.7,0.6,2.8v11.5h-2v-2.7h-0.1c-0.2,0.5-0.6,1-1,1.5s-1,0.9-1.7,1.2S204,30.9,203.1,30.9z M203.3,29.1c1,0,1.9-0.2,2.7-0.7c0.8-0.5,1.4-1.1,1.8-1.8s0.6-1.6,0.6-2.5v-2.4c-0.1,0.1-0.4,0.3-0.7,0.4 c-0.3,0.1-0.7,0.2-1.2,0.3s-0.9,0.2-1.3,0.2c-0.4,0.1-0.8,0.1-1.2,0.2c-1,0.1-1.8,0.3-2.4,0.6c-0.7,0.2-1.2,0.6-1.6,1 c-0.4,0.4-0.5,1-0.5,1.7c0,1,0.4,1.8,1.1,2.4S202.2,29.1,203.3,29.1z" class="st4"/></g></svg>