<svg xmlns="http://www.w3.org/2000/svg" xmlns:xlink="http://www.w3.org/1999/xlink" style="enable-background:new 0 0 195.4 74.9" id="Calque_1" x="0" y="0" version="1.1" viewBox="0 0 195.4 74.9" xml:space="preserve"><style type="text/css">.st1{fill:#fff}</style><g><path d="M30.1,50.7L17.4,22.4c-0.4-0.8-1.2-1.3-2-1.3c-0.8,0-1.6,0.4-2,1.3L0.7,50.7c-0.7,1.5,0.5,3,1.9,3 c0.3,0,0.5,0,0.8-0.2l11.2-4.4c0.3-0.1,0.5-0.1,0.8-0.1c0.3,0,0.5,0,0.8,0.1l11.2,4.4c0.3,0.1,0.5,0.2,0.8,0.2 C29.7,53.7,30.8,52.2,30.1,50.7z M17.1,47c-0.5-0.2-1.1-0.3-1.6-0.3c-0.6,0-1.1,0.1-1.6,0.3L3.1,51.2l12.4-27.4l12.4,27.4L17.1,47z" class="st1"/><g><path d="M41.9,47.7V26.9h3.7v20.8H41.9z M45.3,42.8l0-4.4h0.6l5.6-6.3h4.3l-6.9,7.7h-0.8L45.3,42.8z M51.7,47.7 l-5.1-7.1l2.5-2.6l7,9.7H51.7z" class="st1"/><path d="M63,48c-1.5,0-2.8-0.3-4-1c-1.1-0.7-2-1.6-2.6-2.8c-0.6-1.2-0.9-2.6-0.9-4.2c0-1.6,0.3-3,0.9-4.2 c0.6-1.2,1.5-2.2,2.6-2.8c1.1-0.7,2.4-1,4-1s2.8,0.3,4,1c1.1,0.7,2,1.6,2.6,2.8c0.6,1.2,0.9,2.6,0.9,4.2c0,1.6-0.3,3-0.9,4.2 c-0.6,1.2-1.5,2.1-2.6,2.8C65.8,47.6,64.5,48,63,48z M63,45c0.8,0,1.5-0.2,2.1-0.7c0.6-0.5,1-1.1,1.2-1.8c0.3-0.8,0.4-1.6,0.4-2.6 c0-1-0.1-1.8-0.4-2.6c-0.3-0.8-0.7-1.4-1.2-1.9c-0.6-0.5-1.2-0.7-2.1-0.7c-0.8,0-1.5,0.2-2.1,0.7c-0.6,0.5-1,1.1-1.2,1.9 c-0.3,0.8-0.4,1.6-0.4,2.6c0,0.9,0.1,1.8,0.4,2.6c0.3,0.8,0.7,1.4,1.2,1.8C61.4,44.8,62.1,45,63,45z" class="st1"/><path d="M71.9,47.7v-2.3l8-10.1v-0.1h-7.8v-3h12.3v2.5l-7.7,9.9v0.1h7.9v3H71.9z" class="st1"/><path d="M93.2,48c-1.6,0-2.9-0.3-4-1c-1.1-0.7-2-1.6-2.6-2.8c-0.6-1.2-0.9-2.6-0.9-4.3c0-1.6,0.3-3,0.9-4.2 c0.6-1.2,1.5-2.2,2.6-2.8c1.1-0.7,2.4-1,3.9-1c1,0,1.9,0.2,2.7,0.5c0.9,0.3,1.6,0.8,2.3,1.4c0.7,0.6,1.2,1.5,1.6,2.5 s0.6,2.2,0.6,3.5v1.1H87.4v-2.5h9.3c0-0.7-0.2-1.3-0.5-1.9c-0.3-0.6-0.7-1-1.2-1.3c-0.5-0.3-1.1-0.5-1.9-0.5c-0.8,0-1.4,0.2-2,0.5 c-0.6,0.4-1,0.8-1.3,1.4s-0.5,1.2-0.5,1.9v2.2c0,0.9,0.2,1.7,0.5,2.3c0.3,0.6,0.8,1.1,1.4,1.5c0.6,0.3,1.3,0.5,2.1,0.5 c0.5,0,1-0.1,1.5-0.2c0.4-0.2,0.8-0.4,1.1-0.7c0.3-0.3,0.6-0.7,0.7-1.1l3.4,0.4c-0.2,0.9-0.6,1.7-1.2,2.4 c-0.6,0.7-1.4,1.2-2.3,1.6C95.5,47.8,94.4,48,93.2,48z" class="st1"/><path d="M106.3,48c-1,0-1.9-0.2-2.7-0.5c-0.8-0.4-1.4-0.9-1.9-1.6c-0.5-0.7-0.7-1.6-0.7-2.6c0-0.9,0.2-1.6,0.5-2.2 c0.3-0.6,0.8-1,1.3-1.4c0.6-0.3,1.2-0.6,1.9-0.8c0.7-0.2,1.4-0.3,2.2-0.4c0.9-0.1,1.7-0.2,2.2-0.3c0.6-0.1,1-0.2,1.2-0.4 c0.3-0.2,0.4-0.4,0.4-0.8v-0.1c0-0.8-0.2-1.4-0.7-1.8c-0.5-0.4-1.1-0.6-2-0.6c-0.9,0-1.6,0.2-2.1,0.6c-0.5,0.4-0.9,0.9-1.1,1.4 l-3.4-0.5c0.3-0.9,0.7-1.7,1.3-2.4c0.6-0.6,1.4-1.1,2.3-1.4s1.9-0.5,3-0.5c0.8,0,1.5,0.1,2.2,0.3c0.7,0.2,1.4,0.5,2,0.9 c0.6,0.4,1.1,0.9,1.5,1.6c0.4,0.7,0.6,1.6,0.6,2.6v10.4H111v-2.1h-0.1c-0.2,0.4-0.5,0.8-0.9,1.2c-0.4,0.4-0.9,0.7-1.5,0.9 C107.8,47.9,107.1,48,106.3,48z M107.3,45.3c0.7,0,1.4-0.1,1.9-0.4c0.5-0.3,1-0.7,1.3-1.2c0.3-0.5,0.4-1,0.4-1.6v-1.8 c-0.1,0.1-0.3,0.2-0.6,0.3c-0.3,0.1-0.6,0.2-0.9,0.2c-0.3,0.1-0.7,0.1-1,0.2c-0.3,0-0.6,0.1-0.9,0.1c-0.5,0.1-1,0.2-1.5,0.4 c-0.4,0.2-0.8,0.4-1,0.7c-0.3,0.3-0.4,0.7-0.4,1.2c0,0.7,0.2,1.2,0.7,1.5C105.9,45.1,106.5,45.3,107.3,45.3z" class="st1"/><path d="M124,47.7V32.1h1.8v2.4h0.2c0.3-0.8,0.8-1.4,1.6-1.9c0.7-0.5,1.6-0.7,2.6-0.7c1.1,0,2,0.3,2.7,0.8 c0.7,0.5,1.2,1.2,1.6,2.1h0.1c0.4-0.9,0.9-1.6,1.7-2.1c0.8-0.5,1.8-0.8,2.9-0.8c1.4,0,2.6,0.5,3.4,1.4c0.8,0.9,1.3,2.2,1.3,4v10.5 h-1.8V37.2c0-1.2-0.3-2.2-0.9-2.8c-0.6-0.6-1.5-0.9-2.5-0.9c-1.2,0-2.1,0.4-2.8,1.1c-0.6,0.7-1,1.7-1,2.8v10.3h-1.8V37 c0-1.1-0.3-1.9-0.9-2.6c-0.6-0.6-1.4-1-2.5-1c-0.7,0-1.4,0.2-1.9,0.5c-0.6,0.4-1,0.8-1.4,1.5s-0.5,1.3-0.5,2.2v10H124z" class="st1"/><path d="M153.4,48c-1.5,0-2.7-0.3-3.8-1c-1.1-0.7-1.9-1.6-2.5-2.8c-0.6-1.2-0.9-2.6-0.9-4.2c0-1.6,0.3-3,0.9-4.2 c0.6-1.2,1.4-2.2,2.4-2.9c1-0.7,2.2-1,3.6-1c0.8,0,1.7,0.2,2.4,0.5c0.8,0.3,1.5,0.8,2.1,1.4c0.6,0.6,1.1,1.4,1.5,2.4 c0.4,1,0.5,2.1,0.5,3.4v0.9h-12.2v-1.6h10.3c0-1-0.2-1.9-0.6-2.7c-0.4-0.8-1-1.4-1.7-1.9c-0.7-0.5-1.5-0.7-2.5-0.7 c-1,0-1.9,0.3-2.6,0.8c-0.8,0.5-1.3,1.2-1.8,2.1c-0.4,0.9-0.6,1.8-0.6,2.8v1c0,1.2,0.2,2.3,0.6,3.2c0.4,0.9,1,1.6,1.8,2.1 c0.8,0.5,1.7,0.8,2.8,0.8c0.7,0,1.4-0.1,1.9-0.3c0.6-0.2,1-0.5,1.4-0.9c0.4-0.4,0.7-0.8,0.9-1.3l1.7,0.6c-0.2,0.7-0.6,1.3-1.2,1.8 c-0.5,0.6-1.2,1-2,1.3C155.4,47.8,154.4,48,153.4,48z" class="st1"/><path d="M167.9,48c-1.3,0-2.4-0.3-3.4-1c-1-0.7-1.7-1.6-2.3-2.8c-0.5-1.2-0.8-2.6-0.8-4.2c0-1.6,0.3-3,0.8-4.2 c0.5-1.2,1.3-2.2,2.3-2.8c1-0.7,2.1-1,3.4-1c0.9,0,1.7,0.2,2.4,0.5c0.6,0.3,1.1,0.8,1.5,1.2c0.4,0.5,0.7,1,0.9,1.4h0.2v-8.2h1.8 v20.8h-1.8v-2.9h-0.2c-0.2,0.5-0.5,1-0.9,1.5c-0.4,0.5-0.9,0.9-1.5,1.3C169.6,47.8,168.8,48,167.9,48z M168.1,46.3 c1,0,1.9-0.3,2.6-0.8c0.7-0.6,1.3-1.3,1.6-2.3c0.4-1,0.6-2.1,0.6-3.3c0-1.2-0.2-2.3-0.6-3.3c-0.4-1-0.9-1.7-1.6-2.3 c-0.7-0.5-1.6-0.8-2.6-0.8c-1,0-1.9,0.3-2.6,0.8c-0.7,0.6-1.3,1.3-1.6,2.3c-0.4,1-0.6,2-0.6,3.2c0,1.2,0.2,2.3,0.6,3.3 c0.4,1,0.9,1.7,1.6,2.3C166.2,46,167.1,46.3,168.1,46.3z" class="st1"/><path d="M179.3,29.4c-0.4,0-0.7-0.1-0.9-0.4c-0.3-0.3-0.4-0.6-0.4-0.9c0-0.4,0.1-0.7,0.4-0.9c0.3-0.3,0.6-0.4,0.9-0.4 c0.4,0,0.7,0.1,1,0.4c0.3,0.3,0.4,0.6,0.4,0.9c0,0.4-0.1,0.7-0.4,0.9C180,29.2,179.7,29.4,179.3,29.4z M178.4,47.7V32.1h1.8v15.6 H178.4z" class="st1"/><path d="M187.9,48c-0.9,0-1.8-0.2-2.6-0.6c-0.8-0.4-1.4-0.9-1.9-1.6c-0.5-0.7-0.7-1.6-0.7-2.6c0-0.8,0.1-1.4,0.4-2 c0.3-0.5,0.7-1,1.2-1.3c0.5-0.3,1.2-0.6,1.9-0.8c0.7-0.2,1.5-0.3,2.4-0.5c0.9-0.1,1.6-0.2,2.2-0.3c0.6-0.1,1.1-0.2,1.4-0.4 c0.3-0.2,0.5-0.5,0.5-0.9v-0.4c0-1.1-0.3-1.9-0.9-2.5c-0.6-0.6-1.5-0.9-2.7-0.9c-1.1,0-2,0.2-2.7,0.7c-0.7,0.5-1.2,1.1-1.5,1.7 l-1.7-0.6c0.4-0.9,0.8-1.5,1.5-2c0.6-0.5,1.3-0.9,2.1-1.1c0.8-0.2,1.6-0.3,2.3-0.3c0.6,0,1.2,0.1,1.9,0.2c0.6,0.2,1.2,0.4,1.8,0.8 c0.6,0.4,1,0.9,1.4,1.6c0.3,0.7,0.5,1.5,0.5,2.6v10.6h-1.8v-2.5h-0.1c-0.2,0.5-0.5,0.9-1,1.3c-0.4,0.4-1,0.8-1.6,1.1 S188.8,48,187.9,48z M188.2,46.4c1,0,1.8-0.2,2.5-0.6c0.7-0.4,1.2-1,1.6-1.7c0.4-0.7,0.6-1.5,0.6-2.3v-2.3 c-0.1,0.1-0.4,0.2-0.7,0.3c-0.3,0.1-0.7,0.2-1.1,0.3c-0.4,0.1-0.8,0.1-1.2,0.2c-0.4,0.1-0.8,0.1-1.1,0.1c-0.9,0.1-1.6,0.3-2.3,0.5 c-0.6,0.2-1.1,0.5-1.4,0.9c-0.3,0.4-0.5,0.9-0.5,1.5c0,0.9,0.3,1.7,1,2.2C186.3,46.1,187.2,46.4,188.2,46.4z" class="st1"/></g></g></svg>