<?xml version="1.0" encoding="utf-8"?>
<!-- Generator: Adobe Illustrator 19.2.0, SVG Export Plug-In . SVG Version: 6.00 Build 0)  -->
<svg version="1.1" id="Calque_1" xmlns="http://www.w3.org/2000/svg" xmlns:xlink="http://www.w3.org/1999/xlink" x="0px" y="0px"
	 viewBox="0 0 425.2 125.6" style="enable-background:new 0 0 425.2 125.6;" xml:space="preserve">
<style type="text/css">
	.st0{fill:#525151;}
	.st1{fill:#00A072;}
</style>
<g>
	<g>
		<polygon class="st0" points="78.6,62.2 61.8,62.2 61.8,45.3 57.8,45.3 57.8,62.2 40.9,62.2 40.9,66.2 57.8,66.2 57.8,83.1 
			61.8,83.1 61.8,66.2 78.6,66.2 		"/>
	</g>
	<path class="st0" d="M116.1,40.2c0-8.9-5.7-12.1-15.4-12.1H88.8v43.4h3V52.9h8.8C110.3,52.9,116.1,48.7,116.1,40.2z M99.9,50.3h-8
		V30.7h8c8.8,0,13.1,2.2,13.1,9.5C113,47.3,108.7,50.3,99.9,50.3z"/>
	<path class="st0" d="M145.4,51.6v19.9h2.9V51.2c0-8.2-3-12.1-9.5-12.1c-4.3,0-7.6,2.4-10.9,5.7v-7V24.2h-2.9v47.3h2.9V47.7
		c3.9-3.9,6.6-5.9,10.3-5.9C143.3,41.7,145.4,44.9,145.4,51.6z"/>
	<path class="st0" d="M157.9,63.6c0,6,4.2,8.7,9.2,8.7c4.1,0,8-2.3,11.2-4.9h0.1l0.3,4.1h2.4V51.3c0-6.8-2.5-12.2-10-12.2
		c-5.1,0-9.5,2.5-11.7,4.1l1.3,2.2c2.1-1.6,5.8-3.7,10.1-3.7c6.2,0,7.6,5.2,7.4,10C164.3,53.2,157.9,56.6,157.9,63.6z M178.3,64.6
		c-3.9,3.4-7.1,5.1-10.7,5.1s-6.6-1.8-6.6-6.3c0-5,4.4-8,17.4-9.5V64.6z"/>
	<path class="st0" d="M195.4,50c2.4-5.9,5.8-8.1,8.6-8.1c1.3,0,1.8,0.1,2.9,0.5l0.7-2.6c-1.1-0.5-2-0.7-3.2-0.7
		c-3.8,0-6.8,2.8-8.9,6.6h-0.2l-0.3-5.9h-2.5v31.6h2.9V50z"/>
	<path class="st0" d="M245.7,39.1c-3.6,0-7.1,2.5-10.7,6.4c-1.1-3.9-3.7-6.4-8.7-6.4c-3.5,0-7.1,2.4-9.9,5.7h-0.2l-0.3-4.9h-2.5
		v31.6h2.9V47.7c3.5-3.9,6.6-5.9,9.5-5.9c4.9,0,7.1,3.2,7.1,9.9v19.9h2.9V47.7c3.5-3.9,6.5-5.9,9.5-5.9c4.8,0,7,3.2,7,9.9v19.9h3
		V51.2C255.2,43,252,39.1,245.7,39.1z"/>
	<rect x="266.8" y="39.9" class="st0" width="2.9" height="31.6"/>
	<path class="st0" d="M268.3,32.3c1.4,0,2.6-1.1,2.6-2.6c0-1.6-1.2-2.6-2.6-2.6c-1.4,0-2.6,1-2.6,2.6
		C265.7,31.2,266.8,32.3,268.3,32.3z"/>
	<path class="st0" d="M295.7,39.1c-4.3,0-7.6,2.4-10.9,5.7h-0.2l-0.3-4.9h-2.5v31.6h2.9V47.7c3.9-3.9,6.6-5.9,10.3-5.9
		c5.1,0,7.2,3.2,7.2,9.9v19.9h2.9V51.2C305.2,43,302.2,39.1,295.7,39.1z"/>
	<path class="st0" d="M320.2,33c0-4.5,1.6-7.2,4.9-7.2c1.2,0,2.5,0.3,3.8,0.9l0.8-2.4c-1.4-0.7-3.2-1.1-4.6-1.1
		c-5,0-7.8,3.2-7.8,9.5v7l-4.3,0.3v2.2h4.3v29.1h2.9V42.4h7.3v-2.5h-7.3V33z"/>
	<path class="st0" d="M345,72.3c7.6,0,14.2-6.1,14.2-16.5c0-10.6-6.6-16.6-14.2-16.6c-7.6,0-14.1,6.1-14.1,16.6
		C330.9,66.2,337.4,72.3,345,72.3z M345,41.7c6.4,0,11.2,5.7,11.2,14.1c0,8.3-4.8,13.9-11.2,13.9c-6.4,0-11.1-5.7-11.1-13.9
		C333.9,47.4,338.6,41.7,345,41.7z"/>
	<path class="st0" d="M369.2,66.3c-1.4,0-2.8,1.1-2.8,3c0,1.8,1.4,3,2.8,3s2.8-1.1,2.8-3C372,67.4,370.7,66.3,369.2,66.3z"/>
	<path class="st0" d="M390.7,25.9c1.2,0,2.5,0.3,3.8,0.9l0.8-2.4c-1.4-0.7-3.2-1.1-4.6-1.1c-5,0-7.8,3.2-7.8,9.5v7l-4.3,0.3v2.2h4.3
		v29.1h2.9V42.4h7.3v-2.5h-7.3V33C385.8,28.5,387.4,25.9,390.7,25.9z"/>
	<path class="st0" d="M411.3,41.9c1.2,0,1.8,0.1,2.9,0.5l0.7-2.6c-1.1-0.5-2-0.7-3.2-0.7c-3.7,0-6.8,2.8-8.9,6.6h-0.2l-0.3-5.9h-2.5
		v31.6h2.9V50C405.1,44,408.4,41.9,411.3,41.9z"/>
	<path class="st0" d="M96.1,94c-0.6,1.8-1,3.2-1.6,4.9h-0.1c-0.6-1.8-1-3.2-1.5-4.9l-2.7-8.6H89l4.8,14.7H95l4.8-14.7h-1L96.1,94z"
		/>
	<path class="st0" d="M105.5,89.1c-2.6,0-4.8,2.1-4.8,5.7c0,3.6,2.2,5.6,4.8,5.6c2.6,0,4.8-2.1,4.8-5.6
		C110.3,91.2,108.1,89.1,105.5,89.1z M105.5,99.5c-2.2,0-3.8-1.9-3.8-4.7c0-2.8,1.6-4.8,3.8-4.8c2.2,0,3.8,1.9,3.8,4.8
		C109.3,97.6,107.7,99.5,105.5,99.5z"/>
	<path class="st0" d="M116.6,99.5c-1.5,0-1.8-0.9-1.8-2.3v-7h3.1v-0.9h-3.1v-3.1H114l-0.1,3.1l-1.7,0.1v0.8h1.7v6.9
		c0,1.9,0.6,3.2,2.7,3.2c0.4,0,1.1-0.2,1.7-0.4l-0.3-0.8C117.6,99.4,117,99.5,116.6,99.5z"/>
	<path class="st0" d="M121.5,91.4L121.5,91.4l-0.2-2h-0.8v10.7h1v-7.3c0.8-2,2-2.7,2.9-2.7c0.4,0,0.6,0,1,0.2l0.2-0.9
		c-0.4-0.2-0.7-0.2-1.1-0.2C123.3,89.1,122.3,90.1,121.5,91.4z"/>
	<path class="st0" d="M131.2,89.1c-2.4,0-4.7,2.1-4.7,5.7c0,3.5,2.2,5.6,5,5.6c1.6,0,2.5-0.5,3.4-1l-0.4-0.8c-0.8,0.6-1.7,1-2.9,1
		c-2.4,0-4-1.9-4-4.6h7.7c0-0.3,0-0.5,0-0.8C135.3,91,133.7,89.1,131.2,89.1z M127.5,94.2c0.2-2.6,1.9-4.2,3.7-4.2
		c1.9,0,3.2,1.4,3.2,4.2H127.5z"/>
	<path class="st0" d="M147.3,89.1c-1.3,0-2.6,0.8-3.6,1.6h-0.1l-0.1-1.3h-0.8V105h1v-3.9v-2c1.1,0.8,2.2,1.3,3.2,1.3
		c2.5,0,4.7-2.1,4.7-5.8C151.6,91.3,150.1,89.1,147.3,89.1z M146.8,99.5c-0.8,0-1.9-0.4-3.2-1.4v-6.4c1.3-1.1,2.4-1.8,3.5-1.8
		c2.5,0,3.4,2,3.4,4.6C150.5,97.5,149,99.5,146.8,99.5z"/>
	<path class="st0" d="M159.5,89.1c-1.5,0-2.6,0.8-3.7,1.9v-2.4v-4.6h-1v16.1h1v-8.1c1.3-1.3,2.2-2,3.5-2c1.7,0,2.5,1.1,2.5,3.4v6.7
		h1v-6.9C162.7,90.5,161.7,89.1,159.5,89.1z"/>
	<path class="st0" d="M170.5,89.1c-1.7,0-3.2,0.8-4,1.4l0.4,0.7c0.7-0.5,2-1.3,3.4-1.3c2.1,0,2.6,1.8,2.5,3.4
		c-4.8,0.5-6.9,1.7-6.9,4c0,2,1.4,2.9,3.1,2.9c1.4,0,2.7-0.8,3.8-1.7h0l0.1,1.4h0.8v-6.9C173.9,91,173,89.1,170.5,89.1z M172.9,97.8
		c-1.3,1.1-2.4,1.7-3.6,1.7c-1.2,0-2.3-0.6-2.3-2.1c0-1.7,1.5-2.7,5.9-3.2V97.8z"/>
	<path class="st0" d="M178.7,91.4L178.7,91.4l-0.2-2h-0.8v10.7h1v-7.3c0.8-2,2-2.7,2.9-2.7c0.4,0,0.6,0,1,0.2l0.2-0.9
		c-0.4-0.2-0.7-0.2-1.1-0.2C180.5,89.1,179.5,90.1,178.7,91.4z"/>
	<path class="st0" d="M195.8,89.1c-1.2,0-2.4,0.8-3.6,2.2c-0.4-1.3-1.3-2.2-3-2.2c-1.2,0-2.4,0.8-3.4,1.9h-0.1l-0.1-1.7h-0.8v10.7h1
		v-8.1c1.2-1.3,2.3-2,3.2-2c1.7,0,2.4,1.1,2.4,3.4v6.7h1v-8.1c1.2-1.3,2.2-2,3.2-2c1.6,0,2.4,1.1,2.4,3.4v6.7h1v-6.9
		C199,90.5,198,89.1,195.8,89.1z"/>
	<path class="st0" d="M206.9,89.1c-1.7,0-3.2,0.8-4,1.4l0.4,0.7c0.7-0.5,2-1.3,3.4-1.3c2.1,0,2.6,1.8,2.5,3.4
		c-4.8,0.5-6.9,1.7-6.9,4c0,2,1.4,2.9,3.1,2.9c1.4,0,2.7-0.8,3.8-1.7h0l0.1,1.4h0.8v-6.9C210.3,91,209.4,89.1,206.9,89.1z
		 M209.3,97.8c-1.3,1.1-2.4,1.7-3.6,1.7c-1.2,0-2.3-0.6-2.3-2.1c0-1.7,1.5-2.7,5.9-3.2V97.8z"/>
	<path class="st0" d="M218.1,99.5c-2.3,0-3.9-1.9-3.9-4.7c0-2.8,1.7-4.8,3.9-4.8c1,0,1.9,0.5,2.5,1.1l0.6-0.7
		c-0.7-0.7-1.7-1.3-3.2-1.3c-2.6,0-4.9,2.1-4.9,5.7c0,3.6,2.1,5.6,4.9,5.6c1.4,0,2.5-0.6,3.4-1.4l-0.5-0.7
		C220.3,99,219.3,99.5,218.1,99.5z"/>
	<rect x="224.2" y="89.4" class="st0" width="1" height="10.7"/>
	<path class="st0" d="M224.7,85.1c-0.5,0-0.9,0.3-0.9,0.9c0,0.5,0.4,0.9,0.9,0.9c0.5,0,0.9-0.4,0.9-0.9
		C225.6,85.4,225.2,85.1,224.7,85.1z"/>
	<path class="st0" d="M233,89.1c-2.4,0-4.7,2.1-4.7,5.7c0,3.5,2.2,5.6,5,5.6c1.6,0,2.5-0.5,3.4-1l-0.4-0.8c-0.8,0.6-1.7,1-2.9,1
		c-2.4,0-4-1.9-4-4.6h7.7c0-0.3,0-0.5,0-0.8C237.2,91,235.6,89.1,233,89.1z M229.4,94.2c0.2-2.6,1.9-4.2,3.7-4.2
		c1.9,0,3.2,1.4,3.2,4.2H229.4z"/>
	<path class="st0" d="M248.3,89.1c-2.4,0-4.7,2.1-4.7,5.7c0,3.5,2.2,5.6,5,5.6c1.6,0,2.5-0.5,3.4-1l-0.4-0.8c-0.8,0.6-1.7,1-2.9,1
		c-2.4,0-4-1.9-4-4.6h7.7c0-0.3,0-0.5,0-0.8C252.4,91,250.8,89.1,248.3,89.1z M244.6,94.2c0.2-2.6,1.9-4.2,3.7-4.2
		c1.9,0,3.2,1.4,3.2,4.2H244.6z"/>
	<path class="st0" d="M260,89.1c-1.5,0-2.6,0.8-3.7,1.9h-0.1l-0.1-1.7h-0.8v10.7h1v-8.1c1.3-1.3,2.2-2,3.5-2c1.7,0,2.5,1.1,2.5,3.4
		v6.7h1v-6.9C263.2,90.5,262.2,89.1,260,89.1z"/>
	<path class="st0" d="M271.2,99.5c-2.3,0-3.9-1.9-3.9-4.7c0-2.8,1.7-4.8,3.9-4.8c1,0,1.9,0.5,2.5,1.1l0.6-0.7
		c-0.7-0.7-1.7-1.3-3.2-1.3c-2.6,0-4.9,2.1-4.9,5.7c0,3.6,2.1,5.6,4.9,5.6c1.4,0,2.5-0.6,3.4-1.4l-0.5-0.7
		C273.3,99,272.4,99.5,271.2,99.5z"/>
	<path class="st0" d="M280.8,89.1c-2.6,0-4.8,2.1-4.8,5.7c0,3.6,2.2,5.6,4.8,5.6c2.6,0,4.8-2.1,4.8-5.6
		C285.6,91.2,283.3,89.1,280.8,89.1z M280.8,99.5c-2.2,0-3.8-1.9-3.8-4.7c0-2.8,1.6-4.8,3.8-4.8c2.2,0,3.8,1.9,3.8,4.8
		C284.6,97.6,282.9,99.5,280.8,99.5z"/>
	<path class="st0" d="M289.8,91.4L289.8,91.4l-0.2-2h-0.8v10.7h1v-7.3c0.8-2,2-2.7,2.9-2.7c0.4,0,0.6,0,1,0.2l0.2-0.9
		c-0.4-0.2-0.7-0.2-1.1-0.2C291.6,89.1,290.5,90.1,289.8,91.4z"/>
	<path class="st0" d="M299.4,89.1c-2.4,0-4.7,2.1-4.7,5.7c0,3.5,2.2,5.6,5,5.6c1.6,0,2.5-0.5,3.4-1l-0.4-0.8c-0.8,0.6-1.7,1-2.9,1
		c-2.4,0-4-1.9-4-4.6h7.7c0-0.3,0-0.5,0-0.8C303.5,91,302,89.1,299.4,89.1z M295.8,94.2c0.2-2.6,1.9-4.2,3.7-4.2
		c1.9,0,3.2,1.4,3.2,4.2H295.8z"/>
	<path class="st0" d="M315.5,89.1c-1.3,0-2.6,0.8-3.6,1.6h-0.1l-0.1-1.3h-0.8V105h1v-3.9v-2c1.1,0.8,2.2,1.3,3.2,1.3
		c2.5,0,4.7-2.1,4.7-5.8C319.8,91.3,318.4,89.1,315.5,89.1z M315.1,99.5c-0.8,0-1.9-0.4-3.2-1.4v-6.4c1.3-1.1,2.4-1.8,3.5-1.8
		c2.5,0,3.4,2,3.4,4.6C318.8,97.5,317.2,99.5,315.1,99.5z"/>
	<path class="st0" d="M324.5,99.5c-0.3,0-0.5-0.2-0.5-0.7V84.1h-1v14.6c0,1.2,0.4,1.7,1.3,1.7c0.3,0,0.5,0,0.7-0.1l-0.2-0.8
		C324.7,99.5,324.6,99.5,324.5,99.5z"/>
	<path class="st0" d="M335.1,97.3c-1.3,1.5-2.2,2.2-3.5,2.2c-1.7,0-2.4-1.1-2.4-3.4v-6.8h-1v6.9c0,2.8,1,4.1,3.2,4.1
		c1.5,0,2.6-0.8,3.6-2.1h0l0.1,1.8h0.8V89.4h-1V97.3z"/>
	<path class="st0" d="M342.9,94.1c-1.3-0.5-2.5-1-2.5-2.2c0-1,0.8-1.9,2.4-1.9c1.1,0,1.9,0.4,2.6,1l0.5-0.7
		c-0.8-0.6-1.9-1.1-3.1-1.1c-2.2,0-3.5,1.3-3.5,2.9c0,1.8,1.8,2.5,3.4,3.1c1.2,0.4,2.6,1,2.6,2.4c0,1.1-0.9,2.1-2.5,2.1
		c-1.5,0-2.5-0.6-3.4-1.4l-0.6,0.7c1,0.8,2.3,1.5,3.9,1.5c2.3,0,3.6-1.4,3.6-3C346.4,95.3,344.5,94.7,342.9,94.1z"/>
	<path class="st0" d="M358.3,89.1c-1.3,0-2.6,0.8-3.6,1.6h-0.1l-0.1-1.3h-0.8V105h1v-3.9v-2c1.1,0.8,2.2,1.3,3.2,1.3
		c2.5,0,4.7-2.1,4.7-5.8C362.6,91.3,361.2,89.1,358.3,89.1z M357.8,99.5c-0.8,0-1.9-0.4-3.2-1.4v-6.4c1.3-1.1,2.4-1.8,3.5-1.8
		c2.5,0,3.4,2,3.4,4.6C361.6,97.5,360,99.5,357.8,99.5z"/>
	<path class="st0" d="M366.8,91.4L366.8,91.4l-0.2-2h-0.8v10.7h1v-7.3c0.8-2,2-2.7,2.9-2.7c0.4,0,0.6,0,1,0.2l0.2-0.9
		c-0.4-0.2-0.7-0.2-1.1-0.2C368.6,89.1,367.5,90.1,366.8,91.4z"/>
	<path class="st0" d="M376.6,89.1c-2.6,0-4.8,2.1-4.8,5.7c0,3.6,2.2,5.6,4.8,5.6c2.6,0,4.8-2.1,4.8-5.6
		C381.4,91.2,379.2,89.1,376.6,89.1z M376.6,99.5c-2.2,0-3.8-1.9-3.8-4.7c0-2.8,1.6-4.8,3.8-4.8c2.2,0,3.8,1.9,3.8,4.8
		C380.4,97.6,378.8,99.5,376.6,99.5z"/>
	<path class="st0" d="M388.7,99.5c-2.3,0-3.9-1.9-3.9-4.7c0-2.8,1.7-4.8,3.9-4.8c1,0,1.9,0.5,2.5,1.1l0.6-0.7
		c-0.7-0.7-1.7-1.3-3.2-1.3c-2.6,0-4.9,2.1-4.9,5.7c0,3.6,2.1,5.6,4.9,5.6c1.4,0,2.5-0.6,3.4-1.4l-0.5-0.7
		C390.8,99,389.8,99.5,388.7,99.5z"/>
	<path class="st0" d="M399.4,89.1c-1.5,0-2.6,0.8-3.7,1.9v-2.4v-4.6h-1v16.1h1v-8.1c1.3-1.3,2.2-2,3.5-2c1.7,0,2.5,1.1,2.5,3.4v6.7
		h1v-6.9C402.6,90.5,401.6,89.1,399.4,89.1z"/>
	<path class="st0" d="M410.2,89.1c-2.4,0-4.7,2.1-4.7,5.7c0,3.5,2.2,5.6,5,5.6c1.6,0,2.5-0.5,3.4-1l-0.4-0.8c-0.8,0.6-1.7,1-2.9,1
		c-2.4,0-4-1.9-4-4.6h7.7c0-0.3,0-0.5,0-0.8C414.4,91,412.8,89.1,410.2,89.1z M406.6,94.2c0.2-2.6,1.9-4.2,3.7-4.2
		c1.9,0,3.2,1.4,3.2,4.2H406.6z"/>
	<path class="st1" d="M35.9,17.6c12.1,0,21.9,9.8,21.9,21.9h4c0-14.3-11.6-25.9-25.9-25.9S9.9,25.2,9.9,39.5v49.2
		c0,14.3,11.6,25.9,25.9,25.9S61.8,103,61.8,88.7h-4c0,12.1-9.8,21.9-21.9,21.9s-21.9-9.8-21.9-21.9V66.1h21.2v-4H13.9V39.5
		C13.9,27.4,23.8,17.6,35.9,17.6z"/>
</g>
</svg>
