<?xml version="1.0" encoding="utf-8"?>
<!-- Generator: Adobe Illustrator 22.0.1, SVG Export Plug-In . SVG Version: 6.00 Build 0)  -->
<svg version="1.1" xmlns="http://www.w3.org/2000/svg" xmlns:xlink="http://www.w3.org/1999/xlink" x="0px" y="0px"
	 viewBox="0 0 90.5 88.28651" enable-background="new 0 0 90.5 88.28651" xml:space="preserve">
<g id="Calque_1">
	<g>
		<g id="raisons_3_">
			<g>
				<g>
					<g>
						<g>
							<path fill="#E73C4D" d="M49.2826,32.74227c-4.56847,0-8.28556-3.71708-8.28556-8.28556s3.71708-8.28405,8.28556-8.28405
								s8.28556,3.26,8.28556,8.28405C57.56816,29.02518,53.85108,32.74227,49.2826,32.74227z"/>
						</g>
						<g>
							<path fill="#1C1C1C" d="M49.28223,34.24222c-5.39551,0-9.78516-4.38965-9.78516-9.78516
								c0-5.39453,4.38965-9.78418,9.78516-9.78418c5.6709,0,9.78613,4.11523,9.78613,9.78418
								C59.06836,29.85257,54.67871,34.24222,49.28223,34.24222z M49.28223,17.67288c-3.74121,0-6.78516,3.04297-6.78516,6.78418
								s3.04395,6.78516,6.78516,6.78516c3.74219,0,6.78613-3.04395,6.78613-6.78516
								C56.06836,20.46292,53.27734,17.67288,49.28223,17.67288z"/>
						</g>
					</g>
				</g>
				<g>
					<g>
						<g>
							<path fill="#E73C4D" d="M30.45673,55.16024h37.65023c-0.1739-12.01474-8.55171-18.63949-18.82436-18.63949
								S30.63064,43.1455,30.45673,55.16024z"/>
						</g>
						<g>
							<path fill="#1C1C1C" d="M68.10742,56.66019H30.45703c-0.40137,0-0.78613-0.16113-1.06836-0.44727
								s-0.4375-0.67285-0.43164-1.07422c0.17383-12.0332,8.3418-20.11816,20.3252-20.11816
								c11.98242,0,20.15039,8.08496,20.3252,20.11816c0.00586,0.40137-0.14941,0.78809-0.43164,1.07422
								S68.50879,56.66019,68.10742,56.66019z M32.02832,53.66019h34.50781c-0.7627-9.55371-7.39453-15.63965-17.25391-15.63965
								S32.79004,44.10648,32.02832,53.66019z"/>
						</g>
					</g>
				</g>
			</g>
		</g>
		<g>
			<g>
				<path fill="#1C1C1C" d="M49.42871,84.2803H2.94141c-0.47949,0-0.92969-0.22852-1.21191-0.61621
					c-0.28223-0.38672-0.3623-0.88574-0.2168-1.3418c0.16113-0.50195,4.07715-12.37109,16.10938-20.18848
					c0.01758-0.01074,0.03418-0.02148,0.05176-0.03223c0.36523-0.2168,9.04395-5.29199,19.59277-5.29199
					c0.02734,0,0.05371,0,0.08105,0c5.21289-0.02637,6.35449,0,6.40039,0l9.29492,0.11914
					c0.17871,0.00391,1.68848,0.07031,2.8125,1.36914c0.93262,1.0791,1.2832,2.60938,1.04004,4.54883
					c-0.12109,0.96875-0.49902,1.7627-1.05078,2.40918c0.35645-0.08594,0.70898-0.18066,1.05469-0.28418
					c4.28418-1.28711,17.69434-5.44141,18.99219-5.84277c0.9668-0.44922,7.47266-3.25195,10.7207,0.60645
					c1.35645,1.61133,1.51855,3.12012,1.41504,4.10254c-0.2373,2.25195-1.96875,3.65918-2.16602,3.81152
					c-0.07715,0.06055-0.16016,0.11328-0.24805,0.15723L54.54199,83.40042C53.69434,83.99222,52.0127,84.2803,49.42871,84.2803z
					 M5.1543,81.2803h44.27441c2.39844,0,3.23047-0.2793,3.40625-0.35156c0.07227-0.05469,0.14941-0.10352,0.23145-0.14453
					l31.03516-15.57617c0.23047-0.21387,0.86426-0.87402,0.94434-1.70117c0.05664-0.58887-0.18164-1.19043-0.72852-1.83984
					c-1.59961-1.89844-5.86035-0.44629-7.22754,0.21289c-0.06738,0.03223-0.13867,0.06152-0.20996,0.08301
					c-0.14551,0.04492-14.62402,4.53223-19.11816,5.88184c-4.7168,1.41602-10.34766,1.29199-10.58008,1.28613
					c-0.00098,0-0.00098,0-0.00195,0c-0.13477,0-8.125-0.02148-9.42969,0c-0.33691,0-0.65918-0.10059-0.92578-0.2998
					c-0.88281-0.66211-1.00586-1.45508-1.00098-1.86816c0.01074-0.84766,0.54004-1.52344,1.03125-1.87305
					c0.25391-0.18066,0.55859-0.27832,0.87012-0.27832h9.49414c0.0332,0,0.06738,0.00098,0.10059,0.00293
					c1.32031,0.08691,6.31348-0.05566,6.59961-2.34082c0.12891-1.03027,0.01074-1.81641-0.33203-2.21289
					c-0.24414-0.28125-0.58984-0.33203-0.59277-0.33203l-9.30273-0.11914c-0.02734-0.00195-1.19922-0.02637-6.33984,0
					c-0.02344,0-0.04883,0-0.07227,0c-9.49707,0-17.56543,4.57715-18.05176,4.85938
					C10.90625,70.08597,6.74023,77.72659,5.1543,81.2803z M52.60742,81.14066c-0.00098,0.00098-0.00195,0.00293-0.00293,0.00391
					C52.60547,81.14261,52.60645,81.14163,52.60742,81.14066z M52.61035,81.13773c-0.00098,0.00098-0.00195,0.00195-0.00293,0.00293
					C52.6084,81.13968,52.60938,81.1387,52.61035,81.13773z M52.61328,81.13382c-0.00098,0.00098-0.00195,0.00195-0.00195,0.00293
					C52.61133,81.13577,52.6123,81.1348,52.61328,81.13382z M52.61523,81.13187l-0.00098,0.00098L52.61523,81.13187z"/>
			</g>
		</g>
	</g>
</g>
<g id="grille_page_entiere" display="none">
</g>
<g id="grille" display="none">
</g>
</svg>
