<svg xmlns="http://www.w3.org/2000/svg" xmlns:xlink="http://www.w3.org/1999/xlink" style="enable-background:new 0 0 90.5 88.3" id="Calque_1" x="0" y="0" version="1.1" viewBox="0 0 90.5 88.3" xml:space="preserve"><style type="text/css">.st0{fill:#f03436}.st1{fill:#000e51}</style><g id="Calque_1_00000105388487807492617080000001721190248609059746_"><g><g id="raisons_3_"><g><g><g><g><path d="M49.3,32.7c-4.6,0-8.3-3.7-8.3-8.3s3.7-8.3,8.3-8.3s8.3,3.3,8.3,8.3C57.6,29,53.9,32.7,49.3,32.7z" class="st0"/></g><g><path d="M49.3,34.2c-5.4,0-9.8-4.4-9.8-9.8c0-5.4,4.4-9.8,9.8-9.8c5.7,0,9.8,4.1,9.8,9.8 C59.1,29.9,54.7,34.2,49.3,34.2z M49.3,17.7c-3.7,0-6.8,3-6.8,6.8s3,6.8,6.8,6.8c3.7,0,6.8-3,6.8-6.8 C56.1,20.5,53.3,17.7,49.3,17.7z" class="st1"/></g></g></g><g><g><g><path d="M30.5,55.2h37.7c-0.2-12-8.6-18.6-18.8-18.6S30.6,43.1,30.5,55.2z" class="st0"/></g><g><path d="M68.1,56.7H30.5c-0.4,0-0.8-0.2-1.1-0.4S29,55.5,29,55.1c0.2-12,8.3-20.1,20.3-20.1 c12,0,20.2,8.1,20.3,20.1c0,0.4-0.1,0.8-0.4,1.1S68.5,56.7,68.1,56.7z M32,53.7h34.5C65.8,44.1,59.1,38,49.3,38 S32.8,44.1,32,53.7z" class="st1"/></g></g></g></g></g><g><g><path d="M49.4,84.3H2.9c-0.5,0-0.9-0.2-1.2-0.6c-0.3-0.4-0.4-0.9-0.2-1.3C1.7,81.8,5.6,70,17.6,62.1c0,0,0,0,0.1,0 c0.4-0.2,9-5.3,19.6-5.3c0,0,0.1,0,0.1,0c5.2,0,6.4,0,6.4,0l9.3,0.1c0.2,0,1.7,0.1,2.8,1.4c0.9,1.1,1.3,2.6,1,4.5 c-0.1,1-0.5,1.8-1.1,2.4c0.4-0.1,0.7-0.2,1.1-0.3c4.3-1.3,17.7-5.4,19-5.8c1-0.4,7.5-3.3,10.7,0.6c1.4,1.6,1.5,3.1,1.4,4.1 c-0.2,2.3-2,3.7-2.2,3.8c-0.1,0.1-0.2,0.1-0.2,0.2L54.5,83.4C53.7,84,52,84.3,49.4,84.3z M5.2,81.3h44.3c2.4,0,3.2-0.3,3.4-0.4 c0.1-0.1,0.1-0.1,0.2-0.1l31-15.6c0.2-0.2,0.9-0.9,0.9-1.7c0.1-0.6-0.2-1.2-0.7-1.8c-1.6-1.9-5.9-0.4-7.2,0.2 c-0.1,0-0.1,0.1-0.2,0.1c-0.1,0-14.6,4.5-19.1,5.9c-4.7,1.4-10.3,1.3-10.6,1.3c0,0,0,0,0,0c-0.1,0-8.1,0-9.4,0 c-0.3,0-0.7-0.1-0.9-0.3c-0.9-0.7-1-1.5-1-1.9c0-0.8,0.5-1.5,1-1.9c0.3-0.2,0.6-0.3,0.9-0.3h9.5c0,0,0.1,0,0.1,0 c1.3,0.1,6.3-0.1,6.6-2.3c0.1-1,0-1.8-0.3-2.2C53.3,60,53,59.9,53,59.9l-9.3-0.1c0,0-1.2,0-6.3,0c0,0,0,0-0.1,0 c-9.5,0-17.6,4.6-18.1,4.9C10.9,70.1,6.7,77.7,5.2,81.3z M52.6,81.1C52.6,81.1,52.6,81.1,52.6,81.1 C52.6,81.1,52.6,81.1,52.6,81.1z M52.6,81.1C52.6,81.1,52.6,81.1,52.6,81.1C52.6,81.1,52.6,81.1,52.6,81.1z M52.6,81.1 C52.6,81.1,52.6,81.1,52.6,81.1C52.6,81.1,52.6,81.1,52.6,81.1z M52.6,81.1L52.6,81.1L52.6,81.1z" class="st1"/></g></g></g></g></svg>