<?xml version="1.0" encoding="utf-8"?>
<!-- Generator: Adobe Illustrator 22.0.1, SVG Export Plug-In . SVG Version: 6.00 Build 0)  -->
<svg version="1.1" xmlns="http://www.w3.org/2000/svg" xmlns:xlink="http://www.w3.org/1999/xlink" x="0px" y="0px"
	 viewBox="0 0 90.5 89.28651" enable-background="new 0 0 90.5 89.28651" xml:space="preserve">
<g id="Calque_1">
	<g>
		<g>
			<path fill="#1C1C1C" d="M86.2627,46.90234c-0.3418,0-0.68652-0.11621-0.96777-0.35449L45.25,12.66309L5.20508,46.54785
				c-0.63086,0.53516-1.57813,0.45605-2.11426-0.17676c-0.53516-0.63184-0.45605-1.5791,0.17676-2.11426l41.01367-34.7041
				c0.55859-0.47266,1.37891-0.47266,1.9375,0l41.01367,34.7041c0.63281,0.53516,0.71191,1.48242,0.17676,2.11426
				C87.1123,46.72168,86.68848,46.90234,86.2627,46.90234z"/>
		</g>
		<g>
			<path fill="#1C1C1C" d="M86.26367,86.86426H4.23633c-0.82813,0-1.5-0.67188-1.5-1.5V45.40234
				c0-0.54004,0.29102-1.03906,0.76074-1.30566c0.4707-0.26563,1.04785-0.25781,1.51074,0.01953L45.25,68.26172l40.24219-24.14551
				c0.46387-0.27734,1.04102-0.28516,1.51074-0.01953c0.46973,0.2666,0.76074,0.76563,0.76074,1.30566v39.96191
				C87.76367,86.19238,87.0918,86.86426,86.26367,86.86426z M5.73633,83.86426h79.02734v-35.8125L46.02148,71.29688
				c-0.47461,0.28516-1.06836,0.28516-1.54297,0L5.73633,48.05176V83.86426z"/>
		</g>
		<g>
			<polygon fill="#E73C4D" points="45.25,70.01065 78.06126,50.32392 78.06126,18.90079 13.7007,18.90079 13.7007,51.08107 			"/>
			<path fill="#1C1C1C" d="M45.25,71.51074c-0.26758,0-0.53418-0.07129-0.77148-0.21387L12.92969,52.36719
				c-0.45215-0.27051-0.72852-0.75879-0.72852-1.28613V18.90039c0-0.82813,0.67188-1.5,1.5-1.5h64.36035
				c0.82813,0,1.5,0.67188,1.5,1.5v31.42383c0,0.52734-0.27637,1.01563-0.72852,1.28613L46.02148,71.29688
				C45.78418,71.43945,45.5166,71.51074,45.25,71.51074z M15.20117,50.23145L45.25,68.26172l31.31152-18.78711V20.40039H15.20117
				V50.23145z"/>
		</g>
		<g>
			<rect x="21.90352" y="25.21065" fill="#FFFFFF" width="46.69296" height="9.46479"/>
			<path fill="#1C1C1C" d="M68.59668,36.17578H21.90332c-0.82813,0-1.5-0.67188-1.5-1.5v-9.46484c0-0.82813,0.67188-1.5,1.5-1.5
				h46.69336c0.82813,0,1.5,0.67188,1.5,1.5v9.46484C70.09668,35.50391,69.4248,36.17578,68.59668,36.17578z M23.40332,33.17578
				h43.69336v-6.46484H23.40332V33.17578z"/>
		</g>
		<g>
			<path fill="#1C1C1C" d="M62.91797,43.11621H21.90332c-0.82813,0-1.5-0.67188-1.5-1.5s0.67188-1.5,1.5-1.5h41.01465
				c0.82813,0,1.5,0.67188,1.5,1.5S63.74609,43.11621,62.91797,43.11621z"/>
		</g>
		<g>
			<path fill="#1C1C1C" d="M62.91797,50.05664H21.90332c-0.82813,0-1.5-0.67188-1.5-1.5s0.67188-1.5,1.5-1.5h41.01465
				c0.82813,0,1.5,0.67188,1.5,1.5S63.74609,50.05664,62.91797,50.05664z"/>
		</g>
	</g>
</g>
<g id="grille_page_entiere" display="none">
</g>
<g id="grille" display="none">
</g>
</svg>
