<svg xmlns="http://www.w3.org/2000/svg" xmlns:xlink="http://www.w3.org/1999/xlink" style="enable-background:new 0 0 90.5 89.3" id="Calque_1" x="0" y="0" version="1.1" viewBox="0 0 90.5 89.3" xml:space="preserve"><style type="text/css">.st0{fill:#000e51}.st1{fill:#f03436}.st2{fill:#fff}</style><g id="Calque_1_00000105398334889407058520000014382483545185669556_"><g><g><path d="M86.3,46.9c-0.3,0-0.7-0.1-1-0.4l-40-33.9l-40,33.9c-0.6,0.5-1.6,0.5-2.1-0.2c-0.5-0.6-0.5-1.6,0.2-2.1 l41-34.7c0.6-0.5,1.4-0.5,1.9,0l41,34.7c0.6,0.5,0.7,1.5,0.2,2.1C87.1,46.7,86.7,46.9,86.3,46.9z" class="st0"/></g><g><path d="M86.3,86.9h-82c-0.8,0-1.5-0.7-1.5-1.5v-40c0-0.5,0.3-1,0.8-1.3c0.5-0.3,1-0.3,1.5,0l40.2,24.1l40.2-24.1 c0.5-0.3,1-0.3,1.5,0c0.5,0.3,0.8,0.8,0.8,1.3v40C87.8,86.2,87.1,86.9,86.3,86.9z M5.7,83.9h79V48.1L46,71.3 c-0.5,0.3-1.1,0.3-1.5,0L5.7,48.1V83.9z" class="st0"/></g><g><polygon points="45.2 70 78.1 50.3 78.1 18.9 13.7 18.9 13.7 51.1" class="st1"/><path d="M45.2,71.5c-0.3,0-0.5-0.1-0.8-0.2L12.9,52.4c-0.5-0.3-0.7-0.8-0.7-1.3V18.9c0-0.8,0.7-1.5,1.5-1.5h64.4 c0.8,0,1.5,0.7,1.5,1.5v31.4c0,0.5-0.3,1-0.7,1.3L46,71.3C45.8,71.4,45.5,71.5,45.2,71.5z M15.2,50.2l30,18l31.3-18.8V20.4H15.2 V50.2z" class="st0"/></g><g><rect width="46.7" height="9.5" x="21.9" y="25.2" class="st2"/><path d="M68.6,36.2H21.9c-0.8,0-1.5-0.7-1.5-1.5v-9.5c0-0.8,0.7-1.5,1.5-1.5h46.7c0.8,0,1.5,0.7,1.5,1.5v9.5 C70.1,35.5,69.4,36.2,68.6,36.2z M23.4,33.2h43.7v-6.5H23.4V33.2z" class="st0"/></g><g><path d="M62.9,43.1h-41c-0.8,0-1.5-0.7-1.5-1.5s0.7-1.5,1.5-1.5h41c0.8,0,1.5,0.7,1.5,1.5S63.7,43.1,62.9,43.1z" class="st0"/></g><g><path d="M62.9,50.1h-41c-0.8,0-1.5-0.7-1.5-1.5s0.7-1.5,1.5-1.5h41c0.8,0,1.5,0.7,1.5,1.5S63.7,50.1,62.9,50.1z" class="st0"/></g></g></g></svg>