<svg xmlns="http://www.w3.org/2000/svg" xmlns:xlink="http://www.w3.org/1999/xlink" style="enable-background:new 0 0 90.5 85.6" id="Calque_1" x="0" y="0" version="1.1" viewBox="0 0 90.5 85.6" xml:space="preserve"><style type="text/css">.st0{fill:#000e51}.st1{fill:#f03436}</style><g><g><g><path d="M44.2,38.3c-0.4,0-0.9-0.2-1.1-0.6c-0.4-0.6-0.2-1.5,0.4-1.8l18.4-11.3c0.6-0.4,1.5-0.2,1.8,0.4 c0.4,0.6,0.2,1.5-0.4,1.8L44.9,38.1C44.7,38.3,44.4,38.3,44.2,38.3z" class="st0"/></g></g><g><g><path d="M64.2,56.6c-0.2,0-0.3,0-0.5-0.1L18.7,40c-0.7-0.3-1.1-1-0.8-1.7c0.3-0.7,1-1.1,1.7-0.8L64.7,54 c0.7,0.3,1.1,1,0.8,1.7C65.3,56.3,64.8,56.6,64.2,56.6z" class="st0"/></g></g><g><g><circle cx="36.8" cy="42.3" r="7.6" class="st1"/></g><g><path d="M36.8,51.3c-4.9,0-8.9-4-8.9-8.9c0-4.9,4-8.9,8.9-8.9c4.9,0,8.9,4,8.9,8.9C45.7,47.3,41.7,51.3,36.8,51.3z M36.8,36.1c-3.5,0-6.3,2.8-6.3,6.3c0,3.5,2.8,6.3,6.3,6.3c3.5,0,6.3-2.8,6.3-6.3C43.1,38.9,40.2,36.1,36.8,36.1z" class="st0"/></g></g><g><g><circle cx="14.6" cy="37.1" r="3.2" class="st1"/></g><g><path d="M14.6,41.6c-2.5,0-4.6-2-4.6-4.6c0-2.5,2-4.6,4.6-4.6c2.5,0,4.6,2,4.6,4.6C19.2,39.6,17.1,41.6,14.6,41.6z M14.6,35.2c-1,0-1.9,0.8-1.9,1.9c0,1,0.8,1.9,1.9,1.9c1,0,1.9-0.8,1.9-1.9C16.5,36,15.6,35.2,14.6,35.2z" class="st0"/></g></g><g><g><circle cx="64.9" cy="56.1" r="4.6" class="st1"/></g><g><path d="M64.9,62.1c-3.3,0-6-2.7-6-6c0-3.3,2.7-6,6-6s6,2.7,6,6C70.9,59.4,68.2,62.1,64.9,62.1z M64.9,52.8 c-1.8,0-3.3,1.5-3.3,3.3s1.5,3.3,3.3,3.3c1.8,0,3.3-1.5,3.3-3.3C68.2,54.3,66.8,52.8,64.9,52.8z" class="st0"/></g></g><g><g><circle cx="61.2" cy="26.7" r="6.5" class="st1"/></g><g><path d="M61.2,34.6c-4.3,0-7.8-3.5-7.8-7.8c0-4.3,3.5-7.8,7.8-7.8c4.3,0,7.8,3.5,7.8,7.8 C69,31.1,65.5,34.6,61.2,34.6z M61.2,21.6c-2.8,0-5.2,2.3-5.2,5.2c0,2.9,2.3,5.2,5.2,5.2c2.9,0,5.2-2.3,5.2-5.2 C66.4,23.9,64,21.6,61.2,21.6z" class="st0"/></g></g><g><g><path d="M16.7,84.3c-0.4,0-0.7-0.1-1-0.4c-0.4-0.4-0.5-1-0.3-1.5c2.4-5.1,3.7-11,4.4-15.3C7.8,61.2,0.5,51.5,0.5,41 c0-17.5,20-31.7,44.5-31.7c24.5,0,44.5,14.2,44.5,31.7S69.5,72.6,45,72.6c-1.7,0-3.5-0.1-5.2-0.2c-5.5,3.7-12.9,7.5-22.6,11.8 C17.1,84.3,16.9,84.3,16.7,84.3z M45,12C22,12,3.2,25,3.2,41c0,9.7,7,18.8,18.7,24.2c0.5,0.2,0.8,0.8,0.8,1.4 c-0.5,3.7-1.6,8.9-3.4,13.8c8.2-3.8,14.6-7.2,19.5-10.4c0.3-0.2,0.6-0.3,0.9-0.2c1.8,0.2,3.6,0.2,5.4,0.2c23,0,41.8-13,41.8-29 S68.1,12,45,12z" class="st0"/></g></g></g></svg>