<?xml version="1.0" encoding="utf-8"?>
<!-- Generator: Adobe Illustrator 22.0.1, SVG Export Plug-In . SVG Version: 6.00 Build 0)  -->
<svg version="1.1" xmlns="http://www.w3.org/2000/svg" xmlns:xlink="http://www.w3.org/1999/xlink" x="0px" y="0px"
	 viewBox="0 0 90.5 85.61985" enable-background="new 0 0 90.5 85.61985" xml:space="preserve">
<g id="Calque_1">
	<g>
		<g>
			<g>
				<path fill="#1C1C1C" d="M44.17878,38.3349c-0.44925,0-0.88889-0.22593-1.14186-0.63679
					c-0.38818-0.63069-0.19191-1.4559,0.4379-1.84408l18.36838-11.3157c0.63068-0.38644,1.45589-0.19278,1.84408,0.4379
					c0.38818,0.63069,0.19191,1.4559-0.4379,1.84408L44.88099,38.13601C44.66204,38.27035,44.41866,38.3349,44.17878,38.3349z"/>
			</g>
		</g>
		<g>
			<g>
				<path fill="#1C1C1C" d="M64.22636,56.62826c-0.15353,0-0.3088-0.02617-0.46146-0.082L18.6574,40.00713
					c-0.69436-0.25471-1.05114-1.0241-0.79642-1.71934c0.25471-0.69524,1.02323-1.05114,1.71934-0.79642L64.68782,54.0305
					c0.69436,0.25471,1.05114,1.0241,0.79642,1.71933C65.28535,56.29242,64.77243,56.62826,64.22636,56.62826z"/>
			</g>
		</g>
		<g>
			<g>
				<circle fill="#E73C4D" cx="36.79856" cy="42.33077" r="7.59902"/>
			</g>
			<g>
				<path fill="#1C1C1C" d="M36.79897,51.26962c-4.92946,0-8.9395-4.01004-8.9395-8.93863c0-4.92946,4.01004-8.9395,8.9395-8.9395
					c4.92859,0,8.93863,4.01004,8.93863,8.9395C45.73761,47.25958,41.72756,51.26962,36.79897,51.26962z M36.79897,36.07124
					c-3.45176,0-6.25975,2.80799-6.25975,6.25975c0,3.45089,2.80799,6.25887,6.25975,6.25887
					c3.45089,0,6.25887-2.80799,6.25887-6.25887C43.05785,38.87923,40.24986,36.07124,36.79897,36.07124z"/>
			</g>
		</g>
		<g>
			<g>
				<circle fill="#E73C4D" cx="14.5811" cy="37.06874" r="3.22971"/>
			</g>
			<g>
				<path fill="#1C1C1C" d="M14.58106,41.63837c-2.51925,0-4.5692-2.04995-4.5692-4.56919c0-2.52013,2.04994-4.57007,4.5692-4.57007
					c2.52012,0,4.57007,2.04994,4.57007,4.57007C19.15113,39.58842,17.10118,41.63837,14.58106,41.63837z M14.58106,35.17886
					c-1.04155,0-1.88944,0.84789-1.88944,1.89031c0,1.04155,0.84789,1.88944,1.88944,1.88944
					c1.04242,0,1.89031-0.84789,1.89031-1.88944C16.47137,36.02675,15.62348,35.17886,14.58106,35.17886z"/>
			</g>
		</g>
		<g>
			<g>
				<circle fill="#E73C4D" cx="64.94624" cy="56.11227" r="4.62858"/>
			</g>
			<g>
				<path fill="#1C1C1C" d="M64.94602,62.08111c-3.29125,0-5.96839-2.67801-5.96839-5.96926
					c0-3.29125,2.67714-5.9684,5.96839-5.9684s5.96839,2.67714,5.96839,5.9684
					C70.91441,59.4031,68.23727,62.08111,64.94602,62.08111z M64.94602,52.82322c-1.81355,0-3.28864,1.47509-3.28864,3.28864
					c0,1.81355,1.47509,3.28951,3.28864,3.28951s3.28864-1.47596,3.28864-3.28951
					C68.23466,54.2983,66.75957,52.82322,64.94602,52.82322z"/>
			</g>
		</g>
		<g>
			<g>
				<circle fill="#E73C4D" cx="61.19356" cy="26.74129" r="6.50903"/>
			</g>
			<g>
				<path fill="#1C1C1C" d="M61.19332,34.59005c-4.32756,0-7.84824-3.52067-7.84824-7.84911
					c0-4.32756,3.52067-7.84824,7.84824-7.84824c4.32843,0,7.84911,3.52067,7.84911,7.84824
					C69.04243,31.06937,65.52175,34.59005,61.19332,34.59005z M61.19332,21.57246c-2.84986,0-5.16848,2.31862-5.16848,5.16848
					c0,2.85073,2.31862,5.16935,5.16848,5.16935c2.85073,0,5.16935-2.31862,5.16935-5.16935
					C66.36266,23.89108,64.04404,21.57246,61.19332,21.57246z"/>
			</g>
		</g>
		<g>
			<g>
				<path fill="#1C1C1C" d="M16.73568,84.3252c-0.35329,0-0.70047-0.13957-0.95868-0.40388
					c-0.3908-0.39952-0.49199-1.00054-0.25384-1.50649c2.41981-5.14143,3.71171-10.99207,4.38863-15.29607
					C7.76216,61.20792,0.54199,51.48508,0.54199,40.95272c0-17.46815,19.95338-31.67993,44.47857-31.67993
					C69.54662,9.27279,89.5,23.48458,89.5,40.95272S69.54662,72.63179,45.02056,72.63179
					c-1.72632,0-3.45874-0.07066-5.15714-0.21023c-5.53659,3.65675-12.93123,7.51588-22.58516,11.78936
					C17.1038,84.28769,16.91887,84.3252,16.73568,84.3252z M45.02056,11.95255c-23.04836,0-41.79881,13.00974-41.79881,29.00018
					c0,9.71936,7.00034,18.75307,18.72515,24.16492c0.53822,0.24861,0.84876,0.82172,0.76415,1.40792
					c-0.53822,3.73352-1.55098,8.88455-3.41948,13.84193c8.22769-3.75881,14.62003-7.1844,19.47535-10.43378
					c0.25385-0.17097,0.5609-0.25035,0.86534-0.22157c1.76818,0.15963,3.58173,0.23988,5.3883,0.23988
					c23.04836,0,41.79968-13.00886,41.79968-28.9993S68.06892,11.95255,45.02056,11.95255z"/>
			</g>
		</g>
	</g>
</g>
<g id="grille_page_entiere" display="none">
</g>
<g id="grille" display="none">
</g>
</svg>
