<svg xmlns="http://www.w3.org/2000/svg" xmlns:xlink="http://www.w3.org/1999/xlink" style="enable-background:new 0 0 90.5 88.6" id="Calque_1" x="0" y="0" version="1.1" viewBox="0 0 90.5 88.6" xml:space="preserve"><style type="text/css">.st0{fill:#f03436}.st1{fill:#000e51}.st2{fill:#fff}</style><g id="Calque_1_00000058582299597014735850000002263541562226525570_"><g><path d="M8.9,84.6h1.7c2.7,0,4.8-2.2,4.8-4.8V45.5c0-0.1-0.1-0.2-0.2-0.2H4.3c-0.1,0-0.2,0.1-0.2,0.2v34.2 C4.1,82.4,6.3,84.6,8.9,84.6z" class="st0"/><path d="M10.3,86.1H9.2c-3.7,0-6.7-3-6.7-6.7V45.5c0-1,0.8-1.8,1.8-1.8h10.8c1,0,1.8,0.8,1.8,1.8v33.9 C17,83.1,14,86.1,10.3,86.1z M5.7,46.9v32.6c0,1.9,1.6,3.5,3.5,3.5h1.1c1.9,0,3.5-1.6,3.5-3.5V46.9H5.7z" class="st1"/></g><g><path d="M15.4,9.2v36.3v22.9v10.4c0,3.1-2.5,5.7-5.7,5.7h2.3h10.3H79c0.3,0,0.6,0,0.9-0.1c0.2,0,0.4,0.1,0.5,0.1 c3.1,0,5.7-2.5,5.7-5.7v-1.4V45.5V9.2H15.4z" class="st2"/><path d="M80.4,86.1c-0.2,0-0.4,0-0.6,0c-0.3,0-0.6,0-0.8,0H9.8c-0.9,0-1.6-0.7-1.6-1.6S8.9,83,9.8,83 c2.2,0,4.1-1.8,4.1-4.1V9.2c0-0.9,0.7-1.6,1.6-1.6h70.7c0.9,0,1.6,0.7,1.6,1.6v69.7C87.7,82.9,84.4,86.1,80.4,86.1z M79.9,82.9 c0.1,0,0.1,0,0.2,0l0.2,0c0,0,0.1,0,0.1,0c2.2,0,4.1-1.8,4.1-4.1V10.8H17v68.1c0,1.5-0.5,2.9-1.3,4.1H79c0.2,0,0.4,0,0.7,0 C79.8,82.9,79.8,82.9,79.9,82.9z" class="st1"/></g><g><path d="M76.7,23.7H60.1c-0.9,0-1.6-0.7-1.6-1.6s0.7-1.6,1.6-1.6h16.6c0.9,0,1.6,0.7,1.6,1.6S77.6,23.7,76.7,23.7z" class="st1"/></g><g><path d="M76.7,35.5H60.1c-0.9,0-1.6-0.7-1.6-1.6s0.7-1.6,1.6-1.6h16.6c0.9,0,1.6,0.7,1.6,1.6S77.6,35.5,76.7,35.5z" class="st1"/></g><g><path d="M76.7,49.6H60.1c-0.9,0-1.6-0.7-1.6-1.6s0.7-1.6,1.6-1.6h16.6c0.9,0,1.6,0.7,1.6,1.6S77.6,49.6,76.7,49.6z" class="st1"/></g><g><path d="M76.7,62.6H24.9c-0.9,0-1.6-0.7-1.6-1.6s0.7-1.6,1.6-1.6h51.8c0.9,0,1.6,0.7,1.6,1.6S77.6,62.6,76.7,62.6z" class="st1"/></g><g><path d="M76.7,75.5H24.9c-0.9,0-1.6-0.7-1.6-1.6s0.7-1.6,1.6-1.6h51.8c0.9,0,1.6,0.7,1.6,1.6S77.6,75.5,76.7,75.5z" class="st1"/></g><g><g><path d="M25.8,34.4c-0.8,0-1.5-0.6-1.6-1.4l-0.9-9.5c-0.3-2.1,0.4-6.2,5.6-7.3c0.8-0.2,1.7,0.4,1.9,1.2 c0.2,0.9-0.4,1.7-1.2,1.9c-3.5,0.8-3.2,3.4-3.1,3.7c0,0,0,0.1,0,0.1l0.9,9.5c0.1,0.9-0.6,1.7-1.4,1.7 C25.9,34.4,25.9,34.4,25.8,34.4z" class="st1"/></g><g><path d="M43.7,34.4c-0.1,0-0.1,0-0.2,0c-0.9-0.1-1.5-0.9-1.4-1.7l0.9-9.5c0-0.1,0-0.1,0-0.2c0.1-0.7,0.4-2.9-2.8-3.6 c-0.9-0.2-1.4-1-1.2-1.9c0.2-0.9,1-1.4,1.9-1.2c2.1,0.4,3.6,1.4,4.5,2.9c1.2,1.9,0.9,3.9,0.8,4.4L45.3,33 C45.2,33.8,44.5,34.4,43.7,34.4z" class="st1"/></g><g><path d="M38.9,20.4c-0.4,0-0.8-0.1-1.1-0.4c-0.3-0.3-0.5-0.7-0.5-1.1l-0.1-1.9c0-0.9,0.6-1.6,1.5-1.7l1.7-0.1 c0.4,0,0.8,0.1,1.1,0.4c0.3,0.3,0.5,0.7,0.5,1.1l0.1,1.9c0,0.9-0.6,1.6-1.5,1.7L38.9,20.4C38.9,20.4,38.9,20.4,38.9,20.4z" class="st1"/></g><g><path d="M30.9,20.4C30.9,20.4,30.9,20.4,30.9,20.4l-1.8-0.1c-0.9,0-1.6-0.8-1.5-1.7l0.1-2c0-0.9,0.8-1.5,1.7-1.5 l1.7,0.1c0.9,0,1.6,0.8,1.5,1.7l-0.1,2c0,0.4-0.2,0.8-0.5,1.1C31.7,20.3,31.3,20.4,30.9,20.4z" class="st1"/></g><g><path d="M35,46.2c-5,0-8.2-1.6-9.5-4.8c-0.1-0.3-0.4-0.9-1.3-8.4c-0.1-0.9,0.5-1.7,1.4-1.8c0.9-0.1,1.7,0.5,1.8,1.4 c0.4,3.2,0.9,6.9,1.1,7.5l0.1,0.1c0.3,0.7,1.1,2.8,6.5,2.8c5,0,6-2.7,6.1-3.1l0.9-7.5c0.1-0.9,0.9-1.5,1.8-1.4 c0.9,0.1,1.5,0.9,1.4,1.8l-1,7.6C44.1,41.6,42.3,46.2,35,46.2z" class="st1"/></g><g><path d="M52.6,28.9c-2.1,0-3.9-1.7-3.9-3.9s1.7-3.9,3.9-3.9s3.9,1.7,3.9,3.9S54.7,28.9,52.6,28.9z M52.6,24.3 c-0.4,0-0.7,0.3-0.7,0.7s0.3,0.7,0.7,0.7s0.7-0.3,0.7-0.7S52.9,24.3,52.6,24.3z" class="st1"/></g><g><path d="M40.7,53c-0.2,0-3.5,0-5.7-2.4c-1.4-1.5-2.1-3.5-2.1-6c0-0.9,0.7-1.5,1.6-1.5c0,0,0,0,0,0 c0.9,0,1.6,0.8,1.5,1.6c0,1.6,0.3,2.8,1.2,3.6c1.3,1.4,3.5,1.4,3.5,1.4h3.7c2,0,3.4-0.6,4.5-1.7c2.3-2.5,2-6.9,2-6.9 c0,0,0-0.1,0-0.1V27.3c0-0.9,0.7-1.6,1.6-1.6s1.6,0.7,1.6,1.6V41c0,0.7,0.2,5.9-2.9,9.3c-1.7,1.8-4,2.7-6.9,2.7H40.7 C40.7,53,40.7,53,40.7,53z" class="st1"/></g></g></g></svg>