<?xml version="1.0" encoding="utf-8"?>
<!-- Generator: Adobe Illustrator 22.0.1, SVG Export Plug-In . SVG Version: 6.00 Build 0)  -->
<svg version="1.1" xmlns="http://www.w3.org/2000/svg" xmlns:xlink="http://www.w3.org/1999/xlink" x="0px" y="0px"
	 viewBox="0 0 90.5 88.61985" enable-background="new 0 0 90.5 88.61985" xml:space="preserve">
<g id="Calque_1">
	<g>
		<path fill="#E73C4D" d="M8.92441,84.55099h1.70865c2.65787,0,4.8125-2.15462,4.8125-4.81249V45.4978
			c0-0.12656-0.1026-0.22916-0.22917-0.22916H4.34108c-0.12657,0-0.22917,0.1026-0.22917,0.22916v34.2407
			C4.11191,82.39637,6.26654,84.55099,8.92441,84.55099z"/>
		<path fill="#1C1C1C" d="M10.3417,86.14175H9.21583c-3.69142,0-6.69511-3.00368-6.69511-6.69511V45.51122
			c0-1.01089,0.82239-1.83328,1.83432-1.83328h10.84744c1.01193,0,1.83432,0.82239,1.83432,1.83328v33.93542
			C17.03681,83.13806,14.03312,86.14175,10.3417,86.14175z M5.70256,46.85976v32.58688c0,1.93686,1.57642,3.51328,3.51328,3.51328
			h1.12586c1.93686,0,3.51328-1.57642,3.51328-3.51328V46.85976H5.70256z"/>
	</g>
	<g>
		<path fill="#FFFFFF" d="M15.44555,9.18968v36.34883v22.93708v10.40859c0,3.12965-2.53709,5.66682-5.66682,5.66682h2.28145
			h10.30331h56.66818c0.28957,0,0.57302-0.02199,0.85295-0.05498c0.1822,0.01768,0.35857,0.05498,0.54536,0.05498
			c3.12973,0,5.66682-2.53716,5.66682-5.66682v-1.39831V45.53852V9.18968H15.44555z"/>
		<path fill="#1C1C1C" d="M80.43009,86.14175c-0.18954,0-0.37287-0.01968-0.5562-0.04453
			c-0.27758,0.02796-0.55724,0.04453-0.84207,0.04453H9.77825c-0.87832,0-1.59092-0.7126-1.59092-1.59092
			s0.7126-1.59091,1.59092-1.59091c2.24759,0,4.07673-1.82811,4.07673-4.07569V9.18942c0-0.87832,0.7126-1.59092,1.59092-1.59092
			H86.0967c0.87832,0,1.59091,0.7126,1.59091,1.59092v69.69481C87.68761,82.88638,84.43224,86.14175,80.43009,86.14175z
			 M79.88425,82.90502c0.05075,0,0.10254,0.00207,0.15329,0.00725l0.24754,0.03004c0.04971,0.00621,0.0984,0.01553,0.14915,0.01761
			c2.24345,0,4.07155-1.82811,4.07155-4.07569V10.78033H17.03681v68.10389c0,1.51013-0.46298,2.91357-1.25533,4.07569h63.25035
			c0.2258,0,0.44745-0.01761,0.66496-0.0435C79.75893,82.90916,79.82211,82.90502,79.88425,82.90502z"/>
	</g>
	<g>
		<path fill="#1C1C1C" d="M76.67652,23.73347H60.05475c-0.87832,0-1.59092-0.7126-1.59092-1.59092s0.7126-1.59092,1.59092-1.59092
			h16.62177c0.87832,0,1.59092,0.7126,1.59092,1.59092S77.55484,23.73347,76.67652,23.73347z"/>
	</g>
	<g>
		<path fill="#1C1C1C" d="M76.67652,35.50895H60.05475c-0.87832,0-1.59092-0.7126-1.59092-1.59092s0.7126-1.59092,1.59092-1.59092
			h16.62177c0.87832,0,1.59092,0.7126,1.59092,1.59092S77.55484,35.50895,76.67652,35.50895z"/>
	</g>
	<g>
		<path fill="#1C1C1C" d="M76.67652,49.63869H60.05475c-0.87832,0-1.59092-0.7126-1.59092-1.59092s0.7126-1.59092,1.59092-1.59092
			h16.62177c0.87832,0,1.59092,0.7126,1.59092,1.59092S77.55484,49.63869,76.67652,49.63869z"/>
	</g>
	<g>
		<path fill="#1C1C1C" d="M76.67652,62.59182H24.86607c-0.87832,0-1.59092-0.7126-1.59092-1.59092s0.7126-1.59092,1.59092-1.59092
			h51.81046c0.87832,0,1.59092,0.7126,1.59092,1.59092S77.55484,62.59182,76.67652,62.59182z"/>
	</g>
	<g>
		<path fill="#1C1C1C" d="M76.67652,75.54392H24.86607c-0.87832,0-1.59092-0.7126-1.59092-1.59092s0.7126-1.59092,1.59092-1.59092
			h51.81046c0.87832,0,1.59092,0.7126,1.59092,1.59092S77.55484,75.54392,76.67652,75.54392z"/>
	</g>
	<g>
		<g>
			<path fill="#1C1C1C" d="M25.8345,34.42969c-0.80996,0-1.50288-0.61627-1.58159-1.43866l-0.91043-9.48025
				c-0.31901-2.06529,0.44434-6.15859,5.59721-7.27099c0.84725-0.18954,1.70381,0.35941,1.89025,1.21908
				c0.1854,0.85864-0.36044,1.70485-1.21908,1.89025c-3.50913,0.75817-3.17148,3.39831-3.12073,3.6966
				c0.00621,0.03625,0.01139,0.07354,0.0145,0.11082l0.91561,9.52997c0.08389,0.87521-0.55724,1.65203-1.43141,1.73592
				C25.93704,34.42762,25.88525,34.42969,25.8345,34.42969z"/>
		</g>
		<g>
			<path fill="#1C1C1C" d="M43.67638,34.42969c-0.05075,0-0.10254-0.00207-0.15433-0.00725
				c-0.87418-0.0839-1.5153-0.86175-1.43141-1.73592l0.91665-9.52997c0.00725-0.0725,0.01864-0.14501,0.03625-0.21647
				c0.13982-0.6546,0.36148-2.90114-2.83279-3.59096c-0.85864-0.1854-1.40448-1.03161-1.21908-1.89025
				c0.1854-0.85864,1.04197-1.40448,1.89025-1.21908c2.05907,0.44434,3.56713,1.40552,4.48274,2.85868
				c1.18594,1.88196,0.91043,3.89132,0.80167,4.4496l-0.90836,9.44296C45.17926,33.81342,44.48634,34.42969,43.67638,34.42969z"/>
		</g>
		<g>
			<path fill="#1C1C1C" d="M38.88292,20.39212c-0.39566,0-0.77889-0.14811-1.07304-0.41637
				c-0.31176-0.2838-0.49716-0.68049-0.51581-1.10204l-0.08804-1.93789c-0.04039-0.87832,0.63906-1.62199,1.51635-1.66135
				l1.66342-0.07561c0.4288-0.01761,0.83378,0.12947,1.14555,0.4143c0.31176,0.2838,0.49716,0.68049,0.5158,1.10204l0.08804,1.93789
				c0.04039,0.87832-0.63906,1.62199-1.51635,1.66135l-1.66342,0.07561C38.93056,20.39109,38.90674,20.39212,38.88292,20.39212z"/>
		</g>
		<g>
			<path fill="#1C1C1C" d="M30.92833,20.40766c-0.02382,0-0.04868-0.00104-0.07354-0.00207l-1.68828-0.07768
				c-0.87728-0.04039-1.5557-0.78407-1.51531-1.66135l0.09011-1.96586c0.03936-0.87728,0.75817-1.54224,1.66135-1.51634
				l1.68724,0.07665c0.87728,0.03936,1.55674,0.78303,1.51634,1.66031l-0.08908,1.9669
				c-0.01864,0.42259-0.20508,0.81928-0.51684,1.10411C31.70722,20.25955,31.32399,20.40766,30.92833,20.40766z"/>
		</g>
		<g>
			<path fill="#1C1C1C" d="M35.02267,46.24971c-5.01823,0-8.20524-1.62924-9.47197-4.84215
				c-0.13879-0.31797-0.41534-0.93632-1.30919-8.44968c-0.10461-0.87314,0.51891-1.66445,1.39102-1.76803
				c0.87832-0.10979,1.66446,0.51891,1.76803,1.39101c0.38323,3.21912,0.87935,6.88465,1.05543,7.52682l0.05489,0.13258
				c0.27551,0.69913,1.11447,2.82761,6.51178,2.82761c5.01615,0,6.02394-2.73957,6.14512-3.14248l0.94875-7.54235
				c0.11083-0.87107,0.90732-1.48631,1.77736-1.37962c0.87107,0.10979,1.48941,0.90525,1.37962,1.77735l-0.95497,7.58897
				C44.14455,41.63646,42.25222,46.24971,35.02267,46.24971z"/>
		</g>
		<g>
			<path fill="#1C1C1C" d="M52.56315,28.8563c-2.1409,0-3.88304-1.74214-3.88304-3.88304s1.74213-3.88304,3.88304-3.88304
				s3.88304,1.74214,3.88304,3.88304S54.70405,28.8563,52.56315,28.8563z M52.56315,24.27206
				c-0.38634,0-0.70121,0.31487-0.70121,0.7012s0.31487,0.7012,0.70121,0.7012s0.70121-0.31487,0.70121-0.7012
				S52.94949,24.27206,52.56315,24.27206z"/>
		</g>
		<g>
			<path fill="#1C1C1C" d="M40.74002,52.99246c-0.18954,0-3.47702-0.03625-5.74947-2.36566
				c-1.44384-1.48009-2.1409-3.49049-2.07047-5.97422c0.02382-0.86279,0.73124-1.54638,1.58884-1.54638
				c0.01554,0,0.03107,0,0.04557,0.00104c0.87832,0.02486,1.5702,0.7561,1.54535,1.63442
				c-0.04454,1.58056,0.34283,2.80793,1.15176,3.64689c1.33612,1.38687,3.47495,1.42209,3.4967,1.42209h3.67693
				c1.95964,0,3.43766-0.56552,4.51796-1.73074c2.2973-2.47545,2.03526-6.9033,2.03215-6.9468
				c-0.00311-0.04039-0.00414-0.07975-0.00414-0.11911V27.26538c0-0.87832,0.7126-1.59092,1.59092-1.59092
				s1.59092,0.7126,1.59092,1.59092v13.69784c0.04039,0.68774,0.23822,5.92451-2.87732,9.28138
				c-1.69242,1.82293-3.99697,2.74786-6.85047,2.74786h-3.68107C40.74313,52.99246,40.74106,52.99246,40.74002,52.99246z"/>
		</g>
	</g>
</g>
<g id="grille_page_entiere" display="none">
</g>
<g id="grille" display="none">
</g>
</svg>
