<?xml version="1.0" encoding="utf-8"?>
<!-- Generator: Adobe Illustrator 22.0.1, SVG Export Plug-In . SVG Version: 6.00 Build 0)  -->
<svg version="1.1" xmlns="http://www.w3.org/2000/svg" xmlns:xlink="http://www.w3.org/1999/xlink" x="0px" y="0px"
	 viewBox="0 0 90.5 85.95319" enable-background="new 0 0 90.5 85.95319" xml:space="preserve">
<g id="Calque_1">
	<g>
		<g>
			
				<rect x="10.00204" y="36.67334" transform="matrix(-0.70989 0.70431 -0.70431 -0.70989 108.34158 47.98167)" fill="#FFFFFF" width="68.57359" height="19.2615"/>
			<path fill="#1C1C1C" d="M26.73215,78.65832c-0.00178,0-0.00356,0-0.00535,0c-0.3627-0.00179-0.71025-0.14704-0.96601-0.40459
				L12.19485,64.57996c-0.53291-0.53647-0.52934-1.40356,0.00713-1.93557l48.67896-48.29666
				c0.53825-0.5338,1.40356-0.53023,1.93557,0.00713l13.56684,13.67288c0.25576,0.25754,0.39924,0.60687,0.39745,0.96957
				s-0.14704,0.71025-0.40458,0.96601L27.69637,78.26086C27.43972,78.51573,27.09307,78.65832,26.73215,78.65832z
				 M15.10178,63.62376l11.63839,11.73018l46.73626-46.37L61.83715,17.25465L15.10178,63.62376z"/>
		</g>
		<g>
			<path fill="#1C1C1C" d="M75.412,30.36077c-0.00178,0-0.00356,0-0.00535,0c-0.36269-0.00178-0.71024-0.14704-0.966-0.40458
				L60.87381,16.2833c-0.25576-0.25754-0.39923-0.60687-0.39745-0.96957c0.00178-0.3627,0.14704-0.71024,0.40458-0.966
				l2.25639-2.23856c1.39822-1.38752,3.25715-2.15034,5.23639-2.15034c0.01069,0,0.02049,0,0.0303,0
				c1.99083,0.00713,3.856,0.78599,5.24976,2.19133l5.01894,5.05905c1.39465,1.40534,2.15836,3.27586,2.15034,5.26669
				c-0.00713,1.99083-0.78599,3.85511-2.19133,5.24975l-2.25549,2.23767C76.11958,30.21818,75.77292,30.36077,75.412,30.36077z
				 M63.78074,15.3271l11.6384,11.72929l1.28414-1.27434c0.88669-0.87956,1.37772-2.05766,1.38217-3.31685
				c0.00535-1.26008-0.47588-2.44175-1.35544-3.32755l0,0l-5.01894-5.05905c-0.87956-0.88669-2.05766-1.37771-3.31775-1.38217
				c-0.00623,0-0.01247,0-0.01871,0c-1.25296,0-2.4266,0.48033-3.30884,1.35544L63.78074,15.3271z"/>
		</g>
		<g>
			<path fill="#1C1C1C" d="M10.05788,81.09204c-0.37161,0-0.72807-0.1515-0.98739-0.42062
				c-0.28071-0.29319-0.41795-0.69509-0.37339-1.09879l1.61922-14.62997c0.03475-0.31101,0.17467-0.60063,0.39656-0.82075
				l4.65357-4.61704c0.53736-0.5338,1.40356-0.53024,1.93557,0.00713c0.53291,0.53647,0.52934,1.40356-0.00713,1.93557
				l-4.31048,4.27662l-1.38574,12.51974l13.14889-0.91343l3.97095-3.93977c0.53736-0.5338,1.40356-0.53024,1.93557,0.00713
				c0.53291,0.53648,0.52934,1.40356-0.00713,1.93558l-4.33276,4.2989c-0.23348,0.2317-0.54182,0.37161-0.86976,0.39389
				l-15.2921,1.06225C10.12115,81.09115,10.08907,81.09204,10.05788,81.09204z"/>
		</g>
		<g>
			<path fill="#1C1C1C" d="M20.72225,71.05415c-0.352,0-0.70401-0.13456-0.97135-0.40458
				c-0.53291-0.53647-0.52934-1.40356,0.00713-1.93557l47.90633-47.53027c0.53737-0.5338,1.40356-0.53023,1.93558,0.00713
				c0.53291,0.53647,0.52934,1.40356-0.00713,1.93557L21.68647,70.6567C21.41913,70.92226,21.07069,71.05415,20.72225,71.05415z"/>
		</g>
		<g>
			<g>
				
					<rect x="3.09926" y="37.04309" transform="matrix(0.70431 0.70989 -0.70989 0.70431 46.4656 -18.20759)" fill="#E73C4D" width="83.98012" height="19.2615"/>
				<path fill="#1C1C1C" d="M67.82655,84.63435c-0.00179,0-0.00356,0-0.00535,0c-0.36269-0.00179-0.71024-0.14704-0.966-0.40458
					L7.70703,24.61286c-0.25576-0.25754-0.39923-0.60687-0.39745-0.96957c0.00178-0.3627,0.14704-0.71025,0.40458-0.96601
					L21.38794,9.11134c0.53736-0.5338,1.40356-0.53023,1.93557,0.00713l59.14817,59.61602
					c0.53291,0.53648,0.52934,1.40356-0.00713,1.93558L68.79077,84.2369C68.53413,84.49177,68.18747,84.63435,67.82655,84.63435z
					 M10.61396,23.65666l57.22062,57.67332l11.73018-11.63929L22.34414,12.01826L10.61396,23.65666z"/>
			</g>
			<g>
				<line fill="#E73C4D" x1="27.77839" y1="15.55188" x2="21.76204" y2="21.52098"/>
				<path fill="#1C1C1C" d="M21.76222,22.88938c-0.352,0-0.70401-0.13456-0.97135-0.40458
					c-0.53291-0.53647-0.52934-1.40356,0.00713-1.93557l6.01614-5.96891c0.53736-0.5338,1.40356-0.53023,1.93557,0.00713
					c0.53291,0.53647,0.52934,1.40356-0.00713,1.93557l-6.01614,5.96891C22.4591,22.75749,22.11066,22.88938,21.76222,22.88938z"/>
			</g>
			<g>
				<line fill="#E73C4D" x1="35.64674" y1="23.48253" x2="29.63039" y2="29.45163"/>
				<path fill="#1C1C1C" d="M29.63017,30.8206c-0.352,0-0.70401-0.13456-0.97135-0.40458
					c-0.53291-0.53647-0.52934-1.40356,0.00713-1.93557l6.01614-5.96891c0.53736-0.5338,1.40356-0.53023,1.93557,0.00713
					c0.53291,0.53647,0.52934,1.40356-0.00713,1.93557l-6.01614,5.96891C30.32704,30.68871,29.9786,30.8206,29.63017,30.8206z"/>
			</g>
			<g>
				<line fill="#E73C4D" x1="43.51509" y1="31.41319" x2="37.49874" y2="37.38228"/>
				<path fill="#1C1C1C" d="M37.499,38.75092c-0.352,0-0.70401-0.13456-0.97135-0.40458
					c-0.53291-0.53647-0.52934-1.40356,0.00713-1.93557l6.01614-5.96891c0.53736-0.5338,1.40356-0.52934,1.93557,0.00713
					c0.53291,0.53647,0.52934,1.40356-0.00713,1.93558l-6.01614,5.96891C38.19588,38.61903,37.84744,38.75092,37.499,38.75092z"/>
			</g>
			<g>
				<line fill="#E73C4D" x1="51.38345" y1="39.34383" x2="45.36709" y2="45.31293"/>
				<path fill="#1C1C1C" d="M45.36695,46.68214c-0.352,0-0.70401-0.13456-0.97135-0.40458
					c-0.53291-0.53647-0.52934-1.40356,0.00713-1.93557l6.01614-5.9698c0.53736-0.5338,1.40356-0.53023,1.93557,0.00713
					c0.53291,0.53647,0.52934,1.40356-0.00713,1.93557l-6.01614,5.9698C46.06382,46.55025,45.71539,46.68214,45.36695,46.68214z"/>
			</g>
			<g>
				<line fill="#E73C4D" x1="59.2518" y1="47.27448" x2="53.23544" y2="53.24358"/>
				<path fill="#1C1C1C" d="M53.23579,54.61247c-0.35201,0-0.70401-0.13456-0.97135-0.40458
					c-0.53291-0.53647-0.52934-1.40356,0.00713-1.93557l6.01614-5.96891c0.53736-0.53379,1.40356-0.53023,1.93557,0.00713
					c0.53291,0.53647,0.52934,1.40356-0.00713,1.93557l-6.01614,5.96891C53.93266,54.48058,53.58422,54.61247,53.23579,54.61247z"/>
			</g>
			<g>
				<line fill="#E73C4D" x1="67.12015" y1="55.20514" x2="61.10379" y2="61.17423"/>
				<path fill="#1C1C1C" d="M61.10373,62.54279c-0.352,0-0.70401-0.13456-0.97135-0.40458
					c-0.53291-0.53647-0.52934-1.40356,0.00713-1.93557l6.01614-5.96891c0.53736-0.5338,1.40356-0.53024,1.93558,0.00713
					c0.53291,0.53647,0.52934,1.40356-0.00713,1.93557l-6.01614,5.96891C61.80061,62.4109,61.45217,62.54279,61.10373,62.54279z"/>
			</g>
			<g>
				<line fill="#E73C4D" x1="74.98849" y1="63.13578" x2="68.97215" y2="69.10488"/>
				<path fill="#1C1C1C" d="M68.97256,70.47401c-0.352,0-0.704-0.13457-0.97135-0.40459
					c-0.53291-0.53647-0.52934-1.40356,0.00713-1.93557l6.01614-5.9698c0.53737-0.53379,1.40356-0.53023,1.93558,0.00713
					c0.53291,0.53647,0.52934,1.40356-0.00713,1.93557l-6.01614,5.9698C69.66945,70.34212,69.32101,70.47401,68.97256,70.47401z"/>
			</g>
		</g>
		<g>
			<polygon fill="#1C1C1C" points="11.19803,78.93546 11.21362,74.98117 15.15232,78.95106 			"/>
			<path fill="#1C1C1C" d="M16.25225,79.41134l-5.51264-0.02139l0.02228-5.51175L16.25225,79.41134z M11.65571,78.48098
				l2.39719,0.00891l-2.38739-2.40521L11.65571,78.48098z"/>
		</g>
	</g>
</g>
<g id="grille_page_entiere" display="none">
</g>
<g id="grille" display="none">
</g>
</svg>
