<?xml version="1.0" encoding="utf-8"?>
<!-- Generator: Adobe Illustrator 26.0.1, SVG Export Plug-In . SVG Version: 6.00 Build 0)  -->
<svg version="1.1" id="Calque_1" xmlns="http://www.w3.org/2000/svg" xmlns:xlink="http://www.w3.org/1999/xlink" x="0px" y="0px"
	 viewBox="0 0 90.5 86" style="enable-background:new 0 0 90.5 86;" xml:space="preserve">
<style type="text/css">
	.st0{fill:#FFFFFF;}
	.st1{fill:#000E51;}
	.st2{fill:#F03436;}
	.st3{fill:none;}
	.st4{fill:#1C1C1C;}
	.st5{display:none;}
</style>
<g id="Calque_1_00000083062579528252175470000005034360805006233251_">
	<g>
		<g>
			
				<rect x="10" y="36.7" transform="matrix(0.7099 -0.7043 0.7043 0.7099 -19.7638 44.6264)" class="st0" width="68.6" height="19.3"/>
			<path class="st1" d="M26.7,78.7C26.7,78.7,26.7,78.7,26.7,78.7c-0.4,0-0.7-0.1-1-0.4L12.2,64.6c-0.5-0.5-0.5-1.4,0-1.9l48.7-48.3
				c0.5-0.5,1.4-0.5,1.9,0L76.4,28c0.3,0.3,0.4,0.6,0.4,1s-0.1,0.7-0.4,1L27.7,78.3C27.4,78.5,27.1,78.7,26.7,78.7z M15.1,63.6
				l11.6,11.7L73.5,29L61.8,17.3L15.1,63.6z"/>
		</g>
		<g>
			<path class="st1" d="M75.4,30.4C75.4,30.4,75.4,30.4,75.4,30.4c-0.4,0-0.7-0.1-1-0.4L60.9,16.3c-0.3-0.3-0.4-0.6-0.4-1
				c0-0.4,0.1-0.7,0.4-1l2.3-2.2c1.4-1.4,3.3-2.2,5.2-2.2c0,0,0,0,0,0c2,0,3.9,0.8,5.2,2.2l5,5.1c1.4,1.4,2.2,3.3,2.2,5.3
				c0,2-0.8,3.9-2.2,5.2L76.4,30C76.1,30.2,75.8,30.4,75.4,30.4z M63.8,15.3l11.6,11.7l1.3-1.3c0.9-0.9,1.4-2.1,1.4-3.3
				c0-1.3-0.5-2.4-1.4-3.3l0,0l-5-5.1c-0.9-0.9-2.1-1.4-3.3-1.4c0,0,0,0,0,0c-1.3,0-2.4,0.5-3.3,1.4L63.8,15.3z"/>
		</g>
		<g>
			<path class="st1" d="M10.1,81.1c-0.4,0-0.7-0.2-1-0.4c-0.3-0.3-0.4-0.7-0.4-1.1l1.6-14.6c0-0.3,0.2-0.6,0.4-0.8l4.7-4.6
				c0.5-0.5,1.4-0.5,1.9,0c0.5,0.5,0.5,1.4,0,1.9L13,65.7l-1.4,12.5l13.1-0.9l4-3.9c0.5-0.5,1.4-0.5,1.9,0c0.5,0.5,0.5,1.4,0,1.9
				l-4.3,4.3c-0.2,0.2-0.5,0.4-0.9,0.4L10.1,81.1C10.1,81.1,10.1,81.1,10.1,81.1z"/>
		</g>
		<g>
			<path class="st1" d="M20.7,71.1c-0.4,0-0.7-0.1-1-0.4c-0.5-0.5-0.5-1.4,0-1.9l47.9-47.5c0.5-0.5,1.4-0.5,1.9,0
				c0.5,0.5,0.5,1.4,0,1.9L21.7,70.7C21.4,70.9,21.1,71.1,20.7,71.1z"/>
		</g>
		<g>
			<g>
				
					<rect x="35.5" y="4.7" transform="matrix(0.7099 -0.7043 0.7043 0.7099 -19.7921 45.2973)" class="st2" width="19.3" height="84"/>
				<path class="st1" d="M67.8,84.6C67.8,84.6,67.8,84.6,67.8,84.6c-0.4,0-0.7-0.1-1-0.4L7.7,24.6c-0.3-0.3-0.4-0.6-0.4-1
					s0.1-0.7,0.4-1L21.4,9.1c0.5-0.5,1.4-0.5,1.9,0l59.1,59.6c0.5,0.5,0.5,1.4,0,1.9L68.8,84.2C68.5,84.5,68.2,84.6,67.8,84.6z
					 M10.6,23.7l57.2,57.7l11.7-11.6L22.3,12L10.6,23.7z"/>
			</g>
			<g>
				<line class="st3" x1="27.8" y1="15.6" x2="21.8" y2="21.5"/>
				<path class="st1" d="M21.8,22.9c-0.4,0-0.7-0.1-1-0.4c-0.5-0.5-0.5-1.4,0-1.9l6-6c0.5-0.5,1.4-0.5,1.9,0c0.5,0.5,0.5,1.4,0,1.9
					l-6,6C22.5,22.8,22.1,22.9,21.8,22.9z"/>
			</g>
			<g>
				<line class="st3" x1="35.6" y1="23.5" x2="29.6" y2="29.5"/>
				<path class="st1" d="M29.6,30.8c-0.4,0-0.7-0.1-1-0.4c-0.5-0.5-0.5-1.4,0-1.9l6-6c0.5-0.5,1.4-0.5,1.9,0c0.5,0.5,0.5,1.4,0,1.9
					l-6,6C30.3,30.7,30,30.8,29.6,30.8z"/>
			</g>
			<g>
				<line class="st3" x1="43.5" y1="31.4" x2="37.5" y2="37.4"/>
				<path class="st1" d="M37.5,38.8c-0.4,0-0.7-0.1-1-0.4c-0.5-0.5-0.5-1.4,0-1.9l6-6c0.5-0.5,1.4-0.5,1.9,0c0.5,0.5,0.5,1.4,0,1.9
					l-6,6C38.2,38.6,37.8,38.8,37.5,38.8z"/>
			</g>
			<g>
				<line class="st3" x1="51.4" y1="39.3" x2="45.4" y2="45.3"/>
				<path class="st1" d="M45.4,46.7c-0.4,0-0.7-0.1-1-0.4c-0.5-0.5-0.5-1.4,0-1.9l6-6c0.5-0.5,1.4-0.5,1.9,0c0.5,0.5,0.5,1.4,0,1.9
					l-6,6C46.1,46.6,45.7,46.7,45.4,46.7z"/>
			</g>
			<g>
				<line class="st3" x1="59.3" y1="47.3" x2="53.2" y2="53.2"/>
				<path class="st1" d="M53.2,54.6c-0.4,0-0.7-0.1-1-0.4c-0.5-0.5-0.5-1.4,0-1.9l6-6c0.5-0.5,1.4-0.5,1.9,0c0.5,0.5,0.5,1.4,0,1.9
					l-6,6C53.9,54.5,53.6,54.6,53.2,54.6z"/>
			</g>
			<g>
				<line class="st3" x1="67.1" y1="55.2" x2="61.1" y2="61.2"/>
				<path class="st1" d="M61.1,62.5c-0.4,0-0.7-0.1-1-0.4c-0.5-0.5-0.5-1.4,0-1.9l6-6c0.5-0.5,1.4-0.5,1.9,0c0.5,0.5,0.5,1.4,0,1.9
					l-6,6C61.8,62.4,61.5,62.5,61.1,62.5z"/>
			</g>
			<g>
				<line class="st3" x1="75" y1="63.1" x2="69" y2="69.1"/>
				<path class="st1" d="M69,70.5c-0.4,0-0.7-0.1-1-0.4c-0.5-0.5-0.5-1.4,0-1.9l6-6c0.5-0.5,1.4-0.5,1.9,0c0.5,0.5,0.5,1.4,0,1.9
					l-6,6C69.7,70.3,69.3,70.5,69,70.5z"/>
			</g>
		</g>
		<g>
			<polygon class="st4" points="11.2,78.9 11.2,75 15.2,79 			"/>
			<path class="st1" d="M16.3,79.4l-5.5,0l0-5.5L16.3,79.4z M11.7,78.5l2.4,0l-2.4-2.4L11.7,78.5z"/>
		</g>
	</g>
</g>
<g id="grille_page_entiere" class="st5">
</g>
<g id="grille" class="st5">
</g>
<g id="grille_00000006698565383615086790000009053991052366827165_" class="st5">
</g>
</svg>
