<svg xmlns="http://www.w3.org/2000/svg" xmlns:xlink="http://www.w3.org/1999/xlink" style="enable-background:new 0 0 90.5 89" id="Calque_1" x="0" y="0" version="1.1" viewBox="0 0 90.5 89" xml:space="preserve"><style type="text/css">.st0{fill:#000e51}.st1{fill:#fff}.st2{fill:#f03436}</style><g id="Calque_1_00000057828714088703607070000007284829180244688288_"><g><g><path d="M53.3,86.5c-1.4,0-2.6,0-3.3,0c-2.6,0.1-15.3,0-15.8,0c-0.7,0-1.3-0.6-1.3-1.3V50.5 c0-11.7,1.8-15.7,5.5-21.3c2.9-4.3,2.8-10.6,2.7-14.7c0-0.6,0-1.1,0-1.6c0-4.1,2.6-5.7,4-6c0.1,0,0.2,0,0.3,0h7.6 c0.1,0,0.2,0,0.3,0c1.4,0.3,4,1.9,4,6c0,0.5,0,1,0,1.6c-0.1,4.1-0.2,10.4,2.7,14.7c3.7,5.6,5.5,9.5,5.5,21.3v34.6 c0,0.7-0.6,1.3-1.3,1.3C63.7,86.5,57.5,86.5,53.3,86.5z M64.1,85.1L64.1,85.1L64.1,85.1z M35.5,83.8c3.4,0,12.3,0.1,14.5,0 c2.2,0.1,9.7,0,12.8,0V50.5c0-11.7-1.7-14.8-5.1-19.8c-3.3-5-3.2-11.8-3.2-16.2c0-0.6,0-1.1,0-1.5c0-2.6-1.4-3.2-1.8-3.4h-7.3 c-0.4,0.1-1.8,0.8-1.8,3.4c0,0.5,0,1,0,1.5c0.1,4.5,0.2,11.2-3.2,16.2c-3.3,5-5.1,8.1-5.1,19.8C35.5,50.5,35.5,83.8,35.5,83.8z" class="st0"/></g><g><path d="M43.9,85.2H15c-3.5,0-6.4-2.9-6.4-6.4V63.4c0-3.5,2.9-6.4,6.4-6.4h28.9c3.5,0,6.4,2.9,6.4,6.4v15.4 C50.3,82.3,47.4,85.2,43.9,85.2z" class="st1"/><path d="M44.6,86.5H14.3c-3.9,0-7-3.2-7-7V62.7c0-3.9,3.2-7,7-7h30.3c3.9,0,7,3.2,7,7v16.8 C51.6,83.4,48.5,86.5,44.6,86.5z M14.3,58.4c-2.4,0-4.4,2-4.4,4.4v16.8c0,2.4,2,4.4,4.4,4.4h30.3c2.4,0,4.4-2,4.4-4.4V62.7 c0-2.4-2-4.4-4.4-4.4H14.3z" class="st0"/></g><g><path d="M50,66H9.5c-0.7,0-1.3-0.6-1.3-1.3s0.6-1.3,1.3-1.3H50c0.7,0,1.3,0.6,1.3,1.3S50.7,66,50,66z" class="st0"/></g><g><path d="M55.9,17.3H42.4c-0.7,0-1.3-0.6-1.3-1.3c0-0.7,0.6-1.3,1.3-1.3h13.5c0.7,0,1.3,0.6,1.3,1.3 C57.2,16.7,56.6,17.3,55.9,17.3z" class="st0"/></g><g><path d="M79.9,37.1c-1.9,0-5.3,0-8.2,0c0,0-2.1,0-4.7,0c-2.9,0-6.4,0-8.2,0c-2.9,0-2.9,2.9-2.9,2.9v5.9l3.5,28.7 c0,0,0,1.8,0,6.5c0,4.1,4.1,4.1,4.1,4.1H67h4.7h3.5c0,0,4.1,0,4.1-4.1c0-4.7,0-6.5,0-6.5l3.5-28.7V40 C82.8,40,82.8,37.1,79.9,37.1z" class="st2"/><path d="M75.2,86.5H63.5c-2.2,0-5.4-1.5-5.4-5.4v-6.4L54.5,46c0-0.1,0-0.1,0-0.2V40c0-1.7,1.1-4.3,4.3-4.3h21.1 c3.1,0,4.3,2.6,4.3,4.3v5.9c0,0.1,0,0.1,0,0.2l-3.5,28.7v6.4C80.7,85.1,77.4,86.5,75.2,86.5z M57.2,45.8l3.5,28.7 c0,0.1,0,0.1,0,0.2v6.5c0,2.5,2.1,2.8,2.8,2.8h11.7c0.6,0,2.8-0.2,2.8-2.8v-6.5c0-0.1,0-0.1,0-0.2l3.5-28.7V40 c0-0.6-0.2-1.6-1.6-1.6H58.8c-1.4,0-1.6,1-1.6,1.6V45.8z M82.8,45.9L82.8,45.9L82.8,45.9z" class="st0"/></g><g><path d="M78.7,75.4H59.4c-0.7,0-1.3-0.6-1.3-1.3s0.6-1.3,1.3-1.3h19.4c0.7,0,1.3,0.6,1.3,1.3S79.5,75.4,78.7,75.4z" class="st0"/></g><g><path d="M8.6,63.3v-3.6c0-1.6,1.2-2.9,2.6-2.9h36.5c1.4,0,2.6,1.3,2.6,2.9v3.6" class="st2"/><path d="M50.3,64.6c-0.7,0-1.3-0.6-1.3-1.3v-3.6c0-0.9-0.6-1.6-1.2-1.6H11.2c-0.7,0-1.2,0.7-1.2,1.6v3.6 c0,0.7-0.6,1.3-1.3,1.3S7.3,64,7.3,63.3v-3.6c0-2.3,1.8-4.3,3.9-4.3h36.5c2.2,0,3.9,1.9,3.9,4.3v3.6C51.6,64,51,64.6,50.3,64.6z" class="st0"/></g></g></g></svg>