<?xml version="1.0" encoding="utf-8"?>
<!-- Generator: Adobe Illustrator 22.0.1, SVG Export Plug-In . SVG Version: 6.00 Build 0)  -->
<svg version="1.1" xmlns="http://www.w3.org/2000/svg" xmlns:xlink="http://www.w3.org/1999/xlink" x="0px" y="0px"
	 viewBox="0 0 90.5 88.95319" enable-background="new 0 0 90.5 88.95319" xml:space="preserve">
<g id="Calque_1">
	<g>
		<g>
			<path fill="#1C1C1C" d="M53.28951,86.51952c-1.43659,0-2.64901-0.00698-3.33547-0.02617
				c-2.64378,0.07501-15.27826-0.03489-15.81382-0.03925c-0.7353-0.0061-1.32843-0.60447-1.32843-1.33977V50.50362
				c0-11.73345,1.76281-15.66204,5.50474-21.27495c2.88103-4.32111,2.78683-10.56028,2.7249-14.68862
				c-0.00872-0.5687-0.01657-1.09816-0.01657-1.57964c0-4.117,2.62284-5.72978,4.01059-6.00716
				c0.08635-0.01745,0.17445-0.02617,0.26255-0.02617h7.62605c0.0881,0,0.17619,0.00872,0.26255,0.02617
				c1.38687,0.27737,4.00971,1.89016,4.00971,6.00716c0,0.48148-0.00785,1.01093-0.01657,1.57964
				c-0.06193,4.12834-0.15613,10.36751,2.7249,14.68862c3.74193,5.6129,5.50474,9.5415,5.50474,21.27495v34.61071
				c0,0.73443-0.59138,1.33192-1.32581,1.33977C63.73552,86.45759,57.5356,86.51952,53.28951,86.51952z M64.0696,85.11433h0.00872
				H64.0696z M35.49133,83.7859c3.40176,0.02617,12.30564,0.08722,14.46271,0.02966
				c2.17276,0.05669,9.69763-0.00088,12.77578-0.02879V50.50362c0-11.6628-1.73315-14.80637-5.05466-19.78864
				c-3.34332-5.01454-3.24126-11.75526-3.17497-16.21592c0.00872-0.553,0.01657-1.06937,0.01657-1.53864
				c0-2.5897-1.39297-3.22905-1.76543-3.35378h-7.27802c-0.38815,0.13171-1.76891,0.78153-1.76891,3.35378
				c0,0.46927,0.00785,0.98564,0.01657,1.53864c0.06629,4.46066,0.16834,11.20138-3.17498,16.21592
				c-3.32151,4.98227-5.05466,8.12584-5.05466,19.78864V83.7859z"/>
		</g>
		<g>
			<path fill="#FFFFFF" d="M43.90892,85.17963H15.00877c-3.50625,0-6.375-2.86874-6.375-6.375V63.39679
				c0-3.50625,2.86875-6.375,6.375-6.375h28.90015c3.50625,0,6.375,2.86875,6.375,6.375v15.40784
				C50.28392,82.31089,47.41517,85.17963,43.90892,85.17963z"/>
			<path fill="#1C1C1C" d="M44.58973,86.51952h-30.2617c-3.87888,0-7.03379-3.15491-7.03379-7.03379v-16.7698
				c0-3.87888,3.15491-7.03379,7.03379-7.03379h30.2617c3.87888,0,7.03379,3.15491,7.03379,7.03379v16.7698
				C51.62352,83.36461,48.46861,86.51952,44.58973,86.51952z M14.32803,58.36168c-2.40129,0-4.35425,1.95296-4.35425,4.35425
				v16.7698c0,2.40129,1.95296,4.35425,4.35425,4.35425h30.2617c2.40129,0,4.35425-1.95296,4.35425-4.35425v-16.7698
				c0-2.40129-1.95296-4.35425-4.35425-4.35425H14.32803z"/>
		</g>
		<g>
			<path fill="#1C1C1C" d="M49.99067,65.98772H9.51411c-0.73966,0-1.33977-0.60011-1.33977-1.33977s0.60011-1.33977,1.33977-1.33977
				h40.47656c0.73967,0,1.33977,0.60011,1.33977,1.33977S50.73034,65.98772,49.99067,65.98772z"/>
		</g>
		<g>
			<path fill="#1C1C1C" d="M55.85653,17.2981h-13.4919c-0.73967,0-1.33977-0.60011-1.33977-1.33977
				c0-0.73966,0.60011-1.33977,1.33977-1.33977h13.4919c0.73966,0,1.33977,0.60011,1.33977,1.33977
				C57.1963,16.69799,56.59619,17.2981,55.85653,17.2981z"/>
		</g>
		<g>
			<path fill="#E73C4D" d="M79.90833,37.07665c-1.85353,0-5.33302,0-8.21271,0c0,0-2.10416,0-4.69297,0
				c-2.87969,0-6.35918,0-8.21271,0c-2.93311,0-2.93311,2.93311-2.93311,2.93311v5.86622l3.51973,28.74447c0,0,0,1.75986,0,6.45284
				c0,4.10635,4.10635,4.10635,4.10635,4.10635h3.51973h4.69297h3.51973c0,0,4.10635,0,4.10635-4.10635
				c0-4.69298,0-6.45284,0-6.45284l3.51973-28.74447v-5.86622C82.84143,40.00976,82.84143,37.07665,79.90833,37.07665z"/>
			<path fill="#1C1C1C" d="M75.21515,86.51952H63.48257c-2.18933,0-5.44543-1.45055-5.44543-5.4463v-6.37089l-3.51079-28.66286
				c-0.0061-0.05408-0.00959-0.10903-0.00959-0.16311v-5.86673c0-1.71745,1.13828-4.27313,4.27313-4.27313h21.11882
				c3.13485,0,4.27225,2.55568,4.27225,4.27313v5.86673c0,0.05408-0.00349,0.10903-0.00959,0.16311l-3.50992,28.66286v6.37089
				C80.66145,85.06898,77.40449,86.51952,75.21515,86.51952z M57.1963,45.79436l3.51079,28.66286
				c0.00611,0.05408,0.0096,0.10903,0.0096,0.16312v6.45287c0,2.52776,2.12479,2.75716,2.77549,2.76676h11.72298
				c0.6411-0.0096,2.76676-0.239,2.76676-2.76676v-6.45287c0-0.05408,0.00349-0.10903,0.0096-0.16312l3.50992-28.66286v-5.78473
				c-0.01395-0.58615-0.239-1.59359-1.59272-1.59359H58.78989c-1.3546,0-1.57964,1.00744-1.59359,1.60755V45.79436z
				 M82.84119,45.87636h0.00872H82.84119z"/>
		</g>
		<g>
			<path fill="#1C1C1C" d="M78.73466,75.37396H59.37691c-0.73967,0-1.33977-0.60011-1.33977-1.33977s0.6001-1.33977,1.33977-1.33977
				h19.35775c0.73966,0,1.33977,0.60011,1.33977,1.33977S79.47433,75.37396,78.73466,75.37396z"/>
		</g>
		<g>
			<path fill="#E73C4D" d="M8.63377,63.29131V59.65c0-1.60683,1.15468-2.92152,2.56595-2.92152h36.51825
				c1.41127,0,2.56595,1.31468,2.56595,2.92152v3.64132"/>
			<path fill="#1C1C1C" d="M50.28375,64.63139c-0.73966,0-1.33977-0.60011-1.33977-1.33977v-3.64162
				c0-0.85742-0.56173-1.58138-1.22638-1.58138H11.19929c-0.66465,0-1.2255,0.72396-1.2255,1.58138v3.64162
				c0,0.73967-0.60011,1.33977-1.33977,1.33977c-0.73966,0-1.33977-0.60011-1.33977-1.33977v-3.64162
				c0-2.34983,1.75147-4.26092,3.90504-4.26092H47.7176c2.15358,0,3.90592,1.91109,3.90592,4.26092v3.64162
				C51.62352,64.03128,51.02341,64.63139,50.28375,64.63139z"/>
		</g>
	</g>
</g>
<g id="grille_page_entiere" display="none">
</g>
<g id="grille" display="none">
</g>
</svg>
