<svg xmlns="http://www.w3.org/2000/svg" xmlns:xlink="http://www.w3.org/1999/xlink" style="enable-background:new 0 0 90.5 90" id="Calque_1" x="0" y="0" version="1.1" viewBox="0 0 90.5 90" xml:space="preserve"><style type="text/css">.st0{fill:#000e51}.st1{fill:#f03436}</style><g id="Calque_1_00000054947692305158235370000010003216185824552868_"><g><g><path d="M88,87.3H2.1c-0.8,0-1.5-0.7-1.5-1.5V28.4c0-0.8,0.7-1.5,1.5-1.5H88c0.8,0,1.5,0.7,1.5,1.5v57.4 C89.5,86.6,88.8,87.3,88,87.3z M3.6,84.4h83V29.9h-83V84.4z" class="st0"/></g><g><path d="M87.9,38.3H2.3c-0.8,0-1.5-0.7-1.5-1.5s0.7-1.5,1.5-1.5h85.6c0.8,0,1.5,0.7,1.5,1.5 C89.3,37.6,88.7,38.3,87.9,38.3z" class="st0"/></g><g><circle cx="6.8" cy="32.7" r="1" class="st0"/></g><g><circle cx="11.1" cy="32.7" r="1" class="st0"/></g><g><circle cx="15.3" cy="32.7" r="1" class="st0"/></g><g><rect width="44.4" height="7.7" x="22.9" y="46.5" class="st1"/><path d="M67.3,55.6H22.9c-0.8,0-1.5-0.7-1.5-1.5v-7.7c0-0.8,0.7-1.5,1.5-1.5h44.4c0.8,0,1.5,0.7,1.5,1.5v7.7 C68.7,55,68.1,55.6,67.3,55.6z M24.3,52.7h41.5V48H24.3V52.7z" class="st0"/></g><g><rect width="44.4" height="6.1" x="11.3" y="61.3" class="st1"/><path d="M55.7,68.9H11.3c-0.8,0-1.5-0.7-1.5-1.5v-6.1c0-0.8,0.7-1.5,1.5-1.5h44.4c0.8,0,1.5,0.7,1.5,1.5v6.1 C57.1,68.3,56.5,68.9,55.7,68.9z M12.7,66h41.5v-3.2H12.7V66z" class="st0"/></g><g><path d="M78.6,86.9c-0.8,0-1.5-0.7-1.5-1.5V62.8H62.7v22.7c0,0.8-0.7,1.5-1.5,1.5c-0.8,0-1.5-0.7-1.5-1.5V61.3 c0-0.8,0.7-1.5,1.5-1.5h17.4c0.8,0,1.5,0.7,1.5,1.5v24.1C80.1,86.2,79.4,86.9,78.6,86.9z" class="st0"/></g><g><path d="M55.7,86.8H11.3c-0.8,0-1.5-0.7-1.5-1.5V73.6c0-0.8,0.7-1.5,1.5-1.5h44.4c0.8,0,1.5,0.7,1.5,1.5v11.7 C57.1,86.1,56.5,86.8,55.7,86.8z M12.7,83.9h41.5V75H12.7V83.9z" class="st0"/></g></g></g></svg>