<?xml version="1.0" encoding="utf-8"?>
<!-- Generator: Adobe Illustrator 22.0.1, SVG Export Plug-In . SVG Version: 6.00 Build 0)  -->
<svg version="1.1" xmlns="http://www.w3.org/2000/svg" xmlns:xlink="http://www.w3.org/1999/xlink" x="0px" y="0px"
	 viewBox="0 0 90.5 89.95319" enable-background="new 0 0 90.5 89.95319" xml:space="preserve">
<g id="Calque_1">
	<g>
		<g>
			<path fill="#1C1C1C" d="M88.04681,87.25651H2.14166c-0.80229,0-1.4532-0.65091-1.4532-1.45319V28.42473
				c0-0.80229,0.65091-1.4532,1.4532-1.4532h85.90515c0.80228,0,1.45319,0.65091,1.45319,1.4532v57.37859
				C89.5,86.6056,88.84909,87.25651,88.04681,87.25651z M3.59485,84.35011h82.99875V29.87793H3.59485V84.35011z"/>
		</g>
		<g>
			<path fill="#1C1C1C" d="M87.88407,38.27355H2.30438c-0.80229,0-1.4532-0.65091-1.4532-1.4532
				c0-0.80229,0.65091-1.4532,1.4532-1.4532h85.57969c0.80229,0,1.4532,0.65091,1.4532,1.4532
				C89.33727,37.62263,88.68636,38.27355,87.88407,38.27355z"/>
		</g>
		<g>
			<circle fill="#1C1C1C" stroke="#1C1C1C" stroke-width="0" stroke-miterlimit="10" cx="6.80368" cy="32.74443" r="0.97251"/>
		</g>
		<g>
			<circle fill="#1C1C1C" stroke="#1C1C1C" stroke-width="0" stroke-miterlimit="10" cx="11.05398" cy="32.74443" r="0.97251"/>
		</g>
		<g>
			<circle fill="#1C1C1C" stroke="#1C1C1C" stroke-width="0" stroke-miterlimit="10" cx="15.30428" cy="32.74443" r="0.97251"/>
		</g>
		<g>
			<rect x="22.89509" y="46.52481" fill="#E73C4D" width="44.39827" height="7.65487"/>
			<path fill="#1C1C1C" d="M67.29333,55.63244h-44.3982c-0.80229,0-1.4532-0.65091-1.4532-1.4532v-7.65483
				c0-0.80228,0.65091-1.4532,1.4532-1.4532h44.3982c0.80229,0,1.4532,0.65091,1.4532,1.4532v7.65483
				C68.74653,54.98153,68.09562,55.63244,67.29333,55.63244z M24.34833,52.72605h41.49181v-4.74844H24.34833V52.72605z"/>
		</g>
		<g>
			<rect x="11.26394" y="61.32423" fill="#E73C4D" width="44.39827" height="6.1239"/>
			<path fill="#1C1C1C" d="M55.66208,68.90138h-44.3982c-0.80229,0-1.4532-0.65091-1.4532-1.4532v-6.12405
				c0-0.80229,0.65091-1.4532,1.4532-1.4532h44.3982c0.80229,0,1.4532,0.65091,1.4532,1.4532v6.12405
				C57.11527,68.25047,56.46436,68.90138,55.66208,68.90138z M12.71707,65.99499h41.49181v-3.21766H12.71707V65.99499z"/>
		</g>
		<g>
			<path fill="#1C1C1C" d="M78.62656,86.88564c-0.80228,0-1.45319-0.65091-1.45319-1.4532V62.77733H62.72938v22.65511
				c0,0.80229-0.65091,1.4532-1.4532,1.4532c-0.80228,0-1.4532-0.65091-1.4532-1.4532V61.32413
				c0-0.80229,0.65091-1.4532,1.4532-1.4532h17.35038c0.80228,0,1.4532,0.65091,1.4532,1.4532v24.10831
				C80.07977,86.23473,79.42885,86.88564,78.62656,86.88564z"/>
		</g>
		<g>
			<path fill="#1C1C1C" d="M55.66208,86.76265h-44.3982c-0.80229,0-1.4532-0.65091-1.4532-1.45319V73.57224
				c0-0.80228,0.65091-1.45319,1.4532-1.45319h44.3982c0.80229,0,1.4532,0.65091,1.4532,1.45319v11.73722
				C57.11527,86.11174,56.46436,86.76265,55.66208,86.76265z M12.71707,83.85625h41.49181v-8.83082H12.71707V83.85625z"/>
		</g>
	</g>
</g>
<g id="grille_page_entiere" display="none">
</g>
<g id="grille" display="none">
</g>
</svg>
