<?xml version="1.0" encoding="utf-8"?>
<!-- Generator: Adobe Illustrator 22.0.1, SVG Export Plug-In . SVG Version: 6.00 Build 0)  -->
<svg version="1.1" xmlns="http://www.w3.org/2000/svg" xmlns:xlink="http://www.w3.org/1999/xlink" x="0px" y="0px"
	 viewBox="0 0 91 89" enable-background="new 0 0 91 89" xml:space="preserve">
<g id="Calque_1">
	<g>
		<g>
			<g>
				<g>
					<path fill="#E73C4D" d="M79.13718,24.59769l-3.79139-5.90048c-0.57486-0.89465-15.94321-1.71895-16.80079-1.16791
						L3.90313,52.6398c-0.85237,0.5477-1.07848,1.72112-0.50595,2.61214l18.92374,29.45068
						c0.57603,0.89646,1.73613,1.17661,2.5885,0.62891l54.64187-35.1105c0.8567-0.55048,6.49529-14.87037,5.91926-15.76683
						l-3.79548-5.90684"/>
					<path fill="#1C1C1C" d="M23.95605,87.11295c-0.26465,0-0.53223-0.03223-0.79883-0.09668
						c-0.86523-0.20996-1.61133-0.74414-2.09863-1.50391L2.13574,56.06218c-0.4873-0.75586-0.66211-1.65527-0.49316-2.53027
						c0.1748-0.90039,0.68945-1.66602,1.4502-2.1543l54.6416-35.11035c0.35742-0.22949,1.10059-0.70898,9.40918-0.19336
						c8.64258,0.53516,9.06055,1.18457,9.46387,1.81152l3.79102,5.90137c0.44824,0.69629,0.24609,1.625-0.45117,2.07227
						c-0.69629,0.44727-1.62402,0.24707-2.07227-0.45117l-3.56738-5.55273c-2.26855-0.62988-13.25488-1.20801-15.13867-0.94434
						L4.71387,53.90104c-0.08203,0.05273-0.11328,0.13867-0.125,0.20117c-0.0127,0.06543-0.02051,0.19629,0.07031,0.33789
						l18.92383,29.45214c0.09375,0.14453,0.2168,0.19336,0.28223,0.20898c0.05957,0.01367,0.15039,0.02051,0.2334-0.03125
						l54.45508-34.99023c1.0293-1.60352,5.06445-11.83984,5.43164-14.16211l-3.57227-5.55957
						c-0.44824-0.69629-0.24609-1.625,0.45117-2.07227c0.69336-0.44629,1.625-0.24707,2.07227,0.45117l3.7959,5.90625
						c0.4043,0.62793,0.82129,1.27734-2.28418,9.3623c-2.98438,7.76953-3.72754,8.24805-4.08496,8.47754L25.71973,86.59342
						C25.18652,86.93717,24.5791,87.11295,23.95605,87.11295z"/>
				</g>
			</g>
		</g>
		<g>
			<path fill="#FFFFFF" d="M83.05302,27.65876l-10.78659,6.931c0.35017,2.02613-0.38753,4.068-2.07896,5.15484
				c-2.33711,1.50173-5.57847,0.6244-7.23775-1.9579c-1.65578-2.57687-1.10309-5.88567,1.2332-7.38687
				c1.69225-1.08737,3.85403-0.91115,5.54561,0.24025l10.78659-6.931"/>
		</g>
		<g>
			<line fill="#AF2525" x1="67.60846" y1="34.80025" x2="87.91909" y2="21.74952"/>
			<path fill="#1C1C1C" d="M67.60938,36.30046c-0.49316,0-0.97656-0.24316-1.2627-0.68945
				c-0.44824-0.69629-0.24609-1.625,0.45117-2.07227L87.1084,20.48796c0.69531-0.44727,1.62402-0.24707,2.07227,0.45117
				c0.44824,0.69629,0.24609,1.625-0.45117,2.07227L68.41895,36.06218C68.16797,36.22331,67.8877,36.30046,67.60938,36.30046z"/>
		</g>
	</g>
</g>
<g id="grille_page_entiere" display="none">
</g>
<g id="grille">
</g>
</svg>
