<?xml version="1.0" encoding="utf-8"?>
<!-- Generator: Adobe Illustrator 26.0.1, SVG Export Plug-In . SVG Version: 6.00 Build 0)  -->
<svg version="1.1" id="Calque_1" xmlns="http://www.w3.org/2000/svg" xmlns:xlink="http://www.w3.org/1999/xlink" x="0px" y="0px"
	 viewBox="0 0 91 89" style="enable-background:new 0 0 91 89;" xml:space="preserve">
<style type="text/css">
	.st0{fill:#F03436;}
	.st1{fill:#FFFFFF;}
	.st2{fill:none;}
	.st3{display:none;}
</style>
<g id="Calque_1_00000152257671379843427650000008583602268903300023_">
	<g>
		<g>
			<g>
				<g>
					<path class="st0" d="M79.1,24.6l-3.8-5.9c-0.6-0.9-15.9-1.7-16.8-1.2L3.9,52.6c-0.9,0.5-1.1,1.7-0.5,2.6l18.9,29.5
						c0.6,0.9,1.7,1.2,2.6,0.6l54.6-35.1c0.9-0.6,6.5-14.9,5.9-15.8l-3.8-5.9"/>
					<path class="st1" d="M24,87.1c-0.3,0-0.5,0-0.8-0.1c-0.9-0.2-1.6-0.7-2.1-1.5L2.1,56.1c-0.5-0.8-0.7-1.7-0.5-2.5
						c0.2-0.9,0.7-1.7,1.5-2.2l54.6-35.1c0.4-0.2,1.1-0.7,9.4-0.2c8.6,0.5,9.1,1.2,9.5,1.8l3.8,5.9c0.4,0.7,0.2,1.6-0.5,2.1
						c-0.7,0.4-1.6,0.2-2.1-0.5l-3.6-5.6c-2.3-0.6-13.3-1.2-15.1-0.9l-54.5,35C4.6,54,4.6,54,4.6,54.1c0,0.1,0,0.2,0.1,0.3
						l18.9,29.5c0.1,0.1,0.2,0.2,0.3,0.2c0.1,0,0.2,0,0.2,0l54.5-35c1-1.6,5.1-11.8,5.4-14.2l-3.6-5.6c-0.4-0.7-0.2-1.6,0.5-2.1
						c0.7-0.4,1.6-0.2,2.1,0.5l3.8,5.9c0.4,0.6,0.8,1.3-2.3,9.4c-3,7.8-3.7,8.2-4.1,8.5L25.7,86.6C25.2,86.9,24.6,87.1,24,87.1z"/>
				</g>
			</g>
		</g>
		<g>
			<path class="st1" d="M83.1,27.7l-10.8,6.9c0.4,2-0.4,4.1-2.1,5.2c-2.3,1.5-5.6,0.6-7.2-2c-1.7-2.6-1.1-5.9,1.2-7.4
				c1.7-1.1,3.9-0.9,5.5,0.2l10.8-6.9"/>
		</g>
		<g>
			<line class="st2" x1="67.6" y1="34.8" x2="87.9" y2="21.7"/>
			<path class="st1" d="M67.6,36.3c-0.5,0-1-0.2-1.3-0.7c-0.4-0.7-0.2-1.6,0.5-2.1l20.3-13.1c0.7-0.4,1.6-0.2,2.1,0.5
				c0.4,0.7,0.2,1.6-0.5,2.1L68.4,36.1C68.2,36.2,67.9,36.3,67.6,36.3z"/>
		</g>
	</g>
</g>
<g id="grille_page_entiere" class="st3">
</g>
<g id="grille">
</g>
<g id="grille_00000006698565383615086790000009053991052366827165_" class="st3">
</g>
</svg>
