<?xml version="1.0" encoding="utf-8"?>
<!-- Generator: Adobe Illustrator 22.0.1, SVG Export Plug-In . SVG Version: 6.00 Build 0)  -->
<svg version="1.1" xmlns="http://www.w3.org/2000/svg" xmlns:xlink="http://www.w3.org/1999/xlink" x="0px" y="0px"
	 viewBox="0 0 90.5 90.95319" enable-background="new 0 0 90.5 90.95319" xml:space="preserve">
<g id="Calque_1">
	<g>
		<g>
			<path fill="#1C1C1C" d="M88.64133,88.89866H2.37839c-0.79091,0-1.43259-0.64169-1.43259-1.43259V29.84925
				c0-0.79091,0.64168-1.43259,1.43259-1.43259h86.26294c0.79091,0,1.43259,0.64168,1.43259,1.43259v57.61682
				C90.07392,88.25697,89.43224,88.89866,88.64133,88.89866z M3.81098,86.03349h83.39777V31.28184H3.81098V86.03349z"/>
		</g>
		<g>
			<polygon fill="#E73C4D" points="36.08234,50.68915 36.08234,73.69781 56.35187,62.19348 			"/>
			<path fill="#1C1C1C" d="M36.0824,75.13053c-0.24902,0-0.49805-0.06528-0.72095-0.19492
				c-0.44022-0.25648-0.71163-0.72749-0.71163-1.23766V50.6889c0-0.51017,0.2714-0.98117,0.71163-1.23766
				c0.44115-0.25648,0.9849-0.25928,1.42792-0.00839l20.26979,11.50452c0.44862,0.25462,0.72562,0.73029,0.72562,1.24605
				c0,0.51577-0.277,0.99143-0.72562,1.24605L36.78937,74.944C36.57019,75.06805,36.32583,75.13053,36.0824,75.13053z
				 M37.51499,53.14929v18.08826l15.93472-9.04413L37.51499,53.14929z"/>
		</g>
		<g>
			<path fill="#1C1C1C" d="M88.47812,39.71227H2.54161c-0.79091,0-1.43259-0.64168-1.43259-1.43259
				c0-0.79091,0.64168-1.43259,1.43259-1.43259h85.93651c0.7909,0,1.43258,0.64168,1.43258,1.43259
				C89.9107,39.07059,89.26902,39.71227,88.47812,39.71227z"/>
		</g>
		<g>
			<circle fill="#1C1C1C" stroke="#1C1C1C" stroke-width="0" stroke-miterlimit="10" cx="7.03855" cy="34.1862" r="0.97655"/>
		</g>
		<g>
			<circle fill="#1C1C1C" stroke="#1C1C1C" stroke-width="0" stroke-miterlimit="10" cx="11.30654" cy="34.1862" r="0.97655"/>
		</g>
		<g>
			<circle fill="#1C1C1C" stroke="#1C1C1C" stroke-width="0" stroke-miterlimit="10" cx="15.57454" cy="34.1862" r="0.97655"/>
		</g>
	</g>
</g>
<g id="grille_page_entiere" display="none">
</g>
<g id="grille" display="none">
</g>
</svg>
