<?xml version="1.0" encoding="utf-8"?>
<!-- Generator: Adobe Illustrator 26.0.1, SVG Export Plug-In . SVG Version: 6.00 Build 0)  -->
<svg version="1.1" id="Calque_1" xmlns="http://www.w3.org/2000/svg" xmlns:xlink="http://www.w3.org/1999/xlink" x="0px" y="0px"
	 viewBox="0 0 90.5 91" style="enable-background:new 0 0 90.5 91;" xml:space="preserve">
<style type="text/css">
	.st0{fill:#000E51;}
	.st1{fill:#F03436;}
	.st2{display:none;}
</style>
<g id="Calque_1_00000058576386249690325610000016076224353714775473_">
	<g>
		<g>
			<path class="st0" d="M88.6,88.9H2.4c-0.8,0-1.4-0.6-1.4-1.4V29.8c0-0.8,0.6-1.4,1.4-1.4h86.3c0.8,0,1.4,0.6,1.4,1.4v57.6
				C90.1,88.3,89.4,88.9,88.6,88.9z M3.8,86h83.4V31.3H3.8V86z"/>
		</g>
		<g>
			<polygon class="st1" points="36.1,50.7 36.1,73.7 56.4,62.2 			"/>
			<path class="st0" d="M36.1,75.1c-0.2,0-0.5-0.1-0.7-0.2c-0.4-0.3-0.7-0.7-0.7-1.2v-23c0-0.5,0.3-1,0.7-1.2c0.4-0.3,1-0.3,1.4,0
				l20.3,11.5c0.4,0.3,0.7,0.7,0.7,1.2c0,0.5-0.3,1-0.7,1.2L36.8,74.9C36.6,75.1,36.3,75.1,36.1,75.1z M37.5,53.1v18.1l15.9-9
				L37.5,53.1z"/>
		</g>
		<g>
			<path class="st0" d="M88.5,39.7H2.5c-0.8,0-1.4-0.6-1.4-1.4s0.6-1.4,1.4-1.4h85.9c0.8,0,1.4,0.6,1.4,1.4
				C89.9,39.1,89.3,39.7,88.5,39.7z"/>
		</g>
		<g>
			<circle class="st0" cx="7" cy="34.2" r="1"/>
		</g>
		<g>
			<circle class="st0" cx="11.3" cy="34.2" r="1"/>
		</g>
		<g>
			<circle class="st0" cx="15.6" cy="34.2" r="1"/>
		</g>
	</g>
</g>
<g id="grille_page_entiere" class="st2">
</g>
<g id="grille" class="st2">
</g>
<g id="grille_00000006698565383615086790000009053991052366827165_" class="st2">
</g>
</svg>
