<?xml version="1.0" encoding="utf-8"?>
<!-- Generator: Adobe Illustrator 22.0.1, SVG Export Plug-In . SVG Version: 6.00 Build 0)  -->
<svg version="1.1" xmlns="http://www.w3.org/2000/svg" xmlns:xlink="http://www.w3.org/1999/xlink" x="0px" y="0px"
	 viewBox="0 0 90.5 86.95319" enable-background="new 0 0 90.5 86.95319" xml:space="preserve">
<g id="Calque_1">
	<g>
		<g>
			<g>
				<g>
					<path fill="#1C1C1C" d="M65.71719,79.97129H2.38885c-0.78595,0-1.42361-0.63766-1.42361-1.42361v-54.4827
						c0-0.78595,0.63766-1.42361,1.42361-1.42361h81.56927c0.78595,0,1.42361,0.63766,1.42361,1.42361v34.25559
						c0,0.78595-0.63766,1.42361-1.42361,1.42361c-0.78596,0-1.42361-0.63766-1.42361-1.42361V25.4886H3.81246v51.63548h61.90474
						c0.78595,0,1.42361,0.63766,1.42361,1.42361S66.50314,79.97129,65.71719,79.97129z"/>
				</g>
			</g>
			<g>
				<g>
					<path fill="#1C1C1C" d="M83.80426,33.46025H2.5427c-0.78595,0-1.42361-0.63766-1.42361-1.42361
						c0-0.78595,0.63766-1.42361,1.42361-1.42361h81.26156c0.78595,0,1.42361,0.63766,1.42361,1.42361
						C85.22787,32.82259,84.59021,33.46025,83.80426,33.46025z"/>
				</g>
			</g>
			<g>
				<g>
					<circle fill="#1C1C1C" stroke="#1C1C1C" stroke-width="0" stroke-miterlimit="10" cx="6.7955" cy="28.16664" r="0.92342"/>
				</g>
			</g>
			<g>
				<g>
					<circle fill="#1C1C1C" stroke="#1C1C1C" stroke-width="0" stroke-miterlimit="10" cx="10.83128" cy="28.16664" r="0.92342"/>
				</g>
			</g>
			<g>
				<g>
					<circle fill="#1C1C1C" stroke="#1C1C1C" stroke-width="0" stroke-miterlimit="10" cx="14.86706" cy="28.16664" r="0.92342"/>
				</g>
			</g>
		</g>
		<g>
			<g>
				<g>
					<path fill="#1C1C1C" d="M88.11216,84.6249c-0.40132,0-0.80078-0.16869-1.08161-0.49771L76.71958,72.09418
						c-0.51161-0.59688-0.44302-1.49498,0.15478-2.00658c0.59688-0.51439,1.49683-0.4421,2.00658,0.15478l10.31097,12.03302
						c0.51161,0.59688,0.44302,1.49497-0.15478,2.00658C88.76928,84.51275,88.43933,84.6249,88.11216,84.6249z"/>
				</g>
			</g>
			<g id="Calque_1_5_">
				<g>
					<g>
						<path fill="#E73C4D" d="M65.15929,56.88023l22.06602,11.06584l-9.18903,2.25258l-1.2112,0.29691l-0.47913,1.15139
							l-3.63469,8.73495L65.15929,56.88023 M61.01304,52.04107"/>
					</g>
					<g>
						<path fill="#1C1C1C" d="M72.71104,81.80549c-0.01946,0-0.03986,0-0.05932-0.00093
							c-0.59595-0.02502-1.11312-0.41892-1.29571-0.98707l-7.5518-23.5016c-0.1761-0.5459-0.00649-1.14371,0.42912-1.51629
							c0.43653-0.37351,1.05288-0.4458,1.56448-0.19185l22.06594,11.06541c0.53292,0.26785,0.84248,0.83878,0.77576,1.43195
							c-0.06673,0.59317-0.49586,1.08161-1.07513,1.22342l-9.70111,2.37824l-3.838,9.22194
							C73.80378,81.46163,73.28383,81.80549,72.71104,81.80549z M67.55139,59.67282l5.33112,16.59024l2.62849-6.31448
							c0.17425-0.41801,0.53571-0.72849,0.97595-0.83601l6.64258-1.62843L67.55139,59.67282z"/>
					</g>
				</g>
			</g>
		</g>
		<g>
			<g>
				<g>
					<path fill="#1C1C1C" d="M16.96591,53.13783v-0.87454l9.89986-6.94639v0.98371l-9.02532,6.34478v0.11034l9.02532,6.34362
						v0.98487L16.96591,53.13783z"/>
				</g>
				<g>
					<path fill="#1C1C1C" d="M26.86547,61.0334c-0.19185,0-0.38278-0.05839-0.54498-0.17239l-9.89946-6.94658
						c-0.25302-0.17702-0.4041-0.46712-0.4041-0.77668v-0.874c0-0.30956,0.15107-0.59966,0.4041-0.77668l9.89946-6.94658
						c0.28917-0.20298,0.6701-0.22893,0.98244-0.0658c0.31419,0.16405,0.51161,0.48844,0.51161,0.84249v0.98336
						c0,0.30863-0.15015,0.59873-0.40317,0.77668l-7.99946,5.62307l7.99946,5.62214
						c0.25302,0.17795,0.40317,0.46805,0.40317,0.77668v0.98522c0,0.35405-0.19741,0.67844-0.51161,0.84249
						C27.16576,60.99818,27.01561,61.0334,26.86547,61.0334z"/>
				</g>
			</g>
			<g>
				<g>
					<path fill="#1C1C1C" d="M40.81546,42.36343h0.93029l-8.91615,23.79265h-0.92913L40.81546,42.36343z"/>
				</g>
				<g>
					<path fill="#1C1C1C" d="M32.82961,67.10506h-0.92868c-0.31141,0-0.60244-0.15292-0.78039-0.40873
						c-0.17702-0.25581-0.2178-0.58205-0.10844-0.87308l8.91424-23.79262c0.13902-0.37073,0.49307-0.61634,0.88883-0.61634h0.93054
						c0.31141,0,0.60244,0.15293,0.78039,0.40873c0.17702,0.2558,0.2178,0.58205,0.10844,0.87307l-8.91609,23.79262
						C33.57941,66.85944,33.22536,67.10506,32.82961,67.10506z"/>
				</g>
			</g>
			<g>
				<g>
					<path fill="#1C1C1C" d="M46.78047,59.09935l9.02531-6.34362v-0.11034l-9.02531-6.34478v-0.98371l9.89986,6.94639v0.87454
						l-9.89986,6.94639V59.09935z"/>
				</g>
				<g>
					<path fill="#1C1C1C" d="M46.78023,61.0334c-0.15015,0-0.30029-0.03522-0.43746-0.10659
						c-0.31419-0.16405-0.51161-0.48844-0.51161-0.84249v-0.98522c0-0.30863,0.15015-0.59873,0.40317-0.77668l7.99946-5.62214
						l-7.99946-5.62307c-0.25302-0.17795-0.40317-0.46805-0.40317-0.77668v-0.98336c0-0.35405,0.19741-0.67844,0.51161-0.84249
						c0.31234-0.16312,0.69327-0.13717,0.98244,0.0658l9.90039,6.94658c0.25302,0.17702,0.40409,0.46712,0.40409,0.77668v0.874
						c0,0.30956-0.15107,0.59966-0.40409,0.77668l-9.90039,6.94658C47.16301,60.97501,46.97209,61.0334,46.78023,61.0334z"/>
				</g>
			</g>
		</g>
	</g>
</g>
<g id="grille_page_entiere" display="none">
</g>
<g id="grille" display="none">
</g>
</svg>
