<?xml version="1.0" encoding="utf-8"?>
<!-- Generator: Adobe Illustrator 26.0.1, SVG Export Plug-In . SVG Version: 6.00 Build 0)  -->
<svg version="1.1" id="Calque_1" xmlns="http://www.w3.org/2000/svg" xmlns:xlink="http://www.w3.org/1999/xlink" x="0px" y="0px"
	 viewBox="0 0 90.5 87" style="enable-background:new 0 0 90.5 87;" xml:space="preserve">
<style type="text/css">
	.st0{fill:#000E51;}
	.st1{fill:#F03436;}
	.st2{display:none;}
</style>
<g id="Calque_1_00000041995176248916039410000007441169062371420334_">
	<g>
		<g>
			<g>
				<g>
					<path class="st0" d="M65.7,80H2.4C1.6,80,1,79.3,1,78.5V24.1c0-0.8,0.6-1.4,1.4-1.4H84c0.8,0,1.4,0.6,1.4,1.4v34.3
						c0,0.8-0.6,1.4-1.4,1.4c-0.8,0-1.4-0.6-1.4-1.4V25.5H3.8v51.6h61.9c0.8,0,1.4,0.6,1.4,1.4S66.5,80,65.7,80z"/>
				</g>
			</g>
			<g>
				<g>
					<path class="st0" d="M83.8,33.5H2.5c-0.8,0-1.4-0.6-1.4-1.4s0.6-1.4,1.4-1.4h81.3c0.8,0,1.4,0.6,1.4,1.4S84.6,33.5,83.8,33.5z"
						/>
				</g>
			</g>
			<g>
				<g>
					<circle class="st0" cx="6.8" cy="28.2" r="0.9"/>
				</g>
			</g>
			<g>
				<g>
					<circle class="st0" cx="10.8" cy="28.2" r="0.9"/>
				</g>
			</g>
			<g>
				<g>
					<circle class="st0" cx="14.9" cy="28.2" r="0.9"/>
				</g>
			</g>
		</g>
		<g>
			<g>
				<g>
					<path class="st0" d="M88.1,84.6c-0.4,0-0.8-0.2-1.1-0.5l-10.3-12c-0.5-0.6-0.4-1.5,0.2-2c0.6-0.5,1.5-0.4,2,0.2l10.3,12
						c0.5,0.6,0.4,1.5-0.2,2C88.8,84.5,88.4,84.6,88.1,84.6z"/>
				</g>
			</g>
			<g id="Calque_1_5_">
				<g>
					<g>
						<path class="st1" d="M65.2,56.9l22.1,11.1L78,70.2l-1.2,0.3l-0.5,1.2l-3.6,8.7L65.2,56.9"/>
					</g>
					<g>
						<path class="st0" d="M72.7,81.8C72.7,81.8,72.7,81.8,72.7,81.8c-0.7,0-1.2-0.4-1.4-1l-7.6-23.5c-0.2-0.5,0-1.1,0.4-1.5
							c0.4-0.4,1.1-0.4,1.6-0.2l22.1,11.1c0.5,0.3,0.8,0.8,0.8,1.4s-0.5,1.1-1.1,1.2l-9.7,2.4L74,80.9
							C73.8,81.5,73.3,81.8,72.7,81.8z M67.6,59.7l5.3,16.6l2.6-6.3c0.2-0.4,0.5-0.7,1-0.8l6.6-1.6L67.6,59.7z"/>
					</g>
				</g>
			</g>
		</g>
		<g>
			<g>
				<g>
					<path class="st0" d="M17,53.1v-0.9l9.9-6.9v1l-9,6.3v0.1l9,6.3v1L17,53.1z"/>
				</g>
				<g>
					<path class="st0" d="M26.9,61c-0.2,0-0.4-0.1-0.5-0.2l-9.9-6.9c-0.3-0.2-0.4-0.5-0.4-0.8v-0.9c0-0.3,0.2-0.6,0.4-0.8l9.9-6.9
						c0.3-0.2,0.7-0.2,1-0.1c0.3,0.2,0.5,0.5,0.5,0.8v1c0,0.3-0.2,0.6-0.4,0.8l-8,5.6l8,5.6c0.3,0.2,0.4,0.5,0.4,0.8v1
						c0,0.4-0.2,0.7-0.5,0.8C27.2,61,27,61,26.9,61z"/>
				</g>
			</g>
			<g>
				<g>
					<path class="st0" d="M40.8,42.4h0.9l-8.9,23.8h-0.9L40.8,42.4z"/>
				</g>
				<g>
					<path class="st0" d="M32.8,67.1h-0.9c-0.3,0-0.6-0.2-0.8-0.4c-0.2-0.3-0.2-0.6-0.1-0.9L39.9,42c0.1-0.4,0.5-0.6,0.9-0.6h0.9
						c0.3,0,0.6,0.2,0.8,0.4c0.2,0.3,0.2,0.6,0.1,0.9l-8.9,23.8C33.6,66.9,33.2,67.1,32.8,67.1z"/>
				</g>
			</g>
			<g>
				<g>
					<path class="st0" d="M46.8,59.1l9-6.3v-0.1l-9-6.3v-1l9.9,6.9v0.9l-9.9,6.9V59.1z"/>
				</g>
				<g>
					<path class="st0" d="M46.8,61c-0.2,0-0.3,0-0.4-0.1c-0.3-0.2-0.5-0.5-0.5-0.8v-1c0-0.3,0.2-0.6,0.4-0.8l8-5.6l-8-5.6
						c-0.3-0.2-0.4-0.5-0.4-0.8v-1c0-0.4,0.2-0.7,0.5-0.8c0.3-0.2,0.7-0.1,1,0.1l9.9,6.9c0.3,0.2,0.4,0.5,0.4,0.8v0.9
						c0,0.3-0.2,0.6-0.4,0.8l-9.9,6.9C47.2,61,47,61,46.8,61z"/>
				</g>
			</g>
		</g>
	</g>
</g>
<g id="grille_page_entiere" class="st2">
</g>
<g id="grille" class="st2">
</g>
<g id="grille_00000006698565383615086790000009053991052366827165_" class="st2">
</g>
</svg>
