<?xml version="1.0" encoding="utf-8"?>
<!-- Generator: Adobe Illustrator 21.0.2, SVG Export Plug-In . SVG Version: 6.00 Build 0)  -->
<svg version="1.1" id="Calque_1" xmlns="http://www.w3.org/2000/svg" xmlns:xlink="http://www.w3.org/1999/xlink" x="0px" y="0px"
	 viewBox="0 0 450 185" style="enable-background:new 0 0 450 185;" xml:space="preserve">
<style type="text/css">
	.st0{fill:#FFFFFF;}
</style>
<g id="traits_construction">
</g>
<g id="espaces">
</g>
<g id="Calque_1_1_">
	<g>
		<path class="st0" d="M363,174.5v-12.2c0-1.5-0.3-2.6-1-3.4c-0.6-0.7-1.6-1.1-3-1.1c-1.8,0-3.1,0.5-3.9,1.5c-0.8,1-1.3,2.6-1.3,4.7
			v10.5H351v-12.2c0-1.5-0.3-2.6-1-3.4c-0.6-0.7-1.6-1.1-3-1.1c-1.8,0-3.1,0.5-3.9,1.6c-0.8,1.1-1.2,2.8-1.2,5.2v9.8h-2.8v-18.7h2.3
			l0.5,2.6h0.1c0.5-0.9,1.3-1.6,2.3-2.1c1-0.5,2.1-0.8,3.3-0.8c2.9,0,4.8,1.1,5.7,3.2h0.1c0.6-1,1.4-1.8,2.4-2.3
			c1.1-0.6,2.3-0.9,3.6-0.9c2.1,0,3.7,0.5,4.8,1.6c1.1,1.1,1.6,2.8,1.6,5.2v12.2H363z"/>
		<path class="st0" d="M381.3,174.8c-2.8,0-5-0.8-6.6-2.5c-1.6-1.7-2.4-4-2.4-7c0-3,0.7-5.4,2.2-7.2c1.5-1.8,3.5-2.7,6-2.7
			c2.3,0,4.2,0.8,5.6,2.3c1.4,1.5,2.1,3.6,2.1,6.1v1.8h-12.9c0.1,2.2,0.6,3.9,1.7,5c1.1,1.1,2.5,1.7,4.5,1.7c2,0,4-0.4,6-1.3v2.5
			c-1,0.4-2,0.7-2.8,0.9C383.6,174.7,382.6,174.8,381.3,174.8z M380.5,157.8c-1.5,0-2.7,0.5-3.6,1.5s-1.4,2.3-1.6,4.1h9.8
			c0-1.8-0.4-3.2-1.2-4.1C383.2,158.2,382,157.8,380.5,157.8z"/>
		<path class="st0" d="M407.5,171.9h-0.2c-1.3,1.9-3.3,2.9-5.9,2.9c-2.5,0-4.4-0.8-5.7-2.5c-1.4-1.7-2-4.1-2-7.1
			c0-3.1,0.7-5.5,2.1-7.2s3.3-2.6,5.7-2.6c2.5,0,4.5,0.9,5.8,2.8h0.2l-0.1-1.3l-0.1-1.3v-7.6h2.8v26.6h-2.3L407.5,171.9z
			 M401.9,172.4c1.9,0,3.3-0.5,4.2-1.6c0.9-1.1,1.3-2.8,1.3-5.1v-0.6c0-2.7-0.4-4.5-1.3-5.7s-2.3-1.7-4.2-1.7
			c-1.7,0-2.9,0.6-3.8,1.9c-0.9,1.3-1.3,3.1-1.3,5.5c0,2.4,0.4,4.2,1.3,5.4C398.9,171.8,400.2,172.4,401.9,172.4z"/>
		<path class="st0" d="M417.7,150.6c0-0.6,0.2-1.1,0.5-1.4c0.3-0.3,0.7-0.5,1.2-0.5c0.5,0,0.8,0.2,1.2,0.5c0.3,0.3,0.5,0.8,0.5,1.4
			s-0.2,1.1-0.5,1.4c-0.3,0.3-0.7,0.5-1.2,0.5c-0.5,0-0.9-0.2-1.2-0.5C417.9,151.8,417.7,151.3,417.7,150.6z M420.8,174.5H418v-18.7
			h2.8V174.5z"/>
		<path class="st0" d="M440.1,174.5l-0.6-2.7h-0.1c-0.9,1.2-1.9,2-2.8,2.4c-0.9,0.4-2.1,0.6-3.5,0.6c-1.9,0-3.3-0.5-4.4-1.4
			c-1.1-1-1.6-2.3-1.6-4.1c0-3.8,3-5.8,9.1-5.9l3.2-0.1v-1.2c0-1.5-0.3-2.6-0.9-3.3c-0.6-0.7-1.6-1.1-3-1.1c-1.6,0-3.3,0.5-5.3,1.4
			l-0.9-2.2c0.9-0.5,1.9-0.9,3-1.2c1.1-0.3,2.2-0.4,3.3-0.4c2.2,0,3.9,0.5,5,1.5c1.1,1,1.6,2.6,1.6,4.8v12.8H440.1z M433.7,172.5
			c1.8,0,3.2-0.5,4.2-1.5c1-1,1.5-2.3,1.5-4.1v-1.7l-2.8,0.1c-2.3,0.1-3.9,0.4-4.9,1.1c-1,0.6-1.5,1.6-1.5,2.9c0,1,0.3,1.8,0.9,2.3
			C431.7,172.2,432.6,172.5,433.7,172.5z"/>
	</g>
	<g>
		<polygon class="st0" points="44.5,140.2 12.6,140.2 12.6,13.9 44.5,13.9 44.5,8.6 12.6,8.6 7.3,8.6 7.3,13.9 7.3,140.2 7.3,145.5 
			12.6,145.5 44.5,145.5 		"/>
		<polygon class="st0" points="138.9,8.6 107,8.6 107,13.9 138.9,13.9 138.9,140.2 107,140.2 107,145.5 138.9,145.5 144.2,145.5 
			144.2,140.2 144.2,13.9 144.2,8.6 		"/>
	</g>
	<path class="st0" d="M75.4,53.7l20.6,49.1l-18.2-9.2l-2.4-1.2L73,93.6l-18.2,9.2L75.4,53.7 M75.4,39.9l-31.1,74.2l31.1-15.7
		l31.1,15.7L75.4,39.9L75.4,39.9z"/>
	<g>
		<path class="st0" d="M182.8,14.6v124.5h-7V14.6H182.8z M187.6,97.7L187.6,97.7l24.2-41.6h8.2L196,97.7l27.1,41.4h-8L187.6,97.7z"
			/>
		<path class="st0" d="M255.5,140.5c-11.5,0-24.5-15.2-24.5-42.9c0-27.7,12.3-43,24.5-43c12.2,0,24.5,15.3,24.5,43
			C280,125.3,267.2,140.5,255.5,140.5z M255.5,133.5c9.6,0,17-13.7,17-35.9s-7.5-36-17-36c-9.9,0-17,13.8-17,36
			S246.4,133.5,255.5,133.5z"/>
		<path class="st0" d="M287.8,139.1l35.8-76.4h-30.6v-6.6h41.3l-35.9,76.4h34.7v6.6H287.8z"/>
		<path class="st0" d="M388,99.6l-38.3-0.1l0.4,3.8c1.8,19.1,11.8,30.1,21.8,30.1c4.1,0,8-1.3,11-2.7l2.3,6.2c-4.2,2-9.8,3.6-15,3.6
			c-15.2,0-28.1-18.9-28.1-45.4c0-27.2,13.6-40.5,26.5-40.5C384.7,54.6,391.7,74.1,388,99.6z M368.4,61.7c-10.5,0-16.9,10.3-18.2,27
			l-0.3,4.3h31.6l0.4-5.5C382.4,71.1,377.5,61.7,368.4,61.7z"/>
		<path class="st0" d="M398.1,112.8c0-14.4,10.9-26.6,33.1-27.7l3.4-0.2c-0.2-17.3-6.3-23.3-16.5-23.3c-3.8,0-8.6,2-12.1,3.6
			l-2.4-7.1c5.4-2.1,11.9-3.5,16.3-3.5c13,0,21.8,8.6,21.8,24.8v58.8l-7.5-3.5l-1.7,1.4c-3.3,2.7-7.5,4.2-12.3,4.2
			C408.2,140.3,398.1,129.3,398.1,112.8z M434.6,127.2V92.1h-3.4c-14.2,0-25.6,5.2-25.6,22.4c0,11.7,6.9,18.7,16.2,18.7
			C427.2,133.3,431.4,130.4,434.6,127.2z"/>
	</g>
</g>
</svg>
