<?xml version="1.0" encoding="utf-8"?>
<!-- Generator: Adobe Illustrator 20.0.0, SVG Export Plug-In . SVG Version: 6.00 Build 0)  -->
<svg version="1.1" xmlns="http://www.w3.org/2000/svg" xmlns:xlink="http://www.w3.org/1999/xlink" x="0px" y="0px"
	 viewBox="0 0 450 185" enable-background="new 0 0 450 185" xml:space="preserve">
<g id="traits_construction">
</g>
<g id="espaces">
</g>
<g id="Calque_1">
	<g>
		<path fill="#E73C4D" d="M362.95996,174.45117v-12.18555c0-1.49219-0.31934-2.61133-0.95703-3.35742
			c-0.63867-0.74609-1.62988-1.11914-2.97461-1.11914c-1.76563,0-3.07031,0.50684-3.91309,1.52051
			c-0.84375,1.01367-1.26465,2.5752-1.26465,4.68262v10.45898h-2.83691v-12.18555c0-1.49219-0.31934-2.61133-0.95703-3.35742
			c-0.63867-0.74609-1.63477-1.11914-2.99121-1.11914c-1.77734,0-3.0791,0.53223-3.9043,1.59766
			c-0.82617,1.06543-1.23926,2.81055-1.23926,5.23828v9.82617h-2.83691V155.7207h2.30664l0.46191,2.56348h0.13672
			c0.53516-0.91113,1.29004-1.62305,2.26465-2.13574c0.97363-0.5127,2.06445-0.76953,3.27246-0.76953
			c2.92773,0,4.8418,1.05957,5.74219,3.17871h0.13672c0.55762-0.97949,1.36719-1.75391,2.42676-2.32422
			c1.05957-0.56934,2.2666-0.85449,3.62305-0.85449c2.11914,0,3.70508,0.54492,4.75977,1.63184
			c1.05371,1.08887,1.58008,2.82813,1.58008,5.22168v12.21875H362.95996z"/>
		<path fill="#E73C4D" d="M381.30273,174.79297c-2.76758,0-4.95313-0.84277-6.55371-2.5293
			c-1.60059-1.68555-2.40137-4.02734-2.40137-7.02344c0-3.01953,0.74414-5.41797,2.23047-7.19531
			c1.4873-1.77734,3.4834-2.66602,5.99023-2.66602c2.34668,0,4.2041,0.77246,5.57129,2.31543
			c1.36719,1.54492,2.05078,3.58105,2.05078,6.11035v1.79395h-12.90332c0.05762,2.19922,0.6123,3.86816,1.66699,5.00684
			c1.05371,1.13965,2.53809,1.70898,4.45215,1.70898c2.01563,0,4.00977-0.4209,5.98047-1.26367v2.5293
			c-1.00195,0.43262-1.95117,0.74316-2.84473,0.93066C383.64746,174.69922,382.56836,174.79297,381.30273,174.79297z
			 M380.53418,157.75488c-1.50391,0-2.70313,0.49023-3.59766,1.46973s-1.4209,2.33496-1.58105,4.06641h9.79297
			c0-1.78809-0.39941-3.1582-1.19629-4.10938C383.1543,158.23047,382.01465,157.75488,380.53418,157.75488z"/>
		<path fill="#E73C4D" d="M407.52637,171.93945h-0.15332c-1.31055,1.90234-3.27051,2.85352-5.87891,2.85352
			c-2.4502,0-4.35547-0.83789-5.7168-2.51172c-1.3623-1.67578-2.04297-4.05664-2.04297-7.14453
			c0-3.08691,0.68359-5.48535,2.05078-7.19434s3.27051-2.56348,5.70898-2.56348c2.54004,0,4.48828,0.92285,5.84375,2.76855h0.22266
			l-0.11914-1.34961l-0.06836-1.31641v-7.62207h2.83594v26.5918h-2.30664L407.52637,171.93945z M401.85254,172.41797
			c1.93652,0,3.34082-0.52734,4.21289-1.58105c0.87109-1.05371,1.30762-2.75391,1.30762-5.10156v-0.59863
			c0-2.6543-0.44238-4.54785-1.3252-5.68164s-2.29297-1.7002-4.22949-1.7002c-1.66406,0-2.93652,0.64648-3.81934,1.93945
			c-0.88379,1.29297-1.3252,3.11816-1.3252,5.47754c0,2.39258,0.43848,4.19824,1.31641,5.41699
			C398.86719,171.80859,400.1543,172.41797,401.85254,172.41797z"/>
		<path fill="#E73C4D" d="M417.73535,150.64551c0-0.64941,0.15918-1.125,0.47852-1.42773
			c0.31836-0.30078,0.71777-0.45215,1.19629-0.45215c0.45508,0,0.84863,0.15332,1.17969,0.46094
			c0.33008,0.30762,0.49512,0.78125,0.49512,1.41895s-0.16504,1.11328-0.49512,1.42676
			c-0.33105,0.31348-0.72461,0.46973-1.17969,0.46973c-0.47852,0-0.87793-0.15625-1.19629-0.46973
			C417.89453,151.75879,417.73535,151.2832,417.73535,150.64551z M420.81152,174.45117h-2.83691V155.7207h2.83691V174.45117z"/>
		<path fill="#E73C4D" d="M440.0957,174.45117l-0.56348-2.66602h-0.13672c-0.93457,1.17383-1.86621,1.96875-2.79492,2.38379
			c-0.92871,0.41602-2.08789,0.62402-3.47754,0.62402c-1.85742,0-3.3125-0.47852-4.36621-1.43555
			c-1.05469-0.95703-1.58105-2.31836-1.58105-4.08398c0-3.7832,3.02441-5.76563,9.0752-5.94727l3.17773-0.10352v-1.16211
			c0-1.46875-0.31543-2.55469-0.94824-3.25488c-0.63184-0.70117-1.64355-1.05078-3.0332-1.05078
			c-1.56152,0-3.32715,0.47852-5.29785,1.43555l-0.87109-2.1709c0.92188-0.50098,1.93359-0.89355,3.0332-1.17871
			c1.09863-0.28516,2.20117-0.42773,3.30664-0.42773c2.23242,0,3.8877,0.49609,4.96484,1.4873
			c1.07617,0.99121,1.61523,2.58008,1.61523,4.76758v12.7832H440.0957z M433.68652,172.45117
			c1.7666,0,3.15332-0.4834,4.16211-1.45215c1.00781-0.96777,1.51172-2.32422,1.51172-4.06738v-1.69141l-2.83594,0.11914
			c-2.25586,0.08008-3.88281,0.43066-4.87988,1.05078c-0.99707,0.62109-1.49512,1.58691-1.49512,2.89648
			c0,1.02539,0.31055,1.80664,0.93164,2.3418C431.70117,172.18457,432.57031,172.45117,433.68652,172.45117z"/>
	</g>
	<g>
		<polygon fill="#E73C4D" points="44.49714,140.20088 12.62548,140.20088 12.62548,13.93889 44.49714,13.93889 44.49714,8.6144 
			12.62548,8.6144 7.30085,8.6144 7.30085,13.93889 7.30085,140.20088 7.30085,145.52551 12.62548,145.52551 44.49714,145.52551 		
			"/>
		<polygon fill="#E73C4D" points="138.88734,8.6144 107.03423,8.6144 107.03423,13.93889 138.88734,13.93889 138.88734,140.20088 
			107.03423,140.20088 107.03423,145.52551 138.88734,145.52551 144.21198,145.52551 144.21198,140.20088 144.21198,13.93889 
			144.21198,8.6144 		"/>
	</g>
	<path fill="#E73C4D" d="M75.42507,53.69461l20.62592,49.12382l-18.22387-9.2122l-2.40205-1.21426l-2.40219,1.21426
		l-18.2236,9.21217L75.42507,53.69461 M75.42507,39.94079l-31.13665,74.15717l31.13665-15.73979l31.13679,15.73979
		L75.42507,39.94079L75.42507,39.94079z"/>
	<g>
		<path fill="#1C1C1C" d="M182.79062,14.60576V139.1131h-7.03363V14.60576H182.79062z M187.55902,97.68859h0.07793
			l24.07269-41.58038h8.20676l-23.91682,41.58038l27.12138,41.42451h-7.97192L187.55902,97.68859z"/>
		<path fill="#1C1C1C" d="M255.48354,140.52003c-11.49757,0-24.54236-15.24142-24.54236-42.90938
			c0-27.66899,12.34651-42.98731,24.54236-42.98731c12.19273,0,24.54134,15.31832,24.54134,42.98731
			C280.02487,125.27861,267.20764,140.52003,255.48354,140.52003z M255.48354,133.48537
			c9.55135,0,17.03908-13.67759,17.03908-35.87471s-7.50436-35.95369-17.03908-35.95369
			c-9.86827,0-17.03906,13.75657-17.03906,35.95369S246.38939,133.48537,255.48354,133.48537z"/>
		<path fill="#1C1C1C" d="M287.84613,139.1131l35.79675-76.4399h-30.56076v-6.56499h41.26865l-35.87576,76.4399h34.70364v6.56499
			H287.84613z"/>
		<path fill="#1C1C1C" d="M387.97113,99.64313l-38.29788-0.07897l0.39069,3.8301
			c1.79764,19.07049,11.80203,30.09111,21.80643,30.09111c4.06494,0,7.97296-1.25003,11.02063-2.73489l2.34525,6.1743
			c-4.22083,2.03247-9.84854,3.59526-15.00659,3.59526c-15.16351,0-28.05969-18.91462-28.05969-45.41048
			c0-27.19932,13.59964-40.48621,26.49585-40.48621C384.6907,54.62334,391.7233,74.08453,387.97113,99.64313z M368.35303,61.65697
			c-10.47302,0-16.88217,10.31717-18.21115,27.04346l-0.31174,4.29873h31.57599l0.39069-5.5498
			C382.42236,71.11481,377.49808,61.65697,368.35303,61.65697z"/>
		<path fill="#1C1C1C" d="M398.13657,112.77312c0-14.38106,10.94272-26.57379,33.13983-27.66795l3.36041-0.15691
			c-0.15585-17.27285-6.25223-23.29129-16.49146-23.29129c-3.83008,0-8.59744,1.95454-12.11478,3.59526l-2.42319-7.11259
			c5.39395-2.1104,11.88101-3.5163,16.25766-3.5163c12.97415,0,21.80643,8.59747,21.80643,24.77615v58.77531l-7.5033-3.5163
			l-1.7197,1.4059c-3.2825,2.658-7.5033,4.22079-12.27066,4.22079C408.2189,140.2852,398.13657,129.26561,398.13657,112.77312z
			 M434.63681,127.23315V92.13983h-3.43835c-14.22519,0-25.55859,5.23495-25.55859,22.43092
			c0,11.7241,6.87778,18.68082,16.17871,18.68082C427.19897,133.25157,431.42395,130.44603,434.63681,127.23315z"/>
	</g>
</g>
</svg>
